<?xml version="1.0" encoding="utf-8"?>
<!-- Generator: Adobe Illustrator 25.2.1, SVG Export Plug-In . SVG Version: 6.00 Build 0)  -->
<svg version="1.1" id="Layer_1" xmlns="http://www.w3.org/2000/svg" xmlns:xlink="http://www.w3.org/1999/xlink" x="0px" y="0px"
	 viewBox="0 0 1089 900" style="enable-background:new 0 0 1089 900;" xml:space="preserve">
<style type="text/css">
	.st0{opacity:0.5;filter:url(#gBlur);enable-background:new    ;}
	.st1{fill:#FFFFFF;}
	.st2{opacity:0.5;fill:#F6BE81;enable-background:new    ;}
	.st3{enable-background:new    ;}
	.st4{fill:#E47E20;}
	.st5{fill:#2BA297;}
	.st6{filter:url(#sofGlowLetters);}
</style>
<filter  height="300%" id="sofGlowLetters" width="300%" x="-75%" y="-75%">
	<!--  Thicken out the original shape  -->
	<feMorphology  in="SourceAlpha" operator="dilate" radius="4" result="thicken"></feMorphology>
	<!--  Use a gaussian blur to create the soft blurriness of the glow  -->
	<feGaussianBlur  in="thicken" result="blurred" stdDeviation="10"></feGaussianBlur>
	<!--  Change the colour  -->
	<feFlood  flood-color="rgb(255, 255, 255)" result="glowColor"></feFlood>
	<!--  Color in the glows  -->
	<feComposite  in="glowColor" in2="blurred" operator="in" result="softGlow_colored"></feComposite>
	<!-- 	Layer the effects together  -->
	<feMerge>
		<feMergeNode  in="softGlow_colored"></feMergeNode>
		<feMergeNode  in="SourceGraphic"></feMergeNode>
	</feMerge>
</filter>
<filter  id="gBlur" x="0" y="0">
	<feGaussianBlur  in="SourceGraphic"  operator="dilate" stdDeviation="15"></feGaussianBlur>
</filter>
<g>
	<g class="st0">

			<ellipse transform="matrix(0.1491 -0.9888 0.9888 0.1491 12.8881 915.8833)" class="st1" cx="538.6" cy="450.5" rx="157" ry="350.5"/>
	</g>
	<g>
		<g id="_5">
			<path class="st2" d="M354.3,406.9v88.7c0,0,15.5-11.5,37.7-9.8c17.9,1.4,24.6,19,24.6,34.2c0,10.3-7.8,27.9-27.5,27.9
				c-20.7,0-31.7-12.3-31.7-12.3l-14.2,21.1c0,0,17,16.4,43.4,16.4c20.5,0,27.3-3.3,37.7-11.5c17.6-13.9,26.4-44.6,12.5-72.5
				c-4.5-9-12.7-21.1-26.6-24.6c-12-3-32.6-0.6-32.6-0.6v-31.2h56.2l-0.2-25.8L354.3,406.9L354.3,406.9z"/>
			<g class="st3">
				<path class="st4" d="M378.9,572.3c-1.1,0-2.4,0-3.5-0.1c-21.3-1-47.2-20-47.2-20l-0.3-3.3l19.8-28.9l3.1,2.6
					c0.1,0.1,13.7,11.4,27.5,12.1c6.5,0.3,11.9-1.6,16.1-5.8c5.3-5.1,7.6-12.6,7.6-17.8c0-4.2-1-25.7-21.1-27.2
					c-20.7-1.6-35.4,9-35.5,9.1l-5.8,0.2v-98.8h89.7l0.2,36.3h-57v20.4c6.2-0.3,18.2-0.7,27.3,0.9c13.1,2.4,27.7,17,33.5,26.3
					c16.3,26.1,7.3,63.5-11.3,78.2C412.5,564,399.1,572.3,378.9,572.3z M336.4,549.2c6.7,4.5,24.1,15.2,39.3,15.9
					c19.7,0.9,32.2-6.7,41.8-14.2c16-12.6,23.9-46.1,9.7-68.7c-5.2-8.2-18.4-21.1-28.7-23c-11.5-2.1-29.2-0.5-29.4-0.5l-3.9,0.3
					v-35.6h57l-0.1-21.9h-75.3v82.1c6.8-3.5,19.2-8.2,34.5-7c20.5,1.6,27.7,19.6,27.7,34.4c0,6.2-2.6,16-9.9,23
					c-5.7,5.4-13,8-21.4,7.7c-12.1-0.5-23.4-7.5-28.8-11.3L336.4,549.2z"/>
			</g>
		</g>
		<g>
			<rect id="greenRect" x="462.9" y="485.6" class="st5" width="434.4" height="82.5"/>
			<g id="IT_ONLY_TAKES" class="st6">
				<path class="st5" d="M342.3,344h5.5v27.9h-5.5Z"/>
				<path class="st5" d="M353.2,344H372v5.3h-6.8v22.6h-5.5V349.3h-6.5Z"/>
				<path class="st5" d="M387,344h18.8v5.3H399v22.6h-5.5V349.3H387Z"/>
				<path class="st5" d="M405.7,372l12.6-29h.3l12.6,29h-6.4l-8-20.4,4-2.7-9.6,23.2L405.7,372Zm8.7-10.1h8.4l1.9,4.6h-12Z"/>
				<path class="st5" d="M440.9,354l-.2,1.4.8-1.1,9.1-10.3h7.1l-11.5,12.5,11.6,15.4h-7L442.2,360l-1.4,1.4V372h-5.6V344h5.6v9.9H440.9Z"/>
				<path class="st5" d="M462.1,344h19.1v5.3H467.6v6h12v5.3h-12v6h14.1v5.3H462.1Z"/>
				<path class="st5" d="M502.2,350.8a14.83543,14.83543,0,0,0-3.2-1.4,8.948,8.948,0,0,0-3.1-.6,4.65409,4.65409,0,0,0-2.8.7,2.459,2.459,0,0,0-1,2.2,2.68836,2.68836,0,0,0,.8,1.8,7.84451,7.84451,0,0,0,2,1.4,20.29544,20.29544,0,0,0,2.6,1.1,25.5746,25.5746,0,0,1,2.4,1.1,6.52335,6.52335,0,0,1,2.1,1.6,7.6358,7.6358,0,0,1,1.5,2.3,8.61861,8.61861,0,0,1,.6,3.4,7.65516,7.65516,0,0,1-1.1,3.9,7.54594,7.54594,0,0,1-3.2,2.9,11.74715,11.74715,0,0,1-5.2,1.1,17.33158,17.33158,0,0,1-3.2-.3,11.91013,11.91013,0,0,1-3.2-1,13.44832,13.44832,0,0,1-3.1-1.7l2.4-4.3a23.93092,23.93092,0,0,0,2.1,1.3,13.56454,13.56454,0,0,0,2.3.9,8.91755,8.91755,0,0,0,2.2.3,6.92991,6.92991,0,0,0,2-.3,3.66911,3.66911,0,0,0,1.7-1,2.93505,2.93505,0,0,0,.7-1.9,2.45631,2.45631,0,0,0-.5-1.5,6.391,6.391,0,0,0-1.5-1.3,12.44373,12.44373,0,0,0-2-1c-.9-.3-1.7-.7-2.7-1.1a13.98686,13.98686,0,0,1-2.6-1.6,6.68857,6.68857,0,0,1-2.6-5.7,8.20737,8.20737,0,0,1,1.1-4.2,7.07278,7.07278,0,0,1,3.1-2.8,10.76227,10.76227,0,0,1,4.6-1.2,16.41092,16.41092,0,0,1,5.5.8,19.25826,19.25826,0,0,1,3.8,1.9Z"/>
			</g>
			<g id="TO_SHARE_YOUR">
				<path class="st1" d="M577.8,494.6h11.9v3.4h-4.3v14.4h-3.5V498h-4.1L577.8,494.6L577.8,494.6z"/>
				<path class="st1" d="M591.5,503.5c0-1.2,0.2-2.4,0.7-3.5s1.1-2.1,1.9-2.9s1.8-1.5,2.9-2c1.1-0.5,2.3-0.7,3.5-0.7
					s2.4,0.2,3.5,0.7s2.1,1.1,2.9,2c0.8,0.8,1.5,1.8,2,2.9s0.7,2.2,0.7,3.5s-0.2,2.4-0.7,3.5s-1.1,2.1-2,2.9
					c-0.8,0.8-1.8,1.5-2.9,1.9c-1.1,0.5-2.3,0.7-3.5,0.7c-1.3,0-2.4-0.2-3.5-0.7s-2.1-1.1-2.9-1.9s-1.5-1.8-1.9-2.9
					S591.5,504.7,591.5,503.5z M595.1,503.5c0,0.8,0.1,1.5,0.4,2.2s0.7,1.3,1.2,1.8s1.1,0.9,1.8,1.2c0.7,0.3,1.4,0.4,2.2,0.4
					s1.5-0.1,2.1-0.4s1.2-0.7,1.7-1.2s0.9-1.1,1.1-1.8c0.3-0.7,0.4-1.4,0.4-2.2c0-0.8-0.1-1.5-0.4-2.2s-0.7-1.3-1.2-1.8
					s-1.1-0.9-1.7-1.2c-0.6-0.3-1.4-0.4-2.1-0.4c-0.8,0-1.5,0.1-2.1,0.4c-0.7,0.3-1.2,0.7-1.7,1.2s-0.9,1.1-1.2,1.8
					C595.2,501.9,595.1,502.7,595.1,503.5z"/>
				<path class="st1" d="M630.4,498.9c-0.7-0.4-1.4-0.7-2.1-0.9c-0.7-0.2-1.4-0.4-2-0.4c-0.8,0-1.3,0.2-1.8,0.5
					c-0.4,0.3-0.7,0.8-0.7,1.4c0,0.4,0.2,0.8,0.5,1.1c0.3,0.3,0.8,0.6,1.3,0.9s1.1,0.5,1.6,0.7s1,0.4,1.5,0.7s1,0.6,1.4,1
					s0.7,0.9,1,1.5c0.2,0.6,0.4,1.3,0.4,2.2c0,0.9-0.2,1.7-0.7,2.5s-1.1,1.4-2,1.9c-0.9,0.5-2,0.7-3.3,0.7c-0.7,0-1.4-0.1-2.1-0.2
					c-0.7-0.1-1.4-0.3-2.1-0.6c-0.7-0.3-1.3-0.6-2-1.1l1.5-2.7c0.4,0.3,0.9,0.6,1.4,0.8c0.5,0.2,1,0.4,1.5,0.5s1,0.2,1.4,0.2
					s0.8-0.1,1.3-0.2c0.4-0.1,0.8-0.3,1.1-0.6c0.3-0.3,0.4-0.7,0.4-1.2c0-0.4-0.1-0.7-0.3-1s-0.5-0.6-0.9-0.8
					c-0.4-0.2-0.8-0.4-1.3-0.6s-1.1-0.4-1.7-0.7c-0.6-0.3-1.1-0.6-1.6-1s-0.9-0.9-1.2-1.5s-0.5-1.3-0.5-2.2c0-1,0.2-1.9,0.7-2.7
					s1.1-1.4,1.9-1.8s1.8-0.7,2.9-0.7c1.4,0,2.6,0.2,3.5,0.5s1.7,0.7,2.4,1.2L630.4,498.9z"/>
				<path class="st1" d="M649.9,494.6v17.7h-3.5v-7.2h-7.9v7.2H635v-17.7h3.5v7.2h7.9v-7.2L649.9,494.6L649.9,494.6z"/>
				<path class="st1" d="M652.4,512.3l8-18.4h0.2l8,18.4h-4l-5.1-13l2.5-1.7l-6.1,14.7H652.4z M657.9,505.9h5.3l1.2,2.9h-7.6
					L657.9,505.9z"/>
				<path class="st1" d="M676.6,494.6c1.1,0,2.1,0.1,3,0.4s1.6,0.7,2.2,1.2c0.6,0.5,1,1.1,1.3,1.9c0.3,0.7,0.5,1.6,0.5,2.5
					c0,0.7-0.1,1.4-0.3,2.2c-0.2,0.8-0.6,1.4-1.1,2s-1.1,1.1-1.9,1.4c-0.8,0.4-1.8,0.5-3,0.5h-2.5v5.6h-3.5v-17.7L676.6,494.6
					L676.6,494.6z M677.2,503.3c0.5,0,1-0.1,1.3-0.3c0.4-0.2,0.6-0.4,0.8-0.7c0.2-0.3,0.3-0.6,0.4-0.9c0.1-0.3,0.1-0.6,0.1-0.8
					c0-0.2,0-0.4-0.1-0.7c-0.1-0.3-0.2-0.6-0.3-0.9s-0.4-0.6-0.8-0.8c-0.4-0.2-0.8-0.3-1.5-0.3h-2.5v5.3L677.2,503.3L677.2,503.3z
					 M680.5,505.5l4.4,6.8h-4.1l-4.5-6.7L680.5,505.5z"/>
				<path class="st1" d="M687.7,494.6h12.1v3.4h-8.6v3.8h7.6v3.4h-7.6v3.8h8.9v3.4h-12.4V494.6z"/>
				<path class="st1" d="M716.2,506.8l-6.5-12.2h4.3l4.6,9.2l-1,0.1l4.5-9.3h4.3l-6.6,12.2v5.5h-3.5L716.2,506.8L716.2,506.8z"/>
				<path class="st1" d="M726.1,503.5c0-1.2,0.2-2.4,0.7-3.5s1.1-2.1,1.9-2.9s1.8-1.5,2.9-2c1.1-0.5,2.3-0.7,3.5-0.7
					s2.4,0.2,3.5,0.7s2.1,1.1,2.9,2c0.8,0.8,1.5,1.8,2,2.9s0.7,2.2,0.7,3.5s-0.2,2.4-0.7,3.5s-1.1,2.1-2,2.9
					c-0.8,0.8-1.8,1.5-2.9,1.9c-1.1,0.5-2.3,0.7-3.5,0.7c-1.3,0-2.4-0.2-3.5-0.7s-2.1-1.1-2.9-1.9s-1.5-1.8-1.9-2.9
					C726.3,505.9,726.1,504.7,726.1,503.5z M729.7,503.5c0,0.8,0.1,1.5,0.4,2.2s0.7,1.3,1.2,1.8s1.1,0.9,1.8,1.2
					c0.7,0.3,1.4,0.4,2.2,0.4s1.5-0.1,2.1-0.4s1.2-0.7,1.7-1.2s0.9-1.1,1.1-1.8c0.3-0.7,0.4-1.4,0.4-2.2c0-0.8-0.1-1.5-0.4-2.2
					s-0.7-1.3-1.2-1.8s-1.1-0.9-1.7-1.2c-0.6-0.3-1.4-0.4-2.1-0.4s-1.5,0.1-2.1,0.4c-0.7,0.3-1.2,0.7-1.7,1.2s-0.9,1.1-1.2,1.8
					C729.8,501.9,729.7,502.7,729.7,503.5z"/>
				<path class="st1" d="M750.8,505.8c0,0.6,0.2,1.1,0.5,1.6s0.8,0.9,1.3,1.3s1.2,0.5,1.8,0.5c0.7,0,1.4-0.2,1.9-0.5
					c0.6-0.3,1-0.7,1.3-1.3c0.3-0.5,0.5-1.1,0.5-1.6v-11.2h3.4v11.2c0,1.3-0.3,2.5-1,3.5c-0.6,1-1.5,1.8-2.6,2.4s-2.3,0.9-3.6,0.9
					s-2.5-0.3-3.6-0.9s-1.9-1.4-2.6-2.4c-0.6-1-1-2.2-1-3.5v-11.2h3.5v11.2H750.8z"/>
				<path class="st1" d="M771.3,494.6c1.1,0,2.1,0.1,3,0.4s1.6,0.7,2.2,1.2c0.6,0.5,1,1.1,1.3,1.9c0.3,0.7,0.5,1.6,0.5,2.5
					c0,0.7-0.1,1.4-0.3,2.2c-0.2,0.8-0.6,1.4-1.1,2s-1.1,1.1-1.9,1.4c-0.8,0.4-1.8,0.5-3,0.5h-2.5v5.6H766v-17.7L771.3,494.6
					L771.3,494.6z M771.9,503.3c0.5,0,1-0.1,1.3-0.3c0.4-0.2,0.6-0.4,0.8-0.7c0.2-0.3,0.3-0.6,0.4-0.9c0.1-0.3,0.1-0.6,0.1-0.8
					c0-0.2,0-0.4-0.1-0.7c-0.1-0.3-0.2-0.6-0.3-0.9s-0.4-0.6-0.8-0.8c-0.4-0.2-0.8-0.3-1.5-0.3h-2.5v5.3L771.9,503.3L771.9,503.3z
					 M775.2,505.5l4.4,6.8h-4.1l-4.5-6.7L775.2,505.5z"/>
			</g>
			<g id="FAVORITE_SONG">
				<path class="st1" d="M500.6,524.1h20.2v6.2h-13.9v7.3h12v6.2h-12v12.7h-6.4L500.6,524.1L500.6,524.1z"/>
				<path class="st1" d="M520.3,556.5l14.6-33.6h0.4l14.6,33.6h-7.4l-9.3-23.7l4.6-3.2l-11.2,26.9H520.3z M530.2,544.8h9.7l2.2,5.4
					h-13.9L530.2,544.8z"/>
				<path class="st1" d="M554.6,524.1l9.5,23.3l-3.7-0.7l8.6-22.6h7.6L561.8,558L547,524.1H554.6L554.6,524.1z"/>
				<path class="st1" d="M577.9,540.3c0-2.2,0.4-4.3,1.3-6.3c0.9-2,2-3.8,3.5-5.3s3.3-2.7,5.3-3.6c2-0.9,4.1-1.3,6.4-1.3
					s4.4,0.4,6.4,1.3c2,0.9,3.8,2.1,5.3,3.6s2.7,3.3,3.6,5.3c0.9,2,1.3,4.1,1.3,6.3c0,2.3-0.4,4.4-1.3,6.4c-0.9,2-2.1,3.7-3.6,5.3
					c-1.5,1.5-3.3,2.7-5.3,3.5c-2,0.9-4.1,1.3-6.4,1.3s-4.4-0.4-6.4-1.3c-2-0.8-3.7-2-5.3-3.5c-1.5-1.5-2.7-3.3-3.5-5.3
					C578.3,544.8,577.9,542.6,577.9,540.3z M584.5,540.3c0,1.4,0.3,2.8,0.8,4s1.2,2.3,2.2,3.3c0.9,1,2,1.7,3.2,2.2s2.5,0.8,4,0.8
					c1.4,0,2.7-0.3,3.8-0.8c1.2-0.5,2.2-1.3,3.1-2.2c0.9-1,1.6-2.1,2.1-3.3s0.7-2.6,0.7-4c0-1.5-0.3-2.8-0.8-4.1s-1.2-2.4-2.1-3.3
					c-0.9-1-1.9-1.7-3.1-2.2s-2.5-0.8-3.9-0.8s-2.7,0.3-3.9,0.8s-2.3,1.3-3.2,2.2c-0.9,1-1.6,2.1-2.1,3.3
					C584.7,537.5,584.5,538.9,584.5,540.3z"/>
				<path class="st1" d="M627.2,524.1c2,0,3.8,0.3,5.4,0.8c1.6,0.5,2.9,1.2,4,2.2s1.9,2.1,2.4,3.4c0.6,1.3,0.8,2.8,0.8,4.5
					c0,1.3-0.2,2.6-0.6,4c-0.4,1.3-1,2.5-1.9,3.6s-2.1,2-3.5,2.6c-1.5,0.7-3.3,1-5.5,1h-4.6v10.3h-6.4v-32.4L627.2,524.1
					L627.2,524.1z M628.3,540c1,0,1.8-0.2,2.4-0.5c0.6-0.3,1.2-0.7,1.5-1.2c0.4-0.5,0.6-1,0.8-1.6c0.2-0.5,0.2-1,0.2-1.5
					c0-0.4-0.1-0.8-0.2-1.3c-0.1-0.5-0.3-1.1-0.6-1.6c-0.3-0.6-0.8-1-1.5-1.4s-1.5-0.6-2.7-0.6h-4.6v9.8L628.3,540L628.3,540z
					 M634.2,544l8,12.5h-7.4l-8.2-12.3L634.2,544z"/>
				<path class="st1" d="M647.5,524.1h6.4v32.4h-6.4V524.1z"/>
				<path class="st1" d="M660.1,524.1h21.8v6.2H674v26.2h-6.4v-26.2h-7.5V524.1z"/>
				<path class="st1" d="M688,524.1h22.1v6.2h-15.7v6.9h13.9v6.2h-13.9v7h16.3v6.2H688V524.1L688,524.1z"/>
				<path class="st1" d="M748.9,531.9c-1.2-0.7-2.5-1.2-3.8-1.7c-1.3-0.4-2.5-0.7-3.6-0.7c-1.4,0-2.5,0.3-3.3,0.8
					c-0.8,0.6-1.2,1.4-1.2,2.5c0,0.8,0.3,1.4,0.9,2c0.6,0.6,1.4,1.1,2.3,1.6c1,0.5,1.9,0.9,3,1.3c0.9,0.4,1.9,0.8,2.8,1.3
					c0.9,0.5,1.8,1.1,2.5,1.8s1.3,1.6,1.8,2.7c0.4,1.1,0.7,2.4,0.7,3.9c0,1.6-0.4,3.2-1.3,4.6c-0.9,1.4-2.1,2.5-3.7,3.4
					c-1.6,0.9-3.7,1.3-6.1,1.3c-1.2,0-2.5-0.1-3.8-0.4c-1.3-0.2-2.5-0.6-3.8-1.1c-1.2-0.5-2.4-1.2-3.6-2l2.8-5
					c0.8,0.6,1.6,1,2.5,1.5c0.9,0.4,1.8,0.8,2.7,1s1.7,0.4,2.5,0.4s1.5-0.1,2.3-0.3s1.4-0.6,1.9-1.1s0.8-1.3,0.8-2.2
					c0-0.6-0.2-1.2-0.6-1.8c-0.4-0.5-1-1-1.7-1.5c-0.7-0.4-1.5-0.8-2.4-1.1c-1-0.4-2-0.8-3.1-1.3s-2-1.1-3-1.8
					c-0.9-0.7-1.7-1.6-2.2-2.7c-0.6-1.1-0.9-2.4-0.9-3.9c0-1.9,0.4-3.5,1.3-4.9c0.8-1.4,2-2.5,3.5-3.3s3.3-1.3,5.3-1.3
					c2.6,0,4.7,0.3,6.4,0.9c1.6,0.6,3.1,1.3,4.4,2.2L748.9,531.9z"/>
				<path class="st1" d="M755.3,540.3c0-2.2,0.4-4.3,1.3-6.3c0.9-2,2-3.8,3.5-5.3s3.3-2.7,5.3-3.6c2-0.9,4.1-1.3,6.4-1.3
					s4.4,0.4,6.4,1.3c2,0.9,3.8,2.1,5.3,3.6s2.7,3.3,3.6,5.3c0.9,2,1.3,4.1,1.3,6.3c0,2.3-0.4,4.4-1.3,6.4c-0.9,2-2.1,3.7-3.6,5.3
					c-1.5,1.5-3.3,2.7-5.3,3.5c-2,0.9-4.1,1.3-6.4,1.3s-4.4-0.4-6.4-1.3c-2-0.8-3.7-2-5.3-3.5c-1.5-1.5-2.7-3.3-3.5-5.3
					S755.3,542.6,755.3,540.3z M761.9,540.3c0,1.4,0.3,2.8,0.8,4s1.2,2.3,2.2,3.3c0.9,1,2,1.7,3.2,2.2s2.5,0.8,4,0.8
					c1.4,0,2.7-0.3,3.8-0.8c1.2-0.5,2.2-1.3,3.1-2.2c0.9-1,1.6-2.1,2.1-3.3s0.7-2.6,0.7-4c0-1.5-0.3-2.8-0.8-4.1s-1.2-2.4-2.1-3.3
					c-0.9-1-1.9-1.7-3.1-2.2s-2.5-0.8-3.9-0.8s-2.7,0.3-3.9,0.8s-2.3,1.3-3.2,2.2c-0.9,1-1.6,2.1-2.1,3.3
					C762.1,537.5,761.9,538.9,761.9,540.3z"/>
				<path class="st1" d="M823.7,557.8l-24.5-22.2l1.9,1.1l0.1,19.8h-6.5v-33.6h0.3l24,22.1l-1.4-0.6l-0.1-20.2h6.4v33.7L823.7,557.8
					L823.7,557.8z"/>
				<path class="st1" d="M858.5,553.2c-0.4,0.4-1,0.8-1.8,1.3c-0.8,0.4-1.8,0.8-2.8,1.2c-1.1,0.4-2.2,0.6-3.3,0.9
					c-1.1,0.2-2.2,0.3-3.2,0.3c-2.6,0-5-0.4-7.1-1.2s-3.9-1.9-5.4-3.3c-1.5-1.4-2.6-3-3.4-4.9c-0.8-1.9-1.2-4-1.2-6.2
					c0-3,0.4-5.5,1.3-7.7c0.9-2.2,2.1-4,3.7-5.5c1.5-1.5,3.3-2.5,5.3-3.2s4.1-1.1,6.3-1.1c2.1,0,4,0.2,5.7,0.7s3.2,1,4.4,1.7
					l-2.1,5.9c-0.5-0.3-1.2-0.6-2.1-0.9c-0.9-0.3-1.8-0.5-2.7-0.7s-1.7-0.3-2.4-0.3c-1.8,0-3.3,0.2-4.7,0.7c-1.3,0.4-2.5,1.1-3.4,2
					s-1.6,2-2.1,3.3s-0.7,2.8-0.7,4.6c0,1.5,0.3,2.9,0.8,4.1c0.5,1.2,1.3,2.3,2.2,3.1c1,0.9,2.1,1.5,3.4,1.9
					c1.3,0.4,2.7,0.7,4.3,0.7c0.9,0,1.7-0.1,2.5-0.2c0.8-0.1,1.4-0.3,1.9-0.6v-3.9h-5.6v-6.4h12.1L858.5,553.2L858.5,553.2z"/>
			</g>
			<g id="MINUTES" class="st6">
				<path class="st5" d="M463.6,477.5v-72.4h0.1l38.7,54.8l-5.9-1.3l38.6-53.5h0.2v72.4h-13.7V436l0.9,7.1L499,476.6h-0.2
					l-24.2-33.5l2.4-6.5v40.9H463.6z"/>
				<path class="st5" d="M553.2,407.9h13.7v69.6h-13.7V407.9z"/>
				<path class="st5" d="M647.2,480.4l-52.8-47.6l4.1,2.3l0.3,42.5h-13.9v-72.3h0.6l51.6,47.5l-3-1.3l-0.3-43.4h13.8v72.4h-0.4
					L647.2,480.4L647.2,480.4z"/>
				<path class="st5" d="M677.8,451.8c0,2.2,0.7,4.3,2,6.3s3.1,3.7,5.2,4.9c2.2,1.3,4.6,1.9,7.1,1.9c2.8,0,5.4-0.6,7.6-1.9
					s4-2.9,5.2-4.9c1.3-2,1.9-4.1,1.9-6.3v-43.9h13.5v44.2c0,5.1-1.3,9.6-3.8,13.6c-2.5,3.9-5.9,7-10.2,9.3s-9,3.4-14.3,3.4
					c-5.2,0-9.9-1.1-14.1-3.4c-4.3-2.2-7.6-5.3-10.2-9.3c-2.5-3.9-3.8-8.5-3.8-13.6v-44.2h13.7v43.9H677.8z"/>
				<path class="st5" d="M732.3,407.9h46.9v13.2h-16.9v56.4h-13.7v-56.3h-16.3V407.9z"/>
				<path class="st5" d="M792.4,407.9h47.5v13.2h-33.8v14.8H836v13.2h-29.9v15h35.1v13.4h-48.8L792.4,407.9L792.4,407.9z"/>
				<path class="st5" d="M892.5,424.8c-2.6-1.4-5.3-2.6-8.1-3.6c-2.7-0.9-5.3-1.4-7.7-1.4c-3,0-5.3,0.6-7,1.8
					c-1.7,1.2-2.6,3-2.6,5.4c0,1.6,0.6,3.1,1.9,4.4c1.3,1.3,3,2.4,5,3.5c2,1,4.2,1.9,6.4,2.7c2,0.8,4,1.7,6,2.7s3.8,2.3,5.3,3.9
					c1.6,1.5,2.8,3.5,3.8,5.8c0.9,2.3,1.4,5.1,1.4,8.5c0,3.5-0.9,6.8-2.7,9.8s-4.5,5.5-8,7.3c-3.5,1.9-7.9,2.8-13,2.8
					c-2.6,0-5.3-0.3-8.1-0.8c-2.7-0.5-5.4-1.4-8.1-2.5c-2.6-1.1-5.2-2.5-7.7-4.2l6.1-10.7c1.6,1.2,3.4,2.3,5.3,3.2
					c1.9,0.9,3.9,1.6,5.8,2.1c2,0.5,3.7,0.8,5.4,0.8c1.6,0,3.3-0.2,5-0.7s3.1-1.3,4.2-2.4c1.1-1.1,1.7-2.7,1.7-4.7
					c0-1.4-0.5-2.6-1.4-3.8c-0.9-1.1-2.1-2.2-3.7-3.1c-1.5-0.9-3.2-1.8-5.1-2.5c-2.1-0.8-4.3-1.8-6.6-2.8c-2.3-1.1-4.4-2.4-6.4-3.9
					s-3.6-3.5-4.8-5.8s-1.8-5.1-1.8-8.5c0-4,0.9-7.5,2.7-10.5s4.3-5.3,7.6-7s7.1-2.7,11.3-2.9c5.6,0,10.2,0.7,13.7,2
					s6.6,2.9,9.4,4.7L892.5,424.8z"/>
			</g>
		</g>
	</g>
</g>
</svg>
