<?xml version="1.0" encoding="utf-8"?>
<!-- Generator: Adobe Illustrator 25.2.1, SVG Export Plug-In . SVG Version: 6.00 Build 0)  -->
<svg version="1.1" id="Layer_1" xmlns="http://www.w3.org/2000/svg" xmlns:xlink="http://www.w3.org/1999/xlink" x="0px" y="0px"
	 viewBox="0 0 128 19" style="enable-background:new 0 0 128 19;" xml:space="preserve">
<style type="text/css">
	.st0{enable-background:new    ;}
	.st1{fill:#B68041;}
</style>
<g id="Selected">
	<g id="Frame-01" transform="translate(-877.000000, -1170.000000)">
		<g class="st0">
			<path class="st1" d="M885.9,1181.2h-5l-1.4,3.5h-1.7l5.7-13.6h0.1l5.7,13.6h-2L885.9,1181.2z M885.2,1179.7l-1.9-4.7l-2,4.7
				H885.2z"/>
			<path class="st1" d="M895.9,1184.6c-0.5,0.2-0.9,0.2-1.4,0.2c-0.8,0-1.5-0.2-2.1-0.5c-0.6-0.3-1.1-0.8-1.4-1.4s-0.5-1.3-0.5-2
				c0-0.8,0.2-1.4,0.5-2s0.8-1.1,1.4-1.4s1.3-0.5,2-0.5c1.1,0,2.1,0.3,2.9,0.9l-0.8,1.1c-0.2-0.2-0.5-0.3-0.8-0.5
				c-0.3-0.2-0.7-0.2-1-0.2c-0.5,0-0.8,0.1-1.2,0.3c-0.4,0.2-0.7,0.5-0.9,0.9s-0.3,0.8-0.3,1.3s0.1,0.9,0.3,1.3
				c0.2,0.4,0.5,0.7,0.9,0.9c0.4,0.2,0.8,0.4,1.4,0.4c0.6,0,1.1-0.2,1.6-0.5l0.9,1.1C896.8,1184.2,896.4,1184.5,895.9,1184.6z"/>
			<path class="st1" d="M901.7,1173.9v3.3h2v1.4h-2v6.1H900v-6.1h-1.4v-1.4h1.4v-3.3H901.7z"/>
			<path class="st1" d="M905.7,1178.9c0.4-0.6,0.8-1.1,1.5-1.4c0.6-0.4,1.4-0.5,2.1-0.5c0.8,0,1.5,0.2,2.1,0.5s1.1,0.8,1.4,1.4
				s0.5,1.3,0.5,2c0,0.8-0.2,1.4-0.5,2c-0.4,0.6-0.8,1.1-1.4,1.4s-1.4,0.5-2.2,0.5c-0.8,0-1.5-0.2-2.1-0.5c-0.6-0.3-1.1-0.8-1.5-1.4
				s-0.5-1.3-0.5-2.1C905.1,1180.2,905.4,1179.5,905.7,1178.9z M907.2,1182.2c0.2,0.4,0.5,0.7,0.9,0.9c0.4,0.2,0.8,0.4,1.2,0.4
				c0.7,0,1.3-0.2,1.7-0.8s0.7-1.1,0.7-1.8c0-0.8-0.2-1.4-0.7-1.9c-0.5-0.5-1.1-0.8-1.7-0.8c-0.5,0-0.9,0.2-1.2,0.4
				c-0.4,0.2-0.7,0.5-0.8,1c-0.2,0.4-0.3,0.8-0.3,1.3S906.9,1181.8,907.2,1182.2z"/>
			<path class="st1" d="M918.1,1177.9c0.4-0.3,0.8-0.5,1.1-0.8c0.4-0.2,0.8-0.2,1.1-0.3l-0.1,1.7c-0.5,0-1.1,0.1-1.5,0.3
				s-0.8,0.6-1.1,1c-0.2,0.5-0.4,0.9-0.4,1.4v3.4h-1.7v-7.5h1.5l0.2,1.8C917.5,1178.6,917.8,1178.2,918.1,1177.9z"/>
			<path class="st1" d="M934.8,1177.4c0.6,0.3,1,0.8,1.4,1.4c0.3,0.6,0.5,1.3,0.5,2.1c0,0.8-0.2,1.5-0.5,2c-0.4,0.6-0.8,1.1-1.4,1.4
				c-0.6,0.3-1.3,0.5-2,0.5c-0.5,0-1.1-0.2-1.6-0.4c-0.5-0.2-0.9-0.5-1.2-1v4.7h-1.7v-11.2h1.4l0.2,1.3c0.4-0.5,0.8-0.8,1.4-1.1
				c0.5-0.3,1.1-0.4,1.7-0.4C933.6,1176.9,934.3,1177.1,934.8,1177.4z M933.6,1183.2c0.4-0.2,0.8-0.5,1-0.9s0.4-0.8,0.4-1.3
				c0-0.5-0.1-0.9-0.3-1.4c-0.2-0.4-0.5-0.7-0.9-0.9c-0.4-0.2-0.8-0.4-1.3-0.4c-0.6,0-1.2,0.2-1.7,0.5s-0.8,0.8-0.9,1.4v1.3
				c0.1,0.6,0.4,1.1,0.8,1.4s1,0.5,1.6,0.5C932.8,1183.5,933.2,1183.4,933.6,1183.2z"/>
			<path class="st1" d="M938.8,1178.9c0.4-0.6,0.8-1.1,1.5-1.4c0.6-0.4,1.4-0.5,2.1-0.5c0.8,0,1.5,0.2,2.1,0.5
				c0.6,0.4,1.1,0.8,1.4,1.4s0.5,1.3,0.5,2c0,0.8-0.2,1.4-0.5,2c-0.4,0.6-0.8,1.1-1.4,1.4s-1.4,0.5-2.2,0.5c-0.8,0-1.5-0.2-2.1-0.5
				c-0.6-0.3-1.1-0.8-1.5-1.4c-0.4-0.6-0.5-1.3-0.5-2.1C938.3,1180.2,938.4,1179.5,938.8,1178.9z M940.2,1182.2
				c0.2,0.4,0.5,0.7,0.9,0.9c0.4,0.2,0.8,0.4,1.2,0.4c0.7,0,1.3-0.2,1.7-0.8s0.7-1.1,0.7-1.8c0-0.8-0.2-1.4-0.7-1.9
				s-1.1-0.8-1.7-0.8c-0.5,0-0.9,0.2-1.2,0.4c-0.4,0.2-0.7,0.5-0.8,1c-0.2,0.4-0.3,0.8-0.3,1.3S940.1,1181.8,940.2,1182.2z"/>
			<path class="st1" d="M951.2,1177.9c0.4-0.3,0.8-0.5,1.1-0.8c0.4-0.2,0.8-0.2,1.1-0.3l-0.1,1.7c-0.5,0-1.1,0.1-1.5,0.3
				s-0.8,0.6-1.1,1c-0.2,0.5-0.4,0.9-0.4,1.4v3.4h-1.7v-7.5h1.5l0.2,1.8C950.6,1178.6,950.9,1178.2,951.2,1177.9z"/>
			<path class="st1" d="M958,1173.9v3.3h2v1.4h-2v6.1h-1.7v-6.1h-1.3v-1.4h1.4v-3.3H958z"/>
			<path class="st1" d="M964.5,1177.9c0.4-0.3,0.8-0.5,1.1-0.8c0.4-0.2,0.8-0.2,1.1-0.3l-0.1,1.7c-0.5,0-1.1,0.1-1.5,0.3
				s-0.8,0.6-1.1,1c-0.2,0.5-0.4,0.9-0.4,1.4v3.4H962v-7.5h1.5l0.2,1.8C963.9,1178.6,964.1,1178.2,964.5,1177.9z"/>
			<path class="st1" d="M976.4,1177.2v7.5h-1.7v-1.2c-0.3,0.4-0.7,0.7-1.1,1c-0.5,0.3-1.1,0.5-1.7,0.5c-0.7,0-1.4-0.2-2-0.5
				c-0.6-0.3-1.1-0.8-1.4-1.4s-0.5-1.3-0.5-2.1c0-0.8,0.2-1.5,0.5-2.1c0.4-0.6,0.8-1.1,1.4-1.4c0.6-0.3,1.2-0.5,2-0.5
				c0.6,0,1.2,0.2,1.7,0.5c0.5,0.3,0.8,0.6,1.1,1.1l0.2-1.2H976.4z M973.8,1183c0.5-0.4,0.8-0.8,0.8-1.4v-1.5
				c-0.2-0.5-0.5-1-0.9-1.3c-0.5-0.3-1-0.5-1.6-0.5c-0.5,0-0.8,0.1-1.2,0.3c-0.4,0.2-0.7,0.5-0.9,0.9s-0.3,0.8-0.3,1.4
				c0,0.5,0.2,0.9,0.4,1.4c0.2,0.4,0.5,0.7,0.9,1c0.4,0.2,0.8,0.4,1.3,0.4C972.9,1183.5,973.4,1183.3,973.8,1183z"/>
			<path class="st1" d="M986.4,1177.2l-4.8,11.1H980l1.7-3.8l-3.5-7.2h1.9l2.4,5.3l2.3-5.3H986.4z"/>
			<path class="st1" d="M995.7,1177.2v7.5H994v-1.2c-0.3,0.4-0.7,0.7-1.1,1c-0.5,0.3-1.1,0.5-1.7,0.5c-0.7,0-1.4-0.2-2-0.5
				c-0.6-0.3-1.1-0.8-1.4-1.4c-0.3-0.6-0.5-1.3-0.5-2.1c0-0.8,0.2-1.5,0.5-2.1c0.4-0.6,0.8-1.1,1.4-1.4c0.6-0.3,1.2-0.5,2-0.5
				c0.6,0,1.2,0.2,1.7,0.5c0.5,0.3,0.8,0.6,1.1,1.1l0.2-1.2H995.7z M993.1,1183c0.5-0.4,0.8-0.8,0.8-1.4v-1.5
				c-0.2-0.5-0.5-1-0.9-1.3c-0.5-0.3-1-0.5-1.6-0.5c-0.5,0-0.8,0.1-1.2,0.3s-0.7,0.5-0.9,0.9c-0.2,0.4-0.3,0.8-0.3,1.4
				c0,0.5,0.2,0.9,0.4,1.4c0.2,0.4,0.5,0.7,0.9,1c0.4,0.2,0.8,0.4,1.3,0.4C992.2,1183.5,992.8,1183.3,993.1,1183z"/>
			<path class="st1" d="M1000.3,1170.7v14h-1.7v-14H1000.3z"/>
			<path class="st1" d="M1002.6,1183c0.2-0.2,0.5-0.3,0.7-0.3s0.5,0.1,0.7,0.3c0.2,0.2,0.3,0.5,0.3,0.7c0,0.3-0.1,0.5-0.3,0.7
				c-0.2,0.2-0.4,0.3-0.7,0.3c-0.2,0-0.5-0.1-0.7-0.3c-0.2-0.2-0.3-0.4-0.3-0.7C1002.4,1183.5,1002.5,1183.3,1002.6,1183z"/>
		</g>
	</g>
</g>
</svg>
