<?xml version="1.0" encoding="utf-8"?>
<!-- Generator: Adobe Illustrator 25.2.1, SVG Export Plug-In . SVG Version: 6.00 Build 0)  -->
<svg version="1.1" id="Layer_1" xmlns="http://www.w3.org/2000/svg" xmlns:xlink="http://www.w3.org/1999/xlink" x="0px" y="0px"
	 viewBox="0 0 724 418" style="enable-background:new 0 0 724 418;" xml:space="preserve">
<style type="text/css">
	.st0{fill:#484848;}
	.st1{fill:#2BA297;}
	.st2{fill:#FFFFFF;}
</style>
<g>
	<g>
		<path class="st0" d="M148.9,175.1v25H144v-10.2h-11.2v10.2h-4.9v-25h4.9v10.1H144v-10.1H148.9z"/>
		<path class="st0" d="M153.5,192.5c0-1.5,0.4-2.9,1.1-4.1c0.7-1.2,1.7-2.1,3-2.8s2.8-1,4.4-1c1.7,0,3.2,0.3,4.4,1s2.2,1.6,2.9,2.8
			s1,2.6,1,4.1s-0.3,2.9-1,4.1c-0.7,1.2-1.6,2.2-2.9,2.9c-1.2,0.7-2.7,1.1-4.5,1.1c-1.6,0-3.1-0.3-4.4-1c-1.3-0.6-2.3-1.6-3-2.8
			S153.5,194.1,153.5,192.5z M158.3,192.5c0,0.8,0.2,1.5,0.5,2.1s0.7,1.1,1.3,1.5c0.5,0.4,1.2,0.5,1.8,0.5c0.7,0,1.4-0.2,1.9-0.5
			c0.5-0.4,1-0.9,1.3-1.5s0.4-1.3,0.4-2.1s-0.1-1.5-0.4-2.1c-0.3-0.6-0.7-1.1-1.3-1.5c-0.5-0.4-1.2-0.5-1.9-0.5s-1.3,0.2-1.8,0.5
			c-0.5,0.4-1,0.8-1.3,1.5S158.3,191.7,158.3,192.5z"/>
		<path class="st0" d="M184.1,185.2l3.3,7.6l-0.9,0.1l2.9-7.7h4.6l-6.7,15.7l-4.8-9.8l-4.3,9.8l-6.8-15.7h4.6l3.6,8.3l-1.6-0.2
			l2.9-6.3l-0.8-1.7h4V185.2z"/>
		<path class="st0" d="M207.7,180c0-0.7,0.3-1.3,0.8-1.7c0.6-0.5,1.1-0.7,1.8-0.7s1.2,0.2,1.7,0.7s0.8,1,0.8,1.7s-0.3,1.3-0.8,1.7
			s-1.1,0.7-1.7,0.7s-1.2-0.2-1.8-0.7S207.7,180.7,207.7,180z M207.8,185.2h4.8V200h-4.8V185.2z"/>
		<path class="st0" d="M222.2,200.4c-1.2,0-2.4-0.2-3.4-0.6c-1.1-0.4-1.9-1-2.7-1.8l2-2.6c0.7,0.7,1.4,1.1,2,1.4
			c0.6,0.3,1.2,0.4,1.7,0.4c0.4,0,0.7,0,1-0.1s0.5-0.2,0.7-0.4s0.3-0.4,0.3-0.7c0-0.4-0.2-0.7-0.5-0.9s-0.7-0.4-1.2-0.6
			c-0.5-0.1-1-0.3-1.5-0.5c-1.4-0.4-2.3-1.1-2.9-1.9c-0.6-0.8-0.9-1.7-0.9-2.7c0-0.7,0.2-1.5,0.6-2.3c0.4-0.8,1-1.4,1.9-1.9
			s2-0.8,3.4-0.8c1.2,0,2.3,0.1,3.2,0.4c0.9,0.2,1.7,0.7,2.4,1.2l-1.8,2.8c-0.4-0.3-0.9-0.6-1.4-0.9c-0.5-0.2-1-0.4-1.5-0.4
			c-0.4,0-0.8,0-1,0.1c-0.3,0.1-0.5,0.3-0.7,0.4c-0.2,0.2-0.2,0.4-0.2,0.6c0,0.4,0.1,0.8,0.5,1s0.8,0.4,1.3,0.6
			c0.5,0.1,1.1,0.3,1.6,0.5c0.7,0.2,1.3,0.5,1.9,0.9c0.5,0.4,0.9,0.8,1.2,1.4c0.3,0.5,0.4,1.2,0.4,1.9c0,0.9-0.2,1.8-0.7,2.6
			s-1.2,1.5-2.1,2C224.9,200.1,223.7,200.4,222.2,200.4z"/>
		<path class="st0" d="M245,178.7h4.8v6.5h3.6v3.7h-3.6v11.2H245v-11.2h-2.3v-3.7h2.3V178.7z"/>
		<path class="st0" d="M257,200.1v-26.8h4.7v14.9v-0.6c0.5-0.9,1.3-1.7,2.2-2.3c1-0.6,2.1-0.9,3.5-0.9s2.6,0.4,3.5,1.2
			s1.4,1.9,1.4,3.2v11.1h-4.8v-9.3c0-0.7-0.2-1.2-0.5-1.6c-0.3-0.4-0.9-0.6-1.6-0.6s-1.4,0.2-1.9,0.7s-1,1.1-1.3,1.9
			c-0.3,0.8-0.4,1.8-0.4,2.8v6H257V200.1z"/>
		<path class="st0" d="M284.5,200.5c-1.8,0-3.3-0.3-4.6-1s-2.2-1.6-2.9-2.8c-0.7-1.2-1-2.6-1-4.1s0.4-2.8,1.2-4
			c0.8-1.2,1.8-2.2,3.1-2.9c1.3-0.7,2.7-1.1,4.3-1.1c2.1,0,3.9,0.6,5.2,1.9c1.4,1.2,2.3,3,2.7,5.3l-11.5,3.7l-1.1-2.6l8.4-2.8
			l-1,0.4c-0.2-0.6-0.5-1.1-1-1.5s-1.2-0.7-2.1-0.7c-0.7,0-1.3,0.2-1.9,0.5c-0.5,0.3-0.9,0.8-1.2,1.4c-0.3,0.6-0.4,1.3-0.4,2.1
			c0,0.9,0.2,1.7,0.5,2.3s0.8,1.1,1.4,1.4c0.6,0.3,1.2,0.5,2,0.5c0.5,0,1-0.1,1.5-0.3s1-0.4,1.4-0.7l2.1,3.5
			c-0.8,0.5-1.6,0.8-2.6,1.1S285.3,200.5,284.5,200.5z"/>
		<path class="st0" d="M315.4,175.1c2.1,0,3.8,0.3,5.2,1s2.5,1.7,3.3,2.9s1.1,2.7,1.1,4.5c0,1-0.2,2-0.5,3.1c-0.3,1-0.8,2-1.5,2.8
			s-1.6,1.5-2.7,2s-2.5,0.8-4.1,0.8h-3.5v7.9h-4.9v-25H315.4z M316.2,187.4c0.7,0,1.4-0.1,1.9-0.4c0.5-0.3,0.9-0.6,1.2-1
			c0.3-0.4,0.5-0.8,0.6-1.2s0.2-0.8,0.2-1.1c0-0.2,0-0.6-0.1-1s-0.2-0.8-0.5-1.3c-0.2-0.4-0.6-0.8-1.1-1.1s-1.2-0.4-2.1-0.4h-3.5
			v7.5H316.2z"/>
		<path class="st0" d="M350.4,175.1v25h-4.9v-10.2h-11.2v10.2h-4.9v-25h4.9v10.1h11.2v-10.1H350.4z"/>
		<path class="st0" d="M356.8,175.1h17v4.8h-12.1v5.3h10.7v4.8h-10.7v5.4h12.6v4.8h-17.5V175.1z"/>
		<path class="st0" d="M392.8,181.1c-1-0.5-1.9-1-2.9-1.3s-1.9-0.5-2.8-0.5c-1.1,0-1.9,0.2-2.5,0.6s-0.9,1.1-0.9,1.9
			c0,0.6,0.2,1.1,0.7,1.6s1.1,0.9,1.8,1.2c0.7,0.4,1.5,0.7,2.3,1c0.7,0.3,1.4,0.6,2.2,1c0.7,0.4,1.4,0.8,1.9,1.4
			c0.6,0.6,1,1.2,1.4,2.1c0.3,0.8,0.5,1.8,0.5,3c0,1.3-0.3,2.4-1,3.5s-1.6,2-2.9,2.6c-1.3,0.7-2.8,1-4.7,1c-1,0-1.9-0.1-2.9-0.3
			s-2-0.5-2.9-0.9c-1-0.4-1.9-0.9-2.8-1.5l2.2-3.8c0.6,0.4,1.2,0.8,1.9,1.1s1.4,0.6,2.1,0.8s1.3,0.3,1.9,0.3s1.2-0.1,1.8-0.3
			c0.6-0.2,1.1-0.5,1.5-0.9s0.6-1,0.6-1.7c0-0.5-0.2-1-0.5-1.4s-0.8-0.8-1.3-1.1c-0.6-0.3-1.2-0.6-1.8-0.9c-0.8-0.3-1.6-0.6-2.4-1
			s-1.6-0.9-2.3-1.4s-1.3-1.2-1.7-2.1c-0.4-0.8-0.7-1.8-0.7-3c0-1.4,0.3-2.7,1-3.8c0.6-1.1,1.6-1.9,2.7-2.5c1.2-0.6,2.5-1,4.1-1
			c2,0,3.7,0.2,4.9,0.7c1.3,0.5,2.4,1,3.4,1.7L392.8,181.1z"/>
		<path class="st0" d="M419.5,197.6c-0.3,0.3-0.8,0.6-1.4,1c-0.6,0.3-1.4,0.6-2.2,0.9c-0.8,0.3-1.7,0.5-2.5,0.7s-1.7,0.3-2.4,0.3
			c-2,0-3.9-0.3-5.5-0.9c-1.6-0.6-3-1.4-4.2-2.5s-2-2.3-2.6-3.8s-0.9-3.1-0.9-4.8c0-2.3,0.3-4.3,1-6s1.6-3.1,2.8-4.2s2.6-2,4.1-2.5
			s3.2-0.8,4.9-0.8c1.6,0,3.1,0.2,4.4,0.5c1.3,0.4,2.5,0.8,3.4,1.3l-1.6,4.6c-0.4-0.2-1-0.5-1.6-0.7c-0.7-0.2-1.4-0.4-2.1-0.6
			c-0.7-0.1-1.3-0.2-1.9-0.2c-1.4,0-2.6,0.2-3.6,0.5s-1.9,0.8-2.6,1.5s-1.3,1.5-1.6,2.5c-0.4,1-0.5,2.2-0.5,3.5
			c0,1.2,0.2,2.2,0.6,3.2s1,1.7,1.7,2.4s1.6,1.2,2.6,1.5s2.1,0.5,3.3,0.5c0.7,0,1.3-0.1,1.9-0.2c0.6-0.1,1.1-0.3,1.5-0.5v-3h-4.3
			V187h9.3L419.5,197.6L419.5,197.6z"/>
		<path class="st0" d="M423.6,187.6c0-1.7,0.3-3.4,1-4.9s1.6-2.9,2.7-4.1c1.2-1.2,2.5-2.1,4.1-2.8c1.5-0.7,3.2-1,5-1
			c1.7,0,3.4,0.3,4.9,1s2.9,1.6,4.1,2.8s2.1,2.6,2.8,4.1c0.7,1.5,1,3.2,1,4.9c0,1.8-0.3,3.4-1,5c-0.7,1.5-1.6,2.9-2.8,4.1
			c-1.2,1.2-2.6,2.1-4.1,2.7c-1.5,0.7-3.2,1-4.9,1c-1.8,0-3.4-0.3-5-1c-1.5-0.7-2.9-1.6-4.1-2.7c-1.2-1.2-2.1-2.5-2.7-4.1
			C423.9,191,423.6,189.4,423.6,187.6z M428.7,187.6c0,1.1,0.2,2.1,0.6,3.1s1,1.8,1.7,2.5s1.5,1.3,2.5,1.7c0.9,0.4,2,0.6,3.1,0.6
			s2.1-0.2,3-0.6c0.9-0.4,1.7-1,2.4-1.7c0.7-0.7,1.2-1.6,1.6-2.5c0.4-1,0.6-2,0.6-3.1s-0.2-2.2-0.6-3.2s-0.9-1.8-1.6-2.6
			c-0.7-0.7-1.5-1.3-2.4-1.7s-1.9-0.6-3-0.6s-2.1,0.2-3,0.6c-0.9,0.4-1.7,1-2.4,1.7c-0.7,0.7-1.2,1.6-1.6,2.6
			C428.9,185.4,428.7,186.5,428.7,187.6z"/>
		<path class="st0" d="M464.2,180c0-0.7,0.3-1.3,0.8-1.7c0.6-0.5,1.1-0.7,1.8-0.7s1.2,0.2,1.7,0.7s0.8,1,0.8,1.7s-0.3,1.3-0.8,1.7
			s-1.1,0.7-1.7,0.7s-1.2-0.2-1.8-0.7C464.5,181.2,464.2,180.7,464.2,180z M464.3,185.2h4.8V200h-4.8V185.2z"/>
		<path class="st0" d="M478.3,185.2l0.4,2.6l-0.1-0.2c0.5-0.9,1.3-1.7,2.2-2.3c1-0.6,2.1-0.9,3.5-0.9s2.6,0.4,3.5,1.2
			s1.4,1.9,1.4,3.2v11.1h-4.8v-9.3c0-0.7-0.2-1.2-0.5-1.6c-0.3-0.4-0.9-0.6-1.6-0.6s-1.4,0.2-1.9,0.7s-1,1.1-1.3,1.9
			c-0.3,0.8-0.4,1.8-0.4,2.8v6H474V185h4.3V185.2z"/>
		<path class="st0" d="M495.1,207.2l-2.8-3c0.7-0.5,1.2-1.1,1.6-1.8s0.6-1.6,0.6-2.6v-14.6h4.8V200c0,1.8-0.3,3.2-1,4.4
			C497.7,205.6,496.6,206.6,495.1,207.2z M494.4,180c0-0.7,0.3-1.3,0.8-1.7c0.6-0.5,1.1-0.7,1.8-0.7s1.2,0.2,1.7,0.7s0.8,1,0.8,1.7
			s-0.3,1.3-0.8,1.7s-1.1,0.7-1.7,0.7s-1.2-0.2-1.8-0.7S494.4,180.7,494.4,180z"/>
		<path class="st0" d="M511.5,200.5c-1.8,0-3.3-0.3-4.6-1c-1.3-0.7-2.2-1.6-2.9-2.8c-0.7-1.2-1-2.6-1-4.1s0.4-2.8,1.2-4
			c0.8-1.2,1.8-2.2,3.1-2.9c1.3-0.7,2.7-1.1,4.3-1.1c2.1,0,3.9,0.6,5.2,1.9c1.4,1.2,2.3,3,2.7,5.3l-11.5,3.7l-1.1-2.6l8.4-2.8
			l-1,0.4c-0.2-0.6-0.5-1.1-1-1.5s-1.2-0.7-2.1-0.7c-0.7,0-1.3,0.2-1.9,0.5c-0.5,0.3-0.9,0.8-1.2,1.4c-0.3,0.6-0.4,1.3-0.4,2.1
			c0,0.9,0.2,1.7,0.5,2.3s0.8,1.1,1.4,1.4c0.6,0.3,1.2,0.5,2,0.5c0.5,0,1-0.1,1.5-0.3s1-0.4,1.4-0.7l2.1,3.5
			c-0.8,0.5-1.6,0.8-2.6,1.1S512.3,200.5,511.5,200.5z"/>
		<path class="st0" d="M535.5,198.8c-0.7,0.5-1.5,0.9-2.5,1.3c-1,0.3-2,0.5-2.9,0.5c-1.7,0-3.2-0.3-4.4-0.9s-2.2-1.5-2.9-2.7
			s-1-2.6-1-4.2c0-1.7,0.4-3.1,1.1-4.2c0.7-1.2,1.7-2.1,2.9-2.7s2.5-0.9,3.8-0.9s2.5,0.2,3.5,0.5c1,0.4,1.8,0.8,2.5,1.4l-2.3,3.1
			c-0.3-0.2-0.8-0.5-1.3-0.8c-0.6-0.3-1.2-0.4-2-0.4c-0.7,0-1.3,0.2-1.8,0.5s-1,0.8-1.3,1.4c-0.3,0.6-0.5,1.3-0.5,2s0.2,1.4,0.5,2
			s0.8,1.1,1.4,1.4c0.6,0.4,1.3,0.5,2.1,0.5c0.5,0,1-0.1,1.4-0.2c0.4-0.1,0.8-0.4,1.1-0.6L535.5,198.8z"/>
		<path class="st0" d="M540.6,178.7h4.8v6.5h3.6v3.7h-3.6v11.2h-4.8v-11.2h-2.3v-3.7h2.3V178.7z"/>
		<path class="st0" d="M552.5,180c0-0.7,0.3-1.3,0.8-1.7c0.6-0.5,1.1-0.7,1.8-0.7s1.2,0.2,1.7,0.7s0.8,1,0.8,1.7s-0.3,1.3-0.8,1.7
			s-1.1,0.7-1.7,0.7s-1.2-0.2-1.8-0.7C552.8,181.2,552.5,180.7,552.5,180z M552.6,185.2h4.8V200h-4.8V185.2z"/>
		<path class="st0" d="M561.1,192.5c0-1.5,0.4-2.9,1.1-4.1c0.7-1.2,1.7-2.1,3-2.8s2.8-1,4.4-1c1.7,0,3.2,0.3,4.4,1s2.2,1.6,2.9,2.8
			s1,2.6,1,4.1s-0.3,2.9-1,4.1c-0.7,1.2-1.6,2.2-2.9,2.9c-1.2,0.7-2.7,1.1-4.5,1.1c-1.6,0-3.1-0.3-4.4-1c-1.3-0.6-2.3-1.6-3-2.8
			S561.1,194.1,561.1,192.5z M565.9,192.5c0,0.8,0.2,1.5,0.5,2.1s0.7,1.1,1.3,1.5c0.5,0.4,1.2,0.5,1.8,0.5c0.7,0,1.4-0.2,1.9-0.5
			c0.5-0.4,1-0.9,1.3-1.5s0.4-1.3,0.4-2.1s-0.1-1.5-0.4-2.1c-0.3-0.6-0.7-1.1-1.3-1.5c-0.5-0.4-1.2-0.5-1.9-0.5s-1.3,0.2-1.8,0.5
			c-0.5,0.4-1,0.8-1.3,1.5C566,191,565.9,191.7,565.9,192.5z"/>
		<path class="st0" d="M585.9,185.2l0.4,2.6l-0.1-0.2c0.5-0.9,1.3-1.7,2.2-2.3c1-0.6,2.1-0.9,3.5-0.9s2.6,0.4,3.5,1.2
			s1.4,1.9,1.4,3.2v11.1H592v-9.3c0-0.7-0.2-1.2-0.5-1.6c-0.3-0.4-0.9-0.6-1.6-0.6c-0.7,0-1.4,0.2-1.9,0.7s-1,1.1-1.3,1.9
			c-0.3,0.8-0.4,1.8-0.4,2.8v6h-4.8V185h4.4V185.2z"/>
		<path class="st0" d="M134.8,250.9c-1.3,0-2.5-0.2-3.4-0.5s-1.7-0.7-2.3-1.2s-1.2-0.9-1.7-1.3l2.8-3.3c0.5,0.5,1.1,0.9,1.8,1.4
			c0.7,0.4,1.6,0.7,2.7,0.7c0.7,0,1.4-0.1,2.1-0.4c0.6-0.3,1.2-0.6,1.6-1.1c0.4-0.5,0.6-1.1,0.6-1.9V240l0.2,0.8c-0.4,0.8-1,1.4-2,2
			s-2.2,0.9-3.7,0.9c-1.3,0-2.6-0.3-3.7-1c-1.1-0.7-2.1-1.6-2.7-2.8c-0.7-1.2-1-2.5-1-4.1s0.4-2.9,1.1-4.2c0.7-1.2,1.7-2.2,2.8-2.9
			c1.2-0.7,2.4-1.1,3.7-1.1s2.4,0.2,3.3,0.6c0.9,0.4,1.6,0.8,2.1,1.4l-0.2,0.4l0.5-1.6h4.4v14.8c0,1.4-0.4,2.7-1.2,3.9
			c-0.8,1.1-1.9,2-3.2,2.6C137.9,250.6,136.4,250.9,134.8,250.9z M130.8,235.8c0,0.8,0.2,1.5,0.5,2.1c0.4,0.6,0.9,1.1,1.5,1.5
			s1.3,0.5,2.1,0.5c0.7,0,1.2-0.1,1.7-0.3s1-0.4,1.4-0.7s0.7-0.7,1-1.2v-3.6c-0.2-0.5-0.5-0.9-0.9-1.3c-0.4-0.4-0.9-0.6-1.4-0.8
			s-1.1-0.3-1.8-0.3c-0.8,0-1.5,0.2-2.1,0.5c-0.6,0.4-1.1,0.8-1.5,1.4C131,234.3,130.8,235,130.8,235.8z"/>
		<path class="st0" d="M148.5,223.3c0-0.7,0.3-1.3,0.8-1.7c0.6-0.5,1.1-0.7,1.8-0.7s1.2,0.2,1.7,0.7s0.8,1,0.8,1.7s-0.3,1.3-0.8,1.7
			s-1.1,0.7-1.7,0.7s-1.2-0.2-1.8-0.7C148.8,224.6,148.5,224,148.5,223.3z M148.6,228.6h4.8v14.8h-4.8V228.6z"/>
		<path class="st0" d="M165.1,243.7l-8.9-15.1h5.6l5.1,10.3l-2.9-0.1l4.4-10.2h5.3l-8.4,15.1H165.1z"/>
		<path class="st0" d="M183.2,243.9c-1.8,0-3.3-0.3-4.6-1s-2.2-1.6-2.9-2.8s-1-2.6-1-4.1s0.4-2.8,1.2-4s1.8-2.2,3.1-2.9
			s2.7-1.1,4.3-1.1c2.1,0,3.9,0.6,5.2,1.9c1.4,1.2,2.3,3,2.7,5.3l-11.5,3.7l-1.1-2.6l8.4-2.8l-1,0.4c-0.2-0.6-0.5-1.1-1-1.5
			s-1.2-0.7-2.1-0.7c-0.7,0-1.3,0.2-1.9,0.5c-0.5,0.3-0.9,0.8-1.2,1.4c-0.3,0.6-0.4,1.3-0.4,2.1c0,0.9,0.2,1.7,0.5,2.3
			s0.8,1.1,1.4,1.4c0.6,0.3,1.2,0.5,2,0.5c0.5,0,1-0.1,1.5-0.3s1-0.4,1.4-0.7l2.1,3.5c-0.8,0.5-1.6,0.8-2.6,1.1
			S184,243.9,183.2,243.9z"/>
		<path class="st0" d="M199,228.6l0.4,2.6l-0.1-0.2c0.5-0.9,1.3-1.7,2.2-2.3c1-0.6,2.1-0.9,3.5-0.9s2.6,0.4,3.5,1.2s1.4,1.9,1.4,3.2
			v11.1h-4.8V234c0-0.7-0.2-1.2-0.5-1.6c-0.3-0.4-0.9-0.6-1.6-0.6c-0.7,0-1.4,0.2-1.9,0.7s-1,1.1-1.3,1.9c-0.3,0.8-0.4,1.8-0.4,2.8
			v6h-4.8v-14.8h4.4V228.6z"/>
		<path class="st0" d="M225.8,223.3c0-0.7,0.3-1.3,0.8-1.7c0.6-0.5,1.1-0.7,1.8-0.7s1.2,0.2,1.7,0.7s0.8,1,0.8,1.7s-0.3,1.3-0.8,1.7
			s-1.1,0.7-1.7,0.7s-1.2-0.2-1.8-0.7C226.1,224.6,225.8,224,225.8,223.3z M225.9,228.6h4.8v14.8h-4.8V228.6z"/>
		<path class="st0" d="M239.9,228.6l0.4,2.6l-0.1-0.2c0.5-0.9,1.3-1.7,2.2-2.3c1-0.6,2.1-0.9,3.5-0.9s2.6,0.4,3.5,1.2
			s1.4,1.9,1.4,3.2v11.1H246V234c0-0.7-0.2-1.2-0.5-1.6c-0.3-0.4-0.9-0.6-1.6-0.6c-0.7,0-1.4,0.2-1.9,0.7s-1,1.1-1.3,1.9
			c-0.3,0.8-0.4,1.8-0.4,2.8v6h-4.8v-14.8h4.4V228.6z"/>
		<path class="st0" d="M267.7,250.6l-2.8-3c0.7-0.5,1.2-1.1,1.6-1.8s0.6-1.6,0.6-2.6v-14.6h4.8v14.8c0,1.8-0.3,3.2-1,4.4
			C270.3,249,269.2,249.9,267.7,250.6z M267,223.3c0-0.7,0.3-1.3,0.8-1.7c0.6-0.5,1.1-0.7,1.8-0.7s1.2,0.2,1.7,0.7s0.8,1,0.8,1.7
			s-0.3,1.3-0.8,1.7s-1.1,0.7-1.7,0.7s-1.2-0.2-1.8-0.7C267.2,224.6,267,224,267,223.3z"/>
		<path class="st0" d="M281.6,244.2c-1.3,0-2.5-0.4-3.4-1.2s-1.4-1.9-1.4-3.2v-11.1h4.8v9.3c0,0.7,0.2,1.2,0.5,1.6
			c0.3,0.4,0.8,0.6,1.5,0.6s1.3-0.2,1.8-0.7s0.9-1.1,1.2-2c0.3-0.8,0.4-1.8,0.4-2.8v-6h4.8v14.8h-4.3l-0.4-2.7l0.1,0.3
			c-0.3,0.6-0.8,1.2-1.3,1.6c-0.5,0.5-1.1,0.8-1.9,1.1C283.2,244,282.4,244.2,281.6,244.2z"/>
		<path class="st0" d="M301.4,243.7c-1.2,0-2.4-0.2-3.4-0.6c-1.1-0.4-1.9-1-2.7-1.8l2-2.6c0.7,0.7,1.4,1.1,2,1.4
			c0.6,0.3,1.2,0.4,1.7,0.4c0.4,0,0.7,0,1-0.1s0.5-0.2,0.7-0.4s0.3-0.4,0.3-0.7c0-0.4-0.2-0.7-0.5-0.9s-0.7-0.4-1.2-0.6
			c-0.5-0.1-1-0.3-1.5-0.5c-1.4-0.4-2.3-1.1-2.9-1.9c-0.6-0.8-0.9-1.7-0.9-2.7c0-0.7,0.2-1.5,0.6-2.3s1-1.4,1.9-1.9s2-0.8,3.4-0.8
			c1.2,0,2.3,0.1,3.2,0.4c0.9,0.2,1.7,0.7,2.4,1.2l-1.8,2.8c-0.4-0.3-0.9-0.6-1.4-0.9c-0.5-0.2-1-0.4-1.5-0.4c-0.4,0-0.8,0-1,0.1
			c-0.3,0.1-0.5,0.3-0.7,0.4c-0.2,0.2-0.2,0.4-0.2,0.6c0,0.4,0.1,0.8,0.5,1s0.8,0.4,1.3,0.6c0.5,0.1,1.1,0.3,1.6,0.5
			c0.7,0.2,1.3,0.5,1.9,0.9c0.5,0.4,0.9,0.8,1.2,1.4c0.3,0.5,0.4,1.2,0.4,1.9c0,0.9-0.2,1.8-0.7,2.6s-1.2,1.5-2.1,2
			C304.1,243.5,302.9,243.7,301.4,243.7z"/>
		<path class="st0" d="M313.2,222.1h4.8v6.5h3.6v3.7H318v11.2h-4.8v-11.2h-2.3v-3.7h2.3V222.1z"/>
		<path class="st0" d="M340.5,228.6l0.4,2.6l-0.1-0.2c0.6-1,1.3-1.8,2.2-2.3c0.9-0.6,1.9-0.8,3.2-0.8c0.8,0,1.5,0.1,2.2,0.3
			c0.6,0.2,1.1,0.6,1.6,1c0.4,0.4,0.7,1,0.9,1.7h-0.2c0.6-0.9,1.4-1.7,2.3-2.2c0.9-0.6,1.8-0.8,2.8-0.8c1.5,0,2.6,0.4,3.5,1.2
			s1.3,1.9,1.3,3.2v11.1h-4.7v-9.2c0-0.7-0.1-1.2-0.3-1.6c-0.2-0.4-0.6-0.7-1.3-0.7c-0.8,0-1.4,0.3-2,0.8c-0.5,0.5-0.9,1.2-1.2,2
			c-0.3,0.8-0.4,1.7-0.4,2.6v6.1h-4.8v-9.2c0-0.7-0.1-1.2-0.4-1.6c-0.2-0.4-0.7-0.7-1.3-0.7c-0.7,0-1.4,0.3-1.9,0.8s-0.9,1.2-1.2,2
			c-0.3,0.8-0.4,1.7-0.4,2.5v6.1h-4.8v-14.8L340.5,228.6L340.5,228.6z"/>
		<path class="st0" d="M365.4,223.3c0-0.7,0.3-1.3,0.8-1.7c0.6-0.5,1.1-0.7,1.8-0.7s1.2,0.2,1.7,0.7s0.8,1,0.8,1.7s-0.3,1.3-0.8,1.7
			s-1.1,0.7-1.7,0.7s-1.2-0.2-1.8-0.7C365.7,224.6,365.4,224,365.4,223.3z M365.5,228.6h4.8v14.8h-4.8V228.6z"/>
		<path class="st0" d="M379.5,228.6l0.4,2.6l-0.1-0.2c0.5-0.9,1.3-1.7,2.2-2.3c1-0.6,2.1-0.9,3.5-0.9s2.6,0.4,3.5,1.2
			s1.4,1.9,1.4,3.2v11.1h-4.8V234c0-0.7-0.2-1.2-0.5-1.6c-0.3-0.4-0.9-0.6-1.6-0.6s-1.4,0.2-1.9,0.7s-1,1.1-1.3,1.9
			c-0.3,0.8-0.4,1.8-0.4,2.8v6h-4.8v-14.8h4.4V228.6z"/>
		<path class="st0" d="M400.1,244.2c-1.3,0-2.5-0.4-3.4-1.2s-1.4-1.9-1.4-3.2v-11.1h4.8v9.3c0,0.7,0.2,1.2,0.5,1.6
			c0.3,0.4,0.8,0.6,1.5,0.6s1.3-0.2,1.8-0.7s0.9-1.1,1.2-2c0.3-0.8,0.4-1.8,0.4-2.8v-6h4.8v14.8H406l-0.4-2.7l0.1,0.3
			c-0.3,0.6-0.8,1.2-1.3,1.6c-0.5,0.5-1.1,0.8-1.9,1.1C401.8,244,401,244.2,400.1,244.2z"/>
		<path class="st0" d="M416.6,222.1h4.8v6.5h3.6v3.7h-3.6v11.2h-4.8v-11.2h-2.3v-3.7h2.3V222.1z"/>
		<path class="st0" d="M435.8,243.9c-1.8,0-3.3-0.3-4.6-1c-1.3-0.7-2.2-1.6-2.9-2.8c-0.7-1.2-1-2.6-1-4.1s0.4-2.8,1.2-4
			c0.8-1.2,1.8-2.2,3.1-2.9c1.3-0.7,2.7-1.1,4.3-1.1c2.1,0,3.9,0.6,5.2,1.9c1.4,1.2,2.3,3,2.7,5.3l-11.5,3.7l-1.1-2.6l8.4-2.8
			l-1,0.4c-0.2-0.6-0.5-1.1-1-1.5s-1.2-0.7-2.1-0.7c-0.7,0-1.3,0.2-1.9,0.5c-0.5,0.3-0.9,0.8-1.2,1.4c-0.3,0.6-0.4,1.3-0.4,2.1
			c0,0.9,0.2,1.7,0.5,2.3s0.8,1.1,1.4,1.4c0.6,0.3,1.2,0.5,2,0.5c0.5,0,1-0.1,1.5-0.3s1-0.4,1.4-0.7l2.1,3.5
			c-0.8,0.5-1.6,0.8-2.6,1.1S436.7,243.9,435.8,243.9z"/>
		<path class="st0" d="M452.1,243.7c-1.2,0-2.4-0.2-3.4-0.6c-1.1-0.4-1.9-1-2.7-1.8l2-2.6c0.7,0.7,1.4,1.1,2,1.4
			c0.6,0.3,1.2,0.4,1.7,0.4c0.4,0,0.7,0,1-0.1s0.5-0.2,0.7-0.4s0.3-0.4,0.3-0.7c0-0.4-0.2-0.7-0.5-0.9s-0.7-0.4-1.2-0.6
			c-0.5-0.1-1-0.3-1.5-0.5c-1.4-0.4-2.3-1.1-2.9-1.9c-0.6-0.8-0.9-1.7-0.9-2.7c0-0.7,0.2-1.5,0.6-2.3s1-1.4,1.9-1.9s2-0.8,3.4-0.8
			c1.2,0,2.3,0.1,3.2,0.4c0.9,0.2,1.7,0.7,2.4,1.2l-1.8,2.8c-0.4-0.3-0.9-0.6-1.4-0.9c-0.5-0.2-1-0.4-1.5-0.4c-0.4,0-0.8,0-1,0.1
			c-0.3,0.1-0.5,0.3-0.7,0.4c-0.2,0.2-0.2,0.4-0.2,0.6c0,0.4,0.1,0.8,0.5,1s0.8,0.4,1.3,0.6c0.5,0.1,1.1,0.3,1.6,0.5
			c0.7,0.2,1.3,0.5,1.9,0.9c0.5,0.4,0.9,0.8,1.2,1.4c0.3,0.5,0.4,1.2,0.4,1.9c0,0.9-0.2,1.8-0.7,2.6s-1.2,1.5-2.1,2
			C454.8,243.5,453.6,243.7,452.1,243.7z"/>
		<path class="st0" d="M464.9,236.8V235c0-1.1,0.1-2.1,0.4-2.8c0.3-0.8,0.6-1.4,1.1-2c0.4-0.5,0.9-1,1.3-1.5
			c0.6-0.6,1.2-1.1,1.6-1.7c0.5-0.6,0.7-1.3,0.7-2.2c0-0.5-0.1-0.9-0.4-1.3c-0.2-0.3-0.5-0.6-0.9-0.8s-0.7-0.3-1-0.3
			c-0.7,0-1.2,0.2-1.6,0.5s-0.8,0.7-1.1,1.2c-0.3,0.5-0.5,1-0.7,1.5l-3.9-1.8c0.1-0.4,0.4-0.9,0.7-1.6c0.3-0.6,0.8-1.3,1.4-1.9
			c0.6-0.6,1.4-1.2,2.3-1.6c0.9-0.4,2.1-0.6,3.4-0.6s2.5,0.2,3.5,0.7c1,0.4,1.9,1.1,2.5,2s0.9,2.1,0.9,3.6c0,1.2-0.2,2.3-0.5,3
			c-0.3,0.8-0.8,1.4-1.3,2c-0.5,0.5-1,1.1-1.5,1.6c-0.4,0.4-0.8,0.8-1.1,1.3c-0.4,0.5-0.6,1-0.8,1.6c-0.2,0.6-0.3,1.3-0.3,2.2v0.7
			L464.9,236.8L464.9,236.8z M467.3,243.9c-0.8,0-1.5-0.2-2-0.7c-0.5-0.4-0.8-1-0.8-1.7s0.3-1.3,0.8-1.8s1.2-0.7,2-0.7
			s1.4,0.2,2,0.7s0.8,1.1,0.8,1.8s-0.2,1.3-0.7,1.7C468.7,243.7,468.1,243.9,467.3,243.9z"/>
	</g>
	<g id="_x5F_2">
		<circle class="st1" cx="48.1" cy="209.9" r="46.1"/>
		<g>
			<path class="st2" d="M41.1,223.5c1.8-1.8,3.4-3.5,5-5.2s3.1-3.3,4.3-4.8c1.3-1.5,2.3-3,3.1-4.5c0.7-1.4,1.1-2.8,1.1-4.2
				c0-0.6-0.1-1.1-0.3-1.6s-0.5-0.9-0.9-1.2s-0.8-0.6-1.4-0.8c-0.5-0.2-1.1-0.3-1.8-0.3s-1.2,0.1-1.7,0.3s-0.9,0.4-1.3,0.7
				c-0.3,0.3-0.6,0.7-0.8,1c-0.2,0.4-0.3,0.8-0.3,1.1c0,0.9,0.1,1.7,0.4,2.4c0.3,0.7,0.7,1.3,1.2,1.8l-3.8,3.4
				c-0.8-0.4-1.5-1.1-2.1-2s-1-1.9-1.3-2.9s-0.4-1.9-0.4-2.6c0-1.6,0.4-3,1.3-4.5c0.9-1.4,2.1-2.6,3.8-3.5s3.7-1.4,6-1.4
				c2,0,3.6,0.4,5.1,1.3c1.4,0.9,2.6,2,3.4,3.5c0.8,1.4,1.2,2.9,1.2,4.6c0,1.3-0.2,2.5-0.6,3.7s-0.9,2.4-1.6,3.5
				c-0.7,1.1-1.5,2.3-2.4,3.4c-0.9,1.1-1.8,2.3-2.7,3.4l-2.8-0.8h10.4v5.9H41.1V223.5z"/>
		</g>
	</g>
</g>
</svg>
