<?xml version="1.0" encoding="utf-8"?>
<!-- Generator: Adobe Illustrator 25.2.1, SVG Export Plug-In . SVG Version: 6.00 Build 0)  -->
<svg version="1.1" id="Layer_1" xmlns="http://www.w3.org/2000/svg" xmlns:xlink="http://www.w3.org/1999/xlink" x="0px" y="0px"
	 viewBox="0 0 724 418" style="enable-background:new 0 0 724 418;" xml:space="preserve">
<style type="text/css">
	.st0{fill:#484848;}
	.st1{fill:#2BA297;}
	.st2{fill:#FFFFFF;}
</style>
<g>
	<g>
		<path class="st0" d="M148.9,334.3v25H144v-10.2h-11.2v10.2h-4.9v-25h4.9v10.1H144v-10.1H148.9z"/>
		<path class="st0" d="M153.5,351.7c0-1.5,0.4-2.9,1.1-4.1c0.7-1.2,1.7-2.1,3-2.8c1.3-0.7,2.8-1,4.4-1c1.7,0,3.2,0.3,4.4,1
			s2.2,1.6,2.9,2.8c0.7,1.2,1,2.6,1,4.1s-0.3,2.9-1,4.1s-1.6,2.2-2.9,2.9c-1.2,0.7-2.7,1.1-4.5,1.1c-1.6,0-3.1-0.3-4.4-1
			c-1.3-0.6-2.3-1.6-3-2.8C153.8,354.8,153.5,353.4,153.5,351.7z M158.3,351.8c0,0.8,0.2,1.5,0.5,2.1s0.7,1.1,1.3,1.5
			c0.5,0.4,1.2,0.5,1.8,0.5c0.7,0,1.4-0.2,1.9-0.5c0.5-0.4,1-0.9,1.3-1.5s0.4-1.3,0.4-2.1c0-0.8-0.1-1.5-0.4-2.1
			c-0.3-0.6-0.7-1.1-1.3-1.5c-0.5-0.4-1.2-0.5-1.9-0.5s-1.3,0.2-1.8,0.5c-0.5,0.4-1,0.8-1.3,1.5S158.3,351,158.3,351.8z"/>
		<path class="st0" d="M184.1,344.5l3.3,7.6l-0.9,0.1l2.9-7.7h4.6l-6.7,15.7l-4.8-9.8l-4.3,9.8l-6.8-15.7h4.6l3.6,8.3l-1.6-0.2
			l2.9-6.3l-0.8-1.7L184.1,344.5L184.1,344.5z"/>
		<path class="st0" d="M207.7,339.2c0-0.7,0.3-1.3,0.8-1.7c0.6-0.5,1.1-0.7,1.8-0.7s1.2,0.2,1.7,0.7s0.8,1,0.8,1.7s-0.3,1.3-0.8,1.7
			c-0.5,0.4-1.1,0.7-1.7,0.7s-1.2-0.2-1.8-0.7C207.9,340.5,207.7,339.9,207.7,339.2z M207.8,344.5h4.8v14.8h-4.8V344.5z"/>
		<path class="st0" d="M222.2,359.6c-1.2,0-2.4-0.2-3.4-0.6s-1.9-1-2.7-1.8l2-2.6c0.7,0.7,1.4,1.1,2,1.4s1.2,0.4,1.7,0.4
			c0.4,0,0.7,0,1-0.1s0.5-0.2,0.7-0.4c0.2-0.2,0.3-0.4,0.3-0.7c0-0.4-0.2-0.7-0.5-0.9c-0.3-0.2-0.7-0.4-1.2-0.6
			c-0.5-0.1-1-0.3-1.5-0.5c-1.4-0.4-2.3-1.1-2.9-1.9c-0.6-0.8-0.9-1.7-0.9-2.7c0-0.7,0.2-1.5,0.6-2.3c0.4-0.8,1-1.4,1.9-1.9
			s2-0.8,3.4-0.8c1.2,0,2.3,0.1,3.2,0.4c0.9,0.2,1.7,0.7,2.4,1.2l-1.8,2.8c-0.4-0.3-0.9-0.6-1.4-0.9c-0.5-0.2-1-0.4-1.5-0.4
			c-0.4,0-0.8,0-1,0.1s-0.5,0.3-0.7,0.4c-0.2,0.2-0.2,0.4-0.2,0.6c0,0.4,0.1,0.8,0.5,1s0.8,0.4,1.3,0.6s1.1,0.3,1.6,0.5
			c0.7,0.2,1.3,0.5,1.9,0.9c0.5,0.4,0.9,0.8,1.2,1.4c0.3,0.5,0.4,1.2,0.4,1.9c0,0.9-0.2,1.8-0.7,2.6c-0.5,0.8-1.2,1.5-2.1,2
			C224.9,359.4,223.7,359.6,222.2,359.6z"/>
		<path class="st0" d="M252,334.3c2.1,0,3.8,0.3,5.2,1c1.4,0.7,2.5,1.7,3.3,2.9c0.7,1.3,1.1,2.7,1.1,4.5c0,1-0.2,2-0.5,3.1
			s-0.8,2-1.5,2.8s-1.6,1.5-2.7,2s-2.5,0.8-4.1,0.8h-3.5v7.9h-4.9v-25L252,334.3L252,334.3z M252.8,346.6c0.7,0,1.4-0.1,1.9-0.4
			s0.9-0.6,1.2-1c0.3-0.4,0.5-0.8,0.6-1.2c0.1-0.4,0.2-0.8,0.2-1.1c0-0.2,0-0.6-0.1-1s-0.2-0.8-0.5-1.3c-0.2-0.4-0.6-0.8-1.1-1.1
			c-0.5-0.3-1.2-0.4-2.1-0.4h-3.5v7.5H252.8z"/>
		<path class="st0" d="M287,334.3v25h-4.9v-10.2h-11.2v10.2H266v-25h4.9v10.1h11.2v-10.1H287z"/>
		<path class="st0" d="M293.5,334.3h17v4.8h-12.1v5.3h10.7v4.8h-10.7v5.4H311v4.8h-17.5V334.3z"/>
		<path class="st0" d="M329.4,340.4c-1-0.5-1.9-1-2.9-1.3s-1.9-0.5-2.8-0.5c-1.1,0-1.9,0.2-2.5,0.6s-0.9,1.1-0.9,1.9
			c0,0.6,0.2,1.1,0.7,1.6s1.1,0.9,1.8,1.2c0.7,0.4,1.5,0.7,2.3,1c0.7,0.3,1.4,0.6,2.2,1c0.7,0.4,1.4,0.8,1.9,1.4s1,1.2,1.4,2.1
			c0.3,0.8,0.5,1.8,0.5,3c0,1.3-0.3,2.4-1,3.5s-1.6,2-2.9,2.6c-1.3,0.7-2.8,1-4.7,1c-1,0-1.9-0.1-2.9-0.3c-1-0.2-2-0.5-2.9-0.9
			c-1-0.4-1.9-0.9-2.8-1.5l2.2-3.8c0.6,0.4,1.2,0.8,1.9,1.1c0.7,0.3,1.4,0.6,2.1,0.8c0.7,0.2,1.3,0.3,1.9,0.3s1.2-0.1,1.8-0.3
			c0.6-0.2,1.1-0.5,1.5-0.9s0.6-1,0.6-1.7c0-0.5-0.2-1-0.5-1.4s-0.8-0.8-1.3-1.1s-1.2-0.6-1.8-0.9c-0.8-0.3-1.6-0.6-2.4-1
			s-1.6-0.9-2.3-1.4c-0.7-0.6-1.3-1.2-1.7-2.1c-0.4-0.8-0.7-1.8-0.7-3c0-1.4,0.3-2.7,1-3.8c0.6-1.1,1.6-1.9,2.7-2.5
			c1.2-0.6,2.5-1,4.1-1c2,0,3.7,0.2,4.9,0.7s2.4,1,3.4,1.7L329.4,340.4z"/>
		<path class="st0" d="M356.2,356.8c-0.3,0.3-0.8,0.6-1.4,1c-0.6,0.3-1.4,0.6-2.2,0.9c-0.8,0.3-1.7,0.5-2.5,0.7
			c-0.9,0.2-1.7,0.3-2.4,0.3c-2,0-3.9-0.3-5.5-0.9s-3-1.4-4.2-2.5s-2-2.3-2.6-3.8s-0.9-3.1-0.9-4.8c0-2.3,0.3-4.3,1-6
			s1.6-3.1,2.8-4.2c1.2-1.1,2.6-2,4.1-2.5c1.6-0.5,3.2-0.8,4.9-0.8c1.6,0,3.1,0.2,4.4,0.5c1.3,0.4,2.5,0.8,3.4,1.3l-1.6,4.6
			c-0.4-0.2-1-0.5-1.6-0.7c-0.7-0.2-1.4-0.4-2.1-0.6c-0.7-0.1-1.3-0.2-1.9-0.2c-1.4,0-2.6,0.2-3.6,0.5s-1.9,0.8-2.6,1.5
			s-1.3,1.5-1.6,2.5c-0.4,1-0.5,2.2-0.5,3.5c0,1.2,0.2,2.2,0.6,3.2c0.4,0.9,1,1.7,1.7,2.4c0.7,0.7,1.6,1.2,2.6,1.5s2.1,0.5,3.3,0.5
			c0.7,0,1.3-0.1,1.9-0.2s1.1-0.3,1.5-0.5v-3h-4.3v-4.8h9.3L356.2,356.8L356.2,356.8z"/>
		<path class="st0" d="M360.2,346.9c0-1.7,0.3-3.4,1-4.9s1.6-2.9,2.7-4.1c1.2-1.2,2.5-2.1,4.1-2.8c1.5-0.7,3.2-1,5-1
			c1.7,0,3.4,0.3,4.9,1s2.9,1.6,4.1,2.8c1.2,1.2,2.1,2.6,2.8,4.1c0.7,1.5,1,3.2,1,4.9c0,1.8-0.3,3.4-1,5c-0.7,1.5-1.6,2.9-2.8,4.1
			c-1.2,1.2-2.6,2.1-4.1,2.7s-3.2,1-4.9,1c-1.8,0-3.4-0.3-5-1c-1.5-0.7-2.9-1.6-4.1-2.7c-1.2-1.2-2.1-2.5-2.7-4.1
			S360.2,348.6,360.2,346.9z M365.3,346.9c0,1.1,0.2,2.1,0.6,3.1s1,1.8,1.7,2.5s1.5,1.3,2.5,1.7c0.9,0.4,2,0.6,3.1,0.6
			s2.1-0.2,3-0.6s1.7-1,2.4-1.7c0.7-0.7,1.2-1.6,1.6-2.5c0.4-1,0.6-2,0.6-3.1s-0.2-2.2-0.6-3.2s-0.9-1.8-1.6-2.6s-1.5-1.3-2.4-1.7
			c-0.9-0.4-1.9-0.6-3-0.6s-2.1,0.2-3,0.6s-1.7,1-2.4,1.7s-1.2,1.6-1.6,2.6C365.5,344.7,365.3,345.7,365.3,346.9z"/>
		<path class="st0" d="M407,359.7c-1.4,0-2.6-0.3-3.7-1c-1.1-0.6-1.9-1.6-2.6-2.8c-0.6-1.2-0.9-2.7-0.9-4.3c0-1.7,0.3-3.1,1-4.3
			c0.7-1.2,1.6-2.1,2.8-2.7c1.2-0.6,2.5-0.9,4-0.9c1,0,1.9,0.1,2.7,0.4c0.9,0.3,1.6,0.7,2.2,1.4v1.5v-14.5h4.7v26.8h-4.8v-2.9l0.4,1
			c-0.8,0.6-1.6,1.2-2.6,1.6S408.3,359.7,407,359.7z M408.6,355.7c0.6,0,1.2-0.1,1.7-0.3c0.5-0.2,0.9-0.4,1.3-0.7
			c0.4-0.3,0.7-0.7,1-1.2v-3.6c-0.2-0.5-0.5-0.9-0.8-1.3c-0.4-0.4-0.8-0.6-1.4-0.8c-0.5-0.2-1.1-0.3-1.7-0.3c-0.7,0-1.4,0.2-2,0.5
			c-0.6,0.4-1.1,0.8-1.4,1.4s-0.5,1.3-0.5,2.1c0,0.8,0.2,1.5,0.5,2.1c0.4,0.6,0.8,1.1,1.4,1.5C407.2,355.6,407.9,355.7,408.6,355.7z
			"/>
		<path class="st0" d="M422.1,339.2c0-0.7,0.3-1.3,0.8-1.7c0.6-0.5,1.1-0.7,1.8-0.7s1.2,0.2,1.7,0.7s0.8,1,0.8,1.7s-0.3,1.3-0.8,1.7
			s-1.1,0.7-1.7,0.7s-1.2-0.2-1.8-0.7C422.3,340.5,422.1,339.9,422.1,339.2z M422.2,344.5h4.8v14.8h-4.8V344.5z"/>
		<path class="st0" d="M433.2,359.3v-10.7h-2.5v-4.2h2.5v-5.2c0-1.9,0.6-3.5,1.7-4.8c1.1-1.2,2.7-1.9,4.9-1.9c0.6,0,1.3,0.1,2.1,0.3
			c0.8,0.2,1.5,0.5,2.1,0.9l-2,3.4c-0.2-0.3-0.5-0.5-0.8-0.6s-0.6-0.2-0.9-0.2c-0.7,0-1.2,0.2-1.7,0.7c-0.4,0.5-0.6,1.2-0.6,2.2v5
			h4.5v4.2H438v10.7h-4.8V359.3z M444.2,359.3v-10.7h-2.5v-4.2h2.5v-5.2c0-1.9,0.6-3.5,1.7-4.8c1.1-1.2,2.7-1.9,4.9-1.9
			c0.6,0,1.3,0.1,2.1,0.3s1.5,0.5,2.1,0.9l-2,3.4c-0.2-0.3-0.5-0.5-0.8-0.6s-0.6-0.2-0.9-0.2c-0.7,0-1.2,0.2-1.7,0.7
			c-0.4,0.5-0.6,1.2-0.6,2.2v5h4.5v4.2H449v10.7h-4.8V359.3z"/>
		<path class="st0" d="M464.5,359.7c-1.8,0-3.3-0.3-4.6-1c-1.3-0.7-2.2-1.6-2.9-2.8c-0.7-1.2-1-2.6-1-4.1s0.4-2.8,1.2-4
			c0.8-1.2,1.8-2.2,3.1-2.9c1.3-0.7,2.7-1.1,4.3-1.1c2.1,0,3.9,0.6,5.2,1.9c1.4,1.2,2.3,3,2.7,5.3l-11.5,3.7l-1.1-2.6l8.4-2.8
			l-1,0.4c-0.2-0.6-0.5-1.1-1-1.5s-1.2-0.7-2.1-0.7c-0.7,0-1.3,0.2-1.9,0.5s-0.9,0.8-1.2,1.4c-0.3,0.6-0.4,1.3-0.4,2.1
			c0,0.9,0.2,1.7,0.5,2.3c0.3,0.6,0.8,1.1,1.4,1.4s1.2,0.5,2,0.5c0.5,0,1-0.1,1.5-0.3c0.5-0.2,1-0.4,1.4-0.7l2.1,3.5
			c-0.8,0.5-1.6,0.8-2.6,1.1S465.3,359.7,464.5,359.7z"/>
		<path class="st0" d="M480.3,344.5l0.4,4.1l-0.1-0.6c0.4-0.9,1-1.6,1.8-2.3c0.7-0.6,1.5-1.1,2.2-1.4s1.3-0.5,1.7-0.5l-0.2,4.8
			c-1.1-0.1-2.1,0-2.9,0.5s-1.4,1.2-1.8,2s-0.6,1.7-0.6,2.5v5.8H476v-14.8h4.3V344.5z"/>
		<path class="st0" d="M496.5,359.7c-1.8,0-3.3-0.3-4.6-1c-1.3-0.7-2.2-1.6-2.9-2.8c-0.7-1.2-1-2.6-1-4.1s0.4-2.8,1.2-4
			c0.8-1.2,1.8-2.2,3.1-2.9c1.3-0.7,2.7-1.1,4.3-1.1c2.1,0,3.9,0.6,5.2,1.9c1.4,1.2,2.3,3,2.7,5.3l-11.5,3.7l-1.1-2.6l8.4-2.8
			l-1,0.4c-0.2-0.6-0.5-1.1-1-1.5s-1.2-0.7-2.1-0.7c-0.7,0-1.3,0.2-1.9,0.5s-0.9,0.8-1.2,1.4c-0.3,0.6-0.4,1.3-0.4,2.1
			c0,0.9,0.2,1.7,0.5,2.3c0.3,0.6,0.8,1.1,1.4,1.4s1.2,0.5,2,0.5c0.5,0,1-0.1,1.5-0.3c0.5-0.2,1-0.4,1.4-0.7l2.1,3.5
			c-0.8,0.5-1.6,0.8-2.6,1.1S497.3,359.7,496.5,359.7z"/>
		<path class="st0" d="M512.3,344.5l0.4,2.6l-0.1-0.2c0.5-0.9,1.3-1.7,2.2-2.3c1-0.6,2.1-0.9,3.5-0.9s2.6,0.4,3.5,1.2
			c0.9,0.8,1.4,1.9,1.4,3.2v11.1h-4.8V350c0-0.7-0.2-1.2-0.5-1.6s-0.9-0.6-1.6-0.6c-0.7,0-1.4,0.2-1.9,0.7s-1,1.1-1.3,1.9
			s-0.4,1.8-0.4,2.8v6H508v-14.8h4.3V344.5z"/>
		<path class="st0" d="M529.6,338h4.8v6.5h3.6v3.7h-3.6v11.2h-4.8v-11.2h-2.3v-3.7h2.3V338z"/>
		<path class="st0" d="M554,359.3v-10.7h-2.5v-4.2h2.5v-5.2c0-1.9,0.6-3.5,1.7-4.8c1.1-1.2,2.7-1.9,4.9-1.9c0.6,0,1.3,0.1,2.1,0.3
			c0.8,0.2,1.5,0.5,2.1,0.9l-2,3.4c-0.2-0.3-0.5-0.5-0.8-0.6s-0.6-0.2-0.9-0.2c-0.7,0-1.2,0.2-1.7,0.7c-0.4,0.5-0.6,1.2-0.6,2.2v5
			h4.5v4.2h-4.5v10.7H554V359.3z"/>
		<path class="st0" d="M571.6,344.5l0.4,4.1V348c0.4-0.9,1-1.6,1.8-2.3c0.7-0.6,1.5-1.1,2.2-1.4s1.3-0.5,1.7-0.5l-0.2,4.8
			c-1.1-0.1-2.1,0-2.9,0.5s-1.4,1.2-1.8,2c-0.4,0.8-0.6,1.7-0.6,2.5v5.8h-4.7v-14.8h4.1V344.5z"/>
		<path class="st0" d="M579.5,351.7c0-1.5,0.4-2.9,1.1-4.1c0.7-1.2,1.7-2.1,3-2.8c1.3-0.7,2.8-1,4.4-1c1.7,0,3.2,0.3,4.4,1
			s2.2,1.6,2.9,2.8c0.7,1.2,1,2.6,1,4.1s-0.3,2.9-1,4.1s-1.6,2.2-2.9,2.9c-1.2,0.7-2.7,1.1-4.5,1.1c-1.6,0-3.1-0.3-4.4-1
			c-1.3-0.6-2.3-1.6-3-2.8S579.5,353.4,579.5,351.7z M584.2,351.8c0,0.8,0.2,1.5,0.5,2.1s0.7,1.1,1.3,1.5c0.5,0.4,1.2,0.5,1.8,0.5
			c0.7,0,1.4-0.2,1.9-0.5c0.5-0.4,1-0.9,1.3-1.5s0.4-1.3,0.4-2.1c0-0.8-0.1-1.5-0.4-2.1c-0.3-0.6-0.7-1.1-1.3-1.5
			c-0.5-0.4-1.2-0.5-1.9-0.5s-1.3,0.2-1.8,0.5c-0.5,0.4-1,0.8-1.3,1.5C584.4,350.3,584.2,351,584.2,351.8z"/>
		<path class="st0" d="M604.3,344.5l0.4,2.6l-0.1-0.2c0.6-1,1.3-1.8,2.2-2.3s1.9-0.8,3.2-0.8c0.8,0,1.5,0.1,2.2,0.3
			c0.6,0.2,1.1,0.6,1.6,1c0.4,0.4,0.7,1,0.9,1.7h-0.2c0.6-0.9,1.4-1.7,2.3-2.2c0.9-0.6,1.8-0.8,2.8-0.8c1.5,0,2.6,0.4,3.5,1.2
			c0.9,0.8,1.3,1.9,1.3,3.2v11.1h-4.7v-9.2c0-0.7-0.1-1.2-0.3-1.6s-0.6-0.7-1.3-0.7c-0.8,0-1.4,0.3-2,0.8c-0.5,0.5-0.9,1.2-1.2,2
			s-0.4,1.7-0.4,2.6v6.1h-4.8v-9.2c0-0.7-0.1-1.2-0.4-1.6c-0.2-0.4-0.7-0.7-1.3-0.7c-0.7,0-1.4,0.3-1.9,0.8s-0.9,1.2-1.2,2
			s-0.4,1.7-0.4,2.5v6.1H600v-14.8h4.3V344.5z"/>
		<path class="st0" d="M135.5,375.3c2.1,0,3.8,0.3,5.2,1s2.5,1.7,3.3,2.9c0.7,1.3,1.1,2.7,1.1,4.5c0,1-0.2,2-0.5,3.1s-0.8,2-1.5,2.8
			s-1.6,1.5-2.7,2c-1.1,0.5-2.5,0.8-4.1,0.8h-3.5v7.9h-4.9v-25L135.5,375.3L135.5,375.3z M136.3,387.6c0.7,0,1.4-0.1,1.9-0.4
			s0.9-0.6,1.2-1s0.5-0.8,0.6-1.2c0.1-0.4,0.2-0.8,0.2-1.1c0-0.2,0-0.6-0.1-1s-0.2-0.8-0.5-1.3c-0.2-0.4-0.6-0.8-1.1-1.1
			c-0.5-0.3-1.2-0.4-2.1-0.4h-3.5v7.5H136.3z"/>
		<path class="st0" d="M149.5,375.3h17v4.8h-12.1v5.3h10.7v4.8h-10.7v5.4H167v4.8h-17.5V375.3z"/>
		<path class="st0" d="M179.7,375.3c1.6,0,3,0.2,4.2,0.6s2.2,1,3.1,1.7c0.8,0.7,1.5,1.6,1.9,2.6s0.6,2.2,0.6,3.5c0,1-0.2,2-0.5,3.1
			c-0.3,1-0.8,1.9-1.5,2.8c-0.7,0.8-1.6,1.5-2.7,2c-1.1,0.5-2.5,0.8-4.2,0.8h-3.5v7.9h-4.9v-25H179.7z M180.6,387.6
			c0.7,0,1.4-0.1,1.9-0.4c0.5-0.2,0.9-0.6,1.2-1s0.5-0.8,0.6-1.2c0.1-0.4,0.2-0.8,0.2-1.2c0-0.3,0-0.6-0.1-1s-0.2-0.8-0.5-1.3
			c-0.2-0.4-0.6-0.8-1.1-1.1c-0.5-0.3-1.2-0.4-2.1-0.4h-3.5v7.5h3.4V387.6z M185.2,390.6l6.2,9.6h-5.7l-6.3-9.5L185.2,390.6z"/>
		<path class="st0" d="M202.6,395c0,2.2-0.4,4-1.3,5.6s-2.1,2.7-3.6,3.5s-3.3,1.3-5.3,1.3v-4.8c1.5-0.1,2.8-0.6,3.8-1.4
			c1-0.9,1.5-2.3,1.5-4.3v-19.6h5L202.6,395L202.6,395z"/>
		<path class="st0" d="M209,375.3h17v4.8h-12.1v5.3h10.7v4.8h-10.7v5.4h12.6v4.8H209V375.3z"/>
		<path class="st0" d="M229.9,375.3h16.8v4.8h-6.1v20.2h-4.9V380h-5.8V375.3z"/>
		<path class="st0" d="M246.7,400.3l11.3-26h0.3l11.3,26h-5.7l-7.2-18.3l3.6-2.4l-8.6,20.7L246.7,400.3L246.7,400.3z M254.4,391.2
			h7.5l1.7,4.1h-10.8L254.4,391.2z"/>
		<path class="st0" d="M288,386.1h4.3v4.2h4.1v4.1h-4.1v4.1H288v-4.1h-4.1v-4.1h4.1V386.1z"/>
		<path class="st0" d="M335,375.3v25h-4.9v-10.2h-11.2v10.2H314v-25h4.9v10.1h11.2v-10.1H335z"/>
		<path class="st0" d="M348,400.7c-1.8,0-3.3-0.3-4.6-1c-1.3-0.7-2.2-1.6-2.9-2.8c-0.7-1.2-1-2.6-1-4.1s0.4-2.8,1.2-4
			c0.8-1.2,1.8-2.2,3.1-2.9s2.7-1.1,4.3-1.1c2.1,0,3.9,0.6,5.2,1.9c1.4,1.2,2.3,3,2.7,5.3l-11.5,3.7l-1.1-2.6l8.4-2.8l-1,0.4
			c-0.2-0.6-0.5-1.1-1-1.5s-1.2-0.7-2.1-0.7c-0.7,0-1.3,0.2-1.9,0.5c-0.5,0.3-0.9,0.8-1.2,1.4c-0.3,0.6-0.4,1.3-0.4,2.1
			c0,0.9,0.2,1.7,0.5,2.3c0.3,0.6,0.8,1.1,1.4,1.4s1.2,0.5,2,0.5c0.5,0,1-0.1,1.5-0.3c0.5-0.2,1-0.4,1.4-0.7l2.1,3.5
			c-0.8,0.5-1.6,0.8-2.6,1.1S348.8,400.7,348,400.7z"/>
		<path class="st0" d="M363.8,385.4l0.4,4.1l-0.1-0.6c0.4-0.9,1-1.6,1.8-2.3c0.7-0.6,1.5-1.1,2.2-1.4s1.3-0.5,1.7-0.5l-0.2,4.8
			c-1.1-0.1-2.1,0-2.9,0.5s-1.4,1.2-1.8,2s-0.6,1.7-0.6,2.5v5.8h-4.7v-14.8h4.2V385.4z"/>
		<path class="st0" d="M385.3,399c-0.7,0.5-1.5,0.9-2.5,1.3c-1,0.3-2,0.5-2.9,0.5c-1.7,0-3.2-0.3-4.4-0.9s-2.2-1.5-2.9-2.7
			s-1-2.6-1-4.2c0-1.7,0.4-3.1,1.1-4.2s1.7-2.1,2.9-2.7s2.5-0.9,3.8-0.9s2.5,0.2,3.5,0.5c1,0.4,1.8,0.8,2.5,1.4l-2.3,3.1
			c-0.3-0.2-0.8-0.5-1.3-0.8c-0.6-0.3-1.2-0.4-2-0.4c-0.7,0-1.3,0.2-1.8,0.5s-1,0.8-1.3,1.4s-0.5,1.3-0.5,2s0.2,1.4,0.5,2
			s0.8,1.1,1.4,1.4c0.6,0.4,1.3,0.5,2.1,0.5c0.5,0,1-0.1,1.4-0.2s0.8-0.4,1.1-0.6L385.3,399z"/>
		<path class="st0" d="M396.3,400.7c-1.8,0-3.3-0.3-4.6-1c-1.3-0.7-2.2-1.6-2.9-2.8c-0.7-1.2-1-2.6-1-4.1s0.4-2.8,1.2-4
			c0.8-1.2,1.8-2.2,3.1-2.9c1.3-0.7,2.7-1.1,4.3-1.1c2.1,0,3.9,0.6,5.2,1.9c1.4,1.2,2.3,3,2.7,5.3l-11.5,3.7l-1.1-2.6l8.4-2.8
			l-1,0.4c-0.2-0.6-0.5-1.1-1-1.5s-1.2-0.7-2.1-0.7c-0.7,0-1.3,0.2-1.9,0.5s-0.9,0.8-1.2,1.4c-0.3,0.6-0.4,1.3-0.4,2.1
			c0,0.9,0.2,1.7,0.5,2.3c0.3,0.6,0.8,1.1,1.4,1.4s1.2,0.5,2,0.5c0.5,0,1-0.1,1.5-0.3c0.5-0.2,1-0.4,1.4-0.7l2.1,3.5
			c-0.8,0.5-1.6,0.8-2.6,1.1S397.1,400.7,396.3,400.7z"/>
		<path class="st0" d="M417.1,400.7c-0.9,0-1.7-0.2-2.6-0.5s-1.6-0.8-2.1-1.4l0.1-1.4v10h-4.7v-22.3h4.1l0.7,2.9l-0.4-1
			c0.8-0.7,1.6-1.2,2.6-1.6s2-0.6,3.3-0.6c1.4,0,2.6,0.3,3.7,1c1.1,0.6,1.9,1.6,2.6,2.8s0.9,2.7,0.9,4.4c0,1.7-0.4,3.1-1.1,4.3
			c-0.7,1.2-1.7,2.1-2.9,2.7C420.1,400.4,418.7,400.7,417.1,400.7z M416.1,397c0.8,0,1.5-0.2,2.1-0.5s1.2-0.8,1.6-1.4
			s0.6-1.3,0.6-2.1c0-0.8-0.2-1.6-0.5-2.2c-0.4-0.6-0.8-1.1-1.4-1.5s-1.3-0.5-2-0.5c-0.6,0-1.2,0.1-1.7,0.3
			c-0.5,0.2-0.9,0.4-1.3,0.7c-0.4,0.3-0.7,0.7-1,1.2v3.6c0.2,0.5,0.4,0.9,0.8,1.3c0.3,0.4,0.8,0.6,1.2,0.8
			C415.1,396.9,415.6,397,416.1,397z"/>
		<path class="st0" d="M430.4,378.9h4.8v6.5h3.6v3.7h-3.6v11.2h-4.8v-11.2h-2.3v-3.7h2.3V378.9z"/>
		<path class="st0" d="M442.3,380.2c0-0.7,0.3-1.3,0.8-1.7c0.6-0.5,1.1-0.7,1.8-0.7s1.2,0.2,1.7,0.7s0.8,1,0.8,1.7s-0.3,1.3-0.8,1.7
			s-1.1,0.7-1.7,0.7s-1.2-0.2-1.8-0.7C442.5,381.5,442.3,380.9,442.3,380.2z M442.4,385.4h4.8v14.8h-4.8V385.4z"/>
		<path class="st0" d="M456.3,385.4l0.4,2.6l-0.1-0.2c0.5-0.9,1.3-1.7,2.2-2.3c1-0.6,2.1-0.9,3.5-0.9s2.6,0.4,3.5,1.2
			c0.9,0.8,1.4,1.9,1.4,3.2v11.1h-4.8v-9.3c0-0.7-0.2-1.2-0.5-1.6s-0.9-0.6-1.6-0.6s-1.4,0.2-1.9,0.7s-1,1.1-1.3,1.9
			s-0.4,1.8-0.4,2.8v6H452v-14.8h4.3V385.4z"/>
		<path class="st0" d="M474.6,393.6v-1.8c0-1.1,0.1-2.1,0.4-2.8c0.3-0.8,0.6-1.4,1.1-2c0.4-0.5,0.9-1,1.3-1.5
			c0.6-0.6,1.2-1.1,1.6-1.7c0.5-0.6,0.7-1.3,0.7-2.2c0-0.5-0.1-0.9-0.4-1.3s-0.5-0.6-0.9-0.8c-0.4-0.2-0.7-0.3-1-0.3
			c-0.7,0-1.2,0.2-1.6,0.5s-0.8,0.7-1.1,1.2c-0.3,0.5-0.5,1-0.7,1.5l-3.9-1.8c0.1-0.4,0.4-0.9,0.7-1.6c0.3-0.6,0.8-1.3,1.4-1.9
			s1.4-1.2,2.3-1.6s2.1-0.6,3.4-0.6s2.5,0.2,3.5,0.7s1.9,1.1,2.5,2s0.9,2.1,0.9,3.6c0,1.2-0.2,2.3-0.5,3s-0.8,1.4-1.3,2
			c-0.5,0.5-1,1.1-1.5,1.6c-0.4,0.4-0.8,0.8-1.1,1.3c-0.4,0.5-0.6,1-0.8,1.6c-0.2,0.6-0.3,1.3-0.3,2.2v0.7L474.6,393.6L474.6,393.6z
			 M476.9,400.8c-0.8,0-1.5-0.2-2-0.7c-0.5-0.4-0.8-1-0.8-1.7s0.3-1.3,0.8-1.8s1.2-0.7,2-0.7s1.4,0.2,2,0.7c0.5,0.5,0.8,1.1,0.8,1.8
			c0,0.7-0.2,1.3-0.7,1.7S477.7,400.8,476.9,400.8z"/>
	</g>
	<g id="_x5F_3">
		<g>
			<g>
				<circle class="st1" cx="48.1" cy="369.2" r="46.1"/>
			</g>
			<g>
				<path class="st2" d="M59,355.4l-6.4,12.2l-3.4-1.8c0.3-0.1,0.6-0.2,0.9-0.3c0.3-0.1,0.6-0.1,0.9-0.1c1,0,2,0.1,3,0.3
					c1,0.3,1.9,0.7,2.7,1.4c0.8,0.7,1.5,1.5,2,2.7c0.5,1.1,0.7,2.6,0.7,4.3c0,2-0.5,3.8-1.4,5.2c-0.9,1.5-2.2,2.6-3.7,3.3
					s-3.2,1.1-5,1.1c-1.4,0-2.8-0.3-4.4-0.9c-1.5-0.6-2.7-1.4-3.6-2.3l3.1-5.1c0.4,0.5,1.1,1.1,2,1.6s1.8,0.8,2.8,0.8
					c0.6,0,1.2-0.2,1.8-0.5s1.1-0.8,1.5-1.4s0.6-1.4,0.6-2.3c0-1.2-0.3-2.2-1-3c-0.7-0.7-1.7-1.1-2.9-1.1c-0.8,0-1.5,0-1.9,0.1
					s-0.9,0.2-1.3,0.3l-0.1-0.2l5-9.3l1.8,0.7h-8.9v-5.9H59V355.4z"/>
			</g>
		</g>
	</g>
</g>
</svg>
