<?xml version="1.0" encoding="utf-8"?>
<!-- Generator: Adobe Illustrator 25.2.1, SVG Export Plug-In . SVG Version: 6.00 Build 0)  -->
<svg version="1.1" id="Layer_1" xmlns="http://www.w3.org/2000/svg" xmlns:xlink="http://www.w3.org/1999/xlink" x="0px" y="0px"
	 viewBox="0 0 724 418" style="enable-background:new 0 0 724 418;" xml:space="preserve">
<style type="text/css">
	.st0{fill:#484848;}
	.st1{fill:#2BA297;}
	.st2{fill:#FFFFFF;}
</style>
<g>
	<g>
		<path class="st0" d="M137.9,15.4h4.9v24.8h-4.9V15.4z"/>
		<path class="st0" d="M153.2,40.5c-1.2,0-2.3-0.2-3.4-0.6c-1-0.4-1.9-1-2.6-1.8l2-2.6c0.7,0.7,1.4,1.1,2,1.4
			c0.6,0.3,1.2,0.4,1.7,0.4c0.4,0,0.7,0,1-0.1s0.5-0.2,0.7-0.4s0.3-0.4,0.3-0.7c0-0.4-0.2-0.7-0.5-0.9s-0.7-0.4-1.2-0.6
			c-0.5-0.1-1-0.3-1.5-0.5c-1.3-0.4-2.3-1-2.9-1.9c-0.6-0.8-0.9-1.7-0.9-2.7c0-0.7,0.2-1.5,0.6-2.2c0.4-0.8,1-1.4,1.9-1.9
			s2-0.8,3.4-0.8c1.2,0,2.3,0.1,3.1,0.4c0.9,0.2,1.7,0.7,2.4,1.2l-1.8,2.8c-0.4-0.3-0.9-0.6-1.4-0.9c-0.5-0.2-1-0.4-1.5-0.4
			c-0.4,0-0.7,0-1,0.1s-0.5,0.3-0.7,0.4c-0.2,0.2-0.2,0.4-0.2,0.6c0,0.4,0.1,0.8,0.5,1c0.3,0.2,0.8,0.4,1.3,0.6s1.1,0.3,1.6,0.5
			c0.7,0.2,1.3,0.5,1.9,0.9c0.5,0.4,0.9,0.8,1.2,1.4c0.3,0.5,0.4,1.2,0.4,1.9c0,0.9-0.2,1.7-0.7,2.5s-1.2,1.4-2.1,1.9
			C155.8,40.2,154.6,40.5,153.2,40.5z"/>
		<path class="st0" d="M175.8,19h4.7v6.4h3.6v3.7h-3.6v11.1h-4.7V29.1h-2.3v-3.7h2.3V19z"/>
		<path class="st0" d="M191.9,25.4l0.4,4l-0.1-0.6c0.4-0.9,1-1.6,1.8-2.2c0.7-0.6,1.5-1.1,2.2-1.4s1.3-0.5,1.7-0.5l-0.2,4.7
			c-1.1-0.1-2,0-2.8,0.5s-1.4,1.1-1.8,2c-0.4,0.8-0.6,1.6-0.6,2.5v5.8h-4.7V25.4H191.9z"/>
		<path class="st0" d="M208.1,40.6c-1.8,0-3.3-0.3-4.6-1c-1.2-0.7-2.2-1.6-2.8-2.8c-0.7-1.2-1-2.6-1-4.1s0.4-2.8,1.1-4
			c0.8-1.2,1.8-2.1,3.1-2.8c1.3-0.7,2.7-1.1,4.3-1.1c2.1,0,3.8,0.6,5.2,1.8c1.4,1.2,2.2,3,2.6,5.3l-11.5,3.6l-1-2.6l8.3-2.8l-1,0.4
			c-0.2-0.6-0.5-1.1-1-1.5s-1.2-0.7-2.1-0.7c-0.7,0-1.3,0.2-1.8,0.5s-0.9,0.8-1.2,1.4s-0.4,1.3-0.4,2.1c0,0.9,0.2,1.7,0.5,2.3
			s0.8,1.1,1.4,1.4c0.6,0.3,1.2,0.5,2,0.5c0.5,0,1-0.1,1.5-0.3s1-0.4,1.4-0.7l2.1,3.5c-0.8,0.4-1.6,0.8-2.5,1.1
			C209.7,40.4,208.9,40.6,208.1,40.6z"/>
		<path class="st0" d="M225.6,40.6c-1.4,0-2.6-0.3-3.7-0.8c-1.1-0.6-2-1.4-2.6-2.5s-1-2.6-1-4.4c0-1.7,0.3-3.1,1-4.3
			c0.7-1.2,1.6-2.1,2.7-2.8c1.1-0.7,2.3-1,3.5-1c1.5,0,2.6,0.2,3.3,0.7s1.4,1,1.9,1.6l-0.2,0.6l0.4-2.2h4.4v14.7h-4.7V37l0.4,1
			c0,0-0.2,0.1-0.4,0.4c-0.2,0.3-0.6,0.6-1,0.9s-1,0.7-1.6,0.9C227.3,40.4,226.5,40.6,225.6,40.6z M227,36.7c0.6,0,1.1-0.1,1.5-0.3
			s0.8-0.4,1.2-0.7c0.3-0.3,0.6-0.7,0.9-1.2v-3.6c-0.2-0.5-0.4-0.9-0.8-1.3c-0.4-0.3-0.8-0.6-1.3-0.8c-0.5-0.2-1-0.3-1.7-0.3
			s-1.3,0.2-1.9,0.5c-0.6,0.3-1,0.8-1.4,1.4c-0.3,0.6-0.5,1.3-0.5,2.1s0.2,1.5,0.5,2.1c0.4,0.6,0.8,1.1,1.4,1.5
			C225.7,36.6,226.3,36.7,227,36.7z"/>
		<path class="st0" d="M241.5,19h4.7v6.4h3.6v3.7h-3.6v11.1h-4.7V29.1h-2.3v-3.7h2.3V19z"/>
		<path class="st0" d="M257.7,25.4l0.4,2.6l-0.1-0.2c0.6-1,1.3-1.8,2.2-2.3c0.9-0.6,1.9-0.8,3.2-0.8c0.8,0,1.5,0.1,2.1,0.3
			c0.6,0.2,1.1,0.6,1.6,1c0.4,0.4,0.7,1,0.9,1.7h-0.2c0.6-0.9,1.4-1.7,2.3-2.2c0.9-0.6,1.8-0.8,2.8-0.8c1.5,0,2.6,0.4,3.5,1.2
			c0.9,0.8,1.3,1.9,1.3,3.2v11H273V31c0-0.7-0.1-1.2-0.3-1.6c-0.2-0.4-0.6-0.6-1.2-0.7c-0.8,0-1.4,0.3-1.9,0.8s-0.9,1.2-1.2,2
			S268,33.2,268,34v6h-4.7v-9.1c0-0.7-0.1-1.2-0.4-1.6c-0.2-0.4-0.6-0.6-1.3-0.7c-0.7,0-1.4,0.3-1.9,0.8s-0.9,1.2-1.1,2
			c-0.3,0.8-0.4,1.6-0.4,2.5V40h-4.7V25.4H257.7z"/>
		<path class="st0" d="M289.7,40.6c-1.8,0-3.3-0.3-4.6-1c-1.2-0.7-2.2-1.6-2.8-2.8c-0.7-1.2-1-2.6-1-4.1s0.4-2.8,1.1-4
			c0.8-1.2,1.8-2.1,3.1-2.8c1.3-0.7,2.7-1.1,4.3-1.1c2.1,0,3.8,0.6,5.2,1.8c1.4,1.2,2.2,3,2.6,5.3l-11.5,3.6l-1-2.6l8.3-2.8l-1,0.4
			c-0.2-0.6-0.5-1.1-1-1.5s-1.2-0.7-2.1-0.7c-0.7,0-1.3,0.2-1.8,0.5s-0.9,0.8-1.2,1.4c-0.3,0.6-0.4,1.3-0.4,2.1
			c0,0.9,0.2,1.7,0.5,2.3s0.8,1.1,1.4,1.4c0.6,0.3,1.2,0.5,2,0.5c0.5,0,1-0.1,1.5-0.3s1-0.4,1.4-0.7l2.1,3.5
			c-0.8,0.4-1.6,0.8-2.5,1.1C291.4,40.4,290.5,40.6,289.7,40.6z"/>
		<path class="st0" d="M305.4,25.4l0.4,2.6l-0.1-0.2c0.5-0.9,1.2-1.7,2.2-2.2c0.9-0.6,2.1-0.9,3.5-0.9s2.6,0.4,3.5,1.2
			c0.9,0.8,1.4,1.9,1.4,3.2v11h-4.7v-9.3c0-0.7-0.2-1.2-0.5-1.6s-0.9-0.6-1.6-0.6s-1.3,0.2-1.9,0.7s-1,1.1-1.2,1.9S306,32.9,306,34
			v6h-4.7V25.4H305.4z"/>
		<path class="st0" d="M322.5,19h4.7v6.4h3.6v3.7h-3.6v11.1h-4.7V29.1h-2.3v-3.7h2.3V19z"/>
		<path class="st0" d="M355.8,25.4L359,33l-0.9,0.1l2.8-7.6h4.6L359,41l-4.7-9.8L350,41l-6.7-15.6h4.6l3.6,8.2l-1.6-0.2l2.8-6.3
			l-0.8-1.7C351.9,25.4,355.8,25.4,355.8,25.4z"/>
		<path class="st0" d="M368.3,20.2c0-0.7,0.3-1.3,0.8-1.7c0.5-0.4,1.1-0.7,1.8-0.7s1.2,0.2,1.7,0.7c0.5,0.4,0.8,1,0.8,1.7
			s-0.3,1.3-0.8,1.7c-0.5,0.4-1.1,0.7-1.7,0.7s-1.2-0.2-1.8-0.7C368.5,21.5,368.3,20.9,368.3,20.2z M368.4,25.4h4.7v14.7h-4.7V25.4z
			"/>
		<path class="st0" d="M379.3,19h4.7v6.4h3.6v3.7H384v11.1h-4.7V29.1H377v-3.7h2.3V19z"/>
		<path class="st0" d="M391.2,40.2V13.6h4.6v14.8v-0.6c0.5-0.9,1.2-1.7,2.2-2.2c0.9-0.6,2.1-0.9,3.5-0.9s2.6,0.4,3.5,1.2
			c0.9,0.8,1.4,1.9,1.4,3.2v11h-4.7v-9.3c0-0.7-0.2-1.2-0.5-1.6s-0.9-0.6-1.6-0.6s-1.3,0.2-1.9,0.7c-0.5,0.5-1,1.1-1.2,1.9
			c-0.2,0.8-0.4,1.7-0.4,2.8v6h-4.9V40.2z"/>
		<path class="st0" d="M430.5,15.4c2,0,3.8,0.3,5.2,1c1.4,0.7,2.5,1.7,3.2,2.9c0.7,1.2,1.1,2.7,1.1,4.4c0,1-0.2,2-0.5,3
			s-0.8,1.9-1.4,2.8c-0.7,0.8-1.5,1.5-2.7,2c-1.1,0.5-2.5,0.8-4.1,0.8h-3.5v7.8h-4.9V15.4H430.5z M431.3,27.6c0.7,0,1.4-0.1,1.9-0.4
			s0.9-0.6,1.2-1c0.3-0.4,0.5-0.8,0.6-1.2c0.1-0.4,0.2-0.8,0.2-1.1c0-0.2,0-0.6-0.1-1s-0.2-0.8-0.5-1.3s-0.6-0.8-1.1-1.1
			c-0.5-0.3-1.2-0.4-2-0.4H428v7.5H431.3z"/>
		<path class="st0" d="M465.2,15.4v24.8h-4.9V30.1h-11.1v10.1h-4.9V15.4h4.9v10h11.1v-10H465.2z"/>
		<path class="st0" d="M471.6,15.4h16.9v4.7h-12v5.3h10.6v4.7h-10.6v5.4H489v4.7h-17.4V15.4z"/>
		<path class="st0" d="M507.3,21.4c-0.9-0.5-1.9-0.9-2.9-1.3s-1.9-0.5-2.7-0.5c-1.1,0-1.9,0.2-2.5,0.6s-0.9,1.1-0.9,1.9
			c0,0.6,0.2,1.1,0.7,1.6s1.1,0.9,1.8,1.2c0.7,0.4,1.5,0.7,2.3,1c0.7,0.3,1.4,0.6,2.1,1s1.3,0.8,1.9,1.4s1,1.2,1.3,2.1
			c0.3,0.8,0.5,1.8,0.5,3c0,1.3-0.3,2.4-1,3.5s-1.6,1.9-2.9,2.6c-1.3,0.7-2.8,1-4.6,1c-0.9,0-1.9-0.1-2.9-0.3s-1.9-0.5-2.9-0.9
			c-0.9-0.4-1.9-0.9-2.7-1.5l2.2-3.8c0.6,0.4,1.2,0.8,1.9,1.1c0.7,0.3,1.4,0.6,2.1,0.8s1.3,0.3,1.9,0.3s1.2-0.1,1.8-0.3
			c0.6-0.2,1.1-0.5,1.5-0.9s0.6-1,0.6-1.7c0-0.5-0.2-0.9-0.5-1.3c-0.3-0.4-0.8-0.8-1.3-1.1c-0.6-0.3-1.2-0.6-1.8-0.9
			c-0.8-0.3-1.5-0.6-2.4-1c-0.8-0.4-1.6-0.8-2.3-1.4c-0.7-0.6-1.3-1.2-1.7-2.1c-0.4-0.8-0.7-1.8-0.7-3c0-1.4,0.3-2.7,1-3.7
			c0.6-1.1,1.5-1.9,2.7-2.5s2.5-1,4-1c2,0,3.6,0.2,4.9,0.7c1.2,0.5,2.4,1,3.4,1.7L507.3,21.4z"/>
		<path class="st0" d="M533.8,37.7c-0.3,0.3-0.8,0.6-1.4,1c-0.6,0.3-1.4,0.6-2.2,0.9c-0.8,0.3-1.7,0.5-2.5,0.7
			c-0.9,0.2-1.7,0.3-2.4,0.3c-2,0-3.8-0.3-5.5-0.9c-1.6-0.6-3-1.4-4.1-2.5s-2-2.3-2.6-3.8s-0.9-3.1-0.9-4.8c0-2.3,0.3-4.2,1-5.9
			c0.7-1.7,1.6-3.1,2.8-4.2c1.2-1.1,2.5-1.9,4.1-2.5c1.5-0.5,3.1-0.8,4.8-0.8c1.6,0,3.1,0.2,4.4,0.5c1.3,0.3,2.4,0.8,3.4,1.3
			l-1.6,4.5c-0.4-0.2-0.9-0.4-1.6-0.7c-0.7-0.2-1.4-0.4-2.1-0.6s-1.3-0.2-1.9-0.2c-1.3,0-2.5,0.2-3.6,0.5s-1.9,0.8-2.6,1.5
			c-0.7,0.7-1.2,1.5-1.6,2.5c-0.4,1-0.5,2.2-0.5,3.5c0,1.2,0.2,2.2,0.6,3.1c0.4,0.9,1,1.7,1.7,2.4s1.6,1.1,2.6,1.5
			c1,0.3,2.1,0.5,3.3,0.5c0.7,0,1.3-0.1,1.9-0.2c0.6-0.1,1.1-0.3,1.5-0.5v-3h-4.3v-4.7h9.2L533.8,37.7L533.8,37.7z"/>
		<path class="st0" d="M537.8,27.8c0-1.7,0.3-3.3,1-4.9c0.7-1.5,1.6-2.9,2.7-4.1c1.2-1.2,2.5-2.1,4-2.8s3.2-1,4.9-1s3.4,0.3,4.9,1
			s2.9,1.6,4.1,2.8s2.1,2.5,2.8,4.1c0.7,1.5,1,3.1,1,4.9s-0.3,3.4-1,4.9c-0.7,1.5-1.6,2.9-2.8,4s-2.5,2.1-4.1,2.7
			c-1.5,0.7-3.2,1-4.9,1c-1.8,0-3.4-0.3-4.9-1s-2.9-1.6-4-2.7c-1.2-1.2-2.1-2.5-2.7-4C538.2,31.2,537.8,29.6,537.8,27.8z
			 M542.9,27.8c0,1.1,0.2,2.1,0.6,3.1c0.4,1,0.9,1.8,1.7,2.5c0.7,0.7,1.5,1.3,2.5,1.7c0.9,0.4,1.9,0.6,3,0.6s2-0.2,2.9-0.6
			c0.9-0.4,1.7-1,2.4-1.7s1.2-1.6,1.6-2.5c0.4-1,0.6-2,0.6-3.1s-0.2-2.2-0.6-3.1c-0.4-1-0.9-1.8-1.6-2.5c-0.7-0.7-1.5-1.3-2.4-1.7
			s-1.9-0.6-3-0.6s-2.1,0.2-3,0.6s-1.7,1-2.4,1.7s-1.2,1.6-1.6,2.5C543.1,25.6,542.9,26.7,542.9,27.8z"/>
		<path class="st0" d="M141.4,71.1l0.4,4l-0.1-0.6c0.4-0.9,1-1.6,1.8-2.2c0.7-0.6,1.5-1.1,2.2-1.4s1.3-0.5,1.7-0.5l-0.2,4.7
			c-1.1-0.1-2,0-2.8,0.5s-1.4,1.1-1.8,2c-0.4,0.8-0.6,1.6-0.6,2.5v5.8h-4.7V71.1H141.4z"/>
		<path class="st0" d="M150.8,65.8c0-0.7,0.3-1.3,0.8-1.7s1.1-0.7,1.8-0.7c0.6,0,1.2,0.2,1.7,0.7c0.5,0.4,0.8,1,0.8,1.7
			s-0.3,1.3-0.8,1.7c-0.5,0.4-1.1,0.7-1.7,0.7c-0.6,0-1.2-0.2-1.8-0.7S150.8,66.5,150.8,65.8z M150.9,71.1h4.7v14.7h-4.7V71.1z"/>
		<path class="st0" d="M168.1,93.2c-1.3,0-2.4-0.2-3.4-0.5c-0.9-0.3-1.7-0.7-2.3-1.1s-1.2-0.9-1.7-1.3l2.8-3.2
			c0.5,0.5,1.1,0.9,1.8,1.4c0.7,0.4,1.6,0.7,2.7,0.7c0.7,0,1.4-0.1,2.1-0.4s1.2-0.6,1.5-1.1c0.4-0.5,0.6-1.1,0.6-1.9v-3.2l0.2,0.8
			c-0.4,0.8-1,1.4-2,2c-0.9,0.6-2.2,0.9-3.7,0.9c-1.3,0-2.6-0.3-3.7-1c-1.1-0.7-2-1.6-2.7-2.8c-0.7-1.2-1-2.5-1-4s0.4-2.9,1.1-4.1
			c0.7-1.2,1.7-2.2,2.8-2.8c1.1-0.7,2.4-1,3.6-1c1.3,0,2.4,0.2,3.3,0.6c0.9,0.4,1.6,0.8,2.1,1.4L172,73l0.5-1.6h4.3v14.7
			c0,1.4-0.4,2.7-1.2,3.8c-0.8,1.1-1.9,2-3.2,2.6S169.7,93.2,168.1,93.2z M164.1,78.2c0,0.8,0.2,1.5,0.5,2.1
			c0.4,0.6,0.8,1.1,1.5,1.5c0.6,0.4,1.3,0.5,2.1,0.5c0.7,0,1.2-0.1,1.7-0.3c0.5-0.2,1-0.4,1.3-0.7c0.4-0.3,0.7-0.7,1-1.2v-3.6
			c-0.2-0.5-0.5-0.9-0.9-1.3c-0.4-0.3-0.9-0.6-1.4-0.8c-0.5-0.2-1.1-0.3-1.8-0.3c-0.8,0-1.5,0.2-2.1,0.5s-1.1,0.8-1.5,1.4
			C164.3,76.7,164.1,77.4,164.1,78.2z"/>
		<path class="st0" d="M181.8,85.8V59.2h4.6V74v-0.6c0.5-0.9,1.2-1.7,2.2-2.2c0.9-0.6,2.1-0.9,3.5-0.9s2.6,0.4,3.5,1.2
			c0.9,0.8,1.4,1.9,1.4,3.2v11h-4.7v-9.3c0-0.7-0.2-1.2-0.5-1.6s-0.9-0.6-1.6-0.6c-0.7,0-1.3,0.2-1.9,0.7s-1,1.1-1.2,1.9
			s-0.4,1.7-0.4,2.8v6h-4.9V85.8z"/>
		<path class="st0" d="M203.2,64.6h4.7V71h3.6v3.7h-3.6v11.1h-4.7V74.7h-2.3V71h2.3V64.6z"/>
		<path class="st0" d="M227.5,85.8V75.2H225V71h2.5v-5.1c0-1.9,0.6-3.5,1.7-4.7c1.1-1.2,2.7-1.8,4.8-1.8c0.6,0,1.3,0.1,2.1,0.3
			s1.5,0.5,2,0.9l-2,3.4c-0.2-0.3-0.5-0.5-0.8-0.6s-0.6-0.2-0.9-0.2c-0.7,0-1.2,0.2-1.7,0.7c-0.4,0.4-0.6,1.2-0.6,2.2v5h4.4v4.2
			h-4.4v10.6L227.5,85.8L227.5,85.8z"/>
		<path class="st0" d="M238.6,78.2c0-1.5,0.4-2.9,1.1-4c0.7-1.2,1.7-2.1,3-2.8c1.3-0.7,2.8-1,4.4-1c1.7,0,3.1,0.3,4.4,1
			c1.2,0.7,2.2,1.6,2.8,2.8c0.7,1.2,1,2.5,1,4s-0.3,2.9-1,4.1s-1.6,2.2-2.8,2.8c-1.2,0.7-2.7,1-4.4,1c-1.6,0-3.1-0.3-4.3-0.9
			c-1.3-0.6-2.3-1.5-3-2.7C238.9,81.3,238.6,79.9,238.6,78.2z M243.3,78.3c0,0.8,0.2,1.5,0.5,2.1s0.7,1.1,1.3,1.5
			c0.5,0.4,1.1,0.5,1.8,0.5s1.4-0.2,1.9-0.5c0.5-0.4,1-0.8,1.2-1.5c0.3-0.6,0.4-1.3,0.4-2.1c0-0.8-0.1-1.5-0.4-2.1
			c-0.3-0.6-0.7-1.1-1.2-1.4c-0.5-0.4-1.2-0.5-1.9-0.5s-1.3,0.2-1.8,0.5c-0.5,0.4-1,0.8-1.3,1.4S243.3,77.5,243.3,78.3z"/>
		<path class="st0" d="M263.2,71.1l0.4,4l-0.1-0.6c0.4-0.9,1-1.6,1.8-2.2c0.7-0.6,1.5-1.1,2.2-1.4s1.3-0.5,1.7-0.5l-0.2,4.7
			c-1.1-0.1-2,0-2.8,0.5s-1.4,1.1-1.8,2c-0.4,0.8-0.6,1.6-0.6,2.5v5.8h-4.7V71.1H263.2z"/>
		<path class="st0" d="M288,71.1l0.4,2.6l-0.1-0.2c0.6-1,1.3-1.8,2.2-2.3c0.9-0.6,1.9-0.8,3.2-0.8c0.8,0,1.5,0.1,2.1,0.3
			c0.6,0.2,1.1,0.6,1.6,1c0.4,0.4,0.7,1,0.9,1.7h-0.2c0.6-0.9,1.4-1.7,2.3-2.2c0.9-0.6,1.8-0.8,2.8-0.8c1.5,0,2.6,0.4,3.5,1.2
			c0.9,0.8,1.3,1.9,1.3,3.2v11h-4.7v-9.1c0-0.7-0.1-1.2-0.3-1.6c-0.2-0.4-0.6-0.6-1.2-0.7c-0.8,0-1.4,0.3-1.9,0.8s-0.9,1.2-1.2,2
			s-0.4,1.7-0.4,2.5v6h-4.7v-9.1c0-0.7-0.1-1.2-0.4-1.6c-0.2-0.4-0.6-0.6-1.3-0.7c-0.7,0-1.4,0.3-1.9,0.8s-0.9,1.2-1.1,2
			c-0.3,0.8-0.4,1.6-0.4,2.5v6.1h-4.7V71.1H288z"/>
		<path class="st0" d="M320,86.2c-1.8,0-3.3-0.3-4.6-1c-1.2-0.7-2.2-1.6-2.8-2.8c-0.7-1.2-1-2.6-1-4.1s0.4-2.8,1.1-4
			c0.8-1.2,1.8-2.1,3.1-2.8c1.3-0.7,2.7-1.1,4.3-1.1c2.1,0,3.8,0.6,5.2,1.8c1.4,1.2,2.2,3,2.6,5.3l-11.5,3.6l-1-2.6l8.3-2.8l-1,0.4
			c-0.2-0.6-0.5-1.1-1-1.5s-1.2-0.7-2.1-0.7c-0.7,0-1.3,0.2-1.8,0.5s-0.9,0.8-1.2,1.4c-0.3,0.6-0.4,1.3-0.4,2.1
			c0,0.9,0.2,1.7,0.5,2.3c0.3,0.6,0.8,1.1,1.4,1.4s1.2,0.5,2,0.5c0.5,0,1-0.1,1.5-0.3c0.5-0.2,1-0.4,1.4-0.7l2.1,3.5
			c-0.8,0.4-1.6,0.8-2.5,1.1C321.7,86.1,320.8,86.2,320,86.2z"/>
		<path class="st0" d="M333.7,79.2v-1.8c0-1.1,0.1-2.1,0.4-2.8c0.3-0.8,0.6-1.4,1.1-1.9c0.4-0.5,0.9-1,1.3-1.4
			c0.6-0.6,1.1-1.1,1.6-1.7c0.5-0.5,0.7-1.3,0.7-2.2c0-0.5-0.1-0.9-0.4-1.2c-0.2-0.3-0.5-0.6-0.9-0.8s-0.7-0.3-1-0.3
			c-0.7,0-1.2,0.2-1.6,0.5s-0.8,0.7-1.1,1.2c-0.3,0.5-0.5,1-0.7,1.5l-3.9-1.8c0.1-0.4,0.4-0.9,0.7-1.5c0.3-0.6,0.8-1.3,1.4-1.9
			c0.6-0.6,1.4-1.2,2.3-1.6c0.9-0.4,2-0.6,3.4-0.6c1.3,0,2.4,0.2,3.5,0.7s1.8,1.1,2.4,2c0.6,0.9,0.9,2.1,0.9,3.6
			c0,1.2-0.2,2.2-0.5,3s-0.8,1.4-1.2,1.9c-0.5,0.5-1,1.1-1.5,1.6c-0.4,0.4-0.7,0.8-1.1,1.3c-0.3,0.5-0.6,1-0.8,1.6
			c-0.2,0.6-0.3,1.3-0.3,2.2v0.7h-4.7V79.2z M336.1,86.3c-0.8,0-1.5-0.2-2-0.7c-0.5-0.4-0.8-1-0.8-1.7s0.3-1.3,0.8-1.8
			s1.2-0.7,2-0.7s1.4,0.2,1.9,0.7s0.8,1.1,0.8,1.8c0,0.7-0.2,1.3-0.7,1.7C337.6,86,336.9,86.3,336.1,86.3z"/>
	</g>
	<g id="_x5F_1">
		<circle class="st1" cx="48.1" cy="48" r="46.1"/>
		<g>
			<path class="st2" d="M43.3,33.5h8.4v28.1h-6.2V39.5h-2.2C43.3,39.5,43.3,33.5,43.3,33.5z"/>
		</g>
	</g>
</g>
</svg>
