<?xml version="1.0" encoding="utf-8"?>
<!-- Generator: Adobe Illustrator 25.2.1, SVG Export Plug-In . SVG Version: 6.00 Build 0)  -->
<svg version="1.1" id="Layer_1" xmlns="http://www.w3.org/2000/svg" xmlns:xlink="http://www.w3.org/1999/xlink" x="0px" y="0px"
	 viewBox="0 0 654 326" style="enable-background:new 0 0 654 326;" xml:space="preserve">
<style type="text/css">
	.st0{fill-rule:evenodd;clip-rule:evenodd;fill:#2BA297;}
	.st1{fill:#FFFFFF;}
</style>
<g id="Selected_5_">
	<g>
		<g id="Frame-02_13_" transform="translate(-17.000000, -648.000000)">
			<g id="Group-2_13_" transform="translate(17.000000, 648.000000)">
				<rect id="Rectangle_13_" x="1.4" y="250.2" class="st0" width="641.2" height="71.8"/>
			</g>
		</g>
	</g>
</g>
<path class="st1" d="M30.6,306.4c-2.3,0-4.2-0.4-5.8-1.2s-2.9-1.8-4.1-3l0.7-1.9v5.3h-8.7v-49.3h8.7v26.7v-2.8
	c1.1-0.9,2.5-1.7,4.3-2.3c1.8-0.6,3.8-0.9,6.1-0.9c2.4,0,4.5,0.6,6.5,1.7c2,1.1,3.5,2.8,4.7,4.9c1.2,2.1,1.8,4.8,1.8,7.8
	c0,3.1-0.7,5.7-2,8c-1.3,2.2-3.1,4-5.2,5.2C35.4,305.8,33.1,306.4,30.6,306.4z M28.7,299.1c1.3,0,2.5-0.3,3.6-1
	c1.1-0.7,2-1.6,2.7-2.7c0.7-1.2,1-2.5,1-3.9s-0.3-2.7-1-3.9c-0.7-1.1-1.6-2-2.7-2.7c-1.1-0.6-2.3-1-3.6-1c-1.1,0-2.2,0.2-3.2,0.5
	c-1,0.4-1.8,0.9-2.5,1.5c-0.7,0.6-1.2,1.4-1.6,2.3v6.7c0.5,0.9,1.1,1.7,1.8,2.3c0.7,0.6,1.5,1.1,2.4,1.4
	C26.5,298.9,27.5,299.1,28.7,299.1z"/>
<path class="st1" d="M65.1,306.4c-3.3,0-6.2-0.6-8.5-1.9c-2.3-1.2-4.1-3-5.3-5.2c-1.2-2.2-1.8-4.7-1.8-7.6c0-2.7,0.7-5.2,2.1-7.4
	c1.4-2.2,3.3-4,5.7-5.3c2.4-1.3,5-2,7.9-2c3.9,0,7.1,1.1,9.7,3.4c2.5,2.3,4.2,5.6,4.9,9.8l-21.2,6.7l-1.9-4.7l15.4-5.2l-1.8,0.8
	c-0.3-1.1-0.9-2-1.8-2.8c-0.9-0.8-2.1-1.2-3.8-1.2c-1.3,0-2.4,0.3-3.4,0.9c-1,0.6-1.7,1.5-2.2,2.6c-0.5,1.1-0.8,2.4-0.8,3.9
	c0,1.7,0.3,3.1,0.9,4.3s1.5,2,2.6,2.6c1.1,0.6,2.3,0.9,3.6,0.9c1,0,1.9-0.2,2.8-0.5c0.9-0.3,1.8-0.8,2.7-1.3l3.9,6.5
	c-1.5,0.8-3,1.5-4.7,2S66.6,306.4,65.1,306.4z"/>
<path class="st1" d="M120.6,319.4c-2.5,0-4.5-0.3-6.2-0.9c-1.7-0.6-3.1-1.3-4.3-2.1c-1.2-0.8-2.2-1.6-3.1-2.4l5.1-6
	c1,0.9,2.1,1.7,3.3,2.5c1.3,0.8,2.9,1.2,5,1.2c1.4,0,2.7-0.2,3.8-0.7c1.2-0.5,2.1-1.2,2.9-2.1c0.7-0.9,1.1-2.1,1.1-3.4v-6l0.3,1.6
	c-0.7,1.4-1.9,2.7-3.6,3.7s-4,1.6-6.9,1.6c-2.5,0-4.7-0.6-6.8-1.9c-2.1-1.3-3.8-3-5-5.2c-1.2-2.2-1.9-4.7-1.9-7.5
	c0-2.9,0.7-5.4,2-7.7c1.3-2.2,3.1-4,5.2-5.3c2.1-1.3,4.4-1.9,6.7-1.9c2.4,0,4.4,0.3,6.2,1c1.7,0.7,3,1.5,3.9,2.5l-0.3,0.8l0.9-3h8.1
	v27.3c0,2.7-0.8,5-2.2,7.1c-1.5,2.1-3.5,3.7-6,4.9C126.4,318.8,123.6,319.4,120.6,319.4z M113.2,291.6c0,1.5,0.3,2.8,1,3.9
	c0.7,1.2,1.6,2.1,2.7,2.7c1.1,0.7,2.4,1,3.8,1c1.2,0,2.3-0.2,3.2-0.5c0.9-0.3,1.8-0.8,2.5-1.4c0.7-0.6,1.3-1.4,1.8-2.3v-6.7
	c-0.4-0.9-0.9-1.7-1.7-2.3c-0.8-0.6-1.6-1.1-2.6-1.5c-1-0.4-2.1-0.5-3.3-0.5c-1.4,0-2.7,0.3-3.8,1c-1.1,0.6-2.1,1.5-2.7,2.7
	C113.5,288.9,113.2,290.2,113.2,291.6z"/>
<path class="st1" d="M145.9,268.7c0-1.3,0.5-2.4,1.5-3.2c1-0.8,2.1-1.2,3.3-1.2c1.2,0,2.2,0.4,3.2,1.2c1,0.8,1.5,1.9,1.5,3.2
	c0,1.3-0.5,2.3-1.5,3.2c-1,0.8-2.1,1.2-3.2,1.2c-1.2,0-2.3-0.4-3.3-1.2C146.4,271.1,145.9,270,145.9,268.7z M146.1,278.4h8.7v27.3
	h-8.7V278.4z"/>
<path class="st1" d="M176.3,306.3l-16.4-27.9h10.4l9.3,18.9l-5.4-0.2l8.1-18.7h9.7l-15.5,27.9H176.3z"/>
<path class="st1" d="M209.7,306.4c-3.3,0-6.2-0.6-8.5-1.9c-2.3-1.2-4.1-3-5.3-5.2c-1.2-2.2-1.8-4.7-1.8-7.6c0-2.7,0.7-5.2,2.1-7.4
	c1.4-2.2,3.3-4,5.7-5.3c2.4-1.3,5-2,7.9-2c3.9,0,7.1,1.1,9.7,3.4c2.5,2.3,4.2,5.6,4.9,9.8l-21.2,6.7l-1.9-4.7l15.4-5.2l-1.8,0.8
	c-0.3-1.1-0.9-2-1.8-2.8c-0.9-0.8-2.1-1.2-3.8-1.2c-1.3,0-2.4,0.3-3.4,0.9c-1,0.6-1.7,1.5-2.2,2.6c-0.5,1.1-0.8,2.4-0.8,3.9
	c0,1.7,0.3,3.1,0.9,4.3c0.6,1.1,1.5,2,2.6,2.6c1.1,0.6,2.3,0.9,3.6,0.9c1,0,1.9-0.2,2.8-0.5c0.9-0.3,1.8-0.8,2.7-1.3l3.9,6.5
	c-1.5,0.8-3,1.5-4.7,2C212.8,306.2,211.2,306.4,209.7,306.4z"/>
<path class="st1" d="M238.7,278.4l0.7,4.9l-0.1-0.4c1-1.7,2.3-3.1,4.1-4.2c1.8-1.1,3.9-1.6,6.4-1.6c2.6,0,4.7,0.8,6.5,2.3
	c1.7,1.5,2.6,3.5,2.7,5.9v20.4h-8.7v-17.2c0-1.2-0.4-2.2-1-2.9s-1.6-1.1-3-1.1c-1.3,0-2.5,0.4-3.5,1.3c-1,0.9-1.8,2.1-2.3,3.6
	c-0.5,1.5-0.8,3.2-0.8,5.2v11.1h-8.7v-27.3H238.7z"/>
<path class="st1" d="M290,318.9l-5.1-5.4c1.2-0.9,2.2-2,2.9-3.4s1-3,1-4.9v-26.8h8.7v27.3c0,3.2-0.6,5.9-1.8,8.1
	S292.8,317.6,290,318.9z M288.6,268.7c0-1.3,0.5-2.4,1.5-3.2c1-0.8,2.1-1.2,3.3-1.2s2.2,0.4,3.2,1.2c1,0.8,1.5,1.9,1.5,3.2
	c0,1.3-0.5,2.3-1.5,3.2c-1,0.8-2.1,1.2-3.2,1.2s-2.3-0.4-3.3-1.2C289.1,271.1,288.6,270,288.6,268.7z"/>
<path class="st1" d="M315.4,307c-2.5,0-4.5-0.8-6.2-2.3c-1.7-1.5-2.5-3.5-2.6-5.9v-20.4h8.7v17.2c0.1,1.2,0.4,2.2,0.9,2.9
	c0.5,0.7,1.5,1.1,2.7,1.1c1.3,0,2.4-0.4,3.3-1.3s1.7-2.1,2.2-3.6c0.5-1.5,0.8-3.2,0.8-5.2v-11.1h8.7v27.3h-7.9l-0.7-5l0.1,0.6
	c-0.6,1.1-1.4,2.1-2.4,3c-1,0.9-2.1,1.6-3.4,2C318.5,306.8,317.1,307,315.4,307z"/>
<path class="st1" d="M352,306.3c-2.2,0-4.3-0.4-6.3-1.2s-3.6-1.9-4.9-3.3l3.6-4.8c1.3,1.2,2.6,2.1,3.7,2.6s2.2,0.8,3.1,0.8
	c0.7,0,1.3-0.1,1.9-0.2c0.6-0.1,1-0.4,1.3-0.7c0.3-0.3,0.5-0.7,0.5-1.2c0-0.7-0.3-1.3-0.8-1.7c-0.6-0.4-1.3-0.8-2.2-1
	c-0.9-0.3-1.8-0.6-2.8-0.8c-2.5-0.8-4.3-1.9-5.4-3.5c-1.1-1.5-1.7-3.2-1.7-5c0-1.4,0.4-2.8,1.1-4.2c0.7-1.4,1.9-2.6,3.5-3.5
	c1.6-0.9,3.7-1.4,6.2-1.4c2.3,0,4.2,0.2,5.8,0.7c1.6,0.5,3.1,1.2,4.5,2.2l-3.3,5.1c-0.8-0.6-1.7-1.2-2.7-1.6c-1-0.4-1.9-0.7-2.7-0.7
	c-0.7,0-1.4,0-1.9,0.2c-0.5,0.2-0.9,0.5-1.2,0.8c-0.3,0.3-0.4,0.7-0.4,1.1c0,0.8,0.3,1.4,0.9,1.9c0.6,0.5,1.5,0.8,2.5,1.1
	c1,0.2,2,0.5,2.9,0.9c1.3,0.4,2.5,1,3.4,1.7c1,0.7,1.7,1.6,2.2,2.5c0.5,1,0.8,2.2,0.8,3.5c0,1.7-0.4,3.2-1.3,4.7
	c-0.9,1.5-2.1,2.7-3.9,3.6S354.7,306.3,352,306.3z"/>
<path class="st1" d="M373.6,266.4h8.7v11.9h6.6v6.8h-6.6v20.6h-8.7v-20.6h-4.2v-6.8h4.2V266.4z"/>
<path class="st1" d="M427.5,306.4c-2.5,0-4.8-0.5-6.9-1.5c-2.1-1-3.7-2.6-4.9-4.7c-1.2-2.1-1.8-4.8-1.8-8.1c0-3.1,0.6-5.7,1.9-8
	c1.2-2.2,2.9-4,4.9-5.2s4.2-1.8,6.5-1.8c2.7,0,4.8,0.4,6.2,1.3c1.4,0.9,2.6,1.9,3.5,3l-0.4,1.1l0.8-4h8.1v27.3h-8.7v-5.9l0.7,1.9
	c-0.1,0-0.3,0.2-0.8,0.7c-0.4,0.5-1,1-1.8,1.7c-0.8,0.6-1.8,1.2-3,1.7S429.1,306.4,427.5,306.4z M430,299.3c1,0,2-0.2,2.8-0.5
	c0.8-0.3,1.6-0.8,2.2-1.4c0.6-0.6,1.2-1.4,1.6-2.3v-6.7c-0.3-0.9-0.8-1.7-1.5-2.3c-0.7-0.6-1.5-1.1-2.4-1.5
	c-0.9-0.4-1.9-0.5-3.1-0.5c-1.2,0-2.4,0.3-3.5,1c-1.1,0.6-1.9,1.5-2.5,2.7c-0.6,1.1-0.9,2.4-0.9,3.9s0.3,2.8,1,3.9s1.6,2.1,2.7,2.7
	C427.5,299,428.7,299.3,430,299.3z"/>
<path class="st1" d="M463.2,306.3c-2.2,0-4.3-0.4-6.3-1.2s-3.6-1.9-4.9-3.3l3.6-4.8c1.3,1.2,2.6,2.1,3.7,2.6s2.2,0.8,3.1,0.8
	c0.7,0,1.3-0.1,1.9-0.2c0.6-0.1,1-0.4,1.3-0.7c0.3-0.3,0.5-0.7,0.5-1.2c0-0.7-0.3-1.3-0.8-1.7c-0.6-0.4-1.3-0.8-2.2-1
	c-0.9-0.3-1.8-0.6-2.8-0.8c-2.5-0.8-4.3-1.9-5.4-3.5c-1.1-1.5-1.7-3.2-1.7-5c0-1.4,0.4-2.8,1.1-4.2c0.7-1.4,1.9-2.6,3.5-3.5
	c1.6-0.9,3.7-1.4,6.2-1.4c2.3,0,4.2,0.2,5.8,0.7c1.6,0.5,3.1,1.2,4.5,2.2l-3.3,5.1c-0.8-0.6-1.7-1.2-2.7-1.6c-1-0.4-1.9-0.7-2.7-0.7
	c-0.7,0-1.4,0-1.9,0.2c-0.5,0.2-0.9,0.5-1.2,0.8c-0.3,0.3-0.4,0.7-0.4,1.1c0,0.8,0.3,1.4,0.9,1.9c0.6,0.5,1.5,0.8,2.5,1.1
	c1,0.2,2,0.5,2.9,0.9c1.3,0.4,2.5,1,3.4,1.7c1,0.7,1.7,1.6,2.2,2.5c0.5,1,0.8,2.2,0.8,3.5c0,1.7-0.4,3.2-1.3,4.7
	c-0.9,1.5-2.1,2.7-3.9,3.6S465.9,306.3,463.2,306.3z"/>
<path class="st1" d="M505.2,305.7V286h-4.6v-7.7h4.6v-9.5c0-3.6,1-6.5,3.1-8.8c2.1-2.3,5.1-3.4,9-3.4c1.2,0,2.5,0.2,3.9,0.5
	c1.4,0.4,2.7,0.9,3.8,1.7l-3.7,6.3c-0.4-0.5-0.9-0.9-1.5-1.1s-1.1-0.3-1.6-0.3c-1.2,0-2.3,0.4-3.1,1.2c-0.8,0.8-1.2,2.2-1.2,4v9.2
	h8.2v7.7H514v19.7H505.2z"/>
<path class="st1" d="M539.4,306.4c-2.5,0-4.8-0.5-6.9-1.5c-2.1-1-3.7-2.6-4.9-4.7c-1.2-2.1-1.8-4.8-1.8-8.1c0-3.1,0.6-5.7,1.9-8
	c1.2-2.2,2.9-4,4.9-5.2s4.2-1.8,6.5-1.8c2.7,0,4.8,0.4,6.2,1.3c1.4,0.9,2.6,1.9,3.5,3l-0.4,1.1l0.8-4h8.1v27.3h-8.7v-5.9l0.7,1.9
	c-0.1,0-0.3,0.2-0.8,0.7c-0.4,0.5-1,1-1.8,1.7c-0.8,0.6-1.8,1.2-3,1.7S541,306.4,539.4,306.4z M541.9,299.3c1,0,2-0.2,2.8-0.5
	c0.8-0.3,1.6-0.8,2.2-1.4c0.6-0.6,1.2-1.4,1.6-2.3v-6.7c-0.3-0.9-0.8-1.7-1.5-2.3c-0.7-0.6-1.5-1.1-2.4-1.5
	c-0.9-0.4-1.9-0.5-3.1-0.5c-1.2,0-2.4,0.3-3.5,1c-1.1,0.6-1.9,1.5-2.5,2.7c-0.6,1.1-0.9,2.4-0.9,3.9s0.3,2.8,1,3.9s1.6,2.1,2.7,2.7
	C539.4,299,540.6,299.3,541.9,299.3z"/>
<path class="st1" d="M575.1,306.3c-2.2,0-4.3-0.4-6.3-1.2s-3.6-1.9-4.9-3.3l3.6-4.8c1.3,1.2,2.6,2.1,3.7,2.6s2.2,0.8,3.1,0.8
	c0.7,0,1.3-0.1,1.9-0.2c0.6-0.1,1-0.4,1.3-0.7c0.3-0.3,0.5-0.7,0.5-1.2c0-0.7-0.3-1.3-0.8-1.7c-0.6-0.4-1.3-0.8-2.2-1
	c-0.9-0.3-1.8-0.6-2.8-0.8c-2.5-0.8-4.3-1.9-5.4-3.5c-1.1-1.5-1.7-3.2-1.7-5c0-1.4,0.4-2.8,1.1-4.2c0.7-1.4,1.9-2.6,3.5-3.5
	c1.6-0.9,3.7-1.4,6.2-1.4c2.3,0,4.2,0.2,5.8,0.7c1.6,0.5,3.1,1.2,4.5,2.2l-3.3,5.1c-0.8-0.6-1.7-1.2-2.7-1.6c-1-0.4-1.9-0.7-2.7-0.7
	c-0.7,0-1.4,0-1.9,0.2c-0.5,0.2-0.9,0.5-1.2,0.8c-0.3,0.3-0.4,0.7-0.4,1.1c0,0.8,0.3,1.4,0.9,1.9c0.6,0.5,1.5,0.8,2.5,1.1
	c1,0.2,2,0.5,2.9,0.9c1.3,0.4,2.5,1,3.4,1.7c1,0.7,1.7,1.6,2.2,2.5c0.5,1,0.8,2.2,0.8,3.5c0,1.7-0.4,3.2-1.3,4.7
	c-0.9,1.5-2.1,2.7-3.9,3.6S577.8,306.3,575.1,306.3z"/>
<path class="st1" d="M596.7,266.4h8.7v11.9h6.6v6.8h-6.6v20.6h-8.7v-20.6h-4.2v-6.8h4.2V266.4z"/>
<path class="st1" d="M616.6,297.9c0.9-0.9,2-1.3,3.1-1.3c1,0,2,0.4,3,1.3c0.9,0.9,1.4,2,1.4,3.2c0,1.4-0.5,2.5-1.4,3.3
	c-0.9,0.8-1.9,1.2-3,1.2c-1.1,0-2.2-0.4-3.1-1.2c-0.9-0.8-1.4-1.9-1.4-3.3C615.2,299.9,615.7,298.8,616.6,297.9z"/>
</svg>
