<?xml version="1.0" encoding="utf-8"?>
<!-- Generator: Adobe Illustrator 25.2.1, SVG Export Plug-In . SVG Version: 6.00 Build 0)  -->
<svg version="1.1" id="Layer_1" xmlns="http://www.w3.org/2000/svg" xmlns:xlink="http://www.w3.org/1999/xlink" x="0px" y="0px"
	 viewBox="0 0 996 230" style="enable-background:new 0 0 996 230;" xml:space="preserve">
<style type="text/css">
	.st0{fill-rule:evenodd;clip-rule:evenodd;fill:#2BA297;}
	.st1{fill:#FFFFFF;}
</style>
<g>
	<g id="Selected_3_">
		<g>
			<g id="Frame-02_16_" transform="translate(-17.000000, -648.000000)">
				<g id="Group-2_16_" transform="translate(17.000000, 648.000000)">
					<rect id="Rectangle_16_" x="1.3" y="149" class="st0" width="986.3" height="79.8"/>
				</g>
			</g>
		</g>
	</g>
	<g>
		<path class="st1" d="M200.3,209.3c-2.3,0-4.5-0.6-6.5-1.7c-2-1.1-3.6-2.8-4.7-4.9c-1.2-2.1-1.8-4.8-1.8-7.8c0-3.1,0.7-5.8,2-8
			s3.1-3.9,5.2-5.2c2.1-1.2,4.5-1.8,7-1.8c2.3,0,4.3,0.4,5.8,1.2s2.9,1.8,4.1,3l-0.7,1.9v-5.3h8.7v41.1h-8.7v-18.4l0.1,2.8
			c-1.1,0.9-2.5,1.7-4.3,2.3S202.7,209.3,200.3,209.3z M203.5,202.5c1.2,0,2.2-0.2,3.2-0.5c1-0.4,1.8-0.9,2.5-1.5
			c0.7-0.7,1.2-1.4,1.5-2.3v-6.7c-0.5-0.9-1.1-1.7-1.8-2.3s-1.5-1.1-2.4-1.4c-0.9-0.3-1.9-0.5-3.1-0.5c-1.3,0-2.5,0.3-3.6,1
			s-2,1.6-2.7,2.7c-0.7,1.2-1,2.5-1,3.9c0,1.5,0.3,2.7,1,3.9c0.7,1.1,1.6,2,2.7,2.7C201,202.1,202.2,202.5,203.5,202.5z"/>
		<path class="st1" d="M237.3,209.9c-2.5,0-4.5-0.8-6.2-2.3s-2.5-3.5-2.6-5.9v-20.4h8.7v17.2c0.1,1.2,0.4,2.2,0.9,2.9
			s1.5,1.1,2.7,1.1c1.3,0,2.4-0.4,3.3-1.3c0.9-0.9,1.7-2.1,2.2-3.6s0.8-3.2,0.8-5.2v-11.1h8.7v27.3H248l-0.7-5l0.1,0.6
			c-0.6,1.1-1.4,2.1-2.4,3s-2.1,1.6-3.4,2C240.4,209.7,238.9,209.9,237.3,209.9z"/>
		<path class="st1" d="M278.4,209.3c-3.3,0-6.2-0.6-8.5-1.9c-2.3-1.2-4.1-3-5.3-5.2c-1.2-2.2-1.8-4.7-1.8-7.6c0-2.7,0.7-5.2,2.1-7.4
			s3.3-4,5.7-5.3c2.4-1.3,5-2,7.9-2c3.9,0,7.1,1.1,9.7,3.4c2.5,2.3,4.2,5.6,4.9,9.8l-21.2,6.7l-1.9-4.7l15.4-5.2l-1.8,0.8
			c-0.3-1.1-0.9-2-1.8-2.8s-2.1-1.2-3.8-1.2c-1.3,0-2.4,0.3-3.4,0.9c-1,0.6-1.7,1.5-2.2,2.6s-0.8,2.4-0.8,3.9c0,1.7,0.3,3.1,0.9,4.3
			c0.6,1.1,1.5,2,2.6,2.6s2.3,0.9,3.6,0.9c1,0,1.9-0.2,2.8-0.5s1.8-0.8,2.7-1.3l3.9,6.5c-1.5,0.8-3,1.5-4.7,2
			S279.9,209.3,278.4,209.3z"/>
		<path class="st1" d="M308.4,209.2c-2.2,0-4.3-0.4-6.3-1.2c-1.9-0.8-3.6-1.9-4.9-3.3l3.6-4.8c1.3,1.2,2.6,2.1,3.7,2.6
			s2.2,0.8,3.1,0.8c0.7,0,1.3-0.1,1.9-0.2c0.6-0.1,1-0.4,1.3-0.7s0.5-0.7,0.5-1.2c0-0.7-0.3-1.3-0.8-1.7c-0.6-0.4-1.3-0.8-2.2-1
			c-0.9-0.3-1.8-0.6-2.8-0.8c-2.5-0.8-4.3-1.9-5.4-3.5c-1.1-1.5-1.7-3.2-1.7-5c0-1.4,0.4-2.8,1.1-4.2s1.9-2.6,3.5-3.5
			s3.7-1.4,6.2-1.4c2.3,0,4.2,0.2,5.8,0.7c1.6,0.5,3.1,1.2,4.5,2.2l-3.3,5.1c-0.8-0.6-1.7-1.2-2.7-1.6c-1-0.4-1.9-0.7-2.7-0.7
			c-0.7,0-1.4,0-1.9,0.2s-0.9,0.5-1.2,0.8c-0.3,0.3-0.4,0.7-0.4,1.1c0,0.8,0.3,1.4,0.9,1.9s1.5,0.8,2.5,1.1c1,0.2,2,0.5,2.9,0.9
			c1.3,0.4,2.5,1,3.4,1.7c1,0.7,1.7,1.6,2.2,2.5c0.5,1,0.8,2.2,0.8,3.5c0,1.7-0.4,3.2-1.3,4.7s-2.1,2.7-3.9,3.6
			C313.2,208.7,311,209.2,308.4,209.2z"/>
		<path class="st1" d="M330,169.3h8.7v11.9h6.6v6.8h-6.6v20.6H330V188h-4.2v-6.8h4.2V169.3z"/>
		<path class="st1" d="M351.9,171.6c0-1.3,0.5-2.4,1.5-3.2s2.1-1.2,3.3-1.2c1.2,0,2.2,0.4,3.2,1.2s1.5,1.9,1.5,3.2s-0.5,2.3-1.5,3.2
			c-1,0.8-2.1,1.2-3.2,1.2c-1.2,0-2.3-0.4-3.3-1.2C352.4,173.9,351.9,172.9,351.9,171.6z M352,181.3h8.7v27.3H352V181.3z"/>
		<path class="st1" d="M367.7,194.6c0-2.8,0.7-5.3,2-7.5s3.2-3.9,5.5-5.2c2.4-1.3,5.1-1.9,8.2-1.9s5.8,0.6,8.1,1.9
			c2.3,1.3,4.1,3,5.3,5.2c1.2,2.2,1.8,4.7,1.8,7.5s-0.6,5.3-1.8,7.5c-1.2,2.2-3,4-5.3,5.3s-5,1.9-8.2,1.9c-3,0-5.7-0.6-8-1.7
			c-2.4-1.2-4.2-2.9-5.5-5.1C368.3,200.3,367.7,197.7,367.7,194.6z M376.5,194.7c0,1.4,0.3,2.7,0.9,3.8s1.4,2.1,2.4,2.7
			c1,0.7,2.1,1,3.4,1c1.4,0,2.6-0.3,3.6-1s1.8-1.6,2.3-2.7c0.5-1.1,0.8-2.4,0.8-3.8c0-1.5-0.3-2.7-0.8-3.9c-0.5-1.1-1.3-2-2.3-2.7
			s-2.2-1-3.6-1c-1.2,0-2.4,0.3-3.4,1s-1.8,1.6-2.4,2.7S376.5,193.2,376.5,194.7z"/>
		<path class="st1" d="M413.4,181.3l0.7,4.9l-0.1-0.4c1-1.7,2.3-3.1,4.1-4.2c1.7-1.1,3.9-1.6,6.4-1.6c2.6,0,4.7,0.8,6.5,2.3
			c1.7,1.5,2.6,3.5,2.7,5.9v20.4H425v-17.2c0-1.2-0.4-2.2-1-2.9s-1.6-1.1-3-1.1c-1.3,0-2.5,0.4-3.5,1.3c-1,0.9-1.8,2.1-2.3,3.6
			s-0.8,3.2-0.8,5.2v11.1h-8.7v-27.3H413.4z"/>
		<path class="st1" d="M451.5,209.2c-2.2,0-4.3-0.4-6.3-1.2c-1.9-0.8-3.6-1.9-4.9-3.3l3.6-4.8c1.3,1.2,2.6,2.1,3.7,2.6
			s2.2,0.8,3.1,0.8c0.7,0,1.3-0.1,1.9-0.2c0.6-0.1,1-0.4,1.3-0.7s0.5-0.7,0.5-1.2c0-0.7-0.3-1.3-0.8-1.7c-0.6-0.4-1.3-0.8-2.2-1
			c-0.9-0.3-1.8-0.6-2.8-0.8c-2.5-0.8-4.3-1.9-5.4-3.5c-1.1-1.5-1.7-3.2-1.7-5c0-1.4,0.4-2.8,1.1-4.2s1.9-2.6,3.5-3.5
			s3.7-1.4,6.2-1.4c2.3,0,4.2,0.2,5.8,0.7c1.6,0.5,3.1,1.2,4.5,2.2l-3.3,5.1c-0.8-0.6-1.7-1.2-2.7-1.6c-1-0.4-1.9-0.7-2.7-0.7
			c-0.7,0-1.4,0-1.9,0.2s-0.9,0.5-1.2,0.8c-0.3,0.3-0.4,0.7-0.4,1.1c0,0.8,0.3,1.4,0.9,1.9s1.5,0.8,2.5,1.1c1,0.2,2,0.5,2.9,0.9
			c1.3,0.4,2.5,1,3.4,1.7c1,0.7,1.7,1.6,2.2,2.5c0.5,1,0.8,2.2,0.8,3.5c0,1.7-0.4,3.2-1.3,4.7s-2.1,2.7-3.9,3.6
			C456.3,208.7,454.1,209.2,451.5,209.2z"/>
		<path class="st1" d="M502.3,209.3c-2.5,0-4.8-0.5-6.9-1.5s-3.7-2.6-4.9-4.7c-1.2-2.1-1.8-4.8-1.8-8.1c0-3.1,0.6-5.7,1.9-8
			c1.2-2.2,2.9-4,4.9-5.2s4.2-1.8,6.5-1.8c2.7,0,4.8,0.4,6.2,1.3c1.4,0.9,2.6,1.9,3.5,3l-0.4,1.1l0.8-4h8.1v27.3h-8.7v-5.9l0.7,1.9
			c-0.1,0-0.3,0.2-0.8,0.7c-0.4,0.5-1,1-1.8,1.7c-0.8,0.6-1.8,1.2-3,1.7C505.3,209.1,503.9,209.3,502.3,209.3z M504.8,202.2
			c1,0,2-0.2,2.8-0.5s1.6-0.8,2.2-1.4c0.6-0.6,1.2-1.4,1.6-2.3v-6.7c-0.3-0.9-0.8-1.7-1.5-2.3s-1.5-1.1-2.4-1.5s-1.9-0.5-3.1-0.5
			s-2.4,0.3-3.5,1c-1.1,0.6-1.9,1.5-2.5,2.7s-0.9,2.4-0.9,3.9s0.3,2.8,1,3.9c0.7,1.2,1.6,2.1,2.7,2.7
			C502.3,201.9,503.5,202.2,504.8,202.2z"/>
		<path class="st1" d="M547.1,209.3c-2.3,0-4.2-0.4-5.8-1.2s-2.9-1.8-4.1-3l0.7-1.9v5.3h-8.7v-49.3h8.7V186v-2.8
			c1.1-0.9,2.5-1.7,4.3-2.3s3.8-0.9,6.1-0.9c2.4,0,4.5,0.6,6.5,1.7c2,1.1,3.5,2.8,4.7,4.9c1.2,2.1,1.8,4.8,1.8,7.8
			c0,3.1-0.7,5.7-2,8c-1.3,2.2-3.1,4-5.2,5.2C551.9,208.7,549.6,209.3,547.1,209.3z M545.2,202c1.3,0,2.5-0.3,3.6-1s2-1.6,2.7-2.7
			c0.7-1.2,1-2.5,1-3.9c0-1.5-0.3-2.7-1-3.9s-1.6-2-2.7-2.7c-1.1-0.6-2.3-1-3.6-1c-1.1,0-2.2,0.2-3.2,0.5c-1,0.4-1.8,0.9-2.5,1.5
			s-1.2,1.4-1.6,2.3v6.7c0.5,0.9,1.1,1.7,1.8,2.3s1.5,1.1,2.4,1.4C543,201.8,544.1,202,545.2,202z"/>
		<path class="st1" d="M566,194.6c0-2.8,0.7-5.3,2-7.5s3.2-3.9,5.5-5.2c2.4-1.3,5.1-1.9,8.2-1.9c3.1,0,5.8,0.6,8.1,1.9
			c2.3,1.3,4.1,3,5.3,5.2s1.8,4.7,1.8,7.5s-0.6,5.3-1.8,7.5s-3,4-5.3,5.3s-5,1.9-8.2,1.9c-3,0-5.7-0.6-8-1.7
			c-2.4-1.2-4.2-2.9-5.5-5.1C566.7,200.3,566,197.7,566,194.6z M574.9,194.7c0,1.4,0.3,2.7,0.9,3.8c0.6,1.1,1.4,2.1,2.4,2.7
			c1,0.7,2.1,1,3.4,1c1.4,0,2.6-0.3,3.6-1s1.8-1.6,2.3-2.7c0.5-1.1,0.8-2.4,0.8-3.8c0-1.5-0.3-2.7-0.8-3.9c-0.5-1.1-1.3-2-2.3-2.7
			s-2.2-1-3.6-1c-1.2,0-2.4,0.3-3.4,1s-1.8,1.6-2.4,2.7C575.1,191.9,574.9,193.2,574.9,194.7z"/>
		<path class="st1" d="M612.7,209.9c-2.5,0-4.5-0.8-6.2-2.3s-2.5-3.5-2.6-5.9v-20.4h8.7v17.2c0.1,1.2,0.4,2.2,0.9,2.9
			s1.5,1.1,2.7,1.1c1.3,0,2.4-0.4,3.3-1.3c0.9-0.9,1.7-2.1,2.2-3.6s0.8-3.2,0.8-5.2v-11.1h8.7v27.3h-7.9l-0.7-5l0.1,0.6
			c-0.6,1.1-1.4,2.1-2.4,3s-2.1,1.6-3.4,2C615.7,209.7,614.3,209.9,612.7,209.9z"/>
		<path class="st1" d="M642.9,169.3h8.7v11.9h6.6v6.8h-6.6v20.6h-8.7V188h-4.2v-6.8h4.2V169.3z"/>
		<path class="st1" d="M700.6,162.6c3.8,0,7,0.6,9.6,1.9c2.6,1.3,4.6,3.1,6,5.4c1.4,2.3,2.1,5.1,2.1,8.2c0,1.9-0.3,3.8-0.8,5.7
			c-0.6,1.9-1.5,3.6-2.7,5.2c-1.2,1.5-2.9,2.8-4.9,3.7c-2.1,0.9-4.6,1.4-7.6,1.4h-6.5v14.6h-9.1v-46L700.6,162.6L700.6,162.6z
			 M702.2,185.2c1.4,0,2.5-0.2,3.4-0.7s1.6-1.1,2.2-1.8c0.5-0.7,0.9-1.5,1.1-2.3c0.2-0.8,0.3-1.5,0.3-2.1c0-0.5-0.1-1.1-0.2-1.8
			c-0.1-0.8-0.4-1.6-0.9-2.3c-0.5-0.8-1.2-1.5-2.1-2c-0.9-0.5-2.2-0.8-3.8-0.8h-6.5v13.9L702.2,185.2L702.2,185.2z"/>
		<path class="st1" d="M765.1,162.6v46H756v-18.7h-20.6v18.7h-9.1v-46h9.1v18.6H756v-18.6H765.1z"/>
		<path class="st1" d="M777,162.6h31.4v8.7H786v9.8h19.7v8.7H786v9.9h23.2v8.7H777V162.6z"/>
		<path class="st1" d="M843.1,173.7c-1.8-1-3.5-1.7-5.3-2.4c-1.8-0.6-3.5-0.9-5.1-0.9c-2,0-3.5,0.4-4.6,1.2s-1.7,2-1.7,3.6
			c0,1.1,0.4,2.1,1.3,2.9c0.9,0.9,2,1.6,3.3,2.3c1.4,0.7,2.8,1.3,4.2,1.8c1.3,0.5,2.7,1.1,4,1.8s2.5,1.5,3.5,2.6
			c1,1,1.9,2.3,2.5,3.8s0.9,3.4,0.9,5.6c0,2.3-0.6,4.5-1.8,6.5s-3,3.6-5.3,4.8s-5.2,1.8-8.6,1.8c-1.8,0-3.5-0.2-5.3-0.5
			c-1.8-0.4-3.6-0.9-5.3-1.6c-1.8-0.7-3.4-1.7-5.1-2.8l4-7.1c1.1,0.8,2.3,1.5,3.5,2.1c1.3,0.6,2.6,1.1,3.8,1.4
			c1.3,0.3,2.5,0.5,3.6,0.5s2.2-0.2,3.3-0.5s2-0.8,2.7-1.6s1.1-1.8,1.1-3.1c0-0.9-0.3-1.7-0.9-2.5c-0.6-0.7-1.4-1.4-2.4-2.1
			c-1-0.6-2.1-1.2-3.3-1.6c-1.4-0.5-2.9-1.2-4.4-1.9s-2.9-1.6-4.2-2.6s-2.4-2.3-3.2-3.8s-1.2-3.4-1.2-5.6c0-2.7,0.6-5,1.8-6.9
			c1.2-2,2.9-3.5,5-4.7c2.2-1.1,4.7-1.8,7.5-1.9c3.7,0,6.7,0.4,9,1.3c2.3,0.9,4.4,1.9,6.2,3.1L843.1,173.7z"/>
		<path class="st1" d="M892.3,204c-0.5,0.6-1.4,1.2-2.6,1.8c-1.2,0.6-2.5,1.2-4,1.7s-3.1,0.9-4.7,1.2s-3.1,0.5-4.5,0.5
			c-3.7,0-7.1-0.6-10.1-1.7c-3-1.1-5.6-2.6-7.7-4.6c-2.1-2-3.7-4.3-4.9-7c-1.1-2.7-1.7-5.7-1.7-8.9c0-4.2,0.6-7.9,1.9-11
			c1.3-3.1,3-5.7,5.2-7.7c2.2-2.1,4.7-3.6,7.6-4.6c2.9-1,5.8-1.5,9-1.5c3,0,5.7,0.3,8.1,1c2.5,0.6,4.5,1.4,6.2,2.4l-2.9,8.4
			c-0.7-0.4-1.7-0.8-3-1.2c-1.2-0.4-2.5-0.8-3.8-1c-1.3-0.3-2.4-0.4-3.4-0.4c-2.5,0-4.7,0.3-6.6,0.9c-1.9,0.6-3.5,1.6-4.8,2.8
			s-2.3,2.8-3,4.7s-1,4-1,6.5c0,2.2,0.4,4.1,1.1,5.8c0.8,1.7,1.8,3.2,3.2,4.4s3,2.1,4.8,2.7c1.9,0.6,3.9,0.9,6.2,0.9
			c1.3,0,2.5-0.1,3.6-0.3s2-0.5,2.7-0.9v-5.6h-7.9v-8.7h17.1L892.3,204L892.3,204z"/>
		<path class="st1" d="M899.8,185.7c0-3.2,0.6-6.2,1.8-9s2.9-5.3,5-7.5s4.6-3.9,7.5-5.2c2.8-1.2,5.9-1.9,9.1-1.9
			c3.2,0,6.2,0.6,9.1,1.9c2.8,1.2,5.3,3,7.5,5.2s3.9,4.7,5.1,7.5c1.2,2.8,1.8,5.8,1.8,9s-0.6,6.3-1.8,9.1s-2.9,5.3-5.1,7.5
			c-2.2,2.1-4.7,3.8-7.5,5s-5.9,1.8-9.1,1.8c-3.2,0-6.3-0.6-9.1-1.8s-5.3-2.9-7.5-5c-2.1-2.1-3.8-4.6-5-7.5
			C900.4,191.9,899.8,188.9,899.8,185.7z M909.2,185.7c0,2,0.4,3.9,1.1,5.7c0.7,1.8,1.7,3.3,3.1,4.7c1.3,1.4,2.8,2.4,4.6,3.2
			c1.7,0.7,3.6,1.1,5.7,1.1c2,0,3.8-0.4,5.5-1.1c1.7-0.8,3.2-1.8,4.4-3.2s2.2-2.9,2.9-4.7s1.1-3.7,1.1-5.7c0-2.1-0.4-4-1.1-5.8
			c-0.7-1.8-1.7-3.4-3-4.7c-1.3-1.4-2.8-2.4-4.5-3.2c-1.7-0.7-3.6-1.1-5.6-1.1s-3.9,0.4-5.6,1.1c-1.7,0.8-3.2,1.8-4.5,3.2
			s-2.3,2.9-3,4.7C909.5,181.6,909.2,183.6,909.2,185.7z"/>
		<path class="st1" d="M952.3,200.8c0.9-0.9,2-1.3,3.1-1.3c1,0,2,0.4,3,1.3c0.9,0.9,1.4,2,1.4,3.2c0,1.4-0.5,2.5-1.4,3.3
			s-1.9,1.2-3,1.2s-2.2-0.4-3.1-1.2c-0.9-0.8-1.4-1.9-1.4-3.3C950.9,202.8,951.3,201.7,952.3,200.8z"/>
	</g>
</g>
</svg>
