<?xml version="1.0" encoding="utf-8"?>
<!-- Generator: Adobe Illustrator 25.2.1, SVG Export Plug-In . SVG Version: 6.00 Build 0)  -->
<svg version="1.1" id="Layer_1" xmlns="http://www.w3.org/2000/svg" xmlns:xlink="http://www.w3.org/1999/xlink" x="0px" y="0px"
	 viewBox="0 0 996 230" style="enable-background:new 0 0 996 230;" xml:space="preserve">
<style type="text/css">
	.st0{fill-rule:evenodd;clip-rule:evenodd;fill:#2BA297;}
	.st1{fill:#FFFFFF;}
</style>
<g>
	<g id="Selected_8_">
		<g>
			<g id="Frame-02_15_" transform="translate(-17.000000, -648.000000)">
				<g id="Group-2_15_" transform="translate(17.000000, 648.000000)">
					<rect id="Rectangle_15_" x="1.3" y="62.7" class="st0" width="948.3" height="79.8"/>
				</g>
			</g>
		</g>
	</g>
	<g>
		<path class="st1" d="M185.7,123.3l20.7-47.8h0.5l20.7,47.8h-10.5L204,89.7l6.6-4.5l-15.9,38.1
			C194.7,123.3,185.7,123.3,185.7,123.3z M199.9,106.7h13.8l3.2,7.6h-19.8L199.9,106.7z"/>
		<path class="st1" d="M241.8,123.9c-2.2,0-4.3-0.4-6.3-1.2c-1.9-0.8-3.6-1.9-4.9-3.3l3.6-4.8c1.3,1.2,2.6,2.1,3.7,2.6
			c1.1,0.5,2.2,0.8,3.1,0.8c0.7,0,1.3-0.1,1.9-0.2c0.6-0.1,1-0.4,1.3-0.7c0.3-0.3,0.5-0.7,0.5-1.2c0-0.7-0.3-1.3-0.8-1.7
			c-0.6-0.4-1.3-0.8-2.2-1c-0.9-0.3-1.8-0.6-2.8-0.8c-2.5-0.8-4.3-1.9-5.4-3.5c-1.1-1.5-1.7-3.2-1.7-5c0-1.4,0.4-2.8,1.1-4.2
			c0.7-1.4,1.9-2.6,3.5-3.5s3.7-1.4,6.2-1.4c2.3,0,4.2,0.2,5.8,0.7s3.1,1.2,4.5,2.2l-3.3,5.1c-0.8-0.6-1.7-1.2-2.7-1.6
			s-1.9-0.7-2.7-0.7c-0.7,0-1.4,0-1.9,0.2s-0.9,0.5-1.2,0.8s-0.4,0.7-0.4,1.1c0,0.8,0.3,1.4,0.9,1.9c0.6,0.5,1.5,0.8,2.5,1.1
			c1,0.2,2,0.5,2.9,0.9c1.3,0.4,2.5,1,3.4,1.7c1,0.7,1.7,1.6,2.2,2.5c0.5,1,0.8,2.2,0.8,3.5c0,1.7-0.4,3.2-1.3,4.7
			c-0.9,1.5-2.1,2.7-3.9,3.6C246.7,123.4,244.5,123.9,241.8,123.9z"/>
		<path class="st1" d="M260.9,123.3V74h8.7v49.3H260.9z M267,115.7l-0.9-8.3l16.5-12.1l5.3,4.7L267,115.7z M276.6,104.7l12.4,18.6
			h-10.2l-7.9-13.6L276.6,104.7z"/>
		<path class="st1" d="M294.8,86.3c0-1.3,0.5-2.4,1.5-3.2c1-0.8,2.1-1.2,3.3-1.2c1.2,0,2.2,0.4,3.2,1.2c1,0.8,1.5,1.9,1.5,3.2
			c0,1.3-0.5,2.3-1.5,3.2c-1,0.8-2.1,1.2-3.2,1.2c-1.2,0-2.3-0.4-3.3-1.2C295.3,88.7,294.8,87.6,294.8,86.3z M295,96h8.7v27.3H295
			V96z"/>
		<path class="st1" d="M320.7,96l0.7,4.9l-0.1-0.4c1-1.7,2.3-3.1,4.1-4.2c1.7-1.1,3.9-1.6,6.4-1.6c2.6,0,4.7,0.8,6.5,2.3
			c1.7,1.5,2.6,3.5,2.7,5.9v20.4h-8.7v-17.2c0-1.2-0.4-2.2-1-2.9c-0.6-0.7-1.6-1.1-3-1.1c-1.3,0-2.5,0.4-3.5,1.3s-1.8,2.1-2.3,3.6
			s-0.8,3.2-0.8,5.2v11.1H313V96H320.7z"/>
		<path class="st1" d="M364,137c-2.5,0-4.5-0.3-6.2-0.9c-1.7-0.6-3.1-1.3-4.3-2.1c-1.2-0.8-2.2-1.6-3.1-2.4l5.1-6
			c1,0.9,2.1,1.7,3.3,2.5c1.3,0.8,2.9,1.2,5,1.2c1.4,0,2.7-0.2,3.8-0.7c1.2-0.5,2.1-1.2,2.9-2.1c0.7-0.9,1.1-2.1,1.1-3.4v-6l0.3,1.6
			c-0.7,1.4-1.9,2.7-3.6,3.7c-1.7,1.1-4,1.6-6.9,1.6c-2.5,0-4.7-0.6-6.8-1.9c-2.1-1.3-3.8-3-5-5.2s-1.9-4.7-1.9-7.5
			c0-2.9,0.7-5.4,2-7.7c1.3-2.2,3.1-4,5.2-5.3s4.4-1.9,6.7-1.9c2.4,0,4.4,0.3,6.2,1c1.7,0.7,3,1.5,3.9,2.5l-0.3,0.8l0.9-3h8.1v27.3
			c0,2.7-0.8,5-2.2,7.1c-1.5,2.1-3.5,3.7-6,4.9C369.7,136.4,367,137,364,137z M356.5,109.2c0,1.5,0.3,2.8,1,3.9
			c0.7,1.2,1.6,2.1,2.7,2.7c1.1,0.7,2.4,1,3.8,1c1.2,0,2.3-0.2,3.2-0.5c0.9-0.3,1.8-0.8,2.5-1.4s1.3-1.4,1.8-2.3v-6.7
			c-0.4-0.9-0.9-1.7-1.7-2.3c-0.7-0.6-1.6-1.1-2.6-1.5s-2.1-0.5-3.3-0.5c-1.4,0-2.7,0.3-3.8,1c-1.1,0.6-2.1,1.5-2.7,2.7
			C356.9,106.5,356.5,107.8,356.5,109.2z"/>
		<path class="st1" d="M419.2,123.4L405.8,96h9.8l10.4,23L419.2,123.4z M411.9,136.4L430.1,96h7.9l-17.6,40.4H411.9z"/>
		<path class="st1" d="M439.7,109.3c0-2.8,0.7-5.3,2-7.5s3.2-3.9,5.5-5.2c2.4-1.3,5.1-1.9,8.2-1.9s5.8,0.6,8.1,1.9
			c2.3,1.3,4.1,3,5.3,5.2c1.2,2.2,1.8,4.7,1.8,7.5s-0.6,5.3-1.8,7.5c-1.2,2.2-3,4-5.3,5.3s-5,1.9-8.2,1.9c-3,0-5.7-0.6-8-1.7
			c-2.4-1.2-4.2-2.9-5.5-5.1C440.4,115,439.7,112.4,439.7,109.3z M448.5,109.4c0,1.4,0.3,2.7,0.9,3.8c0.6,1.1,1.4,2.1,2.4,2.7
			c1,0.7,2.1,1,3.4,1c1.4,0,2.6-0.3,3.6-1s1.8-1.6,2.3-2.7s0.8-2.4,0.8-3.8c0-1.5-0.3-2.7-0.8-3.9c-0.5-1.1-1.3-2-2.3-2.7
			s-2.2-1-3.6-1c-1.2,0-2.4,0.3-3.4,1s-1.8,1.6-2.4,2.7S448.5,107.9,448.5,109.4z"/>
		<path class="st1" d="M486.3,124.6c-2.5,0-4.5-0.8-6.2-2.3s-2.5-3.5-2.6-5.9V96h8.7v17.2c0.1,1.2,0.4,2.2,0.9,2.9
			c0.5,0.7,1.5,1.1,2.8,1.1s2.4-0.4,3.3-1.3s1.7-2.1,2.2-3.6s0.8-3.2,0.8-5.2V96h8.7v27.3H497l-0.7-5l0.1,0.6
			c-0.6,1.1-1.4,2.1-2.4,3s-2.1,1.6-3.4,2C489.4,124.4,487.9,124.6,486.3,124.6z"/>
		<path class="st1" d="M521.9,96l0.8,7.5l-0.2-1.1c0.8-1.6,1.9-3,3.2-4.2c1.4-1.1,2.7-2,4.1-2.7c1.4-0.6,2.4-0.9,3.1-0.9l-0.4,8.7
			c-2-0.2-3.8,0.1-5.2,1c-1.5,0.9-2.6,2.1-3.4,3.6s-1.2,3-1.2,4.6v10.7H514V96H521.9z"/>
		<path class="st1" d="M571,124c-2.5,0-4.8-0.6-6.8-1.8c-2-1.2-3.6-2.9-4.7-5.2c-1.1-2.2-1.7-4.9-1.7-8s0.6-5.7,1.9-7.9
			c1.2-2.2,3-3.8,5.1-4.9c2.2-1.1,4.6-1.7,7.4-1.7c1.7,0,3.4,0.3,5,0.8s2.9,1.4,4,2.5v2.7V74h8.7v49.3h-8.7V118l0.7,1.9
			c-1.4,1.2-3,2.2-4.7,3C575.4,123.6,573.3,124,571,124z M573.9,116.7c1.2,0,2.2-0.2,3.1-0.5s1.7-0.8,2.4-1.4s1.3-1.4,1.8-2.3v-6.7
			c-0.3-0.9-0.8-1.7-1.5-2.3c-0.7-0.6-1.5-1.1-2.5-1.5s-2.1-0.5-3.2-0.5c-1.3,0-2.5,0.3-3.6,1c-1.1,0.6-2,1.5-2.7,2.7s-1,2.4-1,3.9
			s0.3,2.8,1,3.9c0.7,1.2,1.6,2.1,2.7,2.7C571.4,116.3,572.6,116.7,573.9,116.7z"/>
		<path class="st1" d="M596.8,109.3c0-2.8,0.7-5.3,2-7.5s3.2-3.9,5.5-5.2c2.4-1.3,5.1-1.9,8.2-1.9c3.1,0,5.8,0.6,8.1,1.9
			s4.1,3,5.3,5.2s1.8,4.7,1.8,7.5s-0.6,5.3-1.8,7.5s-3,4-5.3,5.3s-5,1.9-8.2,1.9c-3,0-5.7-0.6-8-1.7c-2.4-1.2-4.2-2.9-5.5-5.1
			C597.5,115,596.8,112.4,596.8,109.3z M605.6,109.4c0,1.4,0.3,2.7,0.9,3.8c0.6,1.1,1.4,2.1,2.4,2.7c1,0.7,2.1,1,3.4,1
			c1.4,0,2.6-0.3,3.6-1s1.8-1.6,2.3-2.7s0.8-2.4,0.8-3.8c0-1.5-0.3-2.7-0.8-3.9c-0.5-1.1-1.3-2-2.3-2.7s-2.2-1-3.6-1
			c-1.2,0-2.4,0.3-3.4,1s-1.8,1.6-2.4,2.7C605.9,106.6,605.6,107.9,605.6,109.4z"/>
		<path class="st1" d="M657.8,120.9c-1.2,1-2.7,1.7-4.5,2.3s-3.6,0.9-5.3,0.9c-3.1,0-5.8-0.6-8.2-1.7c-2.3-1.1-4.1-2.8-5.4-4.9
			c-1.3-2.1-1.9-4.7-1.9-7.8c0-3,0.7-5.6,2.1-7.8c1.4-2.1,3.2-3.8,5.4-4.9s4.6-1.7,7-1.7c2.5,0,4.6,0.3,6.4,1
			c1.8,0.7,3.4,1.5,4.7,2.6l-4.2,5.6c-0.6-0.5-1.4-0.9-2.4-1.4s-2.2-0.7-3.6-0.7c-1.2,0-2.3,0.3-3.3,0.9s-1.8,1.5-2.4,2.6
			c-0.6,1.1-0.9,2.3-0.9,3.7c0,1.3,0.3,2.6,0.9,3.7c0.6,1.1,1.5,2,2.6,2.7c1.1,0.6,2.4,1,3.9,1c1,0,1.8-0.1,2.7-0.4
			c0.8-0.3,1.5-0.7,2.1-1.2L657.8,120.9z"/>
		<path class="st1" d="M667.1,84h8.7v11.9h6.6v6.8h-6.6v20.6h-8.7v-20.6h-4.2v-6.8h4.2V84z"/>
		<path class="st1" d="M687,109.3c0-2.8,0.7-5.3,2-7.5s3.2-3.9,5.5-5.2c2.4-1.3,5.1-1.9,8.2-1.9c3.1,0,5.8,0.6,8.1,1.9
			s4.1,3,5.3,5.2s1.8,4.7,1.8,7.5s-0.6,5.3-1.8,7.5s-3,4-5.3,5.3s-5,1.9-8.2,1.9c-3,0-5.7-0.6-8-1.7c-2.4-1.2-4.2-2.9-5.5-5.1
			C687.7,115,687,112.4,687,109.3z M695.8,109.4c0,1.4,0.3,2.7,0.9,3.8c0.6,1.1,1.4,2.1,2.4,2.7c1,0.7,2.1,1,3.4,1
			c1.4,0,2.6-0.3,3.6-1s1.8-1.6,2.3-2.7s0.8-2.4,0.8-3.8c0-1.5-0.3-2.7-0.8-3.9c-0.5-1.1-1.3-2-2.3-2.7s-2.2-1-3.6-1
			c-1.2,0-2.4,0.3-3.4,1s-1.8,1.6-2.4,2.7S695.8,107.9,695.8,109.4z"/>
		<path class="st1" d="M732.7,96l0.8,7.5l-0.2-1.1c0.8-1.6,1.9-3,3.2-4.2c1.4-1.1,2.7-2,4.1-2.7c1.4-0.6,2.4-0.9,3.1-0.9l-0.4,8.7
			c-2-0.2-3.8,0.1-5.2,1c-1.5,0.9-2.6,2.1-3.4,3.6c-0.8,1.5-1.2,3-1.2,4.6v10.7h-8.7V96H732.7z"/>
		<path class="st1" d="M773.3,84h8.7v11.9h6.6v6.8H782v20.6h-8.7v-20.6H769v-6.8h4.2L773.3,84L773.3,84z"/>
		<path class="st1" d="M795.4,123.3V74h8.6v27.5l-0.1-1.1c1-1.7,2.3-3.1,4.1-4.2c1.7-1.1,3.9-1.6,6.4-1.6c2.6,0,4.7,0.8,6.5,2.3
			c1.7,1.5,2.6,3.5,2.7,5.9v20.4h-8.7V106c0-1.2-0.4-2.2-1-2.9c-0.6-0.7-1.6-1.1-3-1.1c-1.3,0-2.5,0.4-3.5,1.3s-1.8,2.1-2.3,3.6
			s-0.8,3.2-0.8,5.2v11.1L795.4,123.3L795.4,123.3z"/>
		<path class="st1" d="M845.9,124c-3.3,0-6.2-0.6-8.5-1.9c-2.3-1.2-4.1-3-5.3-5.2s-1.8-4.7-1.8-7.6c0-2.7,0.7-5.2,2.1-7.4
			c1.4-2.2,3.3-4,5.7-5.3s5-2,7.9-2c3.9,0,7.1,1.1,9.7,3.4c2.5,2.3,4.2,5.6,4.9,9.8l-21.2,6.7l-1.9-4.7l15.4-5.2l-1.8,0.8
			c-0.3-1.1-0.9-2-1.8-2.8c-0.9-0.8-2.1-1.2-3.8-1.2c-1.3,0-2.4,0.3-3.4,0.9s-1.7,1.5-2.2,2.6s-0.8,2.4-0.8,3.9
			c0,1.7,0.3,3.1,0.9,4.3c0.6,1.1,1.5,2,2.6,2.6s2.3,0.9,3.6,0.9c1,0,1.9-0.2,2.8-0.5c0.9-0.3,1.8-0.8,2.7-1.3l3.9,6.5
			c-1.5,0.8-3,1.5-4.7,2C849,123.8,847.4,124,845.9,124z"/>
		<path class="st1" d="M875.9,123.9c-2.2,0-4.3-0.4-6.3-1.2c-1.9-0.8-3.6-1.9-4.9-3.3l3.6-4.8c1.3,1.2,2.6,2.1,3.7,2.6
			c1.1,0.5,2.2,0.8,3.1,0.8c0.7,0,1.3-0.1,1.9-0.2c0.6-0.1,1-0.4,1.3-0.7c0.3-0.3,0.5-0.7,0.5-1.2c0-0.7-0.3-1.3-0.8-1.7
			c-0.6-0.4-1.3-0.8-2.2-1c-0.9-0.3-1.8-0.6-2.8-0.8c-2.5-0.8-4.3-1.9-5.4-3.5c-1.1-1.5-1.7-3.2-1.7-5c0-1.4,0.4-2.8,1.1-4.2
			c0.7-1.4,1.9-2.6,3.5-3.5s3.7-1.4,6.2-1.4c2.3,0,4.2,0.2,5.8,0.7s3.1,1.2,4.5,2.2l-3.3,5.1c-0.8-0.6-1.7-1.2-2.7-1.6
			s-1.9-0.7-2.7-0.7s-1.4,0-1.9,0.2s-0.9,0.5-1.2,0.8s-0.4,0.7-0.4,1.1c0,0.8,0.3,1.4,0.9,1.9c0.6,0.5,1.5,0.8,2.5,1.1
			c1,0.2,2,0.5,2.9,0.9c1.3,0.4,2.5,1,3.4,1.7c1,0.7,1.7,1.6,2.2,2.5c0.5,1,0.8,2.2,0.8,3.5c0,1.7-0.4,3.2-1.3,4.7
			c-0.9,1.5-2.1,2.7-3.9,3.6C880.8,123.4,878.6,123.9,875.9,123.9z"/>
		<path class="st1" d="M908.4,124c-3.3,0-6.2-0.6-8.5-1.9c-2.3-1.2-4.1-3-5.3-5.2s-1.8-4.7-1.8-7.6c0-2.7,0.7-5.2,2.1-7.4
			c1.4-2.2,3.3-4,5.7-5.3s5-2,7.9-2c3.9,0,7.1,1.1,9.7,3.4c2.5,2.3,4.2,5.6,4.9,9.8l-21.2,6.7l-1.9-4.7l15.4-5.2l-1.8,0.8
			c-0.3-1.1-0.9-2-1.8-2.8c-0.9-0.8-2.1-1.2-3.8-1.2c-1.3,0-2.4,0.3-3.4,0.9s-1.7,1.5-2.2,2.6s-0.8,2.4-0.8,3.9
			c0,1.7,0.3,3.1,0.9,4.3c0.6,1.1,1.5,2,2.6,2.6s2.3,0.9,3.6,0.9c1,0,1.9-0.2,2.8-0.5c0.9-0.3,1.8-0.8,2.7-1.3l3.9,6.5
			c-1.5,0.8-3,1.5-4.7,2C911.5,123.8,909.9,124,908.4,124z"/>
	</g>
</g>
</svg>
