<?xml version="1.0" encoding="utf-8"?>
<!-- Generator: Adobe Illustrator 25.2.1, SVG Export Plug-In . SVG Version: 6.00 Build 0)  -->
<svg version="1.1" id="Layer_1" xmlns="http://www.w3.org/2000/svg" xmlns:xlink="http://www.w3.org/1999/xlink" x="0px" y="0px"
	 viewBox="0 0 900 121" style="enable-background:new 0 0 900 121;" xml:space="preserve">
<style type="text/css">
	.st0{fill:#101010;}
</style>
<g>
	<path class="st0" d="M5.8,13.1c-0.3,0.2-0.6,0.4-1,0.6c-0.3,0.2-0.7,0.4-1,0.6c-0.2-0.4-0.4-0.8-0.7-1.2c-0.2-0.4-0.5-0.8-0.7-1.2
		c0.3-0.2,0.7-0.4,1-0.5c0.3-0.2,0.7-0.4,1-0.5c-0.3-0.2-0.6-0.4-1-0.6c-0.3-0.2-0.7-0.4-1-0.6c0.2-0.4,0.4-0.7,0.6-1.1
		c0.2-0.4,0.4-0.7,0.6-1.1c0.3,0.2,0.7,0.4,1,0.6c0.3,0.2,0.7,0.4,1,0.6V6.1h2.7c0,0.4,0,0.8,0,1.2c0,0.4,0,0.8,0,1.2
		c0.3-0.2,0.7-0.4,1-0.6c0.3-0.2,0.7-0.4,1-0.6c0.2,0.4,0.4,0.7,0.6,1.1c0.2,0.4,0.4,0.7,0.6,1.1c-0.3,0.2-0.7,0.4-1,0.6
		c-0.3,0.2-0.7,0.4-1.1,0.6c0.3,0.2,0.7,0.4,1,0.6c0.3,0.2,0.7,0.4,1,0.6c-0.2,0.4-0.4,0.8-0.7,1.2c-0.2,0.4-0.5,0.8-0.7,1.2
		c-0.3-0.2-0.7-0.4-1-0.6c-0.3-0.2-0.7-0.4-1-0.6c0,0.4,0,0.7,0,1.1c0,0.4,0,0.7,0,1.1H5.8V13.1z"/>
	<path class="st0" d="M21.6,21.9L12.9,5.6h5.7l6.1,12.2L23.3,18l6-12.3H35l-8.8,16.2v7.3h-4.6V21.9z"/>
	<path class="st0" d="M33.2,22c0-1.4,0.3-2.7,1-3.8c0.7-1.1,1.6-2,2.8-2.7c1.2-0.7,2.6-1,4.2-1c1.6,0,3,0.3,4.2,1
		c1.2,0.7,2.1,1.5,2.7,2.7c0.6,1.1,0.9,2.4,0.9,3.8c0,1.4-0.3,2.7-0.9,3.9c-0.6,1.1-1.5,2-2.7,2.7c-1.2,0.7-2.6,1-4.2,1
		c-1.5,0-2.9-0.3-4.1-0.9c-1.2-0.6-2.1-1.5-2.8-2.6C33.5,25,33.2,23.6,33.2,22z M37.7,22.1c0,0.7,0.1,1.4,0.4,2
		c0.3,0.6,0.7,1.1,1.2,1.4c0.5,0.3,1.1,0.5,1.7,0.5c0.7,0,1.3-0.2,1.8-0.5c0.5-0.3,0.9-0.8,1.2-1.4c0.3-0.6,0.4-1.2,0.4-2
		c0-0.7-0.1-1.4-0.4-2c-0.3-0.6-0.7-1-1.2-1.4c-0.5-0.3-1.1-0.5-1.8-0.5c-0.6,0-1.2,0.2-1.7,0.5c-0.5,0.3-0.9,0.8-1.2,1.4
		C37.9,20.6,37.7,21.3,37.7,22.1z"/>
	<path class="st0" d="M57.1,29.9c-1.3,0-2.3-0.4-3.2-1.2c-0.9-0.8-1.3-1.8-1.3-3V15.2H57V24c0,0.6,0.2,1.1,0.5,1.5
		c0.3,0.4,0.7,0.6,1.4,0.6s1.2-0.2,1.7-0.7c0.5-0.4,0.9-1.1,1.1-1.8c0.3-0.8,0.4-1.7,0.4-2.6v-5.7h4.5v14h-4.1l-0.4-2.6l0.1,0.3
		c-0.3,0.6-0.7,1.1-1.2,1.5c-0.5,0.4-1.1,0.8-1.7,1S57.9,29.9,57.1,29.9z"/>
	<path class="st0" d="M75.3,15.2l0.4,3.8l-0.1-0.6c0.4-0.8,1-1.5,1.7-2.1c0.7-0.6,1.4-1,2.1-1.4s1.2-0.5,1.6-0.5L80.7,19
		c-1-0.1-1.9,0-2.7,0.5s-1.3,1.1-1.7,1.9c-0.4,0.8-0.6,1.6-0.6,2.4v5.5h-4.4v-14H75.3z"/>
	<path class="st0" d="M96.1,29.2V19.1h-2.4v-4h2.4v-4.9c0-1.8,0.5-3.3,1.6-4.5c1.1-1.2,2.6-1.7,4.6-1.7c0.6,0,1.3,0.1,2,0.3
		c0.7,0.2,1.4,0.5,1.9,0.9l-1.9,3.2c-0.2-0.3-0.5-0.5-0.8-0.6c-0.3-0.1-0.6-0.1-0.8-0.1c-0.6,0-1.2,0.2-1.6,0.6
		c-0.4,0.4-0.6,1.1-0.6,2v4.7h3.6v4h-3.6v10.1H96.1z M105.9,10.2c0-0.7,0.3-1.2,0.8-1.6c0.5-0.4,1.1-0.6,1.7-0.6
		c0.6,0,1.1,0.2,1.6,0.6c0.5,0.4,0.8,1,0.8,1.6s-0.3,1.2-0.8,1.6c-0.5,0.4-1.1,0.6-1.6,0.6c-0.6,0-1.2-0.2-1.7-0.6
		C106.1,11.4,105.9,10.9,105.9,10.2z M106,15.2h4.5v14H106V15.2z"/>
	<path class="st0" d="M119.1,15.2l0.4,3.8l-0.1-0.6c0.4-0.8,1-1.5,1.7-2.1c0.7-0.6,1.4-1,2.1-1.4s1.2-0.5,1.6-0.5l-0.2,4.5
		c-1-0.1-1.9,0-2.7,0.5s-1.3,1.1-1.7,1.9c-0.4,0.8-0.6,1.6-0.6,2.4v5.5h-4.4v-14H119.1z"/>
	<path class="st0" d="M132.7,29.5c-1.2,0-2.2-0.2-3.2-0.6c-1-0.4-1.8-1-2.5-1.7l1.9-2.5c0.7,0.6,1.3,1.1,1.9,1.3
		c0.6,0.3,1.1,0.4,1.6,0.4c0.4,0,0.7,0,1-0.1c0.3-0.1,0.5-0.2,0.7-0.4c0.2-0.2,0.3-0.4,0.3-0.6c0-0.4-0.1-0.7-0.4-0.9
		c-0.3-0.2-0.7-0.4-1.1-0.5c-0.4-0.1-0.9-0.3-1.4-0.4c-1.3-0.4-2.2-1-2.8-1.8c-0.6-0.8-0.8-1.6-0.8-2.5c0-0.7,0.2-1.4,0.6-2.1
		s1-1.3,1.8-1.8s1.9-0.7,3.2-0.7c1.2,0,2.2,0.1,3,0.4c0.8,0.2,1.6,0.6,2.3,1.2l-1.7,2.6c-0.4-0.3-0.9-0.6-1.4-0.8s-1-0.3-1.4-0.4
		c-0.4,0-0.7,0-1,0.1s-0.5,0.2-0.6,0.4c-0.1,0.2-0.2,0.4-0.2,0.5c0,0.4,0.1,0.7,0.5,1s0.8,0.4,1.3,0.5c0.5,0.1,1,0.3,1.5,0.4
		c0.7,0.2,1.3,0.5,1.8,0.9c0.5,0.4,0.9,0.8,1.1,1.3c0.3,0.5,0.4,1.1,0.4,1.8c0,0.9-0.2,1.7-0.7,2.4c-0.4,0.8-1.1,1.4-2,1.8
		C135.2,29.2,134.1,29.5,132.7,29.5z"/>
	<path class="st0" d="M143.8,9.1h4.5v6.1h3.4v3.5h-3.4v10.6h-4.5V18.6h-2.2v-3.5h2.2V9.1z"/>
	<path class="st0" d="M171.2,29.6c-1.3,0-2.5-0.3-3.5-0.9c-1-0.6-1.8-1.5-2.4-2.6s-0.9-2.5-0.9-4.1c0-1.6,0.3-2.9,1-4
		c0.6-1.1,1.5-2,2.6-2.5c1.1-0.6,2.4-0.9,3.8-0.9c0.9,0,1.8,0.1,2.6,0.4c0.8,0.3,1.5,0.7,2.1,1.3v1.4V3.9h4.4v25.2h-4.5v-2.7l0.4,1
		c-0.7,0.6-1.5,1.1-2.4,1.5C173.4,29.4,172.4,29.6,171.2,29.6z M172.7,25.8c0.6,0,1.1-0.1,1.6-0.2c0.5-0.2,0.9-0.4,1.2-0.7
		c0.4-0.3,0.7-0.7,0.9-1.2v-3.4c-0.2-0.5-0.4-0.9-0.8-1.2c-0.4-0.3-0.8-0.6-1.3-0.8c-0.5-0.2-1.1-0.3-1.6-0.3
		c-0.7,0-1.3,0.2-1.8,0.5c-0.6,0.3-1,0.8-1.4,1.4c-0.3,0.6-0.5,1.2-0.5,2c0,0.7,0.2,1.4,0.5,2c0.3,0.6,0.8,1.1,1.4,1.4
		S172,25.8,172.7,25.8z"/>
	<path class="st0" d="M184.4,22c0-1.4,0.3-2.7,1-3.8c0.7-1.1,1.6-2,2.8-2.7c1.2-0.7,2.6-1,4.2-1c1.6,0,3,0.3,4.2,1
		c1.2,0.7,2.1,1.5,2.7,2.7c0.6,1.1,0.9,2.4,0.9,3.8c0,1.4-0.3,2.7-0.9,3.9c-0.6,1.1-1.5,2-2.7,2.7c-1.2,0.7-2.6,1-4.2,1
		c-1.5,0-2.9-0.3-4.1-0.9c-1.2-0.6-2.1-1.5-2.8-2.6C184.7,25,184.4,23.6,184.4,22z M188.9,22.1c0,0.7,0.1,1.4,0.4,2
		c0.3,0.6,0.7,1.1,1.2,1.4c0.5,0.3,1.1,0.5,1.7,0.5c0.7,0,1.3-0.2,1.8-0.5c0.5-0.3,0.9-0.8,1.2-1.4c0.3-0.6,0.4-1.2,0.4-2
		c0-0.7-0.1-1.4-0.4-2c-0.3-0.6-0.7-1-1.2-1.4c-0.5-0.3-1.1-0.5-1.8-0.5c-0.6,0-1.2,0.2-1.7,0.5c-0.5,0.3-0.9,0.8-1.2,1.4
		C189,20.6,188.9,21.3,188.9,22.1z"/>
	<path class="st0" d="M208.3,29.5c-1.2,0-2.2-0.2-3.2-0.6c-1-0.4-1.8-1-2.5-1.7l1.9-2.5c0.7,0.6,1.3,1.1,1.9,1.3
		c0.6,0.3,1.1,0.4,1.6,0.4c0.4,0,0.7,0,1-0.1c0.3-0.1,0.5-0.2,0.7-0.4c0.2-0.2,0.3-0.4,0.3-0.6c0-0.4-0.1-0.7-0.4-0.9
		c-0.3-0.2-0.7-0.4-1.1-0.5c-0.4-0.1-0.9-0.3-1.4-0.4c-1.3-0.4-2.2-1-2.8-1.8c-0.6-0.8-0.8-1.6-0.8-2.5c0-0.7,0.2-1.4,0.6-2.1
		s1-1.3,1.8-1.8s1.9-0.7,3.2-0.7c1.2,0,2.2,0.1,3,0.4c0.8,0.2,1.6,0.6,2.3,1.2l-1.7,2.6c-0.4-0.3-0.9-0.6-1.4-0.8s-1-0.3-1.4-0.4
		c-0.4,0-0.7,0-1,0.1s-0.5,0.2-0.6,0.4c-0.1,0.2-0.2,0.4-0.2,0.5c0,0.4,0.1,0.7,0.5,1s0.8,0.4,1.3,0.5c0.5,0.1,1,0.3,1.5,0.4
		c0.7,0.2,1.3,0.5,1.8,0.9c0.5,0.4,0.9,0.8,1.1,1.3c0.3,0.5,0.4,1.1,0.4,1.8c0,0.9-0.2,1.7-0.7,2.4c-0.4,0.8-1.1,1.4-2,1.8
		C210.8,29.2,209.6,29.5,208.3,29.5z"/>
	<path class="st0" d="M224.9,29.6c-1.7,0-3.2-0.3-4.3-1c-1.2-0.6-2.1-1.5-2.7-2.7c-0.6-1.1-0.9-2.4-0.9-3.9c0-1.4,0.4-2.7,1.1-3.8
		s1.7-2,2.9-2.7s2.6-1,4.1-1c2,0,3.7,0.6,4.9,1.7c1.3,1.2,2.1,2.8,2.5,5l-10.9,3.5l-1-2.4l7.9-2.7l-0.9,0.4c-0.2-0.6-0.5-1-0.9-1.5
		c-0.4-0.4-1.1-0.6-2-0.6c-0.7,0-1.2,0.2-1.7,0.5c-0.5,0.3-0.9,0.7-1.2,1.3c-0.3,0.6-0.4,1.2-0.4,2c0,0.9,0.2,1.6,0.5,2.2
		c0.3,0.6,0.8,1,1.3,1.3c0.6,0.3,1.2,0.4,1.9,0.4c0.5,0,1-0.1,1.4-0.3c0.5-0.2,0.9-0.4,1.4-0.7l2,3.3c-0.7,0.4-1.6,0.8-2.4,1
		S225.7,29.6,224.9,29.6z"/>
	<path class="st0" d="M246,10.2c0-0.7,0.3-1.2,0.8-1.6c0.5-0.4,1.1-0.6,1.7-0.6c0.6,0,1.1,0.2,1.6,0.6c0.5,0.4,0.8,1,0.8,1.6
		s-0.3,1.2-0.8,1.6c-0.5,0.4-1.1,0.6-1.6,0.6c-0.6,0-1.2-0.2-1.7-0.6C246.3,11.4,246,10.9,246,10.2z M246.1,15.2h4.5v14h-4.5V15.2z"
		/>
	<path class="st0" d="M259.8,29.5c-1.2,0-2.2-0.2-3.2-0.6c-1-0.4-1.8-1-2.5-1.7l1.9-2.5c0.7,0.6,1.3,1.1,1.9,1.3
		c0.6,0.3,1.1,0.4,1.6,0.4c0.4,0,0.7,0,1-0.1c0.3-0.1,0.5-0.2,0.7-0.4c0.2-0.2,0.3-0.4,0.3-0.6c0-0.4-0.1-0.7-0.4-0.9
		c-0.3-0.2-0.7-0.4-1.1-0.5c-0.4-0.1-0.9-0.3-1.4-0.4c-1.3-0.4-2.2-1-2.8-1.8c-0.6-0.8-0.8-1.6-0.8-2.5c0-0.7,0.2-1.4,0.6-2.1
		s1-1.3,1.8-1.8s1.9-0.7,3.2-0.7c1.2,0,2.2,0.1,3,0.4c0.8,0.2,1.6,0.6,2.3,1.2l-1.7,2.6c-0.4-0.3-0.9-0.6-1.4-0.8s-1-0.3-1.4-0.4
		c-0.4,0-0.7,0-1,0.1s-0.5,0.2-0.6,0.4c-0.1,0.2-0.2,0.4-0.2,0.5c0,0.4,0.1,0.7,0.5,1s0.8,0.4,1.3,0.5c0.5,0.1,1,0.3,1.5,0.4
		c0.7,0.2,1.3,0.5,1.8,0.9c0.5,0.4,0.9,0.8,1.1,1.3c0.3,0.5,0.4,1.1,0.4,1.8c0,0.9-0.2,1.7-0.7,2.4c-0.4,0.8-1.1,1.4-2,1.8
		C262.2,29.2,261.1,29.5,259.8,29.5z"/>
	<path class="st0" d="M287.1,36.2c-1.3,0-2.3-0.1-3.2-0.4c-0.9-0.3-1.6-0.7-2.2-1.1c-0.6-0.4-1.1-0.8-1.6-1.2l2.6-3.1
		c0.5,0.4,1.1,0.9,1.7,1.3c0.7,0.4,1.5,0.6,2.6,0.6c0.7,0,1.4-0.1,2-0.4c0.6-0.2,1.1-0.6,1.5-1.1c0.4-0.5,0.6-1.1,0.6-1.8v-3.1
		l0.2,0.8c-0.3,0.7-1,1.4-1.9,1.9c-0.9,0.5-2.1,0.8-3.5,0.8c-1.3,0-2.4-0.3-3.5-1c-1.1-0.7-1.9-1.5-2.6-2.7c-0.6-1.1-1-2.4-1-3.8
		c0-1.5,0.3-2.8,1-3.9c0.7-1.1,1.6-2,2.7-2.7c1.1-0.7,2.2-1,3.5-1c1.2,0,2.3,0.2,3.2,0.5c0.9,0.4,1.6,0.8,2,1.3l-0.2,0.4l0.5-1.5
		h4.1v14c0,1.4-0.4,2.6-1.2,3.6c-0.8,1.1-1.8,1.9-3.1,2.5C290.1,35.9,288.7,36.2,287.1,36.2z M283.3,22c0,0.7,0.2,1.4,0.5,2
		c0.3,0.6,0.8,1.1,1.4,1.4s1.2,0.5,2,0.5c0.6,0,1.2-0.1,1.6-0.2c0.5-0.2,0.9-0.4,1.3-0.7c0.4-0.3,0.7-0.7,0.9-1.2v-3.4
		c-0.2-0.5-0.5-0.9-0.9-1.2c-0.4-0.3-0.8-0.6-1.3-0.8c-0.5-0.2-1.1-0.3-1.7-0.3c-0.7,0-1.4,0.2-2,0.5c-0.6,0.3-1.1,0.8-1.4,1.4
		C283.5,20.6,283.3,21.2,283.3,22z"/>
	<path class="st0" d="M300.1,10.2c0-0.7,0.3-1.2,0.8-1.6c0.5-0.4,1.1-0.6,1.7-0.6c0.6,0,1.1,0.2,1.6,0.6c0.5,0.4,0.8,1,0.8,1.6
		s-0.3,1.2-0.8,1.6c-0.5,0.4-1.1,0.6-1.6,0.6c-0.6,0-1.2-0.2-1.7-0.6C300.3,11.4,300.1,10.9,300.1,10.2z M300.2,15.2h4.5v14h-4.5
		V15.2z"/>
	<path class="st0" d="M315.7,29.5l-8.4-14.3h5.3l4.8,9.7l-2.8-0.1l4.1-9.6h5l-7.9,14.3H315.7z"/>
	<path class="st0" d="M332.7,29.6c-1.7,0-3.2-0.3-4.3-1c-1.2-0.6-2.1-1.5-2.7-2.7c-0.6-1.1-0.9-2.4-0.9-3.9c0-1.4,0.4-2.7,1.1-3.8
		s1.7-2,2.9-2.7s2.6-1,4.1-1c2,0,3.7,0.6,4.9,1.7c1.3,1.2,2.1,2.8,2.5,5l-10.9,3.5l-1-2.4l7.9-2.7l-0.9,0.4c-0.2-0.6-0.5-1-0.9-1.5
		c-0.4-0.4-1.1-0.6-2-0.6c-0.7,0-1.2,0.2-1.7,0.5c-0.5,0.3-0.9,0.7-1.2,1.3c-0.3,0.6-0.4,1.2-0.4,2c0,0.9,0.2,1.6,0.5,2.2
		c0.3,0.6,0.8,1,1.3,1.3c0.6,0.3,1.2,0.4,1.9,0.4c0.5,0,1-0.1,1.4-0.3c0.5-0.2,0.9-0.4,1.4-0.7l2,3.3c-0.7,0.4-1.6,0.8-2.4,1
		S333.5,29.6,332.7,29.6z"/>
	<path class="st0" d="M347.6,15.2l0.4,2.5l-0.1-0.2c0.5-0.9,1.2-1.6,2.1-2.1c0.9-0.5,2-0.8,3.3-0.8c1.3,0,2.4,0.4,3.3,1.2
		s1.3,1.8,1.4,3v10.5h-4.5v-8.8c0-0.6-0.2-1.1-0.5-1.5c-0.3-0.4-0.8-0.6-1.6-0.6c-0.7,0-1.3,0.2-1.8,0.7c-0.5,0.4-0.9,1.1-1.2,1.8
		c-0.3,0.8-0.4,1.7-0.4,2.7v5.7h-4.5v-14H347.6z"/>
	<path class="st0" d="M372.9,10.2c0-0.7,0.3-1.2,0.8-1.6c0.5-0.4,1.1-0.6,1.7-0.6c0.6,0,1.1,0.2,1.6,0.6c0.5,0.4,0.8,1,0.8,1.6
		s-0.3,1.2-0.8,1.6c-0.5,0.4-1.1,0.6-1.6,0.6c-0.6,0-1.2-0.2-1.7-0.6C373.1,11.4,372.9,10.9,372.9,10.2z M373,15.2h4.5v14H373V15.2z
		"/>
	<path class="st0" d="M386.1,15.2l0.4,2.5l-0.1-0.2c0.5-0.9,1.2-1.6,2.1-2.1c0.9-0.5,2-0.8,3.3-0.8c1.3,0,2.4,0.4,3.3,1.2
		s1.3,1.8,1.4,3v10.5H392v-8.8c0-0.6-0.2-1.1-0.5-1.5c-0.3-0.4-0.8-0.6-1.6-0.6c-0.7,0-1.3,0.2-1.8,0.7c-0.5,0.4-0.9,1.1-1.2,1.8
		c-0.3,0.8-0.4,1.7-0.4,2.7v5.7h-4.5v-14H386.1z"/>
	<path class="st0" d="M419.3,15.7c-0.9,0-1.6-0.2-2.2-0.6c-0.6-0.4-1.1-0.8-1.6-1.1c-0.3-0.2-0.6-0.4-0.8-0.6
		c-0.3-0.2-0.6-0.3-0.9-0.3c-0.3,0-0.6,0.1-0.8,0.4c-0.2,0.3-0.3,0.6-0.4,1c-0.1,0.4-0.1,0.8,0,1.2h-2.7c-0.1-1,0-2,0.3-2.9
		c0.3-0.9,0.8-1.6,1.4-2.2c0.7-0.6,1.5-0.8,2.5-0.8c0.6,0,1.2,0.2,1.7,0.5s1,0.7,1.5,1.1c0.4,0.3,0.7,0.6,1,0.8
		c0.3,0.2,0.6,0.4,0.9,0.4c0.3,0,0.6-0.1,0.7-0.4c0.1-0.3,0.2-0.6,0.3-1s0-0.8,0-1.2h2.7c0.2,1.1,0.1,2.1-0.1,3s-0.7,1.6-1.3,2.1
		S420.1,15.7,419.3,15.7z"/>
	<path class="st0" d="M424.7,19.5c0.4-0.8,0.9-1.4,1.5-1.9c0.6-0.5,1.1-0.9,1.6-1.2c-0.5-0.5-0.9-1-1.2-1.5
		c-0.3-0.5-0.5-1.3-0.5-2.2s0.3-1.8,0.8-2.6c0.5-0.7,1.3-1.3,2.2-1.7s1.9-0.6,3-0.6s2.1,0.2,3.1,0.6c0.9,0.4,1.7,1,2.2,1.7
		s0.8,1.5,0.8,2.4c0,1.1-0.2,1.9-0.5,2.4c-0.4,0.5-0.8,1.1-1.3,1.6c0.5,0.3,1,0.7,1.6,1.2c0.6,0.5,1,1.1,1.5,1.9
		c0.4,0.8,0.6,1.7,0.6,2.8c0,1.2-0.4,2.4-1.1,3.5s-1.7,2-2.9,2.6s-2.6,1-4.1,1c-1.6,0-2.9-0.3-4.1-1s-2.1-1.6-2.8-2.6s-1-2.3-1-3.5
		C424.1,21.2,424.3,20.3,424.7,19.5z M429.3,23.8c0.3,0.5,0.7,0.9,1.2,1.2c0.5,0.3,1,0.5,1.6,0.5c0.6,0,1.2-0.2,1.7-0.5
		s0.9-0.7,1.2-1.2c0.3-0.5,0.5-1.1,0.5-1.7s-0.1-1.2-0.4-1.7c-0.3-0.5-0.7-0.9-1.2-1.2c-0.5-0.3-1-0.5-1.6-0.5
		c-0.6,0-1.2,0.1-1.7,0.4c-0.5,0.3-1,0.7-1.3,1.2c-0.3,0.5-0.5,1.1-0.5,1.8C428.8,22.7,429,23.3,429.3,23.8z M431.1,14.3
		c0.4,0.3,0.7,0.5,1.1,0.5c0.4,0,0.7-0.2,1.1-0.5c0.3-0.3,0.5-0.7,0.5-1.1s-0.2-0.8-0.5-1.1c-0.3-0.3-0.7-0.5-1.1-0.5
		s-0.8,0.2-1.1,0.5c-0.3,0.3-0.5,0.7-0.5,1.1S430.8,14,431.1,14.3z"/>
	<path class="st0" d="M457.4,15.2l0.4,2.5l-0.1-0.2c0.6-0.9,1.2-1.7,2.1-2.2c0.8-0.5,1.8-0.8,3-0.8c0.8,0,1.4,0.1,2,0.3
		c0.6,0.2,1.1,0.5,1.5,0.9s0.7,1,0.8,1.6l-0.2,0c0.6-0.9,1.3-1.6,2.2-2.1c0.8-0.5,1.7-0.8,2.6-0.8c1.4,0,2.5,0.4,3.3,1.2
		c0.8,0.8,1.2,1.8,1.3,3v10.5h-4.4v-8.6c0-0.6-0.1-1.1-0.3-1.5c-0.2-0.4-0.6-0.6-1.2-0.7c-0.7,0-1.3,0.3-1.8,0.8
		c-0.5,0.5-0.9,1.1-1.1,1.9c-0.2,0.8-0.4,1.6-0.4,2.4v5.7h-4.5v-8.6c0-0.6-0.1-1.1-0.3-1.5c-0.2-0.4-0.6-0.6-1.2-0.7
		c-0.7,0-1.3,0.3-1.8,0.8c-0.5,0.5-0.8,1.1-1.1,1.9c-0.2,0.8-0.4,1.6-0.4,2.4v5.8h-4.5v-14H457.4z"/>
	<path class="st0" d="M480.8,10.2c0-0.7,0.3-1.2,0.8-1.6c0.5-0.4,1.1-0.6,1.7-0.6c0.6,0,1.1,0.2,1.6,0.6c0.5,0.4,0.8,1,0.8,1.6
		s-0.3,1.2-0.8,1.6c-0.5,0.4-1.1,0.6-1.6,0.6c-0.6,0-1.2-0.2-1.7-0.6C481.1,11.4,480.8,10.9,480.8,10.2z M480.9,15.2h4.5v14h-4.5
		V15.2z"/>
	<path class="st0" d="M494.1,15.2l0.4,2.5l-0.1-0.2c0.5-0.9,1.2-1.6,2.1-2.1c0.9-0.5,2-0.8,3.3-0.8c1.3,0,2.4,0.4,3.3,1.2
		s1.3,1.8,1.4,3v10.5h-4.5v-8.8c0-0.6-0.2-1.1-0.5-1.5c-0.3-0.4-0.8-0.6-1.6-0.6c-0.7,0-1.3,0.2-1.8,0.7c-0.5,0.4-0.9,1.1-1.2,1.8
		c-0.3,0.8-0.4,1.7-0.4,2.7v5.7H490v-14H494.1z"/>
	<path class="st0" d="M513.5,29.9c-1.3,0-2.3-0.4-3.2-1.2c-0.9-0.8-1.3-1.8-1.3-3V15.2h4.5V24c0,0.6,0.2,1.1,0.5,1.5
		c0.3,0.4,0.7,0.6,1.4,0.6s1.2-0.2,1.7-0.7c0.5-0.4,0.9-1.1,1.1-1.8c0.3-0.8,0.4-1.7,0.4-2.6v-5.7h4.5v14H519l-0.4-2.6l0.1,0.3
		c-0.3,0.6-0.7,1.1-1.2,1.5c-0.5,0.4-1.1,0.8-1.7,1S514.4,29.9,513.5,29.9z"/>
	<path class="st0" d="M529,9.1h4.5v6.1h3.4v3.5h-3.4v10.6H529V18.6h-2.2v-3.5h2.2V9.1z"/>
	<path class="st0" d="M547.2,29.6c-1.7,0-3.2-0.3-4.3-1c-1.2-0.6-2.1-1.5-2.7-2.7c-0.6-1.1-0.9-2.4-0.9-3.9c0-1.4,0.4-2.7,1.1-3.8
		s1.7-2,2.9-2.7s2.6-1,4.1-1c2,0,3.7,0.6,4.9,1.7c1.3,1.2,2.1,2.8,2.5,5l-10.9,3.5l-1-2.4l7.9-2.7l-0.9,0.4c-0.2-0.6-0.5-1-0.9-1.5
		c-0.4-0.4-1.1-0.6-2-0.6c-0.7,0-1.2,0.2-1.7,0.5c-0.5,0.3-0.9,0.7-1.2,1.3c-0.3,0.6-0.4,1.2-0.4,2c0,0.9,0.2,1.6,0.5,2.2
		c0.3,0.6,0.8,1,1.3,1.3c0.6,0.3,1.2,0.4,1.9,0.4c0.5,0,1-0.1,1.4-0.3c0.5-0.2,0.9-0.4,1.4-0.7l2,3.3c-0.7,0.4-1.6,0.8-2.4,1
		S548,29.6,547.2,29.6z"/>
	<path class="st0" d="M562.6,29.5c-1.2,0-2.2-0.2-3.2-0.6c-1-0.4-1.8-1-2.5-1.7l1.9-2.5c0.7,0.6,1.3,1.1,1.9,1.3
		c0.6,0.3,1.1,0.4,1.6,0.4c0.4,0,0.7,0,1-0.1c0.3-0.1,0.5-0.2,0.7-0.4c0.2-0.2,0.3-0.4,0.3-0.6c0-0.4-0.1-0.7-0.4-0.9
		c-0.3-0.2-0.7-0.4-1.1-0.5c-0.4-0.1-0.9-0.3-1.4-0.4c-1.3-0.4-2.2-1-2.8-1.8c-0.6-0.8-0.8-1.6-0.8-2.5c0-0.7,0.2-1.4,0.6-2.1
		s1-1.3,1.8-1.8s1.9-0.7,3.2-0.7c1.2,0,2.2,0.1,3,0.4c0.8,0.2,1.6,0.6,2.3,1.2l-1.7,2.6c-0.4-0.3-0.9-0.6-1.4-0.8s-1-0.3-1.4-0.4
		c-0.4,0-0.7,0-1,0.1s-0.5,0.2-0.6,0.4c-0.1,0.2-0.2,0.4-0.2,0.5c0,0.4,0.1,0.7,0.5,1s0.8,0.4,1.3,0.5c0.5,0.1,1,0.3,1.5,0.4
		c0.7,0.2,1.3,0.5,1.8,0.9c0.5,0.4,0.9,0.8,1.1,1.3c0.3,0.5,0.4,1.1,0.4,1.8c0,0.9-0.2,1.7-0.7,2.4c-0.4,0.8-1.1,1.4-2,1.8
		C565.1,29.2,563.9,29.5,562.6,29.5z"/>
	<path class="st0" d="M571.6,26.3c0.4-0.3,0.7-0.5,1.2-0.5c0.4,0,0.8,0.2,1.1,0.5c0.4,0.3,0.5,0.7,0.5,1.2c0,0.5-0.2,0.9-0.5,1.2
		c-0.4,0.3-0.7,0.5-1.1,0.5c-0.4,0-0.8-0.2-1.2-0.5c-0.4-0.3-0.5-0.7-0.5-1.2C571.1,27,571.3,26.6,571.6,26.3z"/>
	<path class="st0" d="M587.1,6.1h15.4v3h-6.2v20.2h-3.1V9h-6.1V6.1z"/>
	<path class="st0" d="M606.7,29.2V4.4h2.9V19l-0.1-0.5c0.4-0.9,1.1-1.6,2.1-2.2s2-0.9,3.3-0.9c1.2,0,2.3,0.4,3.1,1.1
		c0.8,0.7,1.2,1.7,1.2,2.9v9.8h-3v-8.8c0-0.7-0.2-1.3-0.6-1.7c-0.4-0.5-1-0.7-1.8-0.7c-0.7,0-1.4,0.2-2.1,0.7
		c-0.6,0.4-1.1,1-1.5,1.8c-0.4,0.7-0.5,1.6-0.5,2.6v6.2H606.7z"/>
	<path class="st0" d="M624.2,11.1c0-0.5,0.2-0.9,0.6-1.2s0.8-0.5,1.2-0.5s0.9,0.2,1.2,0.5c0.4,0.3,0.5,0.7,0.5,1.2
		c0,0.5-0.2,0.9-0.5,1.2c-0.4,0.3-0.8,0.5-1.2,0.5s-0.9-0.2-1.2-0.5C624.4,12,624.2,11.6,624.2,11.1z M624.4,15.9h3v13.2h-3V15.9z"
		/>
	<path class="st0" d="M636.2,29.4c-0.9,0-1.9-0.2-2.7-0.5c-0.9-0.3-1.6-0.8-2.2-1.5l1.2-1.7c0.6,0.5,1.2,0.9,1.7,1.2
		c0.6,0.3,1.2,0.4,1.7,0.4c0.4,0,0.8-0.1,1.2-0.2c0.4-0.1,0.7-0.3,0.9-0.5c0.2-0.3,0.3-0.6,0.3-1c0-0.5-0.2-0.9-0.5-1.1
		c-0.3-0.3-0.7-0.5-1.2-0.7c-0.5-0.2-1-0.3-1.5-0.5c-1.1-0.4-1.9-0.9-2.5-1.5c-0.6-0.6-0.9-1.4-0.9-2.3c0-0.7,0.2-1.4,0.5-2
		c0.4-0.6,0.9-1.1,1.6-1.5c0.7-0.4,1.6-0.6,2.6-0.6c0.9,0,1.7,0.1,2.5,0.3s1.4,0.6,2,1.1l-1.2,1.9c-0.4-0.4-0.8-0.7-1.4-0.9
		c-0.5-0.2-1-0.3-1.4-0.3c-0.4,0-0.7,0.1-1.1,0.2c-0.3,0.1-0.6,0.3-0.8,0.5c-0.2,0.2-0.3,0.5-0.3,0.8c0,0.4,0.1,0.8,0.4,1.1
		s0.7,0.5,1.2,0.7c0.5,0.2,0.9,0.3,1.4,0.5c0.6,0.2,1.2,0.4,1.7,0.8c0.5,0.3,0.9,0.7,1.2,1.2c0.3,0.5,0.5,1.1,0.5,1.8
		c0,0.8-0.2,1.5-0.6,2.2c-0.4,0.7-0.9,1.2-1.7,1.6C638.4,29.2,637.4,29.4,636.2,29.4z"/>
	<path class="st0" d="M661,29.5c-1.2,0-2.3-0.3-3.3-0.9s-1.8-1.4-2.4-2.5c-0.6-1.1-0.9-2.3-0.9-3.7c0-1.5,0.3-2.7,0.9-3.8
		c0.6-1,1.5-1.8,2.5-2.4c1-0.6,2.2-0.8,3.5-0.8c1,0,2,0.2,3,0.7c0.9,0.4,1.7,1.1,2.2,1.9l-0.2,1.1V4.4h3v24.8h-3v-3.3l0.4,0.8
		c-0.6,0.8-1.5,1.5-2.4,2C663.4,29.2,662.3,29.5,661,29.5z M662,27c0.8,0,1.5-0.1,2.1-0.4c0.6-0.3,1.1-0.7,1.5-1.2
		c0.4-0.5,0.7-1.1,0.9-1.8V21c-0.2-0.6-0.5-1.2-0.9-1.7c-0.4-0.5-1-0.9-1.6-1.1c-0.6-0.3-1.3-0.4-2-0.4c-0.8,0-1.5,0.2-2.2,0.6
		c-0.7,0.4-1.2,0.9-1.6,1.6s-0.6,1.5-0.6,2.4c0,0.9,0.2,1.7,0.6,2.4c0.4,0.7,0.9,1.2,1.6,1.7C660.4,26.8,661.2,27,662,27z"/>
	<path class="st0" d="M673.4,22.4c0-1.3,0.3-2.5,0.9-3.6c0.6-1.1,1.5-1.9,2.6-2.5c1.1-0.6,2.4-0.9,3.8-0.9c1.4,0,2.7,0.3,3.8,0.9
		s1.9,1.5,2.5,2.5c0.6,1.1,0.9,2.3,0.9,3.6s-0.3,2.5-0.9,3.6c-0.6,1.1-1.5,1.9-2.5,2.5s-2.4,0.9-3.8,0.9c-1.4,0-2.7-0.3-3.8-0.9
		s-2-1.4-2.6-2.5C673.8,25.1,673.4,23.9,673.4,22.4z M676.5,22.5c0,0.9,0.2,1.6,0.6,2.3c0.4,0.7,0.9,1.2,1.5,1.6
		c0.6,0.4,1.4,0.6,2.2,0.6c0.8,0,1.6-0.2,2.2-0.6s1.1-1,1.5-1.6c0.4-0.7,0.6-1.5,0.6-2.3c0-0.9-0.2-1.6-0.6-2.3
		c-0.4-0.7-0.9-1.2-1.5-1.7s-1.4-0.6-2.2-0.6c-0.8,0-1.5,0.2-2.2,0.6c-0.7,0.4-1.2,1-1.5,1.7S676.5,21.6,676.5,22.5z"/>
	<path class="st0" d="M698.2,29.5c-1.5,0-2.8-0.3-3.9-0.9c-1.1-0.6-1.9-1.4-2.5-2.5c-0.6-1.1-0.9-2.3-0.9-3.6c0-1.3,0.3-2.5,1-3.6
		c0.7-1.1,1.6-1.9,2.7-2.6s2.3-1,3.7-1c1.7,0,3.2,0.5,4.4,1.5c1.2,1,1.9,2.4,2.4,4.2L694.1,25l-0.7-1.8l8.9-3.3l-0.6,0.4
		c-0.3-0.7-0.7-1.3-1.3-1.8c-0.6-0.5-1.4-0.8-2.3-0.8c-0.8,0-1.5,0.2-2.2,0.6c-0.6,0.4-1.1,0.9-1.5,1.6s-0.5,1.5-0.5,2.4
		s0.2,1.7,0.6,2.4c0.4,0.7,0.9,1.3,1.6,1.6c0.7,0.4,1.4,0.6,2.3,0.6c0.6,0,1.1-0.1,1.7-0.3c0.5-0.2,1.1-0.5,1.6-0.8l1.3,2.2
		c-0.7,0.4-1.4,0.8-2.2,1.1C699.8,29.4,699,29.5,698.2,29.5z"/>
	<path class="st0" d="M712.4,29.4c-0.9,0-1.9-0.2-2.7-0.5c-0.9-0.3-1.6-0.8-2.2-1.5l1.2-1.7c0.6,0.5,1.2,0.9,1.7,1.2
		c0.6,0.3,1.2,0.4,1.7,0.4c0.4,0,0.8-0.1,1.2-0.2c0.4-0.1,0.7-0.3,0.9-0.5c0.2-0.3,0.3-0.6,0.3-1c0-0.5-0.2-0.9-0.5-1.1
		c-0.3-0.3-0.7-0.5-1.2-0.7c-0.5-0.2-1-0.3-1.5-0.5c-1.1-0.4-1.9-0.9-2.5-1.5c-0.6-0.6-0.9-1.4-0.9-2.3c0-0.7,0.2-1.4,0.5-2
		c0.4-0.6,0.9-1.1,1.6-1.5c0.7-0.4,1.6-0.6,2.6-0.6c0.9,0,1.7,0.1,2.5,0.3s1.4,0.6,2,1.1l-1.2,1.9c-0.4-0.4-0.8-0.7-1.4-0.9
		c-0.5-0.2-1-0.3-1.4-0.3c-0.4,0-0.7,0.1-1.1,0.2c-0.3,0.1-0.6,0.3-0.8,0.5c-0.2,0.2-0.3,0.5-0.3,0.8c0,0.4,0.1,0.8,0.4,1.1
		s0.7,0.5,1.2,0.7c0.5,0.2,0.9,0.3,1.4,0.5c0.6,0.2,1.2,0.4,1.7,0.8c0.5,0.3,0.9,0.7,1.2,1.2c0.3,0.5,0.5,1.1,0.5,1.8
		c0,0.8-0.2,1.5-0.6,2.2c-0.4,0.7-0.9,1.2-1.7,1.6C714.6,29.2,713.6,29.4,712.4,29.4z"/>
	<path class="st0" d="M734.5,15.9l0.2,3.2l-0.1-0.5c0.4-1,1.1-1.8,2-2.4c1-0.6,2.1-0.9,3.4-0.9c1.2,0,2.3,0.4,3.1,1.1
		c0.8,0.7,1.2,1.7,1.2,2.9v9.8h-3v-8.8c0-0.7-0.2-1.3-0.6-1.7c-0.4-0.5-1-0.7-1.8-0.7c-0.7,0-1.4,0.2-2.1,0.6
		c-0.6,0.4-1.1,1-1.5,1.8c-0.4,0.7-0.5,1.6-0.5,2.6v6.2h-3V15.9H734.5z"/>
	<path class="st0" d="M748.4,22.4c0-1.3,0.3-2.5,0.9-3.6c0.6-1.1,1.5-1.9,2.6-2.5c1.1-0.6,2.4-0.9,3.8-0.9c1.4,0,2.7,0.3,3.8,0.9
		s1.9,1.5,2.5,2.5c0.6,1.1,0.9,2.3,0.9,3.6s-0.3,2.5-0.9,3.6c-0.6,1.1-1.5,1.9-2.5,2.5s-2.4,0.9-3.8,0.9c-1.4,0-2.7-0.3-3.8-0.9
		s-2-1.4-2.6-2.5C748.7,25.1,748.4,23.9,748.4,22.4z M751.4,22.5c0,0.9,0.2,1.6,0.6,2.3c0.4,0.7,0.9,1.2,1.5,1.6
		c0.6,0.4,1.4,0.6,2.2,0.6c0.8,0,1.6-0.2,2.2-0.6s1.1-1,1.5-1.6c0.4-0.7,0.6-1.5,0.6-2.3c0-0.9-0.2-1.6-0.6-2.3
		c-0.4-0.7-0.9-1.2-1.5-1.7s-1.4-0.6-2.2-0.6c-0.8,0-1.5,0.2-2.2,0.6c-0.7,0.4-1.2,1-1.5,1.7S751.4,21.6,751.4,22.5z"/>
	<path class="st0" d="M768.2,10.1h3V16h3.6v2.3h-3.6v10.8h-3V18.3h-2.4V16h2.4V10.1z"/>
	<path class="st0" d="M794.1,29.5c-1.2,0-2.4-0.3-3.4-0.8c-1-0.5-1.8-1.3-2.4-2.4c-0.6-1-0.9-2.3-0.9-3.8c0-1.5,0.3-2.8,0.9-3.8
		c0.6-1.1,1.5-1.9,2.5-2.5c1-0.6,2.2-0.9,3.4-0.9s2.3,0.3,3.2,0.8c0.9,0.6,1.5,1.2,1.9,2l-0.2,0.5l0.3-2.8h2.8v13.2h-3v-3.5l0.4,0.8
		c-0.1,0.2-0.3,0.5-0.6,0.8c-0.3,0.3-0.7,0.7-1.1,1c-0.5,0.3-1,0.6-1.6,0.8C795.6,29.4,794.9,29.5,794.1,29.5z M794.9,27
		c0.7,0,1.4-0.1,2-0.4c0.6-0.3,1.1-0.7,1.5-1.2c0.4-0.5,0.7-1.1,0.8-1.8v-2.6c-0.2-0.6-0.5-1.2-0.9-1.7c-0.4-0.5-0.9-0.9-1.5-1.1
		c-0.6-0.3-1.2-0.4-2-0.4c-0.8,0-1.5,0.2-2.2,0.6c-0.7,0.4-1.2,0.9-1.6,1.6c-0.4,0.7-0.6,1.5-0.6,2.4c0,0.9,0.2,1.6,0.6,2.3
		s0.9,1.3,1.6,1.7C793.4,26.8,794.1,27,794.9,27z"/>
	<path class="st0" d="M818.1,27.9c-0.6,0.5-1.3,0.9-2.1,1.2s-1.7,0.4-2.5,0.4c-1.4,0-2.7-0.3-3.8-0.9s-2-1.4-2.6-2.4
		c-0.6-1-0.9-2.3-0.9-3.7c0-1.4,0.3-2.6,1-3.7c0.7-1,1.5-1.8,2.6-2.4c1.1-0.6,2.2-0.8,3.4-0.8c1,0,2,0.1,2.8,0.4
		c0.8,0.3,1.6,0.7,2.2,1.2l-1.5,1.9c-0.4-0.3-0.8-0.5-1.4-0.8c-0.6-0.2-1.2-0.4-1.9-0.4c-0.8,0-1.5,0.2-2.2,0.6
		c-0.7,0.4-1.2,0.9-1.5,1.6c-0.4,0.7-0.6,1.4-0.6,2.3c0,0.8,0.2,1.6,0.6,2.3s0.9,1.2,1.6,1.6s1.5,0.6,2.4,0.6c0.6,0,1.1-0.1,1.6-0.3
		c0.5-0.2,0.9-0.4,1.3-0.7L818.1,27.9z"/>
	<path class="st0" d="M832.7,27.9c-0.6,0.5-1.3,0.9-2.1,1.2s-1.7,0.4-2.5,0.4c-1.4,0-2.7-0.3-3.8-0.9s-2-1.4-2.6-2.4
		c-0.6-1-0.9-2.3-0.9-3.7c0-1.4,0.3-2.6,1-3.7c0.7-1,1.5-1.8,2.6-2.4c1.1-0.6,2.2-0.8,3.4-0.8c1,0,2,0.1,2.8,0.4
		c0.8,0.3,1.6,0.7,2.2,1.2l-1.5,1.9c-0.4-0.3-0.8-0.5-1.4-0.8c-0.6-0.2-1.2-0.4-1.9-0.4c-0.8,0-1.5,0.2-2.2,0.6
		c-0.7,0.4-1.2,0.9-1.5,1.6c-0.4,0.7-0.6,1.4-0.6,2.3c0,0.8,0.2,1.6,0.6,2.3s0.9,1.2,1.6,1.6s1.5,0.6,2.4,0.6c0.6,0,1.1-0.1,1.6-0.3
		c0.5-0.2,0.9-0.4,1.3-0.7L832.7,27.9z"/>
	<path class="st0" d="M835.3,22.4c0-1.3,0.3-2.5,0.9-3.6c0.6-1.1,1.5-1.9,2.6-2.5c1.1-0.6,2.4-0.9,3.8-0.9c1.4,0,2.7,0.3,3.8,0.9
		s1.9,1.5,2.5,2.5c0.6,1.1,0.9,2.3,0.9,3.6S849.7,25,849,26c-0.6,1.1-1.5,1.9-2.5,2.5s-2.4,0.9-3.8,0.9c-1.4,0-2.7-0.3-3.8-0.9
		s-2-1.4-2.6-2.5C835.7,25.1,835.3,23.9,835.3,22.4z M838.3,22.5c0,0.9,0.2,1.6,0.6,2.3c0.4,0.7,0.9,1.2,1.5,1.6
		c0.6,0.4,1.4,0.6,2.2,0.6c0.8,0,1.6-0.2,2.2-0.6s1.1-1,1.5-1.6c0.4-0.7,0.6-1.5,0.6-2.3c0-0.9-0.2-1.6-0.6-2.3
		c-0.4-0.7-0.9-1.2-1.5-1.7s-1.4-0.6-2.2-0.6c-0.8,0-1.5,0.2-2.2,0.6c-0.7,0.4-1.2,1-1.5,1.7S838.3,21.6,838.3,22.5z"/>
	<path class="st0" d="M858.2,29.7c-1.2,0-2.2-0.4-3-1.1c-0.8-0.7-1.2-1.7-1.2-2.9v-9.8h3v8.7c0,0.7,0.3,1.3,0.6,1.7
		c0.4,0.5,1,0.7,1.8,0.7c0.7,0,1.4-0.2,2-0.7c0.6-0.4,1.1-1,1.4-1.8c0.4-0.8,0.5-1.6,0.5-2.6v-6.2h3v13.2h-2.7l-0.3-3.3l0.2,0.6
		c-0.3,0.6-0.7,1.1-1.2,1.6c-0.5,0.5-1.1,0.9-1.8,1.1C859.8,29.6,859,29.7,858.2,29.7z"/>
	<path class="st0" d="M874.1,15.9l0.2,3.2l-0.1-0.5c0.4-1,1.1-1.8,2-2.4c1-0.6,2.1-0.9,3.4-0.9c1.2,0,2.3,0.4,3.1,1.1
		c0.8,0.7,1.2,1.7,1.2,2.9v9.8h-3v-8.8c0-0.7-0.2-1.3-0.6-1.7c-0.4-0.5-1-0.7-1.8-0.7c-0.7,0-1.4,0.2-2.1,0.6
		c-0.6,0.4-1.1,1-1.5,1.8c-0.4,0.7-0.5,1.6-0.5,2.6v6.2h-3V15.9H874.1z"/>
	<path class="st0" d="M890.4,10.1h3V16h3.6v2.3h-3.6v10.8h-3V18.3H888V16h2.4V10.1z"/>
	<path class="st0" d="M16.2,70.6V60h-2.3v-2.7h2.3v-5.6c0-1.9,0.4-3.4,1.3-4.4c0.9-1,2.1-1.5,3.9-1.5c0.4,0,0.9,0.1,1.5,0.2
		s1,0.3,1.4,0.6L23,48.8c-0.2-0.2-0.4-0.3-0.6-0.4c-0.2-0.1-0.5-0.1-0.7-0.1c-0.8,0-1.4,0.3-1.8,0.8s-0.6,1.5-0.6,2.8v5.5h4.2V60
		h-4.2v10.6H16.2z"/>
	<path class="st0" d="M25.4,63.8c0-1.3,0.3-2.5,0.9-3.6c0.6-1.1,1.5-1.9,2.6-2.5c1.1-0.6,2.4-0.9,3.8-0.9c1.4,0,2.7,0.3,3.8,0.9
		c1.1,0.6,1.9,1.5,2.5,2.5c0.6,1.1,0.9,2.3,0.9,3.6c0,1.3-0.3,2.5-0.9,3.6c-0.6,1.1-1.5,1.9-2.5,2.5s-2.4,0.9-3.8,0.9
		c-1.4,0-2.7-0.3-3.8-0.9c-1.1-0.6-2-1.4-2.6-2.5C25.7,66.5,25.4,65.3,25.4,63.8z M28.4,63.9c0,0.9,0.2,1.6,0.6,2.3
		c0.4,0.7,0.9,1.2,1.5,1.6c0.6,0.4,1.4,0.6,2.2,0.6c0.8,0,1.6-0.2,2.2-0.6s1.1-1,1.5-1.6c0.4-0.7,0.6-1.5,0.6-2.3s-0.2-1.6-0.6-2.3
		s-0.9-1.2-1.5-1.7s-1.4-0.6-2.2-0.6c-0.8,0-1.5,0.2-2.2,0.6c-0.7,0.4-1.2,1-1.5,1.7S28.4,63,28.4,63.9z"/>
	<path class="st0" d="M46.7,57.3l0.3,3.8l-0.1-0.5c0.3-0.8,0.8-1.5,1.5-2s1.3-1,2-1.3s1.3-0.5,1.9-0.5l-0.1,3
		c-1-0.1-1.9,0.1-2.7,0.6c-0.8,0.5-1.4,1.1-1.8,1.8c-0.4,0.7-0.7,1.5-0.7,2.4v6h-3V57.3H46.7z"/>
	<path class="st0" d="M71.7,70.9c-1.2,0-2.4-0.3-3.4-0.8c-1-0.5-1.8-1.3-2.4-2.4c-0.6-1-0.9-2.3-0.9-3.8s0.3-2.8,0.9-3.8
		c0.6-1.1,1.5-1.9,2.5-2.5c1-0.6,2.2-0.9,3.4-0.9s2.3,0.3,3.2,0.8c0.9,0.6,1.5,1.2,1.9,2l-0.2,0.5l0.3-2.8h2.8v13.2h-3v-3.5l0.4,0.8
		c-0.1,0.2-0.3,0.5-0.6,0.8c-0.3,0.3-0.7,0.7-1.1,1c-0.5,0.3-1,0.6-1.6,0.8C73.2,70.8,72.5,70.9,71.7,70.9z M72.5,68.4
		c0.7,0,1.4-0.1,2-0.4c0.6-0.3,1.1-0.7,1.5-1.2c0.4-0.5,0.7-1.1,0.8-1.8v-2.6c-0.2-0.6-0.5-1.2-0.9-1.7c-0.4-0.5-0.9-0.9-1.5-1.1
		c-0.6-0.3-1.2-0.4-2-0.4c-0.8,0-1.5,0.2-2.2,0.6s-1.2,0.9-1.6,1.6c-0.4,0.7-0.6,1.5-0.6,2.4c0,0.9,0.2,1.6,0.6,2.3s0.9,1.3,1.6,1.7
		C70.9,68.2,71.7,68.4,72.5,68.4z"/>
	<path class="st0" d="M84.9,45.8h3v24.8h-3V45.8z"/>
	<path class="st0" d="M93,45.8h3v24.8h-3V45.8z"/>
	<path class="st0" d="M116.8,70.9c-1.2,0-2.4-0.3-3.4-0.8c-1-0.5-1.8-1.3-2.4-2.4c-0.6-1-0.9-2.3-0.9-3.8s0.3-2.8,0.9-3.8
		c0.6-1.1,1.5-1.9,2.5-2.5c1-0.6,2.2-0.9,3.4-0.9s2.3,0.3,3.2,0.8c0.9,0.6,1.5,1.2,1.9,2l-0.2,0.5l0.3-2.8h2.8v13.2h-3v-3.5l0.4,0.8
		c-0.1,0.2-0.3,0.5-0.6,0.8c-0.3,0.3-0.7,0.7-1.1,1c-0.5,0.3-1,0.6-1.6,0.8C118.3,70.8,117.6,70.9,116.8,70.9z M117.6,68.4
		c0.7,0,1.4-0.1,2-0.4c0.6-0.3,1.1-0.7,1.5-1.2c0.4-0.5,0.7-1.1,0.8-1.8v-2.6c-0.2-0.6-0.5-1.2-0.9-1.7c-0.4-0.5-0.9-0.9-1.5-1.1
		c-0.6-0.3-1.2-0.4-2-0.4c-0.8,0-1.5,0.2-2.2,0.6s-1.2,0.9-1.6,1.6c-0.4,0.7-0.6,1.5-0.6,2.4c0,0.9,0.2,1.6,0.6,2.3s0.9,1.3,1.6,1.7
		C116.1,68.2,116.8,68.4,117.6,68.4z"/>
	<path class="st0" d="M133.7,70.8c-0.9,0-1.9-0.2-2.7-0.5c-0.9-0.3-1.6-0.8-2.2-1.5l1.2-1.7c0.6,0.5,1.2,0.9,1.7,1.2
		c0.6,0.3,1.2,0.4,1.7,0.4c0.4,0,0.8-0.1,1.2-0.2c0.4-0.1,0.7-0.3,0.9-0.5c0.2-0.3,0.3-0.6,0.3-1c0-0.5-0.2-0.9-0.5-1.1
		c-0.3-0.3-0.7-0.5-1.2-0.7c-0.5-0.2-1-0.3-1.5-0.5c-1.1-0.4-1.9-0.9-2.5-1.5c-0.6-0.6-0.9-1.4-0.9-2.3c0-0.7,0.2-1.4,0.5-2
		c0.4-0.6,0.9-1.1,1.6-1.5c0.7-0.4,1.6-0.6,2.6-0.6c0.9,0,1.7,0.1,2.5,0.3c0.7,0.2,1.4,0.6,2,1.1l-1.2,1.9c-0.4-0.4-0.8-0.7-1.4-0.9
		c-0.5-0.2-1-0.3-1.4-0.3c-0.4,0-0.7,0.1-1.1,0.2c-0.3,0.1-0.6,0.3-0.8,0.5c-0.2,0.2-0.3,0.5-0.3,0.8c0,0.4,0.1,0.8,0.4,1.1
		s0.7,0.5,1.2,0.7c0.5,0.2,0.9,0.3,1.4,0.5c0.6,0.2,1.2,0.4,1.7,0.8c0.5,0.3,0.9,0.7,1.2,1.2c0.3,0.5,0.5,1.1,0.5,1.8
		c0,0.8-0.2,1.5-0.6,2.2c-0.4,0.7-0.9,1.2-1.7,1.6C135.9,70.6,134.9,70.8,133.7,70.8z"/>
	<path class="st0" d="M150.9,70.9c-1,0-2-0.2-2.9-0.7s-1.6-1.1-2.1-1.9l0.2-0.9V77h-3V57.1h2.6l0.4,3.4l-0.3-1
		c0.6-0.8,1.5-1.5,2.4-2s2.1-0.8,3.3-0.8c1.2,0,2.4,0.3,3.3,0.9c1,0.6,1.8,1.4,2.4,2.5s0.9,2.3,0.9,3.8c0,1.4-0.3,2.6-0.9,3.7
		c-0.6,1.1-1.5,1.9-2.5,2.4C153.4,70.6,152.2,70.9,150.9,70.9z M150.3,68.5c0.9,0,1.6-0.2,2.3-0.6s1.3-0.9,1.7-1.6
		c0.4-0.7,0.7-1.5,0.7-2.4c0-0.9-0.2-1.7-0.6-2.4s-0.9-1.2-1.6-1.6s-1.4-0.6-2.3-0.6c-0.8,0-1.5,0.1-2.1,0.4s-1.1,0.7-1.5,1.2
		c-0.4,0.5-0.7,1.1-0.9,1.8v2.2c0.1,0.6,0.4,1.2,0.8,1.8c0.4,0.5,0.9,1,1.5,1.3C148.9,68.4,149.6,68.5,150.3,68.5z"/>
	<path class="st0" d="M168.2,70.9c-1.5,0-2.8-0.3-3.9-0.9c-1.1-0.6-1.9-1.4-2.5-2.5s-0.9-2.3-0.9-3.6c0-1.3,0.3-2.5,1-3.6
		c0.7-1.1,1.6-1.9,2.7-2.6s2.3-1,3.7-1c1.7,0,3.2,0.5,4.4,1.5c1.2,1,1.9,2.4,2.4,4.2L164,66.4l-0.7-1.8l8.9-3.3l-0.6,0.4
		c-0.3-0.7-0.7-1.3-1.3-1.8c-0.6-0.5-1.4-0.8-2.3-0.8c-0.8,0-1.5,0.2-2.2,0.6c-0.6,0.4-1.1,0.9-1.5,1.6c-0.4,0.7-0.5,1.5-0.5,2.4
		c0,0.9,0.2,1.7,0.6,2.4c0.4,0.7,0.9,1.3,1.6,1.6c0.7,0.4,1.4,0.6,2.3,0.6c0.6,0,1.1-0.1,1.7-0.3c0.5-0.2,1.1-0.5,1.6-0.8l1.3,2.2
		c-0.7,0.4-1.4,0.8-2.2,1.1C169.8,70.8,169,70.9,168.2,70.9z"/>
	<path class="st0" d="M189.4,69.3c-0.6,0.5-1.3,0.9-2.1,1.2c-0.8,0.3-1.7,0.4-2.5,0.4c-1.4,0-2.7-0.3-3.8-0.9s-2-1.4-2.6-2.4
		c-0.6-1-0.9-2.3-0.9-3.7s0.3-2.6,1-3.7c0.7-1,1.5-1.8,2.6-2.4c1.1-0.6,2.2-0.8,3.4-0.8c1,0,2,0.1,2.8,0.4s1.6,0.7,2.2,1.2l-1.5,1.9
		c-0.4-0.3-0.8-0.5-1.4-0.8s-1.2-0.4-1.9-0.4c-0.8,0-1.5,0.2-2.2,0.6s-1.2,0.9-1.5,1.6s-0.6,1.4-0.6,2.3c0,0.8,0.2,1.6,0.6,2.3
		s0.9,1.2,1.6,1.6s1.5,0.6,2.4,0.6c0.6,0,1.1-0.1,1.6-0.3c0.5-0.2,0.9-0.4,1.3-0.7L189.4,69.3z"/>
	<path class="st0" d="M194.5,51.5h3v5.9h3.6v2.3h-3.6v10.8h-3V59.7h-2.4v-2.3h2.4V51.5z"/>
	<path class="st0" d="M208.5,70.8c-0.9,0-1.9-0.2-2.7-0.5c-0.9-0.3-1.6-0.8-2.2-1.5l1.2-1.7c0.6,0.5,1.2,0.9,1.7,1.2
		c0.6,0.3,1.2,0.4,1.7,0.4c0.4,0,0.8-0.1,1.2-0.2c0.4-0.1,0.7-0.3,0.9-0.5c0.2-0.3,0.3-0.6,0.3-1c0-0.5-0.2-0.9-0.5-1.1
		c-0.3-0.3-0.7-0.5-1.2-0.7c-0.5-0.2-1-0.3-1.5-0.5c-1.1-0.4-1.9-0.9-2.5-1.5c-0.6-0.6-0.9-1.4-0.9-2.3c0-0.7,0.2-1.4,0.5-2
		c0.4-0.6,0.9-1.1,1.6-1.5c0.7-0.4,1.6-0.6,2.6-0.6c0.9,0,1.7,0.1,2.5,0.3c0.7,0.2,1.4,0.6,2,1.1l-1.2,1.9c-0.4-0.4-0.8-0.7-1.4-0.9
		c-0.5-0.2-1-0.3-1.4-0.3c-0.4,0-0.7,0.1-1.1,0.2c-0.3,0.1-0.6,0.3-0.8,0.5c-0.2,0.2-0.3,0.5-0.3,0.8c0,0.4,0.1,0.8,0.4,1.1
		s0.7,0.5,1.2,0.7c0.5,0.2,0.9,0.3,1.4,0.5c0.6,0.2,1.2,0.4,1.7,0.8c0.5,0.3,0.9,0.7,1.2,1.2c0.3,0.5,0.5,1.1,0.5,1.8
		c0,0.8-0.2,1.5-0.6,2.2c-0.4,0.7-0.9,1.2-1.7,1.6C210.6,70.6,209.6,70.8,208.5,70.8z"/>
	<path class="st0" d="M226.7,63.8c0-1.3,0.3-2.5,0.9-3.6c0.6-1.1,1.5-1.9,2.6-2.5c1.1-0.6,2.4-0.9,3.8-0.9c1.4,0,2.7,0.3,3.8,0.9
		c1.1,0.6,1.9,1.5,2.5,2.5c0.6,1.1,0.9,2.3,0.9,3.6c0,1.3-0.3,2.5-0.9,3.6c-0.6,1.1-1.5,1.9-2.5,2.5s-2.4,0.9-3.8,0.9
		c-1.4,0-2.7-0.3-3.8-0.9c-1.1-0.6-2-1.4-2.6-2.5C227,66.5,226.7,65.3,226.7,63.8z M229.7,63.9c0,0.9,0.2,1.6,0.6,2.3
		c0.4,0.7,0.9,1.2,1.5,1.6c0.6,0.4,1.4,0.6,2.2,0.6c0.8,0,1.6-0.2,2.2-0.6s1.1-1,1.5-1.6c0.4-0.7,0.6-1.5,0.6-2.3s-0.2-1.6-0.6-2.3
		s-0.9-1.2-1.5-1.7s-1.4-0.6-2.2-0.6c-0.8,0-1.5,0.2-2.2,0.6c-0.7,0.4-1.2,1-1.5,1.7S229.7,63,229.7,63.9z"/>
	<path class="st0" d="M246.4,70.6V60h-2.3v-2.7h2.3v-5.6c0-1.9,0.4-3.4,1.3-4.4c0.9-1,2.1-1.5,3.9-1.5c0.4,0,0.9,0.1,1.5,0.2
		s1,0.3,1.4,0.6l-1.2,2.1c-0.2-0.2-0.4-0.3-0.6-0.4c-0.2-0.1-0.5-0.1-0.7-0.1c-0.8,0-1.4,0.3-1.8,0.8s-0.6,1.5-0.6,2.8v5.5h4.2V60
		h-4.2v10.6H246.4z"/>
	<path class="st0" d="M268.8,51.5h3v5.9h3.6v2.3h-3.6v10.8h-3V59.7h-2.4v-2.3h2.4V51.5z"/>
	<path class="st0" d="M281.7,57.3l0.3,3.8l-0.1-0.5c0.3-0.8,0.8-1.5,1.5-2s1.3-1,2-1.3s1.3-0.5,1.9-0.5l-0.1,3
		c-1-0.1-1.9,0.1-2.7,0.6c-0.8,0.5-1.4,1.1-1.8,1.8c-0.4,0.7-0.7,1.5-0.7,2.4v6h-3V57.3H281.7z"/>
	<path class="st0" d="M296.7,70.9c-1.5,0-2.8-0.3-3.9-0.9c-1.1-0.6-1.9-1.4-2.5-2.5s-0.9-2.3-0.9-3.6c0-1.3,0.3-2.5,1-3.6
		c0.7-1.1,1.6-1.9,2.7-2.6s2.3-1,3.7-1c1.7,0,3.2,0.5,4.4,1.5c1.2,1,1.9,2.4,2.4,4.2l-10.9,3.8l-0.7-1.8l8.9-3.3l-0.6,0.4
		c-0.3-0.7-0.7-1.3-1.3-1.8c-0.6-0.5-1.4-0.8-2.3-0.8c-0.8,0-1.5,0.2-2.2,0.6c-0.6,0.4-1.1,0.9-1.5,1.6c-0.4,0.7-0.5,1.5-0.5,2.4
		c0,0.9,0.2,1.7,0.6,2.4c0.4,0.7,0.9,1.3,1.6,1.6c0.7,0.4,1.4,0.6,2.3,0.6c0.6,0,1.1-0.1,1.7-0.3c0.5-0.2,1.1-0.5,1.6-0.8l1.3,2.2
		c-0.7,0.4-1.4,0.8-2.2,1.1C298.2,70.8,297.4,70.9,296.7,70.9z"/>
	<path class="st0" d="M312.7,70.9c-1.2,0-2.4-0.3-3.4-0.8c-1-0.5-1.8-1.3-2.4-2.4c-0.6-1-0.9-2.3-0.9-3.8s0.3-2.8,0.9-3.8
		c0.6-1.1,1.5-1.9,2.5-2.5c1-0.6,2.2-0.9,3.4-0.9s2.3,0.3,3.2,0.8c0.9,0.6,1.5,1.2,1.9,2l-0.2,0.5l0.3-2.8h2.8v13.2h-3v-3.5l0.4,0.8
		c-0.1,0.2-0.3,0.5-0.6,0.8c-0.3,0.3-0.7,0.7-1.1,1c-0.5,0.3-1,0.6-1.6,0.8C314.1,70.8,313.4,70.9,312.7,70.9z M313.5,68.4
		c0.7,0,1.4-0.1,2-0.4c0.6-0.3,1.1-0.7,1.5-1.2c0.4-0.5,0.7-1.1,0.8-1.8v-2.6c-0.2-0.6-0.5-1.2-0.9-1.7c-0.4-0.5-0.9-0.9-1.5-1.1
		c-0.6-0.3-1.2-0.4-2-0.4c-0.8,0-1.5,0.2-2.2,0.6s-1.2,0.9-1.6,1.6c-0.4,0.7-0.6,1.5-0.6,2.4c0,0.9,0.2,1.6,0.6,2.3s0.9,1.3,1.6,1.7
		C311.9,68.2,312.7,68.4,313.5,68.4z"/>
	<path class="st0" d="M327.1,51.5h3v5.9h3.6v2.3h-3.6v10.8h-3V59.7h-2.4v-2.3h2.4V51.5z"/>
	<path class="st0" d="M340.1,57.3l0.3,3l-0.2-0.3c0.5-1,1.2-1.8,2.1-2.4c0.9-0.6,2-0.9,3.2-0.9c0.7,0,1.4,0.1,2,0.4s1.1,0.6,1.4,1
		c0.4,0.4,0.6,1,0.7,1.6l-0.2,0.1c0.5-1,1.2-1.7,2.1-2.3c0.9-0.5,1.9-0.8,2.9-0.8c1.3,0,2.3,0.4,3.1,1.1c0.8,0.7,1.2,1.7,1.2,2.8
		v9.8h-3v-8.7c0-0.7-0.2-1.3-0.5-1.7c-0.3-0.5-0.8-0.7-1.6-0.7c-0.8,0-1.5,0.2-2.1,0.7c-0.6,0.5-1.1,1.1-1.4,1.8
		c-0.3,0.7-0.5,1.5-0.5,2.4v6.3h-3v-8.7c0-0.7-0.2-1.3-0.5-1.7c-0.3-0.5-0.9-0.7-1.6-0.7c-0.8,0-1.5,0.2-2,0.7
		c-0.6,0.5-1.1,1.1-1.4,1.8c-0.3,0.7-0.5,1.6-0.5,2.4v6.2h-3V57.3H340.1z"/>
	<path class="st0" d="M369.9,70.9c-1.5,0-2.8-0.3-3.9-0.9c-1.1-0.6-1.9-1.4-2.5-2.5s-0.9-2.3-0.9-3.6c0-1.3,0.3-2.5,1-3.6
		c0.7-1.1,1.6-1.9,2.7-2.6s2.3-1,3.7-1c1.7,0,3.2,0.5,4.4,1.5c1.2,1,1.9,2.4,2.4,4.2l-10.9,3.8l-0.7-1.8l8.9-3.3l-0.6,0.4
		c-0.3-0.7-0.7-1.3-1.3-1.8c-0.6-0.5-1.4-0.8-2.3-0.8c-0.8,0-1.5,0.2-2.2,0.6c-0.6,0.4-1.1,0.9-1.5,1.6c-0.4,0.7-0.5,1.5-0.5,2.4
		c0,0.9,0.2,1.7,0.6,2.4c0.4,0.7,0.9,1.3,1.6,1.6c0.7,0.4,1.4,0.6,2.3,0.6c0.6,0,1.1-0.1,1.7-0.3c0.5-0.2,1.1-0.5,1.6-0.8l1.3,2.2
		c-0.7,0.4-1.4,0.8-2.2,1.1C371.5,70.8,370.7,70.9,369.9,70.9z"/>
	<path class="st0" d="M383.1,57.3l0.2,3.2l-0.1-0.5c0.4-1,1.1-1.8,2-2.4s2.1-0.9,3.4-0.9c1.2,0,2.3,0.4,3.1,1.1
		c0.8,0.7,1.2,1.7,1.2,2.9v9.8h-3v-8.8c0-0.7-0.2-1.3-0.6-1.7s-1-0.7-1.8-0.7c-0.7,0-1.4,0.2-2.1,0.6c-0.6,0.4-1.1,1-1.5,1.8
		c-0.4,0.7-0.5,1.6-0.5,2.6v6.2h-3V57.3H383.1z"/>
	<path class="st0" d="M399.4,51.5h3v5.9h3.6v2.3h-3.6v10.8h-3V59.7H397v-2.3h2.4V51.5z"/>
	<path class="st0" d="M408.6,67.7c0.4-0.3,0.7-0.5,1.2-0.5c0.4,0,0.8,0.2,1.1,0.5c0.4,0.3,0.5,0.7,0.5,1.2c0,0.5-0.2,0.9-0.5,1.2
		c-0.4,0.3-0.7,0.5-1.1,0.5c-0.4,0-0.8-0.2-1.2-0.5c-0.4-0.3-0.5-0.7-0.5-1.2C408.1,68.4,408.3,68,408.6,67.7z"/>
	<path class="st0" d="M423.5,70.6l10.1-24.1h0.2l10.1,24.1h-3.6l-7.6-19.2l2.2-1.4l-8.4,20.7H423.5z M429.5,61.8h8.6l1,2.7h-10.5
		L429.5,61.8z"/>
	<path class="st0" d="M458,69.3c-0.6,0.5-1.3,0.9-2.1,1.2c-0.8,0.3-1.7,0.4-2.5,0.4c-1.4,0-2.7-0.3-3.8-0.9s-2-1.4-2.6-2.4
		c-0.6-1-0.9-2.3-0.9-3.7s0.3-2.6,1-3.7c0.7-1,1.5-1.8,2.6-2.4c1.1-0.6,2.2-0.8,3.4-0.8c1,0,2,0.1,2.8,0.4s1.6,0.7,2.2,1.2l-1.5,1.9
		c-0.4-0.3-0.8-0.5-1.4-0.8s-1.2-0.4-1.9-0.4c-0.8,0-1.5,0.2-2.2,0.6s-1.2,0.9-1.5,1.6s-0.6,1.4-0.6,2.3c0,0.8,0.2,1.6,0.6,2.3
		s0.9,1.2,1.6,1.6s1.5,0.6,2.4,0.6c0.6,0,1.1-0.1,1.6-0.3c0.5-0.2,0.9-0.4,1.3-0.7L458,69.3z"/>
	<path class="st0" d="M463.1,51.5h3v5.9h3.6v2.3h-3.6v10.8h-3V59.7h-2.4v-2.3h2.4V51.5z"/>
	<path class="st0" d="M477.5,71.1c-1.2,0-2.2-0.4-3-1.1c-0.8-0.7-1.2-1.7-1.2-2.9v-9.8h3v8.7c0,0.7,0.3,1.3,0.6,1.7s1,0.7,1.8,0.7
		c0.7,0,1.4-0.2,2-0.7c0.6-0.4,1.1-1,1.4-1.8c0.4-0.8,0.5-1.6,0.5-2.6v-6.2h3v13.2h-2.7l-0.3-3.3l0.2,0.6c-0.3,0.6-0.7,1.1-1.2,1.6
		c-0.5,0.5-1.1,0.9-1.8,1.1C479.1,71,478.3,71.1,477.5,71.1z"/>
	<path class="st0" d="M496.3,70.9c-1.2,0-2.4-0.3-3.4-0.8c-1-0.5-1.8-1.3-2.4-2.4c-0.6-1-0.9-2.3-0.9-3.8s0.3-2.8,0.9-3.8
		c0.6-1.1,1.5-1.9,2.5-2.5c1-0.6,2.2-0.9,3.4-0.9s2.3,0.3,3.2,0.8c0.9,0.6,1.5,1.2,1.9,2l-0.2,0.5l0.3-2.8h2.8v13.2h-3v-3.5l0.4,0.8
		c-0.1,0.2-0.3,0.5-0.6,0.8c-0.3,0.3-0.7,0.7-1.1,1c-0.5,0.3-1,0.6-1.6,0.8C497.8,70.8,497.1,70.9,496.3,70.9z M497.1,68.4
		c0.7,0,1.4-0.1,2-0.4c0.6-0.3,1.1-0.7,1.5-1.2c0.4-0.5,0.7-1.1,0.8-1.8v-2.6c-0.2-0.6-0.5-1.2-0.9-1.7c-0.4-0.5-0.9-0.9-1.5-1.1
		c-0.6-0.3-1.2-0.4-2-0.4c-0.8,0-1.5,0.2-2.2,0.6s-1.2,0.9-1.6,1.6c-0.4,0.7-0.6,1.5-0.6,2.4c0,0.9,0.2,1.6,0.6,2.3s0.9,1.3,1.6,1.7
		C495.5,68.2,496.3,68.4,497.1,68.4z"/>
	<path class="st0" d="M509.5,45.8h3v24.8h-3V45.8z"/>
	<path class="st0" d="M538.5,69.3c-0.6,0.5-1.3,0.9-2.1,1.2c-0.8,0.3-1.7,0.4-2.5,0.4c-1.4,0-2.7-0.3-3.8-0.9s-2-1.4-2.6-2.4
		c-0.6-1-0.9-2.3-0.9-3.7s0.3-2.6,1-3.7c0.7-1,1.5-1.8,2.6-2.4c1.1-0.6,2.2-0.8,3.4-0.8c1,0,2,0.1,2.8,0.4s1.6,0.7,2.2,1.2l-1.5,1.9
		c-0.4-0.3-0.8-0.5-1.4-0.8s-1.2-0.4-1.9-0.4c-0.8,0-1.5,0.2-2.2,0.6s-1.2,0.9-1.5,1.6s-0.6,1.4-0.6,2.3c0,0.8,0.2,1.6,0.6,2.3
		s0.9,1.2,1.6,1.6s1.5,0.6,2.4,0.6c0.6,0,1.1-0.1,1.6-0.3c0.5-0.2,0.9-0.4,1.3-0.7L538.5,69.3z"/>
	<path class="st0" d="M542.3,45.8h3v24.8h-3V45.8z"/>
	<path class="st0" d="M550.2,52.5c0-0.5,0.2-0.9,0.6-1.2c0.4-0.3,0.8-0.5,1.2-0.5s0.9,0.2,1.2,0.5c0.4,0.3,0.5,0.7,0.5,1.2
		c0,0.5-0.2,0.9-0.5,1.2c-0.4,0.3-0.8,0.5-1.2,0.5s-0.9-0.2-1.2-0.5S550.2,53,550.2,52.5z M550.4,57.3h3v13.2h-3V57.3z"/>
	<path class="st0" d="M561.3,57.3l0.2,3.2l-0.1-0.5c0.4-1,1.1-1.8,2-2.4s2.1-0.9,3.4-0.9c1.2,0,2.3,0.4,3.1,1.1
		c0.8,0.7,1.2,1.7,1.2,2.9v9.8h-3v-8.8c0-0.7-0.2-1.3-0.6-1.7s-1-0.7-1.8-0.7c-0.7,0-1.4,0.2-2.1,0.6c-0.6,0.4-1.1,1-1.5,1.8
		c-0.4,0.7-0.5,1.6-0.5,2.6v6.2h-3V57.3H561.3z"/>
	<path class="st0" d="M576.1,52.5c0-0.5,0.2-0.9,0.6-1.2c0.4-0.3,0.8-0.5,1.2-0.5s0.9,0.2,1.2,0.5c0.4,0.3,0.5,0.7,0.5,1.2
		c0,0.5-0.2,0.9-0.5,1.2c-0.4,0.3-0.8,0.5-1.2,0.5s-0.9-0.2-1.2-0.5S576.1,53,576.1,52.5z M576.3,57.3h3v13.2h-3V57.3z"/>
	<path class="st0" d="M595.2,69.3c-0.6,0.5-1.3,0.9-2.1,1.2c-0.8,0.3-1.7,0.4-2.5,0.4c-1.4,0-2.7-0.3-3.8-0.9s-2-1.4-2.6-2.4
		c-0.6-1-0.9-2.3-0.9-3.7s0.3-2.6,1-3.7c0.7-1,1.5-1.8,2.6-2.4c1.1-0.6,2.2-0.8,3.4-0.8c1,0,2,0.1,2.8,0.4s1.6,0.7,2.2,1.2l-1.5,1.9
		c-0.4-0.3-0.8-0.5-1.4-0.8s-1.2-0.4-1.9-0.4c-0.8,0-1.5,0.2-2.2,0.6s-1.2,0.9-1.5,1.6s-0.6,1.4-0.6,2.3c0,0.8,0.2,1.6,0.6,2.3
		s0.9,1.2,1.6,1.6s1.5,0.6,2.4,0.6c0.6,0,1.1-0.1,1.6-0.3c0.5-0.2,0.9-0.4,1.3-0.7L595.2,69.3z"/>
	<path class="st0" d="M610.4,51.5h3v5.9h3.6v2.3h-3.6v10.8h-3V59.7H608v-2.3h2.4V51.5z"/>
	<path class="st0" d="M620.4,52.5c0-0.5,0.2-0.9,0.6-1.2c0.4-0.3,0.8-0.5,1.2-0.5s0.9,0.2,1.2,0.5c0.4,0.3,0.5,0.7,0.5,1.2
		c0,0.5-0.2,0.9-0.5,1.2c-0.4,0.3-0.8,0.5-1.2,0.5s-0.9-0.2-1.2-0.5S620.4,53,620.4,52.5z M620.6,57.3h3v13.2h-3V57.3z"/>
	<path class="st0" d="M631.4,57.3l0.3,3l-0.2-0.3c0.5-1,1.2-1.8,2.1-2.4c0.9-0.6,2-0.9,3.2-0.9c0.7,0,1.4,0.1,2,0.4s1.1,0.6,1.4,1
		c0.4,0.4,0.6,1,0.7,1.6l-0.2,0.1c0.5-1,1.2-1.7,2.1-2.3c0.9-0.5,1.9-0.8,2.9-0.8c1.3,0,2.3,0.4,3.1,1.1c0.8,0.7,1.2,1.7,1.2,2.8
		v9.8h-3v-8.7c0-0.7-0.2-1.3-0.5-1.7c-0.3-0.5-0.8-0.7-1.6-0.7c-0.8,0-1.5,0.2-2.1,0.7c-0.6,0.5-1.1,1.1-1.4,1.8
		c-0.3,0.7-0.5,1.5-0.5,2.4v6.3h-3v-8.7c0-0.7-0.2-1.3-0.5-1.7c-0.3-0.5-0.9-0.7-1.6-0.7c-0.8,0-1.5,0.2-2,0.7
		c-0.6,0.5-1.1,1.1-1.4,1.8c-0.3,0.7-0.5,1.6-0.5,2.4v6.2h-3V57.3H631.4z"/>
	<path class="st0" d="M661.3,70.9c-1.5,0-2.8-0.3-3.9-0.9c-1.1-0.6-1.9-1.4-2.5-2.5s-0.9-2.3-0.9-3.6c0-1.3,0.3-2.5,1-3.6
		c0.7-1.1,1.6-1.9,2.7-2.6s2.3-1,3.7-1c1.7,0,3.2,0.5,4.4,1.5c1.2,1,1.9,2.4,2.4,4.2l-10.9,3.8l-0.7-1.8l8.9-3.3l-0.6,0.4
		c-0.3-0.7-0.7-1.3-1.3-1.8c-0.6-0.5-1.4-0.8-2.3-0.8c-0.8,0-1.5,0.2-2.2,0.6c-0.6,0.4-1.1,0.9-1.5,1.6c-0.4,0.7-0.5,1.5-0.5,2.4
		c0,0.9,0.2,1.7,0.6,2.4c0.4,0.7,0.9,1.3,1.6,1.6c0.7,0.4,1.4,0.6,2.3,0.6c0.6,0,1.1-0.1,1.7-0.3c0.5-0.2,1.1-0.5,1.6-0.8l1.3,2.2
		c-0.7,0.4-1.4,0.8-2.2,1.1C662.9,70.8,662.1,70.9,661.3,70.9z"/>
	<path class="st0" d="M684.6,57.3l0.3,3l-0.2-0.3c0.5-1,1.2-1.8,2.1-2.4c0.9-0.6,2-0.9,3.2-0.9c0.7,0,1.4,0.1,2,0.4s1.1,0.6,1.4,1
		c0.4,0.4,0.6,1,0.7,1.6l-0.2,0.1c0.5-1,1.2-1.7,2.1-2.3c0.9-0.5,1.9-0.8,2.9-0.8c1.3,0,2.3,0.4,3.1,1.1c0.8,0.7,1.2,1.7,1.2,2.8
		v9.8h-3v-8.7c0-0.7-0.2-1.3-0.5-1.7c-0.3-0.5-0.8-0.7-1.6-0.7c-0.8,0-1.5,0.2-2.1,0.7c-0.6,0.5-1.1,1.1-1.4,1.8
		c-0.3,0.7-0.5,1.5-0.5,2.4v6.3h-3v-8.7c0-0.7-0.2-1.3-0.5-1.7c-0.3-0.5-0.9-0.7-1.6-0.7c-0.8,0-1.5,0.2-2,0.7
		c-0.6,0.5-1.1,1.1-1.4,1.8c-0.3,0.7-0.5,1.6-0.5,2.4v6.2h-3V57.3H684.6z"/>
	<path class="st0" d="M713.8,70.9c-1.2,0-2.4-0.3-3.4-0.8c-1-0.5-1.8-1.3-2.4-2.4c-0.6-1-0.9-2.3-0.9-3.8s0.3-2.8,0.9-3.8
		c0.6-1.1,1.5-1.9,2.5-2.5c1-0.6,2.2-0.9,3.4-0.9s2.3,0.3,3.2,0.8c0.9,0.6,1.5,1.2,1.9,2l-0.2,0.5l0.3-2.8h2.8v13.2h-3v-3.5l0.4,0.8
		c-0.1,0.2-0.3,0.5-0.6,0.8c-0.3,0.3-0.7,0.7-1.1,1c-0.5,0.3-1,0.6-1.6,0.8C715.3,70.8,714.6,70.9,713.8,70.9z M714.6,68.4
		c0.7,0,1.4-0.1,2-0.4c0.6-0.3,1.1-0.7,1.5-1.2c0.4-0.5,0.7-1.1,0.8-1.8v-2.6c-0.2-0.6-0.5-1.2-0.9-1.7c-0.4-0.5-0.9-0.9-1.5-1.1
		c-0.6-0.3-1.2-0.4-2-0.4c-0.8,0-1.5,0.2-2.2,0.6s-1.2,0.9-1.6,1.6c-0.4,0.7-0.6,1.5-0.6,2.4c0,0.9,0.2,1.6,0.6,2.3s0.9,1.3,1.6,1.7
		C713.1,68.2,713.8,68.4,714.6,68.4z"/>
	<path class="st0" d="M731.5,70.7l-6.4-13.3h3.4l5.3,11.8L731.5,70.7z M728.2,77l8.7-19.6h2.8L731.1,77H728.2z"/>
	<path class="st0" d="M758.3,71L751,57.3h3.6l5,10.5l-1.8-0.1l4.6-10.4h3.3L758.5,71H758.3z"/>
	<path class="st0" d="M773.8,70.9c-1.2,0-2.4-0.3-3.4-0.8c-1-0.5-1.8-1.3-2.4-2.4c-0.6-1-0.9-2.3-0.9-3.8s0.3-2.8,0.9-3.8
		c0.6-1.1,1.5-1.9,2.5-2.5c1-0.6,2.2-0.9,3.4-0.9s2.3,0.3,3.2,0.8c0.9,0.6,1.5,1.2,1.9,2l-0.2,0.5l0.3-2.8h2.8v13.2h-3v-3.5l0.4,0.8
		c-0.1,0.2-0.3,0.5-0.6,0.8c-0.3,0.3-0.7,0.7-1.1,1c-0.5,0.3-1,0.6-1.6,0.8C775.3,70.8,774.6,70.9,773.8,70.9z M774.6,68.4
		c0.7,0,1.4-0.1,2-0.4c0.6-0.3,1.1-0.7,1.5-1.2c0.4-0.5,0.7-1.1,0.8-1.8v-2.6c-0.2-0.6-0.5-1.2-0.9-1.7c-0.4-0.5-0.9-0.9-1.5-1.1
		c-0.6-0.3-1.2-0.4-2-0.4c-0.8,0-1.5,0.2-2.2,0.6s-1.2,0.9-1.6,1.6c-0.4,0.7-0.6,1.5-0.6,2.4c0,0.9,0.2,1.6,0.6,2.3s0.9,1.3,1.6,1.7
		C773,68.2,773.8,68.4,774.6,68.4z"/>
	<path class="st0" d="M789.7,57.3l0.3,3.8l-0.1-0.5c0.3-0.8,0.8-1.5,1.5-2s1.3-1,2-1.3s1.3-0.5,1.9-0.5l-0.1,3
		c-1-0.1-1.9,0.1-2.7,0.6c-0.8,0.5-1.4,1.1-1.8,1.8c-0.4,0.7-0.7,1.5-0.7,2.4v6h-3V57.3H789.7z"/>
	<path class="st0" d="M803.5,70.7l-6.4-13.3h3.4l5.3,11.8L803.5,70.7z M800.2,77l8.7-19.6h2.8L803.1,77H800.2z"/>
	<path class="st0" d="M813.9,67.7c0.4-0.3,0.7-0.5,1.2-0.5c0.4,0,0.8,0.2,1.1,0.5c0.4,0.3,0.5,0.7,0.5,1.2c0,0.5-0.2,0.9-0.5,1.2
		c-0.4,0.3-0.7,0.5-1.1,0.5c-0.4,0-0.8-0.2-1.2-0.5c-0.4-0.3-0.5-0.7-0.5-1.2C813.4,68.4,813.5,68,813.9,67.7z"/>
	<path class="st0" d="M22.1,88.9c1.7,0,3.1,0.3,4.3,0.8c1.2,0.6,2.1,1.4,2.8,2.4s1,2.4,1,3.9c0,0.9-0.1,1.8-0.4,2.7
		c-0.3,0.9-0.7,1.7-1.3,2.4c-0.6,0.7-1.4,1.3-2.4,1.7c-1,0.4-2.2,0.7-3.6,0.7H19v8.5h-3.1V88.9H22.1z M22.4,100.5
		c0.9,0,1.7-0.1,2.3-0.4s1.1-0.7,1.4-1.1c0.3-0.5,0.6-0.9,0.7-1.4c0.1-0.5,0.2-0.9,0.2-1.4c0-0.5-0.1-1-0.2-1.5
		c-0.1-0.5-0.4-1-0.8-1.4c-0.4-0.4-0.8-0.8-1.4-1c-0.6-0.3-1.3-0.4-2.1-0.4H19v8.6H22.4z"/>
	<path class="st0" d="M53.2,88.9V112h-3.1v-10.1H38V112h-3.1V88.9H38v10h12.1v-10H53.2z"/>
	<path class="st0" d="M59.9,88.9h15v3H63v7h10.7v3H63v7.1h12.4v3H59.9V88.9z"/>
	<path class="st0" d="M92.7,93c-0.8-0.4-1.7-0.8-2.6-1.1c-0.9-0.3-1.9-0.4-2.8-0.4c-1.2,0-2.2,0.3-3,0.9c-0.7,0.6-1.1,1.3-1.1,2.3
		c0,0.7,0.2,1.3,0.7,1.8c0.5,0.5,1.1,0.9,1.9,1.3c0.8,0.4,1.6,0.7,2.4,1c0.7,0.3,1.4,0.6,2.1,0.9c0.7,0.4,1.3,0.8,1.9,1.3
		c0.6,0.5,1,1.1,1.3,1.9c0.3,0.7,0.5,1.7,0.5,2.8c0,1.2-0.3,2.4-0.9,3.4c-0.6,1-1.5,1.8-2.6,2.4c-1.1,0.6-2.5,0.9-4.1,0.9
		c-1,0-2-0.1-2.9-0.3s-1.8-0.5-2.6-0.9s-1.5-0.8-2.1-1.2l1.4-2.4c0.5,0.4,1.1,0.7,1.8,1c0.7,0.3,1.4,0.6,2.1,0.8
		c0.7,0.2,1.4,0.3,2.1,0.3c0.7,0,1.5-0.1,2.2-0.4s1.3-0.7,1.8-1.2c0.5-0.6,0.7-1.3,0.7-2.2c0-0.8-0.2-1.4-0.6-2s-1-1-1.6-1.4
		c-0.7-0.4-1.4-0.7-2.2-1c-0.7-0.3-1.5-0.6-2.2-0.9c-0.7-0.3-1.4-0.8-2-1.2c-0.6-0.5-1.1-1.1-1.5-1.8c-0.4-0.7-0.6-1.6-0.6-2.6
		c0-1.2,0.3-2.3,0.9-3.2c0.6-0.9,1.4-1.6,2.4-2.1c1-0.5,2.2-0.8,3.5-0.8c1.5,0,2.8,0.2,4,0.5c1.1,0.4,2.1,0.8,3,1.3L92.7,93z"/>
	<path class="st0" d="M117.5,110c-0.3,0.3-0.8,0.5-1.3,0.8s-1.2,0.5-1.9,0.7c-0.7,0.2-1.4,0.4-2.1,0.5c-0.7,0.1-1.4,0.2-2.1,0.2
		c-1.9,0-3.5-0.3-5-0.9c-1.5-0.6-2.8-1.4-3.8-2.4c-1.1-1-1.9-2.2-2.4-3.6s-0.8-2.9-0.8-4.5c0-2,0.3-3.7,0.9-5.2
		c0.6-1.5,1.5-2.8,2.6-3.9c1.1-1.1,2.4-1.9,3.8-2.4c1.4-0.5,2.9-0.8,4.5-0.8c1.4,0,2.6,0.2,3.8,0.5s2.2,0.7,3,1.2l-1,2.8
		c-0.4-0.2-1-0.5-1.6-0.7c-0.6-0.2-1.3-0.4-1.9-0.5s-1.3-0.2-1.8-0.2c-1.4,0-2.6,0.2-3.7,0.6s-2,1-2.8,1.8c-0.8,0.8-1.4,1.7-1.8,2.8
		s-0.6,2.3-0.6,3.7c0,1.2,0.2,2.4,0.6,3.4s1,2,1.8,2.7c0.8,0.8,1.7,1.3,2.8,1.7c1.1,0.4,2.3,0.6,3.6,0.6c0.8,0,1.5-0.1,2.3-0.2
		c0.8-0.1,1.4-0.4,2-0.7v-4.5h-4.6v-3h7.7V110z"/>
	<path class="st0" d="M122,100.4c0-1.6,0.3-3.1,0.9-4.5c0.6-1.4,1.5-2.7,2.5-3.8s2.3-2,3.8-2.6c1.4-0.6,2.9-0.9,4.6-0.9
		c1.6,0,3.1,0.3,4.5,0.9c1.4,0.6,2.7,1.5,3.8,2.6c1.1,1.1,2,2.4,2.6,3.8c0.6,1.4,0.9,3,0.9,4.6s-0.3,3.1-0.9,4.6
		c-0.6,1.4-1.5,2.7-2.6,3.8s-2.3,1.9-3.8,2.5c-1.4,0.6-3,0.9-4.6,0.9c-1.6,0-3.2-0.3-4.6-0.9c-1.4-0.6-2.7-1.4-3.8-2.5
		c-1.1-1.1-1.9-2.3-2.5-3.7C122.3,103.7,122,102.1,122,100.4z M125.2,100.4c0,1.2,0.2,2.4,0.7,3.4c0.4,1.1,1.1,2,1.9,2.8
		c0.8,0.8,1.7,1.4,2.8,1.9c1,0.5,2.2,0.7,3.4,0.7c1.2,0,2.3-0.2,3.4-0.7c1-0.5,1.9-1.1,2.7-1.9c0.8-0.8,1.4-1.7,1.8-2.8
		s0.7-2.2,0.7-3.4c0-1.2-0.2-2.4-0.7-3.5c-0.4-1.1-1.1-2-1.8-2.8c-0.8-0.8-1.7-1.5-2.8-1.9c-1.1-0.5-2.2-0.7-3.4-0.7
		c-1.2,0-2.4,0.2-3.4,0.7c-1.1,0.5-2,1.1-2.8,1.9c-0.8,0.8-1.4,1.8-1.8,2.8S125.2,99.2,125.2,100.4z"/>
	<path class="st0" d="M160,93.9c0-0.5,0.2-0.9,0.6-1.2c0.4-0.3,0.8-0.5,1.2-0.5s0.9,0.2,1.2,0.5c0.4,0.3,0.5,0.7,0.5,1.2
		c0,0.5-0.2,0.9-0.5,1.2c-0.4,0.3-0.8,0.5-1.2,0.5s-0.9-0.2-1.2-0.5S160,94.4,160,93.9z M160.2,98.7h3V112h-3V98.7z"/>
	<path class="st0" d="M172,112.2c-0.9,0-1.9-0.2-2.7-0.5c-0.9-0.3-1.6-0.8-2.2-1.5l1.2-1.7c0.6,0.5,1.2,0.9,1.7,1.2
		c0.6,0.3,1.2,0.4,1.7,0.4c0.4,0,0.8-0.1,1.2-0.2c0.4-0.1,0.7-0.3,0.9-0.5c0.2-0.3,0.3-0.6,0.3-1c0-0.5-0.2-0.9-0.5-1.1
		c-0.3-0.3-0.7-0.5-1.2-0.7c-0.5-0.2-1-0.3-1.5-0.5c-1.1-0.4-1.9-0.9-2.5-1.5c-0.6-0.6-0.9-1.4-0.9-2.3c0-0.7,0.2-1.4,0.5-2
		c0.4-0.6,0.9-1.1,1.6-1.5c0.7-0.4,1.6-0.6,2.6-0.6c0.9,0,1.7,0.1,2.5,0.3c0.7,0.2,1.4,0.6,2,1.1l-1.2,1.9c-0.4-0.4-0.8-0.7-1.4-0.9
		c-0.5-0.2-1-0.3-1.4-0.3c-0.4,0-0.7,0.1-1.1,0.2c-0.3,0.1-0.6,0.3-0.8,0.5c-0.2,0.2-0.3,0.5-0.3,0.8c0,0.4,0.1,0.8,0.4,1.1
		s0.7,0.5,1.2,0.7c0.5,0.2,0.9,0.3,1.4,0.5c0.6,0.2,1.2,0.4,1.7,0.8c0.5,0.3,0.9,0.7,1.2,1.2c0.3,0.5,0.5,1.1,0.5,1.8
		c0,0.8-0.2,1.5-0.6,2.2c-0.4,0.7-0.9,1.2-1.7,1.6C174.2,112,173.2,112.2,172,112.2z"/>
	<path class="st0" d="M197,112.3c-1.2,0-2.4-0.3-3.4-0.8c-1-0.5-1.8-1.3-2.4-2.4c-0.6-1-0.9-2.3-0.9-3.8s0.3-2.8,0.9-3.8
		c0.6-1.1,1.5-1.9,2.5-2.5c1-0.6,2.2-0.9,3.4-0.9s2.3,0.3,3.2,0.8c0.9,0.6,1.5,1.2,1.9,2l-0.2,0.5l0.3-2.8h2.8V112h-3v-3.5l0.4,0.8
		c-0.1,0.2-0.3,0.5-0.6,0.8c-0.3,0.3-0.7,0.7-1.1,1c-0.5,0.3-1,0.6-1.6,0.8C198.5,112.2,197.8,112.3,197,112.3z M197.8,109.8
		c0.7,0,1.4-0.1,2-0.4c0.6-0.3,1.1-0.7,1.5-1.2c0.4-0.5,0.7-1.1,0.8-1.8v-2.6c-0.2-0.6-0.5-1.2-0.9-1.7c-0.4-0.5-0.9-0.9-1.5-1.1
		c-0.6-0.3-1.2-0.4-2-0.4c-0.8,0-1.5,0.2-2.2,0.6s-1.2,0.9-1.6,1.6c-0.4,0.7-0.6,1.5-0.6,2.4c0,0.9,0.2,1.6,0.6,2.3s0.9,1.3,1.6,1.7
		C196.2,109.6,197,109.8,197.8,109.8z"/>
	<path class="st0" d="M210.2,87.2h3V112h-3V87.2z"/>
	<path class="st0" d="M226.8,98.7l3.9,8.9l-0.6,0.1l3.6-9h2.9l-6.1,14l-4.3-9.1l-3.9,9.1l-6.1-14h2.9l4.1,9.3l-1-0.2l2.9-6.8
		l-1.1-2.3H226.8z"/>
	<path class="st0" d="M245,112.3c-1.2,0-2.4-0.3-3.4-0.8c-1-0.5-1.8-1.3-2.4-2.4c-0.6-1-0.9-2.3-0.9-3.8s0.3-2.8,0.9-3.8
		c0.6-1.1,1.5-1.9,2.5-2.5c1-0.6,2.2-0.9,3.4-0.9s2.3,0.3,3.2,0.8c0.9,0.6,1.5,1.2,1.9,2l-0.2,0.5l0.3-2.8h2.8V112h-3v-3.5l0.4,0.8
		c-0.1,0.2-0.3,0.5-0.6,0.8c-0.3,0.3-0.7,0.7-1.1,1c-0.5,0.3-1,0.6-1.6,0.8C246.5,112.2,245.8,112.3,245,112.3z M245.8,109.8
		c0.7,0,1.4-0.1,2-0.4c0.6-0.3,1.1-0.7,1.5-1.2c0.4-0.5,0.7-1.1,0.8-1.8v-2.6c-0.2-0.6-0.5-1.2-0.9-1.7c-0.4-0.5-0.9-0.9-1.5-1.1
		c-0.6-0.3-1.2-0.4-2-0.4c-0.8,0-1.5,0.2-2.2,0.6s-1.2,0.9-1.6,1.6c-0.4,0.7-0.6,1.5-0.6,2.4c0,0.9,0.2,1.6,0.6,2.3s0.9,1.3,1.6,1.7
		C244.3,109.6,245,109.8,245.8,109.8z"/>
	<path class="st0" d="M262.7,112.1l-6.4-13.3h3.4l5.3,11.8L262.7,112.1z M259.4,118.4l8.7-19.6h2.8l-8.5,19.6H259.4z"/>
	<path class="st0" d="M277.8,112.2c-0.9,0-1.9-0.2-2.7-0.5c-0.9-0.3-1.6-0.8-2.2-1.5l1.2-1.7c0.6,0.5,1.2,0.9,1.7,1.2
		c0.6,0.3,1.2,0.4,1.7,0.4c0.4,0,0.8-0.1,1.2-0.2c0.4-0.1,0.7-0.3,0.9-0.5c0.2-0.3,0.3-0.6,0.3-1c0-0.5-0.2-0.9-0.5-1.1
		c-0.3-0.3-0.7-0.5-1.2-0.7c-0.5-0.2-1-0.3-1.5-0.5c-1.1-0.4-1.9-0.9-2.5-1.5c-0.6-0.6-0.9-1.4-0.9-2.3c0-0.7,0.2-1.4,0.5-2
		c0.4-0.6,0.9-1.1,1.6-1.5c0.7-0.4,1.6-0.6,2.6-0.6c0.9,0,1.7,0.1,2.5,0.3c0.7,0.2,1.4,0.6,2,1.1l-1.2,1.9c-0.4-0.4-0.8-0.7-1.4-0.9
		c-0.5-0.2-1-0.3-1.4-0.3c-0.4,0-0.7,0.1-1.1,0.2c-0.3,0.1-0.6,0.3-0.8,0.5c-0.2,0.2-0.3,0.5-0.3,0.8c0,0.4,0.1,0.8,0.4,1.1
		s0.7,0.5,1.2,0.7c0.5,0.2,0.9,0.3,1.4,0.5c0.6,0.2,1.2,0.4,1.7,0.8c0.5,0.3,0.9,0.7,1.2,1.2c0.3,0.5,0.5,1.1,0.5,1.8
		c0,0.8-0.2,1.5-0.6,2.2c-0.4,0.7-0.9,1.2-1.7,1.6C279.9,112,278.9,112.2,277.8,112.2z"/>
	<path class="st0" d="M303.6,118.6c-1,0-1.9-0.1-2.6-0.4c-0.8-0.2-1.4-0.6-2-1c-0.6-0.4-1.2-0.9-1.8-1.3l1.8-2
		c0.7,0.6,1.4,1.1,2.1,1.5c0.7,0.4,1.5,0.5,2.4,0.5c1,0,1.8-0.2,2.5-0.5c0.7-0.3,1.2-0.8,1.6-1.4c0.4-0.6,0.5-1.2,0.6-2l0-3.6
		l0.3,0.6c-0.4,0.9-1.1,1.7-2.1,2.3c-1,0.6-2.2,0.9-3.6,0.9c-1.2,0-2.3-0.3-3.3-0.9c-1-0.6-1.8-1.5-2.5-2.5
		c-0.6-1.1-0.9-2.2-0.9-3.6c0-1.4,0.3-2.6,1-3.7c0.6-1.1,1.5-1.9,2.5-2.5c1.1-0.6,2.2-0.9,3.4-0.9c1.2,0,2.2,0.2,3.2,0.7
		c1,0.5,1.7,1.1,2.2,1.8l-0.2,0.5l0.3-2.6h2.8v13.3c0,1.2-0.3,2.3-0.9,3.3c-0.6,1-1.5,1.8-2.6,2.4
		C306.5,118.3,305.2,118.6,303.6,118.6z M299,105.2c0,0.9,0.2,1.6,0.6,2.3s1,1.3,1.7,1.7s1.5,0.6,2.3,0.6c0.8,0,1.5-0.1,2.1-0.4
		c0.6-0.3,1.2-0.7,1.6-1.2c0.4-0.5,0.7-1.1,0.9-1.7v-2.7c-0.2-0.6-0.5-1.2-1-1.7c-0.4-0.5-1-0.8-1.6-1.1c-0.6-0.3-1.3-0.4-2-0.4
		c-0.8,0-1.6,0.2-2.3,0.6c-0.7,0.4-1.2,0.9-1.7,1.6C299.2,103.6,299,104.3,299,105.2z"/>
	<path class="st0" d="M316.1,93.9c0-0.5,0.2-0.9,0.6-1.2c0.4-0.3,0.8-0.5,1.2-0.5s0.9,0.2,1.2,0.5c0.4,0.3,0.5,0.7,0.5,1.2
		c0,0.5-0.2,0.9-0.5,1.2c-0.4,0.3-0.8,0.5-1.2,0.5s-0.9-0.2-1.2-0.5S316.1,94.4,316.1,93.9z M316.3,98.7h3V112h-3V98.7z"/>
	<path class="st0" d="M329.8,112.4l-7.4-13.6h3.6l5,10.5l-1.8-0.1l4.6-10.4h3.3l-7.1,13.6H329.8z"/>
	<path class="st0" d="M346.1,112.3c-1.5,0-2.8-0.3-3.9-0.9c-1.1-0.6-1.9-1.4-2.5-2.5s-0.9-2.3-0.9-3.6c0-1.3,0.3-2.5,1-3.6
		c0.7-1.1,1.6-1.9,2.7-2.6s2.3-1,3.7-1c1.7,0,3.2,0.5,4.4,1.5c1.2,1,1.9,2.4,2.4,4.2l-10.9,3.8l-0.7-1.8l8.9-3.3l-0.6,0.4
		c-0.3-0.7-0.7-1.3-1.3-1.8c-0.6-0.5-1.4-0.8-2.3-0.8c-0.8,0-1.5,0.2-2.2,0.6c-0.6,0.4-1.1,0.9-1.5,1.6c-0.4,0.7-0.5,1.5-0.5,2.4
		c0,0.9,0.2,1.7,0.6,2.4c0.4,0.7,0.9,1.3,1.6,1.6c0.7,0.4,1.4,0.6,2.3,0.6c0.6,0,1.1-0.1,1.7-0.3c0.5-0.2,1.1-0.5,1.6-0.8l1.3,2.2
		c-0.7,0.4-1.4,0.8-2.2,1.1C347.7,112.2,346.9,112.3,346.1,112.3z"/>
	<path class="st0" d="M359.3,98.7l0.2,3.2l-0.1-0.5c0.4-1,1.1-1.8,2-2.4s2.1-0.9,3.4-0.9c1.2,0,2.3,0.4,3.1,1.1
		c0.8,0.7,1.2,1.7,1.2,2.9v9.8h-3v-8.8c0-0.7-0.2-1.3-0.6-1.7s-1-0.7-1.8-0.7c-0.7,0-1.4,0.2-2.1,0.6c-0.6,0.4-1.1,1-1.5,1.8
		c-0.4,0.7-0.5,1.6-0.5,2.6v6.2h-3V98.7H359.3z"/>
	<path class="st0" d="M392.5,112.3c-1.2,0-2.3-0.3-3.2-0.8c-0.9-0.5-1.7-1.2-2.2-2l0.4-0.9v3.4h-3V87.2h3v14.6l-0.1-1.2
		c0.5-0.7,1.3-1.3,2.3-1.7c1-0.5,2.1-0.7,3.3-0.7c1.2,0,2.2,0.3,3.2,0.9s1.8,1.4,2.4,2.4c0.6,1,0.9,2.3,0.9,3.7
		c0,1.5-0.3,2.8-0.9,3.9c-0.6,1.1-1.5,1.9-2.5,2.5C394.8,112,393.7,112.3,392.5,112.3z M391.9,109.8c0.9,0,1.6-0.2,2.3-0.6
		c0.7-0.4,1.2-1,1.6-1.7c0.4-0.7,0.6-1.5,0.6-2.4c0-0.9-0.2-1.6-0.6-2.3s-0.9-1.2-1.6-1.6s-1.4-0.6-2.3-0.6c-0.7,0-1.4,0.1-2,0.4
		c-0.6,0.3-1.1,0.6-1.6,1.1c-0.4,0.5-0.7,1-0.9,1.7v2.7c0.2,0.6,0.5,1.2,0.9,1.7c0.4,0.5,0.9,0.9,1.6,1.2
		C390.4,109.6,391.1,109.8,391.9,109.8z"/>
	<path class="st0" d="M407.8,112.1l-6.4-13.3h3.4l5.3,11.8L407.8,112.1z M404.5,118.4l8.7-19.6h2.8l-8.5,19.6H404.5z"/>
	<path class="st0" d="M434.8,112.3c-1.2,0-2.4-0.3-3.4-0.8c-1-0.5-1.8-1.3-2.4-2.4c-0.6-1-0.9-2.3-0.9-3.8s0.3-2.8,0.9-3.8
		c0.6-1.1,1.5-1.9,2.5-2.5c1-0.6,2.2-0.9,3.4-0.9s2.3,0.3,3.2,0.8c0.9,0.6,1.5,1.2,1.9,2l-0.2,0.5l0.3-2.8h2.8V112h-3v-3.5l0.4,0.8
		c-0.1,0.2-0.3,0.5-0.6,0.8c-0.3,0.3-0.7,0.7-1.1,1c-0.5,0.3-1,0.6-1.6,0.8C436.3,112.2,435.6,112.3,434.8,112.3z M435.6,109.8
		c0.7,0,1.4-0.1,2-0.4c0.6-0.3,1.1-0.7,1.5-1.2c0.4-0.5,0.7-1.1,0.8-1.8v-2.6c-0.2-0.6-0.5-1.2-0.9-1.7c-0.4-0.5-0.9-0.9-1.5-1.1
		c-0.6-0.3-1.2-0.4-2-0.4c-0.8,0-1.5,0.2-2.2,0.6s-1.2,0.9-1.6,1.6c-0.4,0.7-0.6,1.5-0.6,2.4c0,0.9,0.2,1.6,0.6,2.3s0.9,1.3,1.6,1.7
		C434.1,109.6,434.8,109.8,435.6,109.8z"/>
	<path class="st0" d="M458.1,112V87.2h2.9v14.6l-0.1-0.5c0.4-0.9,1.1-1.6,2.1-2.2c0.9-0.6,2-0.9,3.3-0.9c1.2,0,2.3,0.4,3.1,1.1
		c0.8,0.7,1.2,1.7,1.2,2.9v9.8h-3v-8.8c0-0.7-0.2-1.3-0.6-1.7s-1-0.7-1.8-0.7c-0.7,0-1.4,0.2-2.1,0.7c-0.6,0.4-1.1,1-1.5,1.8
		c-0.4,0.7-0.5,1.6-0.5,2.6v6.2H458.1z"/>
	<path class="st0" d="M482,112.3c-1.5,0-2.8-0.3-3.9-0.9c-1.1-0.6-1.9-1.4-2.5-2.5s-0.9-2.3-0.9-3.6c0-1.3,0.3-2.5,1-3.6
		c0.7-1.1,1.6-1.9,2.7-2.6s2.3-1,3.7-1c1.7,0,3.2,0.5,4.4,1.5c1.2,1,1.9,2.4,2.4,4.2l-10.9,3.8l-0.7-1.8l8.9-3.3l-0.6,0.4
		c-0.3-0.7-0.7-1.3-1.3-1.8c-0.6-0.5-1.4-0.8-2.3-0.8c-0.8,0-1.5,0.2-2.2,0.6c-0.6,0.4-1.1,0.9-1.5,1.6c-0.4,0.7-0.5,1.5-0.5,2.4
		c0,0.9,0.2,1.7,0.6,2.4c0.4,0.7,0.9,1.3,1.6,1.6c0.7,0.4,1.4,0.6,2.3,0.6c0.6,0,1.1-0.1,1.7-0.3c0.5-0.2,1.1-0.5,1.6-0.8l1.3,2.2
		c-0.7,0.4-1.4,0.8-2.2,1.1C483.6,112.2,482.8,112.3,482,112.3z"/>
	<path class="st0" d="M498,112.3c-1.2,0-2.4-0.3-3.4-0.8c-1-0.5-1.8-1.3-2.4-2.4c-0.6-1-0.9-2.3-0.9-3.8s0.3-2.8,0.9-3.8
		c0.6-1.1,1.5-1.9,2.5-2.5c1-0.6,2.2-0.9,3.4-0.9s2.3,0.3,3.2,0.8c0.9,0.6,1.5,1.2,1.9,2l-0.2,0.5l0.3-2.8h2.8V112h-3v-3.5l0.4,0.8
		c-0.1,0.2-0.3,0.5-0.6,0.8c-0.3,0.3-0.7,0.7-1.1,1c-0.5,0.3-1,0.6-1.6,0.8C499.5,112.2,498.8,112.3,498,112.3z M498.8,109.8
		c0.7,0,1.4-0.1,2-0.4c0.6-0.3,1.1-0.7,1.5-1.2c0.4-0.5,0.7-1.1,0.8-1.8v-2.6c-0.2-0.6-0.5-1.2-0.9-1.7c-0.4-0.5-0.9-0.9-1.5-1.1
		c-0.6-0.3-1.2-0.4-2-0.4c-0.8,0-1.5,0.2-2.2,0.6s-1.2,0.9-1.6,1.6c-0.4,0.7-0.6,1.5-0.6,2.4c0,0.9,0.2,1.6,0.6,2.3s0.9,1.3,1.6,1.7
		C497.3,109.6,498,109.8,498.8,109.8z"/>
	<path class="st0" d="M511.2,87.2h3V112h-3V87.2z"/>
	<path class="st0" d="M520.6,92.9h3v5.9h3.6v2.3h-3.6V112h-3v-10.8h-2.4v-2.3h2.4V92.9z"/>
	<path class="st0" d="M530.8,112V87.2h2.9v14.6l-0.1-0.5c0.4-0.9,1.1-1.6,2.1-2.2c0.9-0.6,2-0.9,3.3-0.9c1.2,0,2.3,0.4,3.1,1.1
		c0.8,0.7,1.2,1.7,1.2,2.9v9.8h-3v-8.8c0-0.7-0.2-1.3-0.6-1.7s-1-0.7-1.8-0.7c-0.7,0-1.4,0.2-2.1,0.7c-0.6,0.4-1.1,1-1.5,1.8
		c-0.4,0.7-0.5,1.6-0.5,2.6v6.2H530.8z"/>
	<path class="st0" d="M559.3,110.7c-0.6,0.5-1.3,0.9-2.1,1.2c-0.8,0.3-1.7,0.4-2.5,0.4c-1.4,0-2.7-0.3-3.8-0.9s-2-1.4-2.6-2.4
		c-0.6-1-0.9-2.3-0.9-3.7s0.3-2.6,1-3.7c0.7-1,1.5-1.8,2.6-2.4c1.1-0.6,2.2-0.8,3.4-0.8c1,0,2,0.1,2.8,0.4s1.6,0.7,2.2,1.2l-1.5,1.9
		c-0.4-0.3-0.8-0.5-1.4-0.8s-1.2-0.4-1.9-0.4c-0.8,0-1.5,0.2-2.2,0.6s-1.2,0.9-1.5,1.6s-0.6,1.4-0.6,2.3c0,0.8,0.2,1.6,0.6,2.3
		s0.9,1.2,1.6,1.6s1.5,0.6,2.4,0.6c0.6,0,1.1-0.1,1.6-0.3c0.5-0.2,0.9-0.4,1.3-0.7L559.3,110.7z"/>
	<path class="st0" d="M568.6,112.3c-1.2,0-2.4-0.3-3.4-0.8c-1-0.5-1.8-1.3-2.4-2.4c-0.6-1-0.9-2.3-0.9-3.8s0.3-2.8,0.9-3.8
		c0.6-1.1,1.5-1.9,2.5-2.5c1-0.6,2.2-0.9,3.4-0.9s2.3,0.3,3.2,0.8c0.9,0.6,1.5,1.2,1.9,2l-0.2,0.5l0.3-2.8h2.8V112h-3v-3.5l0.4,0.8
		c-0.1,0.2-0.3,0.5-0.6,0.8c-0.3,0.3-0.7,0.7-1.1,1c-0.5,0.3-1,0.6-1.6,0.8C570.1,112.2,569.4,112.3,568.6,112.3z M569.5,109.8
		c0.7,0,1.4-0.1,2-0.4c0.6-0.3,1.1-0.7,1.5-1.2c0.4-0.5,0.7-1.1,0.8-1.8v-2.6c-0.2-0.6-0.5-1.2-0.9-1.7c-0.4-0.5-0.9-0.9-1.5-1.1
		c-0.6-0.3-1.2-0.4-2-0.4c-0.8,0-1.5,0.2-2.2,0.6s-1.2,0.9-1.6,1.6c-0.4,0.7-0.6,1.5-0.6,2.4c0,0.9,0.2,1.6,0.6,2.3s0.9,1.3,1.6,1.7
		C567.9,109.6,568.7,109.8,569.5,109.8z"/>
	<path class="st0" d="M584.6,98.7l0.3,3.8l-0.1-0.5c0.3-0.8,0.8-1.5,1.5-2s1.3-1,2-1.3s1.3-0.5,1.9-0.5l-0.1,3
		c-1-0.1-1.9,0.1-2.7,0.6c-0.8,0.5-1.4,1.1-1.8,1.8c-0.4,0.7-0.7,1.5-0.7,2.4v6h-3V98.7H584.6z"/>
	<path class="st0" d="M599.5,112.3c-1.5,0-2.8-0.3-3.9-0.9c-1.1-0.6-1.9-1.4-2.5-2.5s-0.9-2.3-0.9-3.6c0-1.3,0.3-2.5,1-3.6
		c0.7-1.1,1.6-1.9,2.7-2.6s2.3-1,3.7-1c1.7,0,3.2,0.5,4.4,1.5c1.2,1,1.9,2.4,2.4,4.2l-10.9,3.8l-0.7-1.8l8.9-3.3l-0.6,0.4
		c-0.3-0.7-0.7-1.3-1.3-1.8c-0.6-0.5-1.4-0.8-2.3-0.8c-0.8,0-1.5,0.2-2.2,0.6c-0.6,0.4-1.1,0.9-1.5,1.6c-0.4,0.7-0.5,1.5-0.5,2.4
		c0,0.9,0.2,1.7,0.6,2.4c0.4,0.7,0.9,1.3,1.6,1.6c0.7,0.4,1.4,0.6,2.3,0.6c0.6,0,1.1-0.1,1.7-0.3c0.5-0.2,1.1-0.5,1.6-0.8l1.3,2.2
		c-0.7,0.4-1.4,0.8-2.2,1.1C601.1,112.2,600.3,112.3,599.5,112.3z"/>
	<path class="st0" d="M627.9,112.3c-1,0-2-0.2-2.9-0.7s-1.6-1.1-2.1-1.9l0.2-0.9v9.6h-3V98.5h2.6l0.4,3.4l-0.3-1
		c0.6-0.8,1.5-1.5,2.4-2s2.1-0.8,3.3-0.8c1.2,0,2.4,0.3,3.3,0.9c1,0.6,1.8,1.4,2.4,2.5s0.9,2.3,0.9,3.8c0,1.4-0.3,2.6-0.9,3.7
		c-0.6,1.1-1.5,1.9-2.5,2.4C630.5,112,629.3,112.3,627.9,112.3z M627.3,109.9c0.9,0,1.6-0.2,2.3-0.6s1.3-0.9,1.7-1.6
		c0.4-0.7,0.7-1.5,0.7-2.4c0-0.9-0.2-1.7-0.6-2.4s-0.9-1.2-1.6-1.6s-1.4-0.6-2.3-0.6c-0.8,0-1.5,0.1-2.1,0.4s-1.1,0.7-1.5,1.2
		c-0.4,0.5-0.7,1.1-0.9,1.8v2.2c0.1,0.6,0.4,1.2,0.8,1.8c0.4,0.5,0.9,1,1.5,1.3C626,109.8,626.6,109.9,627.3,109.9z"/>
	<path class="st0" d="M641.7,98.7l0.3,3.8l-0.1-0.5c0.3-0.8,0.8-1.5,1.5-2s1.3-1,2-1.3s1.3-0.5,1.9-0.5l-0.1,3
		c-1-0.1-1.9,0.1-2.7,0.6c-0.8,0.5-1.4,1.1-1.8,1.8c-0.4,0.7-0.7,1.5-0.7,2.4v6h-3V98.7H641.7z"/>
	<path class="st0" d="M649.4,105.2c0-1.3,0.3-2.5,0.9-3.6c0.6-1.1,1.5-1.9,2.6-2.5c1.1-0.6,2.4-0.9,3.8-0.9c1.4,0,2.7,0.3,3.8,0.9
		c1.1,0.6,1.9,1.5,2.5,2.5c0.6,1.1,0.9,2.3,0.9,3.6c0,1.3-0.3,2.5-0.9,3.6c-0.6,1.1-1.5,1.9-2.5,2.5s-2.4,0.9-3.8,0.9
		c-1.4,0-2.7-0.3-3.8-0.9c-1.1-0.6-2-1.4-2.6-2.5C649.7,107.9,649.4,106.7,649.4,105.2z M652.4,105.3c0,0.9,0.2,1.6,0.6,2.3
		c0.4,0.7,0.9,1.2,1.5,1.6c0.6,0.4,1.4,0.6,2.2,0.6c0.8,0,1.6-0.2,2.2-0.6s1.1-1,1.5-1.6c0.4-0.7,0.6-1.5,0.6-2.3s-0.2-1.6-0.6-2.3
		s-0.9-1.2-1.5-1.7s-1.4-0.6-2.2-0.6c-0.8,0-1.5,0.2-2.2,0.6c-0.7,0.4-1.2,1-1.5,1.7S652.4,104.4,652.4,105.3z"/>
	<path class="st0" d="M669.1,112v-10.6h-2.3v-2.7h2.3v-5.6c0-1.9,0.4-3.4,1.3-4.4c0.9-1,2.1-1.5,3.9-1.5c0.4,0,0.9,0.1,1.5,0.2
		s1,0.3,1.4,0.6l-1.2,2.1c-0.2-0.2-0.4-0.3-0.6-0.4c-0.2-0.1-0.5-0.1-0.7-0.1c-0.8,0-1.4,0.3-1.8,0.8s-0.6,1.5-0.6,2.8v5.5h4.2v2.7
		H672V112H669.1z"/>
	<path class="st0" d="M685.5,112.3c-1.5,0-2.8-0.3-3.9-0.9c-1.1-0.6-1.9-1.4-2.5-2.5s-0.9-2.3-0.9-3.6c0-1.3,0.3-2.5,1-3.6
		c0.7-1.1,1.6-1.9,2.7-2.6s2.3-1,3.7-1c1.7,0,3.2,0.5,4.4,1.5c1.2,1,1.9,2.4,2.4,4.2l-10.9,3.8l-0.7-1.8l8.9-3.3l-0.6,0.4
		c-0.3-0.7-0.7-1.3-1.3-1.8c-0.6-0.5-1.4-0.8-2.3-0.8c-0.8,0-1.5,0.2-2.2,0.6c-0.6,0.4-1.1,0.9-1.5,1.6c-0.4,0.7-0.5,1.5-0.5,2.4
		c0,0.9,0.2,1.7,0.6,2.4c0.4,0.7,0.9,1.3,1.6,1.6c0.7,0.4,1.4,0.6,2.3,0.6c0.6,0,1.1-0.1,1.7-0.3c0.5-0.2,1.1-0.5,1.6-0.8l1.3,2.2
		c-0.7,0.4-1.4,0.8-2.2,1.1C687.1,112.2,686.3,112.3,685.5,112.3z"/>
	<path class="st0" d="M699.8,112.2c-0.9,0-1.9-0.2-2.7-0.5c-0.9-0.3-1.6-0.8-2.2-1.5l1.2-1.7c0.6,0.5,1.2,0.9,1.7,1.2
		c0.6,0.3,1.2,0.4,1.7,0.4c0.4,0,0.8-0.1,1.2-0.2c0.4-0.1,0.7-0.3,0.9-0.5c0.2-0.3,0.3-0.6,0.3-1c0-0.5-0.2-0.9-0.5-1.1
		c-0.3-0.3-0.7-0.5-1.2-0.7c-0.5-0.2-1-0.3-1.5-0.5c-1.1-0.4-1.9-0.9-2.5-1.5c-0.6-0.6-0.9-1.4-0.9-2.3c0-0.7,0.2-1.4,0.5-2
		c0.4-0.6,0.9-1.1,1.6-1.5c0.7-0.4,1.6-0.6,2.6-0.6c0.9,0,1.7,0.1,2.5,0.3c0.7,0.2,1.4,0.6,2,1.1l-1.2,1.9c-0.4-0.4-0.8-0.7-1.4-0.9
		c-0.5-0.2-1-0.3-1.4-0.3c-0.4,0-0.7,0.1-1.1,0.2c-0.3,0.1-0.6,0.3-0.8,0.5c-0.2,0.2-0.3,0.5-0.3,0.8c0,0.4,0.1,0.8,0.4,1.1
		s0.7,0.5,1.2,0.7c0.5,0.2,0.9,0.3,1.4,0.5c0.6,0.2,1.2,0.4,1.7,0.8c0.5,0.3,0.9,0.7,1.2,1.2c0.3,0.5,0.5,1.1,0.5,1.8
		c0,0.8-0.2,1.5-0.6,2.2c-0.4,0.7-0.9,1.2-1.7,1.6C701.9,112,700.9,112.2,699.8,112.2z"/>
	<path class="st0" d="M712.8,112.2c-0.9,0-1.9-0.2-2.7-0.5c-0.9-0.3-1.6-0.8-2.2-1.5l1.2-1.7c0.6,0.5,1.2,0.9,1.7,1.2
		c0.6,0.3,1.2,0.4,1.7,0.4c0.4,0,0.8-0.1,1.2-0.2c0.4-0.1,0.7-0.3,0.9-0.5c0.2-0.3,0.3-0.6,0.3-1c0-0.5-0.2-0.9-0.5-1.1
		c-0.3-0.3-0.7-0.5-1.2-0.7c-0.5-0.2-1-0.3-1.5-0.5c-1.1-0.4-1.9-0.9-2.5-1.5c-0.6-0.6-0.9-1.4-0.9-2.3c0-0.7,0.2-1.4,0.5-2
		c0.4-0.6,0.9-1.1,1.6-1.5c0.7-0.4,1.6-0.6,2.6-0.6c0.9,0,1.7,0.1,2.5,0.3c0.7,0.2,1.4,0.6,2,1.1l-1.2,1.9c-0.4-0.4-0.8-0.7-1.4-0.9
		c-0.5-0.2-1-0.3-1.4-0.3c-0.4,0-0.7,0.1-1.1,0.2c-0.3,0.1-0.6,0.3-0.8,0.5c-0.2,0.2-0.3,0.5-0.3,0.8c0,0.4,0.1,0.8,0.4,1.1
		s0.7,0.5,1.2,0.7c0.5,0.2,0.9,0.3,1.4,0.5c0.6,0.2,1.2,0.4,1.7,0.8c0.5,0.3,0.9,0.7,1.2,1.2c0.3,0.5,0.5,1.1,0.5,1.8
		c0,0.8-0.2,1.5-0.6,2.2c-0.4,0.7-0.9,1.2-1.7,1.6C714.9,112,713.9,112.2,712.8,112.2z"/>
	<path class="st0" d="M721.9,93.9c0-0.5,0.2-0.9,0.6-1.2c0.4-0.3,0.8-0.5,1.2-0.5s0.9,0.2,1.2,0.5c0.4,0.3,0.5,0.7,0.5,1.2
		c0,0.5-0.2,0.9-0.5,1.2c-0.4,0.3-0.8,0.5-1.2,0.5s-0.9-0.2-1.2-0.5S721.9,94.4,721.9,93.9z M722.1,98.7h3V112h-3V98.7z"/>
	<path class="st0" d="M729,105.2c0-1.3,0.3-2.5,0.9-3.6c0.6-1.1,1.5-1.9,2.6-2.5c1.1-0.6,2.4-0.9,3.8-0.9c1.4,0,2.7,0.3,3.8,0.9
		c1.1,0.6,1.9,1.5,2.5,2.5c0.6,1.1,0.9,2.3,0.9,3.6c0,1.3-0.3,2.5-0.9,3.6c-0.6,1.1-1.5,1.9-2.5,2.5s-2.4,0.9-3.8,0.9
		c-1.4,0-2.7-0.3-3.8-0.9c-1.1-0.6-2-1.4-2.6-2.5C729.4,107.9,729,106.7,729,105.2z M732,105.3c0,0.9,0.2,1.6,0.6,2.3
		c0.4,0.7,0.9,1.2,1.5,1.6c0.6,0.4,1.4,0.6,2.2,0.6c0.8,0,1.6-0.2,2.2-0.6s1.1-1,1.5-1.6c0.4-0.7,0.6-1.5,0.6-2.3s-0.2-1.6-0.6-2.3
		s-0.9-1.2-1.5-1.7s-1.4-0.6-2.2-0.6c-0.8,0-1.5,0.2-2.2,0.6c-0.7,0.4-1.2,1-1.5,1.7S732,104.4,732,105.3z"/>
	<path class="st0" d="M750.3,98.7l0.2,3.2l-0.1-0.5c0.4-1,1.1-1.8,2-2.4s2.1-0.9,3.4-0.9c1.2,0,2.3,0.4,3.1,1.1
		c0.8,0.7,1.2,1.7,1.2,2.9v9.8h-3v-8.8c0-0.7-0.2-1.3-0.6-1.7s-1-0.7-1.8-0.7c-0.7,0-1.4,0.2-2.1,0.6c-0.6,0.4-1.1,1-1.5,1.8
		c-0.4,0.7-0.5,1.6-0.5,2.6v6.2h-3V98.7H750.3z"/>
	<path class="st0" d="M770.9,112.3c-1.2,0-2.4-0.3-3.4-0.8c-1-0.5-1.8-1.3-2.4-2.4c-0.6-1-0.9-2.3-0.9-3.8s0.3-2.8,0.9-3.8
		c0.6-1.1,1.5-1.9,2.5-2.5c1-0.6,2.2-0.9,3.4-0.9s2.3,0.3,3.2,0.8c0.9,0.6,1.5,1.2,1.9,2l-0.2,0.5l0.3-2.8h2.8V112h-3v-3.5l0.4,0.8
		c-0.1,0.2-0.3,0.5-0.6,0.8c-0.3,0.3-0.7,0.7-1.1,1c-0.5,0.3-1,0.6-1.6,0.8C772.3,112.2,771.6,112.3,770.9,112.3z M771.7,109.8
		c0.7,0,1.4-0.1,2-0.4c0.6-0.3,1.1-0.7,1.5-1.2c0.4-0.5,0.7-1.1,0.8-1.8v-2.6c-0.2-0.6-0.5-1.2-0.9-1.7c-0.4-0.5-0.9-0.9-1.5-1.1
		c-0.6-0.3-1.2-0.4-2-0.4c-0.8,0-1.5,0.2-2.2,0.6s-1.2,0.9-1.6,1.6c-0.4,0.7-0.6,1.5-0.6,2.4c0,0.9,0.2,1.6,0.6,2.3s0.9,1.3,1.6,1.7
		C770.1,109.6,770.9,109.8,771.7,109.8z"/>
	<path class="st0" d="M784.1,87.2h3V112h-3V87.2z"/>
	<path class="st0" d="M791.3,109.1c0.4-0.3,0.7-0.5,1.2-0.5c0.4,0,0.8,0.2,1.1,0.5c0.4,0.3,0.5,0.7,0.5,1.2c0,0.5-0.2,0.9-0.5,1.2
		c-0.4,0.3-0.7,0.5-1.1,0.5c-0.4,0-0.8-0.2-1.2-0.5c-0.4-0.3-0.5-0.7-0.5-1.2C790.7,109.8,790.9,109.4,791.3,109.1z"/>
</g>
</svg>
