<?xml version="1.0" encoding="utf-8"?>
<!-- Generator: Adobe Illustrator 25.2.1, SVG Export Plug-In . SVG Version: 6.00 Build 0)  -->
<svg version="1.1" id="Layer_1" xmlns="http://www.w3.org/2000/svg" xmlns:xlink="http://www.w3.org/1999/xlink" x="0px" y="0px"
	 viewBox="0 0 654 326" style="enable-background:new 0 0 654 326;" xml:space="preserve">
<style type="text/css">
	.st0{fill-rule:evenodd;clip-rule:evenodd;fill:#2BA297;}
	.st1{fill:#FFFFFF;}
</style>
<g id="Selected_2_">
	<g>
		<g id="Frame-02_14_" transform="translate(-17.000000, -648.000000)">
			<g id="Group-2_14_" transform="translate(17.000000, 648.000000)">
				<rect id="Rectangle_14_" x="1.4" y="168" class="st0" width="592.5" height="71.8"/>
			</g>
		</g>
	</g>
</g>
<path class="st1" d="M15.2,184.6H24v11.9h6.6v6.8H24v20.6h-8.7v-20.6H11v-6.8h4.2V184.6z"/>
<path class="st1" d="M45.2,196.6l0.8,7.5l-0.2-1.1c0.8-1.6,1.9-3,3.2-4.2c1.4-1.1,2.7-2,4.1-2.7c1.4-0.6,2.4-0.9,3.1-0.9l-0.4,8.7
	c-2-0.2-3.8,0.1-5.2,1c-1.5,0.9-2.6,2.1-3.4,3.6c-0.8,1.5-1.2,3-1.2,4.6v10.7h-8.7v-27.3H45.2z"/>
<path class="st1" d="M75.1,224.6c-3.3,0-6.2-0.6-8.5-1.9c-2.3-1.2-4.1-3-5.3-5.2c-1.2-2.2-1.8-4.7-1.8-7.6c0-2.7,0.7-5.2,2.1-7.4
	c1.4-2.2,3.3-4,5.7-5.3s5-2,7.9-2c3.9,0,7.1,1.1,9.7,3.4c2.5,2.3,4.2,5.6,4.9,9.8l-21.2,6.7l-1.9-4.7l15.4-5.2l-1.8,0.8
	c-0.3-1.1-0.9-2-1.8-2.8c-0.9-0.8-2.1-1.2-3.8-1.2c-1.3,0-2.4,0.3-3.4,0.9c-1,0.6-1.7,1.5-2.2,2.6c-0.5,1.1-0.8,2.4-0.8,3.9
	c0,1.7,0.3,3.1,0.9,4.3c0.6,1.1,1.5,2,2.6,2.6c1.1,0.6,2.3,0.9,3.6,0.9c1,0,1.9-0.2,2.8-0.5c0.9-0.3,1.8-0.8,2.7-1.3l3.9,6.5
	c-1.5,0.8-3,1.5-4.7,2S76.6,224.6,75.1,224.6z"/>
<path class="st1" d="M107.7,224.6c-2.5,0-4.8-0.5-6.9-1.5c-2.1-1-3.7-2.6-4.9-4.7c-1.2-2.1-1.8-4.8-1.8-8.1c0-3.1,0.6-5.7,1.9-8
	c1.2-2.2,2.9-4,4.9-5.2c2-1.2,4.2-1.8,6.5-1.8c2.7,0,4.8,0.4,6.2,1.3c1.4,0.9,2.6,1.9,3.5,3l-0.4,1.1l0.8-4h8.1v27.3h-8.7V218
	l0.7,1.9c-0.1,0-0.3,0.2-0.8,0.7c-0.4,0.5-1,1-1.8,1.7c-0.8,0.6-1.8,1.2-3,1.7C110.7,224.4,109.3,224.6,107.7,224.6z M110.2,217.5
	c1,0,2-0.2,2.8-0.5c0.8-0.3,1.6-0.8,2.2-1.4c0.6-0.6,1.2-1.4,1.6-2.3v-6.7c-0.3-0.9-0.8-1.7-1.5-2.3c-0.7-0.6-1.5-1.1-2.4-1.5
	c-0.9-0.4-1.9-0.5-3.1-0.5c-1.2,0-2.4,0.3-3.5,1c-1.1,0.6-1.9,1.5-2.5,2.7c-0.6,1.1-0.9,2.4-0.9,3.9c0,1.5,0.3,2.8,1,3.9
	c0.7,1.2,1.6,2.1,2.7,2.7C107.7,217.2,108.9,217.5,110.2,217.5z"/>
<path class="st1" d="M137.1,184.6h8.7v11.9h6.6v6.8h-6.6v20.6h-8.7v-20.6h-4.2v-6.8h4.2V184.6z"/>
<path class="st1" d="M167.1,196.6l0.7,4.8l-0.1-0.4c1.1-1.8,2.4-3.3,4.1-4.3c1.6-1,3.6-1.5,5.9-1.5c1.5,0,2.8,0.2,4,0.6
	c1.1,0.4,2.1,1,2.9,1.8s1.3,1.9,1.6,3.2l-0.3,0.1c1.2-1.7,2.6-3.1,4.2-4.1c1.6-1,3.4-1.6,5.2-1.6c2.7,0,4.9,0.8,6.5,2.3
	s2.4,3.5,2.5,5.9v20.5h-8.7V207c0-1.2-0.2-2.2-0.6-3c-0.3-0.8-1.1-1.2-2.3-1.3c-1.4,0-2.6,0.5-3.6,1.5c-1,1-1.7,2.2-2.2,3.7
	c-0.5,1.5-0.7,3.1-0.7,4.7v11.2h-8.7V207c0-1.2-0.3-2.2-0.7-3c-0.4-0.8-1.2-1.2-2.4-1.3c-1.4,0-2.5,0.5-3.5,1.5
	c-0.9,1-1.6,2.2-2.1,3.7c-0.5,1.5-0.7,3-0.7,4.6v11.3h-8.7v-27.3H167.1z"/>
<path class="st1" d="M226.5,224.6c-3.3,0-6.2-0.6-8.5-1.9c-2.3-1.2-4.1-3-5.3-5.2c-1.2-2.2-1.8-4.7-1.8-7.6c0-2.7,0.7-5.2,2.1-7.4
	c1.4-2.2,3.3-4,5.7-5.3s5-2,7.9-2c3.9,0,7.1,1.1,9.7,3.4c2.5,2.3,4.2,5.6,4.9,9.8l-21.2,6.7l-1.9-4.7l15.4-5.2l-1.8,0.8
	c-0.3-1.1-0.9-2-1.8-2.8c-0.9-0.8-2.1-1.2-3.8-1.2c-1.3,0-2.4,0.3-3.4,0.9c-1,0.6-1.7,1.5-2.2,2.6c-0.5,1.1-0.8,2.4-0.8,3.9
	c0,1.7,0.3,3.1,0.9,4.3c0.6,1.1,1.5,2,2.6,2.6c1.1,0.6,2.3,0.9,3.6,0.9c1,0,1.9-0.2,2.8-0.5c0.9-0.3,1.8-0.8,2.7-1.3l3.9,6.5
	c-1.5,0.8-3,1.5-4.7,2C229.6,224.4,228,224.6,226.5,224.6z"/>
<path class="st1" d="M255.6,196.6l0.7,4.9l-0.1-0.4c1-1.7,2.3-3.1,4.1-4.2c1.8-1.1,3.9-1.6,6.4-1.6c2.6,0,4.7,0.8,6.5,2.3
	s2.6,3.5,2.7,5.9v20.4H267v-17.2c0-1.2-0.4-2.2-1-2.9c-0.6-0.7-1.6-1.1-3-1.1c-1.3,0-2.5,0.4-3.5,1.3c-1,0.9-1.8,2.1-2.3,3.6
	c-0.5,1.5-0.8,3.2-0.8,5.2v11.1h-8.7v-27.3H255.6z"/>
<path class="st1" d="M287.3,184.6h8.7v11.9h6.6v6.8h-6.6v20.6h-8.7v-20.6h-4.2v-6.8h4.2V184.6z"/>
<path class="st1" d="M332.3,184.6h8.7v11.9h6.6v6.8H341v20.6h-8.7v-20.6H328v-6.8h4.2V184.6z"/>
<path class="st1" d="M354.3,223.9v-49.3h8.6v27.5l-0.1-1.1c1-1.7,2.3-3.1,4.1-4.2c1.8-1.1,3.9-1.6,6.4-1.6c2.6,0,4.7,0.8,6.5,2.3
	s2.6,3.5,2.7,5.9v20.4h-8.7v-17.2c0-1.2-0.4-2.2-1-2.9c-0.6-0.7-1.6-1.1-3-1.1c-1.3,0-2.5,0.4-3.5,1.3c-1,0.9-1.8,2.1-2.3,3.6
	c-0.5,1.5-0.8,3.2-0.8,5.2v11.1H354.3z"/>
<path class="st1" d="M402.9,224.6c-2.5,0-4.8-0.5-6.9-1.5c-2.1-1-3.7-2.6-4.9-4.7c-1.2-2.1-1.8-4.8-1.8-8.1c0-3.1,0.6-5.7,1.9-8
	c1.2-2.2,2.9-4,4.9-5.2c2-1.2,4.2-1.8,6.5-1.8c2.7,0,4.8,0.4,6.2,1.3c1.4,0.9,2.6,1.9,3.5,3l-0.4,1.1l0.8-4h8.1v27.3H412V218
	l0.7,1.9c-0.1,0-0.3,0.2-0.8,0.7c-0.4,0.5-1,1-1.8,1.7c-0.8,0.6-1.8,1.2-3,1.7S404.5,224.6,402.9,224.6z M405.4,217.5
	c1,0,2-0.2,2.8-0.5c0.8-0.3,1.6-0.8,2.2-1.4s1.2-1.4,1.6-2.3v-6.7c-0.3-0.9-0.8-1.7-1.5-2.3c-0.7-0.6-1.5-1.1-2.4-1.5
	c-0.9-0.4-1.9-0.5-3.1-0.5c-1.2,0-2.4,0.3-3.5,1c-1.1,0.6-1.9,1.5-2.5,2.7c-0.6,1.1-0.9,2.4-0.9,3.9c0,1.5,0.3,2.8,1,3.9
	c0.7,1.2,1.6,2.1,2.7,2.7C402.9,217.2,404.1,217.5,405.4,217.5z"/>
<path class="st1" d="M432.4,184.6h8.7v11.9h6.6v6.8h-6.6v20.6h-8.7v-20.6h-4.2v-6.8h4.2V184.6z"/>
<path class="st1" d="M497.9,221.4c-1.2,1-2.7,1.7-4.5,2.3c-1.8,0.6-3.6,0.9-5.3,0.9c-3.1,0-5.8-0.6-8.2-1.7
	c-2.3-1.1-4.1-2.8-5.4-4.9c-1.3-2.1-1.9-4.7-1.9-7.8c0-3,0.7-5.6,2.1-7.8c1.4-2.1,3.2-3.8,5.4-4.9c2.2-1.1,4.6-1.7,7-1.7
	c2.5,0,4.6,0.3,6.4,1c1.8,0.7,3.4,1.5,4.7,2.6l-4.2,5.6c-0.6-0.5-1.4-0.9-2.4-1.4c-1-0.5-2.2-0.7-3.6-0.7c-1.2,0-2.3,0.3-3.3,0.9
	s-1.8,1.5-2.4,2.6c-0.6,1.1-0.9,2.3-0.9,3.7c0,1.3,0.3,2.6,0.9,3.7c0.6,1.1,1.5,2,2.6,2.7c1.1,0.6,2.4,1,3.9,1c1,0,1.8-0.1,2.7-0.4
	c0.8-0.3,1.5-0.7,2.1-1.2L497.9,221.4z"/>
<path class="st1" d="M516.1,224.6c-2.5,0-4.8-0.5-6.9-1.5c-2.1-1-3.7-2.6-4.9-4.7c-1.2-2.1-1.8-4.8-1.8-8.1c0-3.1,0.6-5.7,1.9-8
	c1.2-2.2,2.9-4,4.9-5.2c2-1.2,4.2-1.8,6.5-1.8c2.7,0,4.8,0.4,6.2,1.3c1.4,0.9,2.6,1.9,3.5,3l-0.4,1.1l0.8-4h8.1v27.3h-8.7V218
	l0.7,1.9c-0.1,0-0.3,0.2-0.8,0.7c-0.4,0.5-1,1-1.8,1.7c-0.8,0.6-1.8,1.2-3,1.7S517.8,224.6,516.1,224.6z M518.6,217.5
	c1,0,2-0.2,2.8-0.5c0.8-0.3,1.6-0.8,2.2-1.4s1.2-1.4,1.6-2.3v-6.7c-0.3-0.9-0.8-1.7-1.5-2.3c-0.7-0.6-1.5-1.1-2.4-1.5
	c-0.9-0.4-1.9-0.5-3.1-0.5c-1.2,0-2.4,0.3-3.5,1c-1.1,0.6-1.9,1.5-2.5,2.7c-0.6,1.1-0.9,2.4-0.9,3.9c0,1.5,0.3,2.8,1,3.9
	c0.7,1.2,1.6,2.1,2.7,2.7C516.2,217.2,517.3,217.5,518.6,217.5z"/>
<path class="st1" d="M550.9,196.6l0.7,4.9l-0.1-0.4c1-1.7,2.3-3.1,4.1-4.2c1.8-1.1,3.9-1.6,6.4-1.6c2.6,0,4.7,0.8,6.5,2.3
	s2.6,3.5,2.7,5.9v20.4h-8.7v-17.2c0-1.2-0.4-2.2-1-2.9c-0.6-0.7-1.6-1.1-3-1.1c-1.3,0-2.5,0.4-3.5,1.3c-1,0.9-1.8,2.1-2.3,3.6
	c-0.5,1.5-0.8,3.2-0.8,5.2v11.1H543v-27.3H550.9z"/>
</svg>
