<?xml version="1.0" encoding="utf-8"?>
<!-- Generator: Adobe Illustrator 25.2.1, SVG Export Plug-In . SVG Version: 6.00 Build 0)  -->
<svg version="1.1" id="Layer_1" xmlns="http://www.w3.org/2000/svg" xmlns:xlink="http://www.w3.org/1999/xlink" x="0px" y="0px"
	 viewBox="0 0 856 210" style="enable-background:new 0 0 856 210;" xml:space="preserve">
<style type="text/css">
	.st0{fill-rule:evenodd;clip-rule:evenodd;fill:#2BA297;}
	.st1{fill:#FFFFFF;}
</style>
<g>
	<g id="Selected">
		<g>
			<g id="Frame-02_10_" transform="translate(-17.000000, -648.000000)">
				<g id="Group-2_10_" transform="translate(17.000000, 648.000000)">
					<rect id="Rectangle_10_" x="0.7" y="1.9" class="st0" width="854.7" height="62.8"/>
				</g>
			</g>
		</g>
	</g>
	<g>
		<path class="st1" d="M37.6,20.2c2.3,0,4.2,0.4,5.8,1.2c1.6,0.8,2.8,1.9,3.6,3.3s1.3,3.1,1.3,5c0,1.1-0.2,2.3-0.5,3.4
			c-0.3,1.1-0.9,2.2-1.6,3.1c-0.7,0.9-1.7,1.7-3,2.3s-2.8,0.9-4.6,0.9h-3.9v8.8h-5.5v-28H37.6z M38.6,33.9c0.8,0,1.5-0.1,2.1-0.4
			c0.6-0.3,1-0.7,1.3-1.1c0.3-0.4,0.5-0.9,0.7-1.4c0.1-0.5,0.2-0.9,0.2-1.3c0-0.3,0-0.7-0.1-1.1c-0.1-0.5-0.3-0.9-0.5-1.4
			C42,26.7,41.6,26.3,41,26c-0.6-0.3-1.3-0.5-2.3-0.5h-3.9v8.4H38.6z"/>
		<path class="st1" d="M76.7,20.2v27.9h-5.5V36.8H58.8v11.3h-5.5V20.2h5.5v11.3h12.5V20.2H76.7z"/>
		<path class="st1" d="M83.9,20.2h19v5.3H89.4v6h12v5.3h-12v6h14.1v5.3H83.9V20.2z"/>
		<path class="st1" d="M124.1,27c-1.1-0.6-2.1-1.1-3.2-1.4s-2.1-0.6-3.1-0.6c-1.2,0-2.1,0.2-2.8,0.7s-1,1.2-1,2.2
			c0,0.7,0.3,1.2,0.8,1.8c0.5,0.5,1.2,1,2,1.4s1.7,0.8,2.6,1.1c0.8,0.3,1.6,0.7,2.4,1.1s1.5,0.9,2.1,1.6c0.6,0.6,1.1,1.4,1.5,2.3
			c0.4,0.9,0.6,2.1,0.6,3.4c0,1.4-0.4,2.7-1.1,3.9s-1.8,2.2-3.2,2.9c-1.4,0.7-3.2,1.1-5.2,1.1c-1.1,0-2.1-0.1-3.2-0.3
			s-2.2-0.5-3.2-1c-1.1-0.4-2.1-1-3.1-1.7l2.4-4.3c0.7,0.5,1.4,0.9,2.1,1.3c0.8,0.4,1.5,0.7,2.3,0.9s1.5,0.3,2.2,0.3s1.3-0.1,2-0.3
			s1.2-0.5,1.7-1c0.4-0.5,0.7-1.1,0.7-1.9c0-0.6-0.2-1.1-0.5-1.5c-0.4-0.5-0.9-0.9-1.5-1.3c-0.6-0.4-1.3-0.7-2-1
			c-0.9-0.3-1.7-0.7-2.7-1.1c-0.9-0.4-1.8-1-2.6-1.6c-0.8-0.6-1.4-1.4-1.9-2.3c-0.5-0.9-0.7-2.1-0.7-3.4c0-1.6,0.4-3,1.1-4.2
			c0.7-1.2,1.7-2.1,3.1-2.8c1.3-0.7,2.8-1.1,4.5-1.2c2.2,0,4.1,0.3,5.5,0.8s2.7,1.2,3.8,1.9L124.1,27z"/>
		<path class="st1" d="M153.9,45.3c-0.3,0.4-0.8,0.7-1.6,1.1c-0.7,0.4-1.5,0.7-2.4,1s-1.9,0.5-2.8,0.7c-1,0.2-1.9,0.3-2.7,0.3
			c-2.3,0-4.3-0.3-6.1-1s-3.4-1.6-4.7-2.8s-2.3-2.6-3-4.3c-0.7-1.6-1-3.4-1-5.4c0-2.6,0.4-4.8,1.2-6.7c0.8-1.9,1.8-3.4,3.1-4.7
			c1.3-1.3,2.9-2.2,4.6-2.8c1.7-0.6,3.5-0.9,5.4-0.9c1.8,0,3.4,0.2,4.9,0.6s2.8,0.9,3.8,1.5l-1.8,5.1c-0.5-0.3-1.1-0.5-1.8-0.8
			c-0.8-0.3-1.5-0.5-2.3-0.6c-0.8-0.2-1.5-0.2-2.1-0.2c-1.5,0-2.9,0.2-4,0.6c-1.2,0.4-2.1,0.9-2.9,1.7c-0.8,0.8-1.4,1.7-1.8,2.8
			c-0.4,1.1-0.6,2.4-0.6,3.9c0,1.3,0.2,2.5,0.7,3.5s1.1,1.9,1.9,2.7c0.8,0.7,1.8,1.3,2.9,1.7c1.1,0.4,2.4,0.6,3.7,0.6
			c0.8,0,1.5-0.1,2.2-0.2c0.7-0.1,1.2-0.3,1.7-0.5v-3.4h-4.8v-5.3H154L153.9,45.3L153.9,45.3z"/>
		<path class="st1" d="M158.5,34.2c0-1.9,0.4-3.7,1.1-5.5c0.7-1.7,1.7-3.2,3.1-4.6c1.3-1.3,2.8-2.4,4.5-3.1c1.7-0.8,3.6-1.1,5.5-1.1
			s3.8,0.4,5.5,1.1c1.7,0.8,3.2,1.8,4.6,3.1c1.3,1.3,2.4,2.8,3.1,4.6c0.7,1.7,1.1,3.5,1.1,5.5s-0.4,3.8-1.1,5.5
			c-0.7,1.7-1.8,3.2-3.1,4.5s-2.8,2.3-4.6,3.1c-1.7,0.7-3.6,1.1-5.5,1.1c-2,0-3.8-0.4-5.5-1.1c-1.7-0.7-3.2-1.7-4.5-3.1
			c-1.3-1.3-2.3-2.8-3.1-4.5S158.5,36.2,158.5,34.2z M164.1,34.2c0,1.2,0.2,2.4,0.7,3.5c0.4,1.1,1.1,2,1.9,2.8
			c0.8,0.8,1.7,1.5,2.8,1.9c1,0.5,2.2,0.7,3.4,0.7s2.3-0.2,3.3-0.7s1.9-1.1,2.7-1.9c0.8-0.8,1.4-1.8,1.8-2.8
			c0.4-1.1,0.6-2.2,0.6-3.5s-0.2-2.4-0.7-3.5c-0.4-1.1-1-2-1.8-2.9c-0.8-0.8-1.7-1.5-2.7-1.9c-1-0.5-2.2-0.7-3.4-0.7
			s-2.3,0.2-3.4,0.7c-1,0.5-1.9,1.1-2.7,1.9s-1.4,1.8-1.8,2.9C164.4,31.8,164.1,32.9,164.1,34.2z"/>
		<path class="st1" d="M218,46.6c-0.7,0.6-1.6,1-2.7,1.4s-2.2,0.5-3.2,0.5c-1.9,0-3.5-0.3-4.9-1s-2.5-1.7-3.3-3s-1.2-2.9-1.2-4.7
			s0.4-3.4,1.3-4.7c0.8-1.3,1.9-2.3,3.3-3c1.4-0.7,2.8-1,4.3-1s2.8,0.2,3.9,0.6c1.1,0.4,2,0.9,2.8,1.6l-2.6,3.4
			c-0.4-0.3-0.8-0.6-1.5-0.9c-0.6-0.3-1.3-0.4-2.2-0.4c-0.7,0-1.4,0.2-2,0.6s-1.1,0.9-1.4,1.6c-0.4,0.7-0.5,1.4-0.5,2.3
			c0,0.8,0.2,1.6,0.6,2.2c0.4,0.7,0.9,1.2,1.6,1.6c0.7,0.4,1.5,0.6,2.4,0.6c0.6,0,1.1-0.1,1.6-0.2c0.5-0.2,0.9-0.4,1.3-0.7L218,46.6
			z"/>
		<path class="st1" d="M220.8,39.6c0-1.7,0.4-3.2,1.2-4.5s1.9-2.4,3.4-3.2c1.4-0.8,3.1-1.2,5-1.2s3.5,0.4,4.9,1.2
			c1.4,0.8,2.5,1.8,3.2,3.2c0.7,1.3,1.1,2.9,1.1,4.5s-0.4,3.2-1.1,4.6c-0.7,1.4-1.8,2.4-3.2,3.2s-3.1,1.2-5,1.2
			c-1.8,0-3.4-0.4-4.9-1.1c-1.4-0.7-2.5-1.7-3.4-3.1C221.2,43.1,220.8,41.5,220.8,39.6z M226.1,39.7c0,0.9,0.2,1.6,0.5,2.3
			c0.4,0.7,0.8,1.2,1.4,1.6s1.3,0.6,2,0.6c0.8,0,1.6-0.2,2.2-0.6s1.1-1,1.4-1.6c0.3-0.7,0.5-1.5,0.5-2.3c0-0.9-0.2-1.7-0.5-2.3
			c-0.3-0.7-0.8-1.2-1.4-1.6c-0.6-0.4-1.3-0.6-2.2-0.6c-0.8,0-1.4,0.2-2,0.6c-0.6,0.4-1.1,0.9-1.4,1.6
			C226.3,38,226.1,38.8,226.1,39.7z"/>
		<path class="st1" d="M248.5,31.5l0.4,2.9l-0.1-0.2c0.7-1.1,1.5-2,2.5-2.6s2.2-0.9,3.6-0.9c0.9,0,1.7,0.1,2.4,0.4s1.3,0.6,1.8,1.1
			s0.8,1.1,1,1.9h-0.2c0.7-1,1.6-1.9,2.6-2.5c1-0.6,2-0.9,3.1-0.9c1.6,0,3,0.5,3.9,1.4c1,0.9,1.5,2.1,1.5,3.6v12.4h-5.3V37.9
			c0-0.7-0.1-1.3-0.3-1.8c-0.2-0.5-0.7-0.7-1.4-0.8c-0.9,0-1.6,0.3-2.2,0.9c-0.6,0.6-1,1.4-1.3,2.3c-0.3,0.9-0.4,1.9-0.4,2.9v6.8
			h-5.3V37.9c0-0.7-0.2-1.3-0.4-1.8s-0.7-0.7-1.5-0.8c-0.8,0-1.5,0.3-2.1,0.9c-0.6,0.6-1,1.3-1.3,2.3c-0.3,0.9-0.4,1.8-0.4,2.8v6.9
			h-5.3V31.5H248.5z"/>
		<path class="st1" d="M287.3,48.6c-1.4,0-2.6-0.2-3.5-0.7s-1.8-1.1-2.5-1.8l0.4-1.1v3.2h-5.3v-30h5.3v16.2v-1.7
			c0.7-0.6,1.5-1,2.6-1.4s2.3-0.6,3.7-0.6c1.4,0,2.8,0.3,3.9,1c1.2,0.7,2.1,1.7,2.9,3c0.7,1.3,1.1,2.9,1.1,4.8
			c0,1.9-0.4,3.5-1.2,4.9c-0.8,1.4-1.9,2.4-3.2,3.1C290.2,48.2,288.8,48.6,287.3,48.6z M286.1,44.1c0.8,0,1.5-0.2,2.2-0.6
			c0.7-0.4,1.2-1,1.6-1.7s0.6-1.5,0.6-2.4s-0.2-1.7-0.6-2.3s-0.9-1.2-1.6-1.6c-0.7-0.4-1.4-0.6-2.2-0.6c-0.7,0-1.3,0.1-1.9,0.3
			s-1.1,0.5-1.5,0.9s-0.7,0.9-1,1.4v4.1c0.3,0.6,0.7,1,1.1,1.4s0.9,0.6,1.5,0.8C284.8,44,285.4,44.1,286.1,44.1z"/>
		<path class="st1" d="M299.9,25.7c0-0.8,0.3-1.4,0.9-1.9s1.3-0.8,2-0.8s1.4,0.3,2,0.8s0.9,1.1,0.9,1.9s-0.3,1.4-0.9,1.9
			s-1.2,0.7-2,0.7c-0.7,0-1.4-0.2-2-0.7C300.2,27.1,299.9,26.5,299.9,25.7z M300.1,31.5h5.3v16.6h-5.3V31.5z"/>
		<path class="st1" d="M315.6,31.5l0.4,3l-0.1-0.3c0.6-1,1.4-1.9,2.5-2.5c1.1-0.6,2.4-1,3.9-1c1.6,0,2.9,0.5,3.9,1.4
			s1.6,2.1,1.6,3.6v12.4h-5.3V37.7c0-0.7-0.2-1.3-0.6-1.8c-0.4-0.4-1-0.7-1.8-0.7s-1.5,0.3-2.1,0.8s-1.1,1.3-1.4,2.2s-0.5,2-0.5,3.1
			V48h-5.3V31.5H315.6z"/>
		<path class="st1" d="M341.5,48.6c-2,0-3.7-0.4-5.1-1.1c-1.4-0.8-2.5-1.8-3.2-3.1s-1.1-2.9-1.1-4.6c0-1.7,0.4-3.2,1.3-4.5
			s2-2.4,3.4-3.2s3-1.2,4.8-1.2c2.4,0,4.3,0.7,5.9,2.1c1.5,1.4,2.5,3.4,3,6l-12.9,4.1l-1.2-2.9l9.3-3.1l-1.1,0.5
			c-0.2-0.7-0.6-1.2-1.1-1.7s-1.3-0.7-2.3-0.7c-0.8,0-1.5,0.2-2.1,0.5c-0.6,0.4-1,0.9-1.4,1.6c-0.3,0.7-0.5,1.5-0.5,2.4
			c0,1,0.2,1.9,0.6,2.6c0.4,0.7,0.9,1.2,1.6,1.6c0.7,0.4,1.4,0.5,2.2,0.5c0.6,0,1.1-0.1,1.7-0.3c0.5-0.2,1.1-0.5,1.6-0.8l2.3,3.9
			c-0.9,0.5-1.8,0.9-2.9,1.2S342.4,48.6,341.5,48.6z"/>
		<path class="st1" d="M359.7,48.4c-1.4,0-2.6-0.2-3.8-0.7c-1.2-0.5-2.2-1.1-3-2l2.2-2.9c0.8,0.7,1.6,1.3,2.3,1.6
			c0.7,0.3,1.3,0.5,1.9,0.5c0.4,0,0.8,0,1.2-0.1c0.3-0.1,0.6-0.2,0.8-0.4c0.2-0.2,0.3-0.4,0.3-0.7c0-0.4-0.2-0.8-0.5-1
			c-0.3-0.3-0.8-0.5-1.3-0.6c-0.5-0.2-1.1-0.3-1.7-0.5c-1.5-0.5-2.6-1.2-3.3-2.1c-0.7-0.9-1-1.9-1-3c0-0.8,0.2-1.7,0.7-2.5
			c0.4-0.8,1.1-1.6,2.1-2.1c1-0.6,2.2-0.9,3.8-0.9c1.4,0,2.6,0.1,3.5,0.4c1,0.3,1.9,0.7,2.7,1.4l-2,3.1c-0.5-0.4-1-0.7-1.6-1
			s-1.1-0.4-1.6-0.4s-0.8,0-1.2,0.2c-0.3,0.1-0.6,0.3-0.7,0.5c-0.2,0.2-0.3,0.4-0.3,0.6c0,0.5,0.2,0.9,0.5,1.1
			c0.4,0.3,0.9,0.5,1.5,0.6c0.6,0.2,1.2,0.3,1.8,0.5c0.8,0.3,1.5,0.6,2.1,1s1,0.9,1.3,1.5s0.5,1.3,0.5,2.1c0,1-0.3,2-0.8,2.9
			s-1.3,1.6-2.4,2.2C362.6,48.2,361.3,48.4,359.7,48.4z"/>
		<path class="st1" d="M392.9,20.2c2.3,0,4.2,0.4,5.8,1.2c1.6,0.8,2.8,1.9,3.6,3.3c0.8,1.4,1.3,3.1,1.3,5c0,1.1-0.2,2.3-0.5,3.4
			c-0.3,1.1-0.9,2.2-1.6,3.1c-0.7,0.9-1.7,1.7-3,2.3s-2.8,0.9-4.6,0.9H390v8.8h-5.5v-28H392.9z M393.8,33.9c0.8,0,1.5-0.1,2.1-0.4
			c0.6-0.3,1-0.7,1.3-1.1c0.3-0.4,0.5-0.9,0.7-1.4c0.1-0.5,0.2-0.9,0.2-1.3c0-0.3,0-0.7-0.1-1.1c-0.1-0.5-0.3-0.9-0.5-1.4
			c-0.3-0.5-0.7-0.9-1.3-1.2c-0.6-0.3-1.3-0.5-2.3-0.5H390v8.4H393.8z"/>
		<path class="st1" d="M408.5,20.2h19v5.3H414v6h12v5.3h-12v6h14.1v5.3h-19.6V20.2z"/>
		<path class="st1" d="M442.2,20.2c1.7,0,3.3,0.2,4.7,0.7c1.4,0.4,2.5,1.1,3.4,1.9s1.6,1.8,2.1,3c0.5,1.1,0.7,2.4,0.7,3.9
			c0,1.1-0.2,2.3-0.5,3.4c-0.3,1.1-0.9,2.2-1.7,3.1c-0.8,0.9-1.8,1.7-3.1,2.3c-1.3,0.6-2.8,0.9-4.7,0.9h-3.9v8.9h-5.5V20.2H442.2z
			 M443.2,33.9c0.8,0,1.5-0.1,2.1-0.4c0.6-0.3,1-0.6,1.3-1.1c0.3-0.4,0.5-0.9,0.7-1.3c0.1-0.5,0.2-0.9,0.2-1.3c0-0.3,0-0.7-0.1-1.2
			s-0.3-0.9-0.5-1.4c-0.3-0.5-0.7-0.9-1.3-1.2c-0.6-0.3-1.3-0.5-2.3-0.5h-3.9v8.4H443.2z M448.3,37.3l6.9,10.8h-6.4l-7-10.6
			L448.3,37.3z"/>
		<path class="st1" d="M467.7,42.2c0,2.4-0.5,4.5-1.4,6.2c-1,1.7-2.3,3-4,4c-1.7,0.9-3.7,1.4-5.9,1.5v-5.3c1.7-0.1,3.1-0.6,4.2-1.6
			s1.6-2.6,1.6-4.9V20.2h5.5L467.7,42.2L467.7,42.2z"/>
		<path class="st1" d="M474.9,20.2h19v5.3h-13.5v6h12v5.3h-12v6h14.1v5.3h-19.6V20.2z"/>
		<path class="st1" d="M498.3,20.2h18.8v5.3h-6.8v22.6h-5.5V25.5h-6.5V20.2z"/>
		<path class="st1" d="M517,48.1l12.6-29h0.3l12.6,29h-6.4l-8-20.4l4-2.7l-9.6,23.1H517z M525.6,38h8.4l1.9,4.6h-12L525.6,38z"/>
		<path class="st1" d="M553.6,39.4c-1.8,0-3.4-0.4-4.9-1.3c-1.5-0.8-2.7-2-3.6-3.4c-0.9-1.4-1.3-3.1-1.3-4.9s0.4-3.5,1.3-4.9
			c0.9-1.4,2.1-2.6,3.6-3.4s3.1-1.3,4.9-1.3c1.8,0,3.4,0.4,4.9,1.3c1.5,0.8,2.7,2,3.5,3.4s1.3,3.1,1.3,4.9s-0.4,3.4-1.3,4.9
			c-0.9,1.4-2.1,2.6-3.5,3.4C557,39,555.4,39.4,553.6,39.4z M553.6,36.5c1.3,0,2.4-0.3,3.4-0.9c1-0.6,1.8-1.4,2.4-2.4
			c0.6-1,0.9-2.2,0.9-3.4c0-1.3-0.3-2.5-0.9-3.5c-0.6-1-1.4-1.8-2.4-2.4s-2.1-0.9-3.4-0.9c-1.3,0-2.4,0.3-3.4,0.9s-1.8,1.4-2.4,2.4
			c-0.6,1-0.9,2.2-0.9,3.5s0.3,2.4,0.9,3.4c0.6,1,1.4,1.8,2.4,2.4C551.2,36.3,552.3,36.5,553.6,36.5z M550.2,25.1h4
			c1.2,0,2.1,0.3,2.6,0.8c0.5,0.6,0.8,1.3,0.8,2.3c0,0.7-0.3,1.4-0.8,2.1s-1.3,1-2.4,1H553v2.9h-2.8V25.1z M553.6,29.3
			c0.4,0,0.6-0.1,0.8-0.3c0.1-0.2,0.2-0.4,0.2-0.7c0-0.2-0.1-0.5-0.2-0.7c-0.1-0.2-0.4-0.4-0.8-0.4H553v2h0.6V29.3z M556,30.8
			l1.5,3.6h-3.3l-1.2-3.5L556,30.8z"/>
		<path class="st1" d="M580.4,29.6c0.6-2.2,1.4-4.3,2.4-6c1-1.8,2-3.2,3.1-4.3l4.4,2c-1,1.1-1.9,2.5-2.7,4s-1.4,3.3-1.9,5.2
			s-0.7,4.1-0.7,6.4s0.2,4.5,0.7,6.4s1.1,3.7,1.9,5.2c0.8,1.5,1.7,2.8,2.7,4l-4.4,2c-1.1-1.2-2.1-2.6-3.1-4.4c-1-1.8-1.8-3.8-2.4-6
			c-0.6-2.2-0.9-4.6-0.9-7.2S579.8,31.9,580.4,29.6z"/>
		<path class="st1" d="M605.2,48.6c-1,0-2-0.2-2.9-0.5c-0.9-0.4-1.7-0.9-2.4-1.6l0.2-1.6v11.2h-5.3V31.2h4.5l0.8,3.2l-0.4-1.1
			c0.9-0.7,1.8-1.3,2.9-1.8c1.1-0.5,2.3-0.7,3.7-0.7c1.5,0,2.9,0.4,4.1,1.1c1.2,0.7,2.2,1.8,2.9,3.1c0.7,1.4,1,3,1,4.9
			s-0.4,3.5-1.2,4.8s-1.9,2.3-3.2,3C608.6,48.2,607,48.6,605.2,48.6z M604.2,44.4c0.9,0,1.6-0.2,2.4-0.6c0.7-0.4,1.3-0.9,1.7-1.6
			c0.4-0.7,0.7-1.5,0.7-2.4s-0.2-1.7-0.6-2.4c-0.4-0.7-0.9-1.2-1.6-1.6c-0.7-0.4-1.4-0.6-2.2-0.6c-0.7,0-1.3,0.1-1.9,0.3
			c-0.5,0.2-1,0.5-1.4,0.8s-0.8,0.8-1.1,1.4v4.1c0.2,0.5,0.5,1,0.9,1.4s0.8,0.7,1.4,0.9C603,44.3,603.5,44.4,604.2,44.4z"/>
		<path class="st1" d="M626.6,48.6c-2,0-3.7-0.4-5.1-1.1c-1.4-0.8-2.5-1.8-3.2-3.1s-1.1-2.9-1.1-4.6c0-1.7,0.4-3.2,1.3-4.5
			c0.9-1.3,2-2.4,3.4-3.2s3-1.2,4.8-1.2c2.4,0,4.3,0.7,5.9,2.1c1.5,1.4,2.5,3.4,3,6l-12.9,4.1l-1.2-2.9l9.3-3.1l-1.1,0.5
			c-0.2-0.7-0.6-1.2-1.1-1.7s-1.3-0.7-2.3-0.7c-0.8,0-1.5,0.2-2.1,0.5c-0.6,0.4-1,0.9-1.4,1.6c-0.3,0.7-0.5,1.5-0.5,2.4
			c0,1,0.2,1.9,0.6,2.6c0.4,0.7,0.9,1.2,1.6,1.6c0.7,0.4,1.4,0.5,2.2,0.5c0.6,0,1.1-0.1,1.7-0.3c0.5-0.2,1.1-0.5,1.6-0.8l2.3,3.9
			c-0.9,0.5-1.8,0.9-2.9,1.2S627.6,48.6,626.6,48.6z"/>
		<path class="st1" d="M644.2,31.5l0.5,4.5l-0.1-0.7c0.5-1,1.1-1.8,2-2.5s1.7-1.2,2.5-1.6s1.4-0.6,1.9-0.6l-0.3,5.3
			c-1.2-0.2-2.3,0.1-3.2,0.6c-0.9,0.6-1.6,1.3-2,2.2c-0.5,0.9-0.7,1.8-0.7,2.8V48h-5.3V31.5H644.2z"/>
		<path class="st1" d="M656.6,24.3h5.3v7.2h4v4.1h-4v12.5h-5.3V35.6H654v-4.1h2.6V24.3z"/>
		<path class="st1" d="M675.3,48.9c-1.5,0-2.7-0.5-3.8-1.4c-1-0.9-1.5-2.1-1.6-3.6V31.5h5.3V42c0.1,0.7,0.2,1.3,0.6,1.8
			c0.3,0.4,0.9,0.7,1.7,0.7s1.5-0.3,2-0.8s1-1.3,1.3-2.2s0.5-2,0.5-3.1v-6.7h5.3v16.6h-4.8l-0.4-3l0.1,0.3c-0.4,0.7-0.9,1.3-1.4,1.8
			c-0.6,0.5-1.3,0.9-2.1,1.2S676.3,48.9,675.3,48.9z"/>
		<path class="st1" d="M694.6,35.9c-0.9,0-1.7-0.3-2.4-1s-1-1.5-1-2.7V30h4v0.5c0,0.5,0.1,0.8,0.3,0.9s0.5,0.1,1,0.1H707l-9.2,13.3
			l-1-1.1h10V48H690l9.4-13.8l0.8,1.5h-5.6V35.9z"/>
		<path class="st1" d="M717.2,48.9c-1.5,0-2.7-0.5-3.8-1.4c-1-0.9-1.5-2.1-1.6-3.6V31.5h5.3V42c0.1,0.7,0.2,1.3,0.6,1.8
			c0.3,0.4,0.9,0.7,1.7,0.7s1.5-0.3,2-0.8s1-1.3,1.3-2.2s0.5-2,0.5-3.1v-6.7h5.3v16.6h-4.8l-0.4-3l0.1,0.3c-0.4,0.7-0.9,1.3-1.4,1.8
			c-0.6,0.5-1.3,0.9-2.1,1.2S718.2,48.9,717.2,48.9z"/>
		<path class="st1" d="M738.8,31.5l0.4,2.9l-0.1-0.2c0.7-1.1,1.5-2,2.5-2.6s2.2-0.9,3.6-0.9c0.9,0,1.7,0.1,2.4,0.4s1.3,0.6,1.8,1.1
			s0.8,1.1,1,1.9h-0.2c0.7-1,1.6-1.9,2.6-2.5c1-0.6,2-0.9,3.1-0.9c1.6,0,2.9,0.5,3.9,1.4c1,0.9,1.5,2.1,1.5,3.6v12.4H756V37.9
			c0-0.7-0.1-1.3-0.3-1.8s-0.7-0.7-1.4-0.8c-0.9,0-1.6,0.3-2.2,0.9s-1,1.4-1.3,2.3c-0.3,0.9-0.4,1.9-0.4,2.9v6.8H745V37.9
			c0-0.7-0.2-1.3-0.4-1.8s-0.7-0.7-1.5-0.8c-0.8,0-1.5,0.3-2.1,0.9s-1,1.3-1.3,2.3s-0.4,1.8-0.4,2.8v6.9H734V31.5H738.8z"/>
		<path class="st1" d="M773.7,48.6c-1.5,0-2.9-0.3-4.2-0.9c-1.3-0.6-2.2-1.6-3-2.9s-1.1-2.9-1.1-4.9c0-1.9,0.4-3.5,1.1-4.9
			c0.8-1.4,1.8-2.4,3-3.2c1.2-0.7,2.6-1.1,3.9-1.1c1.6,0,2.9,0.3,3.7,0.8s1.5,1.1,2.1,1.8l-0.2,0.6l0.5-2.4h4.9v16.6h-5.3v-3.6
			l0.4,1.1c-0.1,0-0.2,0.1-0.5,0.4c-0.3,0.3-0.6,0.6-1.1,1s-1.1,0.7-1.8,1C775.5,48.4,774.7,48.6,773.7,48.6z M775.2,44.2
			c0.6,0,1.2-0.1,1.7-0.3s0.9-0.5,1.3-0.8s0.7-0.8,1-1.4v-4.1c-0.2-0.6-0.5-1-0.9-1.4s-0.9-0.7-1.4-0.9c-0.6-0.2-1.2-0.3-1.9-0.3
			c-0.8,0-1.5,0.2-2.1,0.6c-0.6,0.4-1.2,0.9-1.5,1.6c-0.4,0.7-0.6,1.5-0.6,2.4s0.2,1.7,0.6,2.4c0.4,0.7,0.9,1.3,1.6,1.7
			C773.7,44,774.4,44.2,775.2,44.2z"/>
		<path class="st1" d="M800.8,48.6c-1.4,0-2.6-0.2-3.5-0.7s-1.8-1.1-2.5-1.8l0.4-1.1v3.2H790v-30h5.3v16.2v-1.7
			c0.7-0.6,1.5-1,2.6-1.4s2.3-0.6,3.7-0.6s2.8,0.3,3.9,1c1.2,0.7,2.1,1.7,2.9,3c0.7,1.3,1.1,2.9,1.1,4.8c0,1.9-0.4,3.5-1.2,4.9
			s-1.9,2.4-3.2,3.1C803.8,48.2,802.4,48.6,800.8,48.6z M799.7,44.1c0.8,0,1.5-0.2,2.2-0.6c0.7-0.4,1.2-1,1.6-1.7
			c0.4-0.7,0.6-1.5,0.6-2.4s-0.2-1.7-0.6-2.3s-0.9-1.2-1.6-1.6c-0.7-0.4-1.4-0.6-2.2-0.6c-0.7,0-1.3,0.1-1.9,0.3
			c-0.6,0.2-1.1,0.5-1.5,0.9s-0.7,0.9-1,1.4v4.1c0.3,0.6,0.7,1,1.1,1.4c0.4,0.4,0.9,0.6,1.5,0.8S799,44.1,799.7,44.1z"/>
		<path class="st1" d="M822.6,44.1c-0.6,2.2-1.4,4.3-2.4,6c-1,1.8-2,3.2-3.1,4.3l-4.4-2c1-1.1,1.9-2.5,2.7-4s1.4-3.3,1.9-5.2
			s0.7-4.1,0.7-6.4s-0.2-4.5-0.7-6.4s-1.1-3.7-1.9-5.2c-0.8-1.5-1.7-2.8-2.7-4l4.4-2c1.1,1.1,2.1,2.6,3.1,4.4s1.7,3.8,2.4,6
			c0.6,2.2,0.9,4.6,0.9,7.2C823.5,39.5,823.2,41.9,822.6,44.1z"/>
	</g>
</g>
</svg>
