<?xml version="1.0" encoding="utf-8"?>
<!-- Generator: Adobe Illustrator 25.2.1, SVG Export Plug-In . SVG Version: 6.00 Build 0)  -->
<svg version="1.1" id="Layer_1" xmlns="http://www.w3.org/2000/svg" xmlns:xlink="http://www.w3.org/1999/xlink" x="0px" y="0px"
	 viewBox="0 0 996 230" style="enable-background:new 0 0 996 230;" xml:space="preserve">
<style type="text/css">
	.st0{fill:#2BA297;}
</style>
<g>
	<g>
		<path class="st0" d="M196.8,28.5L185,6.3h7.8l8.3,16.7l-1.9,0.1l8.2-16.9h7.8l-12.1,22.2v10h-6.3V28.5z"/>
		<path class="st0" d="M212.8,28.7c0-2,0.5-3.7,1.4-5.3c0.9-1.5,2.2-2.8,3.9-3.7c1.7-0.9,3.6-1.3,5.7-1.3c2.2,0,4.1,0.4,5.7,1.3
			c1.6,0.9,2.8,2.1,3.7,3.7c0.9,1.5,1.3,3.3,1.3,5.3s-0.4,3.7-1.3,5.3c-0.9,1.6-2.1,2.8-3.7,3.7c-1.6,0.9-3.5,1.4-5.8,1.4
			c-2.1,0-4-0.4-5.6-1.2s-2.9-2-3.9-3.5C213.2,32.7,212.8,30.9,212.8,28.7z M218.9,28.7c0,1,0.2,1.9,0.6,2.7c0.4,0.8,1,1.4,1.7,1.9
			s1.5,0.7,2.4,0.7c1,0,1.8-0.2,2.5-0.7s1.2-1.1,1.6-1.9c0.4-0.8,0.6-1.7,0.6-2.7s-0.2-1.9-0.6-2.7c-0.4-0.8-0.9-1.4-1.6-1.9
			c-0.7-0.5-1.5-0.7-2.5-0.7c-0.9,0-1.7,0.2-2.4,0.7s-1.3,1.1-1.7,1.9C219.1,26.8,218.9,27.7,218.9,28.7z"/>
		<path class="st0" d="M245.4,39.4c-1.7,0-3.2-0.5-4.3-1.6c-1.2-1.1-1.8-2.4-1.8-4.1V19.4h6.1v12c0.1,0.8,0.3,1.5,0.7,2
			s1,0.8,1.9,0.8s1.7-0.3,2.3-0.9c0.7-0.6,1.2-1.5,1.5-2.5c0.4-1.1,0.5-2.3,0.5-3.6v-7.8h6.1v19.1H253l-0.5-3.5l0.1,0.4
			c-0.4,0.8-1,1.5-1.7,2.1s-1.5,1.1-2.4,1.4C247.6,39.3,246.6,39.4,245.4,39.4z"/>
		<path class="st0" d="M279,38.5V4h6.1v34.5H279z M283.3,33.2l-0.6-5.8l11.6-8.5l3.7,3.3L283.3,33.2z M290,25.5l8.7,13h-7.1L286,29
			L290,25.5z"/>
		<path class="st0" d="M308.5,19.4l0.5,3.4l-0.1-0.3c0.7-1.2,1.6-2.2,2.8-2.9c1.2-0.7,2.7-1.1,4.5-1.1s3.3,0.5,4.5,1.6
			s1.8,2.4,1.9,4.1v14.3h-6.1v-12c0-0.8-0.3-1.5-0.7-2c-0.4-0.5-1.1-0.8-2.1-0.8c-0.9,0-1.8,0.3-2.5,0.9s-1.2,1.4-1.6,2.5
			s-0.6,2.3-0.6,3.6v7.8h-6V19.4H308.5z"/>
		<path class="st0" d="M327.5,28.7c0-2,0.5-3.7,1.4-5.3c0.9-1.5,2.2-2.8,3.9-3.7c1.7-0.9,3.6-1.3,5.7-1.3c2.2,0,4.1,0.4,5.7,1.3
			s2.8,2.1,3.7,3.7c0.9,1.5,1.3,3.3,1.3,5.3s-0.4,3.7-1.3,5.3s-2.1,2.8-3.7,3.7s-3.5,1.4-5.8,1.4c-2.1,0-4-0.4-5.6-1.2
			s-2.9-2-3.9-3.5C327.9,32.7,327.5,30.9,327.5,28.7z M333.6,28.7c0,1,0.2,1.9,0.6,2.7c0.4,0.8,1,1.4,1.7,1.9s1.5,0.7,2.4,0.7
			c1,0,1.8-0.2,2.5-0.7s1.2-1.1,1.6-1.9c0.4-0.8,0.6-1.7,0.6-2.7s-0.2-1.9-0.6-2.7c-0.4-0.8-0.9-1.4-1.6-1.9s-1.5-0.7-2.5-0.7
			c-0.9,0-1.7,0.2-2.4,0.7c-0.7,0.5-1.3,1.1-1.7,1.9C333.8,26.8,333.6,27.7,333.6,28.7z"/>
		<path class="st0" d="M367,19.4l4.2,9.9l-1.1,0.1l3.7-9.9h6L371,39.6L364.9,27l-5.6,12.7l-8.7-20.3h6l4.6,10.6l-2.1-0.3l3.7-8.1
			l-1-2.2C361.8,19.4,367,19.4,367,19.4z"/>
		<path class="st0" d="M411.1,19.4l4.2,9.9l-1.1,0.1l3.7-9.9h6l-8.6,20.3L409.1,27l-5.6,12.7l-8.7-20.3h6l4.6,10.6l-2.1-0.3l3.7-8.1
			l-1-2.2C406,19.4,411.1,19.4,411.1,19.4z"/>
		<path class="st0" d="M427.4,38.5V4h6v19.3v-0.7c0.7-1.2,1.6-2.2,2.8-2.9c1.2-0.7,2.7-1.1,4.5-1.1s3.3,0.5,4.5,1.6s1.8,2.4,1.9,4.1
			v14.3H441v-12c0-0.8-0.3-1.5-0.7-2c-0.4-0.5-1.1-0.8-2.1-0.8c-0.9,0-1.8,0.3-2.5,0.9s-1.2,1.4-1.6,2.5s-0.6,2.3-0.6,3.6v7.8
			L427.4,38.5L427.4,38.5z"/>
		<path class="st0" d="M461.5,39c-1.8,0-3.4-0.4-4.8-1.1c-1.4-0.7-2.6-1.8-3.4-3.3s-1.3-3.4-1.3-5.7c0-2.2,0.4-4,1.3-5.6
			s2-2.8,3.5-3.7s2.9-1.3,4.6-1.3c1.9,0,3.3,0.3,4.3,0.9s1.8,1.3,2.4,2.1l-0.3,0.7l0.6-2.8h5.7v19.1H468v-4.2l0.5,1.3
			c-0.1,0-0.2,0.2-0.5,0.5s-0.7,0.7-1.3,1.2c-0.6,0.5-1.3,0.8-2.1,1.2C463.6,38.9,462.6,39,461.5,39z M463.2,34c0.7,0,1.4-0.1,2-0.3
			s1.1-0.5,1.5-1c0.4-0.4,0.8-1,1.1-1.6v-4.7c-0.2-0.6-0.6-1.2-1.1-1.6c-0.5-0.5-1-0.8-1.7-1.1c-0.6-0.2-1.4-0.4-2.1-0.4
			c-0.9,0-1.7,0.2-2.4,0.7c-0.7,0.5-1.3,1.1-1.8,1.9c-0.4,0.8-0.7,1.7-0.7,2.7s0.2,1.9,0.7,2.8c0.5,0.8,1.1,1.5,1.9,1.9
			S462.3,34,463.2,34z"/>
		<path class="st0" d="M482.1,11h6.1v8.3h4.6v4.8h-4.6v14.4h-6.1V24.1h-3v-4.8h3V11z"/>
		<path class="st0" d="M521.2,39c-2.3,0-4.3-0.4-5.9-1.3c-1.6-0.9-2.9-2.1-3.7-3.6s-1.3-3.3-1.3-5.3c0-1.9,0.5-3.7,1.5-5.2
			s2.3-2.8,4-3.7c1.7-0.9,3.5-1.4,5.6-1.4c2.7,0,5,0.8,6.8,2.4s2.9,3.9,3.4,6.9l-14.9,4.7l-1.4-3.3l10.8-3.6l-1.3,0.6
			c-0.2-0.8-0.7-1.4-1.2-2c-0.6-0.6-1.5-0.9-2.7-0.9c-0.9,0-1.7,0.2-2.4,0.6s-1.2,1-1.6,1.8c-0.4,0.8-0.5,1.7-0.5,2.7
			c0,1.2,0.2,2.2,0.7,3c0.4,0.8,1,1.4,1.8,1.8s1.6,0.6,2.5,0.6c0.7,0,1.3-0.1,1.9-0.4c0.6-0.2,1.2-0.5,1.9-0.9l2.7,4.6
			c-1,0.6-2.1,1.1-3.3,1.4C523.3,38.9,522.2,39,521.2,39z"/>
		<path class="st0" d="M536,4h6.1v34.5H536V4z"/>
		<path class="st0" d="M554.6,38.9c-1.6,0-3-0.3-4.4-0.8c-1.4-0.6-2.5-1.3-3.4-2.3l2.5-3.4c0.9,0.8,1.8,1.5,2.6,1.8
			c0.8,0.4,1.5,0.5,2.2,0.5c0.5,0,0.9-0.1,1.3-0.2c0.4-0.1,0.7-0.3,0.9-0.5s0.4-0.5,0.4-0.9c0-0.5-0.2-0.9-0.6-1.2
			c-0.4-0.3-0.9-0.5-1.5-0.7s-1.3-0.4-2-0.6c-1.8-0.6-3-1.4-3.8-2.4c-0.8-1.1-1.2-2.2-1.2-3.5c0-1,0.3-1.9,0.8-2.9s1.3-1.8,2.5-2.5
			c1.1-0.7,2.6-1,4.4-1c1.6,0,3,0.2,4.1,0.5s2.2,0.8,3.2,1.6l-2.3,3.6c-0.6-0.4-1.2-0.8-1.9-1.1c-0.7-0.3-1.3-0.5-1.9-0.5
			c-0.5,0-1,0-1.3,0.2c-0.4,0.1-0.6,0.3-0.9,0.6c-0.2,0.2-0.3,0.5-0.3,0.7c0,0.6,0.2,1,0.6,1.3c0.5,0.3,1,0.6,1.7,0.7
			c0.7,0.2,1.4,0.4,2.1,0.6c0.9,0.3,1.7,0.7,2.4,1.2s1.2,1.1,1.6,1.8c0.4,0.7,0.5,1.5,0.5,2.5c0,1.2-0.3,2.3-0.9,3.3
			c-0.6,1-1.5,1.9-2.7,2.5C558,38.6,556.5,38.9,554.6,38.9z"/>
		<path class="st0" d="M577.4,39c-2.3,0-4.3-0.4-5.9-1.3c-1.6-0.9-2.9-2.1-3.7-3.6s-1.3-3.3-1.3-5.3c0-1.9,0.5-3.7,1.5-5.2
			s2.3-2.8,4-3.7c1.7-0.9,3.5-1.4,5.6-1.4c2.7,0,5,0.8,6.8,2.4s2.9,3.9,3.4,6.9l-14.9,4.7l-1.4-3.3l10.8-3.6l-1.3,0.6
			c-0.2-0.8-0.7-1.4-1.2-2c-0.6-0.6-1.5-0.9-2.7-0.9c-0.9,0-1.7,0.2-2.4,0.6s-1.2,1-1.6,1.8c-0.4,0.8-0.5,1.7-0.5,2.7
			c0,1.2,0.2,2.2,0.7,3c0.4,0.8,1,1.4,1.8,1.8s1.6,0.6,2.5,0.6c0.7,0,1.3-0.1,1.9-0.4c0.6-0.2,1.2-0.5,1.9-0.9l2.7,4.6
			c-1,0.6-2.1,1.1-3.3,1.4S578.4,39,577.4,39z"/>
		<path class="st0" d="M612,19.4l0.5,3.4l-0.1-0.3c0.8-1.3,1.7-2.3,2.8-3s2.5-1.1,4.1-1.1c1.1,0,2,0.1,2.8,0.4s1.5,0.7,2,1.3
			c0.6,0.6,0.9,1.3,1.1,2.2H625c0.8-1.2,1.8-2.2,3-2.9c1.2-0.7,2.4-1.1,3.6-1.1c1.9,0,3.4,0.5,4.5,1.6s1.7,2.4,1.7,4.1v14.4h-6.1
			V26.7c0-0.8-0.2-1.5-0.4-2.1c-0.2-0.5-0.8-0.8-1.6-0.9c-1,0-1.8,0.3-2.5,1s-1.2,1.6-1.5,2.6c-0.3,1.1-0.5,2.2-0.5,3.3v7.8h-6.1
			V26.7c0-0.8-0.2-1.5-0.5-2.1c-0.3-0.5-0.8-0.8-1.7-0.9c-1,0-1.8,0.3-2.4,1c-0.7,0.7-1.2,1.6-1.5,2.6c-0.3,1.1-0.5,2.1-0.5,3.2v7.9
			h-6.1v-19H612z"/>
		<path class="st0" d="M652.2,39c-1.8,0-3.4-0.4-4.8-1.1c-1.4-0.7-2.6-1.8-3.4-3.3c-0.8-1.5-1.3-3.4-1.3-5.7c0-2.2,0.4-4,1.3-5.6
			c0.9-1.6,2-2.8,3.5-3.7c1.4-0.9,2.9-1.3,4.6-1.3c1.9,0,3.3,0.3,4.3,0.9s1.8,1.3,2.4,2.1l-0.3,0.7l0.6-2.8h5.7v19.1h-6.1v-4.2
			l0.5,1.3c-0.1,0-0.2,0.2-0.5,0.5s-0.7,0.7-1.3,1.2s-1.3,0.8-2.1,1.2C654.4,38.9,653.4,39,652.2,39z M654,34c0.7,0,1.4-0.1,2-0.3
			s1.1-0.5,1.5-1c0.4-0.4,0.8-1,1.1-1.6v-4.7c-0.2-0.6-0.6-1.2-1.1-1.6c-0.5-0.5-1-0.8-1.7-1.1c-0.6-0.2-1.4-0.4-2.1-0.4
			c-0.9,0-1.7,0.2-2.4,0.7s-1.3,1.1-1.8,1.9c-0.4,0.8-0.7,1.7-0.7,2.7s0.2,1.9,0.7,2.8c0.5,0.8,1.1,1.5,1.9,1.9
			C652.3,33.8,653.1,34,654,34z"/>
		<path class="st0" d="M677.7,38.6l-9.4-19.2h6.9l7.2,16.2L677.7,38.6z M672.6,47.7l12.7-28.3h5.5l-12.3,28.3H672.6z"/>
		<path class="st0" d="M710.5,11h6.1v8.3h4.6v4.8h-4.6v14.4h-6.1V24.1h-3v-4.8h3V11z"/>
		<path class="st0" d="M734,39c-1.8,0-3.4-0.4-4.8-1.1c-1.4-0.7-2.6-1.8-3.4-3.3c-0.8-1.5-1.3-3.4-1.3-5.7c0-2.2,0.4-4,1.3-5.6
			c0.9-1.6,2-2.8,3.5-3.7c1.4-0.9,2.9-1.3,4.6-1.3c1.9,0,3.3,0.3,4.3,0.9s1.8,1.3,2.4,2.1l-0.3,0.7l0.6-2.8h5.7v19.1h-6.1v-4.2
			l0.5,1.3c-0.1,0-0.2,0.2-0.5,0.5s-0.7,0.7-1.3,1.2s-1.3,0.8-2.1,1.2C736.1,38.9,735.1,39,734,39z M735.7,34c0.7,0,1.4-0.1,2-0.3
			s1.1-0.5,1.5-1c0.4-0.4,0.8-1,1.1-1.6v-4.7c-0.2-0.6-0.6-1.2-1.1-1.6c-0.5-0.5-1-0.8-1.7-1.1c-0.6-0.2-1.4-0.4-2.1-0.4
			c-0.9,0-1.7,0.2-2.4,0.7s-1.3,1.1-1.8,1.9c-0.4,0.8-0.7,1.7-0.7,2.7s0.2,1.9,0.7,2.8c0.5,0.8,1.1,1.5,1.9,1.9
			C734,33.8,734.8,34,735.7,34z"/>
		<path class="st0" d="M752.8,38.5V4h6.1v34.5H752.8z M757.1,33.2l-0.6-5.8l11.6-8.5l3.7,3.3L757.1,33.2z M763.8,25.5l8.7,13h-7.1
			l-5.6-9.5L763.8,25.5z"/>
		<path class="st0" d="M785.7,39c-2.3,0-4.3-0.4-5.9-1.3c-1.6-0.9-2.9-2.1-3.7-3.6s-1.3-3.3-1.3-5.3c0-1.9,0.5-3.7,1.5-5.2
			s2.3-2.8,4-3.7c1.7-0.9,3.5-1.4,5.6-1.4c2.7,0,5,0.8,6.8,2.4s2.9,3.9,3.4,6.9l-14.9,4.7l-1.4-3.3l10.8-3.6l-1.3,0.6
			c-0.2-0.8-0.7-1.4-1.2-2c-0.6-0.6-1.5-0.9-2.7-0.9c-0.9,0-1.7,0.2-2.4,0.6s-1.2,1-1.6,1.8c-0.4,0.8-0.5,1.7-0.5,2.7
			c0,1.2,0.2,2.2,0.7,3c0.4,0.8,1,1.4,1.8,1.8s1.6,0.6,2.5,0.6c0.7,0,1.3-0.1,1.9-0.4c0.6-0.2,1.2-0.5,1.9-0.9l2.7,4.6
			c-1,0.6-2.1,1.1-3.3,1.4S786.7,39,785.7,39z"/>
		<path class="st0" d="M820.3,19.4l0.5,3.4l-0.1-0.3c0.8-1.3,1.7-2.3,2.8-3s2.5-1.1,4.1-1.1c1.1,0,2,0.1,2.8,0.4s1.5,0.7,2,1.3
			c0.6,0.6,0.9,1.3,1.1,2.2h-0.2c0.8-1.2,1.8-2.2,3-2.9c1.2-0.7,2.4-1.1,3.6-1.1c1.9,0,3.4,0.5,4.5,1.6s1.7,2.4,1.7,4.1v14.4H840
			V26.7c0-0.8-0.2-1.5-0.4-2.1c-0.2-0.5-0.8-0.8-1.6-0.9c-1,0-1.8,0.3-2.5,1s-1.2,1.6-1.5,2.6c-0.3,1.1-0.5,2.2-0.5,3.3v7.8h-6.1
			V26.7c0-0.8-0.2-1.5-0.5-2.1c-0.3-0.5-0.8-0.8-1.7-0.9c-1,0-1.8,0.3-2.4,1c-0.7,0.7-1.2,1.6-1.5,2.6c-0.3,1.1-0.5,2.1-0.5,3.2v7.9
			h-6.1v-19H820.3z"/>
		<path class="st0" d="M852.4,12.6c0-0.9,0.4-1.6,1.1-2.2c0.7-0.6,1.5-0.9,2.3-0.9s1.6,0.3,2.3,0.9c0.7,0.6,1,1.3,1,2.2
			s-0.3,1.6-1,2.2c-0.7,0.6-1.4,0.9-2.3,0.9c-0.8,0-1.6-0.3-2.3-0.9C852.7,14.2,852.4,13.5,852.4,12.6z M852.5,19.4h6.1v19.1h-6.1
			V19.4z"/>
		<path class="st0" d="M870.5,19.4l0.5,3.4l-0.1-0.3c0.7-1.2,1.6-2.2,2.8-2.9c1.2-0.7,2.7-1.1,4.5-1.1s3.3,0.5,4.5,1.6
			s1.8,2.4,1.9,4.1v14.3h-6.1v-12c0-0.8-0.3-1.5-0.7-2s-1.1-0.8-2.1-0.8c-0.9,0-1.8,0.3-2.5,0.9s-1.2,1.4-1.6,2.5
			c-0.4,1.1-0.6,2.3-0.6,3.6v7.8h-6.1V19.4H870.5z"/>
		<path class="st0" d="M897.1,39.4c-1.7,0-3.2-0.5-4.3-1.6s-1.8-2.4-1.8-4.1V19.4h6.1v12c0.1,0.8,0.3,1.5,0.7,2s1,0.8,1.9,0.8
			s1.7-0.3,2.3-0.9c0.7-0.6,1.2-1.5,1.5-2.5c0.4-1.1,0.5-2.3,0.5-3.6v-7.8h6.1v19.1h-5.6L904,35l0.1,0.4c-0.4,0.8-1,1.5-1.7,2.1
			s-1.5,1.1-2.4,1.4C899.3,39.3,898.2,39.4,897.1,39.4z"/>
		<path class="st0" d="M918.3,11h6.1v8.3h4.6v4.8h-4.6v14.4h-6.1V24.1h-3v-4.8h3V11z"/>
		<path class="st0" d="M943.1,39c-2.3,0-4.3-0.4-5.9-1.3c-1.6-0.9-2.9-2.1-3.7-3.6s-1.3-3.3-1.3-5.3c0-1.9,0.5-3.7,1.5-5.2
			s2.3-2.8,4-3.7c1.7-0.9,3.5-1.4,5.6-1.4c2.7,0,5,0.8,6.8,2.4s2.9,3.9,3.4,6.9l-14.9,4.7l-1.4-3.3l10.8-3.6l-1.3,0.6
			c-0.2-0.8-0.7-1.4-1.2-2c-0.6-0.6-1.5-0.9-2.7-0.9c-0.9,0-1.7,0.2-2.4,0.6s-1.2,1-1.6,1.8c-0.4,0.8-0.5,1.7-0.5,2.7
			c0,1.2,0.2,2.2,0.7,3c0.4,0.8,1,1.4,1.8,1.8s1.6,0.6,2.5,0.6c0.7,0,1.3-0.1,1.9-0.4c0.6-0.2,1.2-0.5,1.9-0.9l2.7,4.6
			c-1,0.6-2.1,1.1-3.3,1.4S944.2,39,943.1,39z"/>
		<path class="st0" d="M964.2,38.9c-1.6,0-3-0.3-4.4-0.8c-1.4-0.6-2.5-1.3-3.4-2.3l2.5-3.4c0.9,0.8,1.8,1.5,2.6,1.8
			c0.8,0.4,1.5,0.5,2.2,0.5c0.5,0,0.9-0.1,1.3-0.2c0.4-0.1,0.7-0.3,0.9-0.5s0.4-0.5,0.4-0.9c0-0.5-0.2-0.9-0.6-1.2
			c-0.4-0.3-0.9-0.5-1.5-0.7s-1.3-0.4-2-0.6c-1.8-0.6-3-1.4-3.8-2.4c-0.8-1.1-1.2-2.2-1.2-3.5c0-1,0.3-1.9,0.8-2.9s1.3-1.8,2.5-2.5
			c1.1-0.7,2.6-1,4.4-1c1.6,0,3,0.2,4.1,0.5s2.2,0.8,3.2,1.6l-2.3,3.6c-0.6-0.4-1.2-0.8-1.9-1.1c-0.7-0.3-1.3-0.5-1.9-0.5
			c-0.5,0-1,0-1.3,0.2c-0.4,0.1-0.6,0.3-0.9,0.6c-0.2,0.2-0.3,0.5-0.3,0.7c0,0.6,0.2,1,0.6,1.3c0.5,0.3,1,0.6,1.7,0.7
			c0.7,0.2,1.4,0.4,2.1,0.6c0.9,0.3,1.7,0.7,2.4,1.2s1.2,1.1,1.6,1.8c0.4,0.7,0.5,1.5,0.5,2.5c0,1.2-0.3,2.3-0.9,3.3
			c-0.6,1-1.5,1.9-2.7,2.5C967.6,38.6,966,38.9,964.2,38.9z"/>
		<path class="st0" d="M980.6,29.9v-2.3c0-1.5,0.2-2.7,0.5-3.7c0.4-1,0.8-1.8,1.4-2.5c0.6-0.7,1.1-1.3,1.7-1.9
			c0.8-0.7,1.5-1.5,2.1-2.2s0.9-1.7,0.9-2.8c0-0.6-0.2-1.2-0.5-1.6s-0.7-0.8-1.2-1s-0.9-0.4-1.3-0.4c-0.8,0-1.6,0.2-2.1,0.6
			s-1,0.9-1.4,1.5s-0.7,1.3-0.9,1.9l-5-2.4c0.2-0.5,0.5-1.2,0.9-2s1.1-1.6,1.9-2.5c0.8-0.8,1.8-1.5,3-2.1s2.7-0.8,4.4-0.8
			s3.2,0.3,4.5,0.9s2.4,1.4,3.2,2.6s1.2,2.7,1.2,4.7c0,1.6-0.2,2.9-0.7,3.9c-0.4,1-1,1.8-1.6,2.5s-1.3,1.4-1.9,2
			c-0.5,0.5-1,1-1.4,1.6s-0.8,1.3-1.1,2.1s-0.4,1.7-0.4,2.8v0.9h-6.2V29.9z M983.6,39.1c-1.1,0-1.9-0.3-2.6-0.9
			c-0.7-0.6-1-1.3-1-2.3c0-0.9,0.3-1.7,1-2.3s1.5-0.9,2.6-0.9c1,0,1.9,0.3,2.5,0.9c0.7,0.6,1,1.4,1,2.3c0,0.9-0.3,1.7-1,2.3
			C985.5,38.8,984.7,39.1,983.6,39.1z"/>
	</g>
</g>
</svg>
