<?xml version="1.0" encoding="utf-8"?>
<!-- Generator: Adobe Illustrator 25.2.1, SVG Export Plug-In . SVG Version: 6.00 Build 0)  -->
<svg version="1.1" id="Layer_1" xmlns="http://www.w3.org/2000/svg" xmlns:xlink="http://www.w3.org/1999/xlink" x="0px" y="0px"
	 viewBox="0 0 654 326" style="enable-background:new 0 0 654 326;" xml:space="preserve">
<style type="text/css">
	.st0{fill-rule:evenodd;clip-rule:evenodd;fill:#2BA297;}
	.st1{fill:#FFFFFF;}
</style>
<g id="Selected_1_">
	<g>
		<g id="Frame-02_12_" transform="translate(-17.000000, -648.000000)">
			<g id="Group-2_12_" transform="translate(17.000000, 648.000000)">
				<rect id="Rectangle_12_" x="1.4" y="85.8" class="st0" width="651.6" height="71.8"/>
			</g>
		</g>
	</g>
</g>
<path class="st1" d="M52.8,96.1v46h-9.1v-18.7H23.2v18.7h-9.1v-46h9.1v18.6h20.6V96.1H52.8z"/>
<path class="st1" d="M64.6,96.1H96v8.7H73.7v9.8h19.7v8.7H73.7v9.9h23.2v8.7H64.6V96.1z"/>
<path class="st1" d="M120.2,96.1c2.9,0,5.4,0.4,7.7,1.1c2.2,0.7,4.1,1.8,5.7,3.1c1.5,1.4,2.7,3,3.5,4.9c0.8,1.9,1.2,4,1.2,6.4
	c0,1.9-0.3,3.7-0.8,5.6c-0.6,1.9-1.5,3.6-2.7,5.1c-1.3,1.5-2.9,2.8-5,3.7c-2.1,0.9-4.7,1.4-7.7,1.4h-6.5v14.6h-9.1v-46H120.2z
	 M121.8,118.7c1.4,0,2.5-0.2,3.4-0.7c0.9-0.5,1.6-1,2.2-1.7c0.5-0.7,0.9-1.4,1.1-2.2c0.2-0.8,0.3-1.5,0.3-2.2c0-0.5-0.1-1.1-0.2-1.9
	c-0.1-0.8-0.4-1.6-0.9-2.3c-0.5-0.8-1.2-1.5-2.1-2c-0.9-0.5-2.2-0.8-3.8-0.8h-6.5v13.9H121.8z M130.3,124.3l11.4,17.7h-10.6
	l-11.6-17.5L130.3,124.3z"/>
<path class="st1" d="M146.6,142.1c2.6-2.6,5.1-5.2,7.4-7.6c2.4-2.4,4.5-4.8,6.4-7.1c1.9-2.3,3.4-4.5,4.5-6.6
	c1.1-2.1,1.7-4.2,1.7-6.2c0-0.9-0.2-1.7-0.5-2.4c-0.3-0.7-0.8-1.3-1.3-1.8c-0.6-0.5-1.2-0.9-2-1.2c-0.8-0.3-1.6-0.4-2.6-0.4
	c-1,0-1.8,0.1-2.6,0.4c-0.8,0.3-1.4,0.6-1.9,1.1c-0.5,0.5-0.9,1-1.2,1.5c-0.3,0.5-0.4,1.1-0.4,1.7c0,1.3,0.2,2.5,0.7,3.5
	c0.4,1,1,1.9,1.8,2.7l-5.6,5.1c-1.2-0.6-2.2-1.6-3.1-2.9c-0.9-1.4-1.5-2.8-1.9-4.3c-0.4-1.5-0.7-2.8-0.7-3.8c0-2.3,0.6-4.5,1.9-6.6
	c1.3-2.1,3.1-3.8,5.6-5.1c2.4-1.3,5.4-2,8.9-2c2.9,0,5.4,0.6,7.5,1.9c2.1,1.3,3.8,3,5,5.1c1.2,2.1,1.8,4.3,1.8,6.7
	c0,1.9-0.3,3.7-0.9,5.4c-0.6,1.7-1.4,3.5-2.4,5.2c-1,1.7-2.2,3.4-3.5,5c-1.3,1.6-2.6,3.3-4,5l-4.1-1.2h15.4v8.7H146.6z"/>
<path class="st1" d="M192.6,115.9h7.9v7.7h7.5v7.6h-7.5v7.6h-7.9v-7.6h-7.5v-7.6h7.5V115.9z"/>
<path class="st1" d="M257,142.8c-2.3,0-4.2-0.4-5.8-1.2c-1.6-0.8-2.9-1.8-4.1-3l0.7-1.9v5.3H239V92.8h8.7v26.7v-2.8
	c1.1-0.9,2.5-1.7,4.3-2.3c1.8-0.6,3.8-0.9,6.1-0.9c2.4,0,4.5,0.6,6.5,1.7c2,1.1,3.5,2.8,4.7,4.9c1.2,2.1,1.8,4.8,1.8,7.8
	c0,3.1-0.7,5.7-2,8c-1.3,2.2-3.1,4-5.2,5.2C261.8,142.2,259.5,142.8,257,142.8z M255,135.5c1.3,0,2.5-0.3,3.6-1
	c1.1-0.7,2-1.6,2.7-2.7c0.7-1.2,1-2.5,1-3.9c0-1.5-0.3-2.7-1-3.9c-0.7-1.1-1.6-2-2.7-2.7c-1.1-0.6-2.3-1-3.6-1
	c-1.1,0-2.2,0.2-3.2,0.5c-1,0.4-1.8,0.9-2.5,1.5c-0.7,0.6-1.2,1.4-1.6,2.3v6.7c0.5,0.9,1.1,1.7,1.8,2.3c0.7,0.6,1.5,1.1,2.4,1.4
	C252.9,135.3,253.9,135.5,255,135.5z"/>
<path class="st1" d="M285.9,114.8l0.8,7.5l-0.2-1.1c0.8-1.6,1.9-3,3.2-4.2c1.4-1.1,2.7-2,4.1-2.7c1.4-0.6,2.4-0.9,3.1-0.9l-0.4,8.7
	c-2-0.2-3.8,0.1-5.2,1c-1.5,0.9-2.6,2.1-3.4,3.6c-0.8,1.5-1.2,3-1.2,4.6v10.7H278v-27.3H285.9z"/>
<path class="st1" d="M315.8,142.8c-3.3,0-6.2-0.6-8.5-1.9c-2.3-1.2-4.1-3-5.3-5.2c-1.2-2.2-1.8-4.7-1.8-7.6c0-2.7,0.7-5.2,2.1-7.4
	c1.4-2.2,3.3-4,5.7-5.3c2.4-1.3,5-2,7.9-2c3.9,0,7.1,1.1,9.7,3.4c2.5,2.3,4.2,5.6,4.9,9.8l-21.2,6.7l-1.9-4.7l15.4-5.2l-1.8,0.8
	c-0.3-1.1-0.9-2-1.8-2.8c-0.9-0.8-2.1-1.2-3.8-1.2c-1.3,0-2.4,0.3-3.4,0.9c-1,0.6-1.7,1.5-2.2,2.6c-0.5,1.1-0.8,2.4-0.8,3.9
	c0,1.7,0.3,3.1,0.9,4.3c0.6,1.1,1.5,2,2.6,2.6c1.1,0.6,2.3,0.9,3.6,0.9c1,0,1.9-0.2,2.8-0.5c0.9-0.3,1.8-0.8,2.7-1.3l3.9,6.5
	c-1.5,0.8-3,1.5-4.7,2C318.9,142.6,317.3,142.8,315.8,142.8z"/>
<path class="st1" d="M348.4,142.8c-2.5,0-4.8-0.5-6.9-1.5c-2.1-1-3.7-2.6-4.9-4.7c-1.2-2.1-1.8-4.8-1.8-8.1c0-3.1,0.6-5.7,1.9-8
	c1.2-2.2,2.9-4,4.9-5.2c2-1.2,4.2-1.8,6.5-1.8c2.7,0,4.8,0.4,6.2,1.3c1.4,0.9,2.6,1.9,3.5,3l-0.4,1.1l0.8-4h8.1v27.3h-8.7v-5.9
	l0.7,1.9c-0.1,0-0.3,0.2-0.8,0.7c-0.4,0.5-1,1-1.8,1.7c-0.8,0.6-1.8,1.2-3,1.7S350.1,142.8,348.4,142.8z M350.9,135.7
	c1,0,2-0.2,2.8-0.5c0.8-0.3,1.6-0.8,2.2-1.4c0.6-0.6,1.2-1.4,1.6-2.3v-6.7c-0.3-0.9-0.8-1.7-1.5-2.3c-0.7-0.6-1.5-1.1-2.4-1.5
	c-0.9-0.4-1.9-0.5-3.1-0.5c-1.2,0-2.4,0.3-3.5,1c-1.1,0.6-1.9,1.5-2.5,2.7c-0.6,1.1-0.9,2.4-0.9,3.9c0,1.5,0.3,2.8,1,3.9
	c0.7,1.2,1.6,2.1,2.7,2.7C348.4,135.4,349.6,135.7,350.9,135.7z"/>
<path class="st1" d="M384.2,142.6c-2.2,0-4.3-0.4-6.3-1.2c-1.9-0.8-3.6-1.9-4.9-3.3l3.6-4.8c1.3,1.2,2.6,2.1,3.7,2.6
	c1.1,0.5,2.2,0.8,3.1,0.8c0.7,0,1.3-0.1,1.9-0.2c0.6-0.1,1-0.4,1.3-0.7c0.3-0.3,0.5-0.7,0.5-1.2c0-0.7-0.3-1.3-0.8-1.7
	c-0.6-0.4-1.3-0.8-2.2-1c-0.9-0.3-1.8-0.6-2.8-0.8c-2.5-0.8-4.3-1.9-5.4-3.5c-1.1-1.5-1.7-3.2-1.7-5c0-1.4,0.4-2.8,1.1-4.2
	c0.7-1.4,1.9-2.6,3.5-3.5c1.6-0.9,3.7-1.4,6.2-1.4c2.3,0,4.2,0.2,5.8,0.7c1.6,0.5,3.1,1.2,4.5,2.2l-3.3,5.1
	c-0.8-0.6-1.7-1.2-2.7-1.6c-1-0.4-1.9-0.7-2.7-0.7c-0.7,0-1.4,0-1.9,0.2c-0.5,0.2-0.9,0.5-1.2,0.8c-0.3,0.3-0.4,0.7-0.4,1.1
	c0,0.8,0.3,1.4,0.9,1.9c0.6,0.5,1.5,0.8,2.5,1.1c1,0.2,2,0.5,2.9,0.9c1.3,0.4,2.5,1,3.4,1.7c1,0.7,1.7,1.6,2.2,2.5
	c0.5,1,0.8,2.2,0.8,3.5c0,1.7-0.4,3.2-1.3,4.7c-0.9,1.5-2.1,2.7-3.9,3.6C389,142.2,386.8,142.6,384.2,142.6z"/>
<path class="st1" d="M405.8,102.8h8.7v11.9h6.6v6.8h-6.6v20.6h-8.7v-20.6h-4.2v-6.8h4.2V102.8z"/>
<path class="st1" d="M471.3,139.6c-1.2,1-2.7,1.7-4.5,2.3c-1.8,0.6-3.6,0.9-5.3,0.9c-3.1,0-5.8-0.6-8.2-1.7
	c-2.3-1.1-4.1-2.8-5.4-4.9c-1.3-2.1-1.9-4.7-1.9-7.8c0-3,0.7-5.6,2.1-7.8c1.4-2.1,3.2-3.8,5.4-4.9c2.2-1.1,4.6-1.7,7-1.7
	c2.5,0,4.6,0.3,6.4,1c1.8,0.7,3.4,1.5,4.7,2.6l-4.2,5.6c-0.6-0.5-1.4-0.9-2.4-1.4c-1-0.5-2.2-0.7-3.6-0.7c-1.2,0-2.3,0.3-3.3,0.9
	c-1,0.6-1.8,1.5-2.4,2.6c-0.6,1.1-0.9,2.3-0.9,3.7c0,1.3,0.3,2.6,0.9,3.7c0.6,1.1,1.5,2,2.6,2.7c1.1,0.6,2.4,1,3.9,1
	c1,0,1.8-0.1,2.7-0.4c0.8-0.3,1.5-0.7,2.1-1.2L471.3,139.6z"/>
<path class="st1" d="M489.6,142.8c-2.5,0-4.8-0.5-6.9-1.5c-2.1-1-3.7-2.6-4.9-4.7c-1.2-2.1-1.8-4.8-1.8-8.1c0-3.1,0.6-5.7,1.9-8
	c1.2-2.2,2.9-4,4.9-5.2c2-1.2,4.2-1.8,6.5-1.8c2.7,0,4.8,0.4,6.2,1.3c1.4,0.9,2.6,1.9,3.5,3l-0.4,1.1l0.8-4h8.1v27.3h-8.7v-5.9
	l0.7,1.9c-0.1,0-0.3,0.2-0.8,0.7c-0.4,0.5-1,1-1.8,1.7c-0.8,0.6-1.8,1.2-3,1.7S491.2,142.8,489.6,142.8z M492.1,135.7
	c1,0,2-0.2,2.8-0.5c0.8-0.3,1.6-0.8,2.2-1.4c0.6-0.6,1.2-1.4,1.6-2.3v-6.7c-0.3-0.9-0.8-1.7-1.5-2.3c-0.7-0.6-1.5-1.1-2.4-1.5
	c-0.9-0.4-1.9-0.5-3.1-0.5c-1.2,0-2.4,0.3-3.5,1c-1.1,0.6-1.9,1.5-2.5,2.7c-0.6,1.1-0.9,2.4-0.9,3.9c0,1.5,0.3,2.8,1,3.9
	c0.7,1.2,1.6,2.1,2.7,2.7C489.6,135.4,490.8,135.7,492.1,135.7z"/>
<path class="st1" d="M524.4,114.8l0.7,4.9l-0.1-0.4c1-1.7,2.3-3.1,4.1-4.2c1.8-1.1,3.9-1.6,6.4-1.6c2.6,0,4.7,0.8,6.5,2.3
	c1.7,1.5,2.6,3.5,2.7,5.9v20.4h-8.7v-17.2c0-1.2-0.4-2.2-1-2.9c-0.6-0.7-1.6-1.1-3-1.1c-1.3,0-2.5,0.4-3.5,1.3
	c-1,0.9-1.8,2.1-2.3,3.6c-0.5,1.5-0.8,3.2-0.8,5.2v11.1h-8.7v-27.3H524.4z"/>
<path class="st1" d="M576.7,139.6c-1.2,1-2.7,1.7-4.5,2.3c-1.8,0.6-3.6,0.9-5.3,0.9c-3.1,0-5.8-0.6-8.2-1.7
	c-2.3-1.1-4.1-2.8-5.4-4.9c-1.3-2.1-1.9-4.7-1.9-7.8c0-3,0.7-5.6,2.1-7.8c1.4-2.1,3.2-3.8,5.4-4.9c2.2-1.1,4.6-1.7,7-1.7
	c2.5,0,4.6,0.3,6.4,1c1.8,0.7,3.4,1.5,4.7,2.6l-4.2,5.6c-0.6-0.5-1.4-0.9-2.4-1.4c-1-0.5-2.2-0.7-3.6-0.7c-1.2,0-2.3,0.3-3.3,0.9
	c-1,0.6-1.8,1.5-2.4,2.6c-0.6,1.1-0.9,2.3-0.9,3.7c0,1.3,0.3,2.6,0.9,3.7c0.6,1.1,1.5,2,2.6,2.7c1.1,0.6,2.4,1,3.9,1
	c1,0,1.8-0.1,2.7-0.4c0.8-0.3,1.5-0.7,2.1-1.2L576.7,139.6z"/>
<path class="st1" d="M596.9,142.8c-3.3,0-6.2-0.6-8.5-1.9c-2.3-1.2-4.1-3-5.3-5.2c-1.2-2.2-1.8-4.7-1.8-7.6c0-2.7,0.7-5.2,2.1-7.4
	c1.4-2.2,3.3-4,5.7-5.3c2.4-1.3,5-2,7.9-2c3.9,0,7.1,1.1,9.7,3.4c2.5,2.3,4.2,5.6,4.9,9.8l-21.2,6.7l-1.9-4.7l15.4-5.2l-1.8,0.8
	c-0.3-1.1-0.9-2-1.8-2.8c-0.9-0.8-2.1-1.2-3.8-1.2c-1.3,0-2.4,0.3-3.4,0.9c-1,0.6-1.7,1.5-2.2,2.6c-0.5,1.1-0.8,2.4-0.8,3.9
	c0,1.7,0.3,3.1,0.9,4.3c0.6,1.1,1.5,2,2.6,2.6c1.1,0.6,2.3,0.9,3.6,0.9c1,0,1.9-0.2,2.8-0.5c0.9-0.3,1.8-0.8,2.7-1.3l3.9,6.5
	c-1.5,0.8-3,1.5-4.7,2C600,142.6,598.4,142.8,596.9,142.8z"/>
<path class="st1" d="M625.9,114.8l0.8,7.5l-0.2-1.1c0.8-1.6,1.9-3,3.2-4.2c1.4-1.1,2.7-2,4.1-2.7c1.4-0.6,2.4-0.9,3.1-0.9l-0.4,8.7
	c-2-0.2-3.8,0.1-5.2,1c-1.5,0.9-2.6,2.1-3.4,3.6c-0.8,1.5-1.2,3-1.2,4.6v10.7H618v-27.3H625.9z"/>
</svg>
