<?xml version="1.0" encoding="utf-8"?>
<!-- Generator: Adobe Illustrator 25.2.1, SVG Export Plug-In . SVG Version: 6.00 Build 0)  -->
<svg version="1.1" id="Layer_1" xmlns="http://www.w3.org/2000/svg" xmlns:xlink="http://www.w3.org/1999/xlink" x="0px" y="0px"
	 viewBox="0 0 856 210" style="enable-background:new 0 0 856 210;" xml:space="preserve">
<style type="text/css">
	.st0{fill-rule:evenodd;clip-rule:evenodd;fill:#2BA297;}
	.st1{fill:#FFFFFF;}
</style>
<g>
	<g id="Selected_2_">
		<g>
			<g id="Frame-02_12_" transform="translate(-17.000000, -648.000000)">
				<g id="Group-2_12_" transform="translate(17.000000, 648.000000)">
					<rect id="Rectangle_12_" x="0.7" y="145.7" class="st0" width="676.7" height="62.8"/>
				</g>
			</g>
		</g>
	</g>
	<g>
		<path class="st1" d="M28.2,161.8c0-0.8,0.3-1.4,0.9-1.9s1.3-0.8,2-0.8s1.4,0.3,2,0.8s0.9,1.1,0.9,1.9s-0.3,1.4-0.9,1.9
			c-0.6,0.5-1.2,0.7-2,0.7c-0.7,0-1.4-0.2-2-0.7C28.5,163.2,28.2,162.6,28.2,161.8z M28.3,167.7h5.3v16.6h-5.3V167.7z"/>
		<path class="st1" d="M43.9,167.7l0.4,3l-0.1-0.3c0.6-1,1.4-1.9,2.5-2.5s2.4-1,3.9-1c1.6,0,2.9,0.5,3.9,1.4s1.6,2.1,1.6,3.6v12.4
			h-5.3v-10.4c0-0.7-0.2-1.3-0.6-1.8c-0.4-0.4-1-0.7-1.8-0.7s-1.5,0.3-2.1,0.8s-1.1,1.3-1.4,2.2c-0.3,0.9-0.5,2-0.5,3.1v6.7h-5.3
			v-16.6h4.8V167.7z"/>
		<path class="st1" d="M62.7,192.3l-3.1-3.3c0.8-0.6,1.3-1.2,1.8-2c0.4-0.8,0.6-1.8,0.6-3v-16.3h5.3v16.6c0,2-0.4,3.6-1.1,4.9
			C65.5,190.5,64.3,191.5,62.7,192.3z M61.8,161.8c0-0.8,0.3-1.4,0.9-1.9c0.6-0.5,1.3-0.8,2-0.8s1.4,0.3,2,0.8s0.9,1.1,0.9,1.9
			s-0.3,1.4-0.9,1.9s-1.2,0.7-2,0.7s-1.4-0.2-2-0.7S61.8,162.6,61.8,161.8z"/>
		<path class="st1" d="M80.9,184.7c-2,0-3.7-0.4-5.1-1.1c-1.4-0.8-2.5-1.8-3.2-3.1s-1.1-2.9-1.1-4.6c0-1.7,0.4-3.2,1.3-4.5
			s2-2.4,3.4-3.2s3-1.2,4.8-1.2c2.4,0,4.3,0.7,5.9,2.1c1.5,1.4,2.5,3.4,3,6L77,179l-1.2-2.9l9.3-3.1l-1.1,0.5
			c-0.2-0.7-0.6-1.2-1.1-1.7s-1.3-0.7-2.3-0.7c-0.8,0-1.5,0.2-2.1,0.5c-0.6,0.4-1,0.9-1.4,1.6c-0.3,0.7-0.5,1.5-0.5,2.4
			c0,1,0.2,1.9,0.6,2.6c0.4,0.7,0.9,1.2,1.6,1.6c0.7,0.4,1.4,0.5,2.2,0.5c0.6,0,1.1-0.1,1.7-0.3c0.5-0.2,1.1-0.5,1.6-0.8l2.3,3.9
			c-0.9,0.5-1.8,0.9-2.9,1.2S81.8,184.7,80.9,184.7z"/>
		<path class="st1" d="M107.8,182.8c-0.7,0.6-1.6,1-2.7,1.4s-2.2,0.5-3.2,0.5c-1.9,0-3.5-0.3-4.9-1s-2.5-1.7-3.3-3s-1.2-2.9-1.2-4.7
			s0.4-3.4,1.3-4.7c0.8-1.3,1.9-2.3,3.3-3s2.8-1,4.3-1s2.8,0.2,3.9,0.6s2,0.9,2.8,1.6l-2.6,3.4c-0.4-0.3-0.8-0.6-1.5-0.9
			c-0.6-0.3-1.3-0.4-2.2-0.4c-0.7,0-1.4,0.2-2,0.6s-1.1,0.9-1.4,1.6c-0.4,0.7-0.5,1.4-0.5,2.3c0,0.8,0.2,1.6,0.6,2.2
			c0.4,0.7,0.9,1.2,1.6,1.6c0.7,0.4,1.5,0.6,2.4,0.6c0.6,0,1.1-0.1,1.6-0.2c0.5-0.2,0.9-0.4,1.3-0.7L107.8,182.8z"/>
		<path class="st1" d="M113.4,160.4h5.3v7.2h4v4.1h-4v12.5h-5.3v-12.5h-2.6v-4.1h2.6V160.4z"/>
		<path class="st1" d="M126.7,161.8c0-0.8,0.3-1.4,0.9-1.9s1.3-0.8,2-0.8c0.7,0,1.4,0.3,2,0.8s0.9,1.1,0.9,1.9s-0.3,1.4-0.9,1.9
			c-0.6,0.5-1.2,0.7-2,0.7c-0.7,0-1.4-0.2-2-0.7S126.7,162.6,126.7,161.8z M126.8,167.7h5.3v16.6h-5.3V167.7z"/>
		<path class="st1" d="M136.3,175.8c0-1.7,0.4-3.2,1.2-4.5s1.9-2.4,3.4-3.2c1.4-0.8,3.1-1.2,5-1.2s3.5,0.4,4.9,1.2s2.5,1.8,3.2,3.2
			c0.7,1.3,1.1,2.9,1.1,4.5s-0.4,3.2-1.1,4.6c-0.7,1.4-1.8,2.4-3.2,3.2s-3.1,1.2-5,1.2c-1.8,0-3.4-0.4-4.9-1.1
			c-1.4-0.7-2.5-1.7-3.4-3.1C136.7,179.2,136.3,177.6,136.3,175.8z M141.6,175.8c0,0.9,0.2,1.6,0.5,2.3c0.4,0.7,0.8,1.2,1.4,1.6
			s1.3,0.6,2,0.6c0.8,0,1.6-0.2,2.2-0.6s1.1-1,1.4-1.6c0.3-0.7,0.5-1.5,0.5-2.3c0-0.9-0.2-1.7-0.5-2.3c-0.3-0.7-0.8-1.2-1.4-1.6
			c-0.6-0.4-1.3-0.6-2.2-0.6c-0.8,0-1.4,0.2-2,0.6c-0.6,0.4-1.1,0.9-1.4,1.6C141.8,174.1,141.6,174.9,141.6,175.8z"/>
		<path class="st1" d="M164,167.7l0.4,3l-0.1-0.3c0.6-1,1.4-1.9,2.5-2.5s2.4-1,3.9-1c1.6,0,2.9,0.5,3.9,1.4s1.6,2.1,1.6,3.6v12.4
			H171v-10.4c0-0.7-0.2-1.3-0.6-1.8c-0.4-0.4-1-0.7-1.8-0.7s-1.5,0.3-2.1,0.8s-1.1,1.3-1.4,2.2c-0.3,0.9-0.5,2-0.5,3.1v6.7h-5.3
			v-16.6h4.7V167.7z"/>
		<path class="st1" d="M182.8,173.4h19.4v4.6h-19.4V173.4z"/>
		<path class="st1" d="M214.2,184.6c-1.4,0-2.6-0.2-3.8-0.7s-2.2-1.1-3-2l2.2-2.9c0.8,0.7,1.6,1.3,2.3,1.6s1.3,0.5,1.9,0.5
			c0.4,0,0.8,0,1.2-0.1c0.3-0.1,0.6-0.2,0.8-0.4s0.3-0.4,0.3-0.7c0-0.4-0.2-0.8-0.5-1c-0.3-0.3-0.8-0.5-1.3-0.6
			c-0.5-0.2-1.1-0.3-1.7-0.5c-1.5-0.5-2.6-1.2-3.3-2.1c-0.7-0.9-1-1.9-1-3c0-0.8,0.2-1.7,0.7-2.5c0.4-0.8,1.1-1.6,2.1-2.1
			c1-0.6,2.2-0.9,3.8-0.9c1.4,0,2.6,0.1,3.5,0.4c1,0.3,1.9,0.7,2.7,1.4l-2,3.1c-0.5-0.4-1-0.7-1.6-1s-1.1-0.4-1.6-0.4
			s-0.8,0-1.2,0.2c-0.3,0.1-0.6,0.3-0.7,0.5c-0.2,0.2-0.3,0.4-0.3,0.6c0,0.5,0.2,0.9,0.5,1.1c0.4,0.3,0.9,0.5,1.5,0.6
			c0.6,0.2,1.2,0.3,1.8,0.5c0.8,0.3,1.5,0.6,2.1,1s1,0.9,1.3,1.5s0.5,1.3,0.5,2.1c0,1-0.3,2-0.8,2.9s-1.3,1.6-2.4,2.2
			C217.1,184.3,215.8,184.6,214.2,184.6z"/>
		<path class="st1" d="M224.4,175.8c0-1.7,0.4-3.2,1.2-4.5s1.9-2.4,3.4-3.2c1.4-0.8,3.1-1.2,5-1.2s3.5,0.4,4.9,1.2s2.5,1.8,3.2,3.2
			c0.7,1.3,1.1,2.9,1.1,4.5s-0.4,3.2-1.1,4.6c-0.7,1.4-1.8,2.4-3.2,3.2s-3.1,1.2-5,1.2c-1.8,0-3.4-0.4-4.9-1.1
			c-1.4-0.7-2.5-1.7-3.4-3.1C224.8,179.2,224.4,177.6,224.4,175.8z M229.8,175.8c0,0.9,0.2,1.6,0.5,2.3c0.4,0.7,0.8,1.2,1.4,1.6
			s1.3,0.6,2,0.6c0.8,0,1.6-0.2,2.2-0.6s1.1-1,1.4-1.6c0.3-0.7,0.5-1.5,0.5-2.3c0-0.9-0.2-1.7-0.5-2.3c-0.3-0.7-0.8-1.2-1.4-1.6
			c-0.6-0.4-1.3-0.6-2.2-0.6c-0.8,0-1.4,0.2-2,0.6c-0.6,0.4-1.1,0.9-1.4,1.6C230,174.1,229.8,174.9,229.8,175.8z"/>
		<path class="st1" d="M259.6,161.8c0-0.8,0.3-1.4,0.9-1.9s1.3-0.8,2-0.8s1.4,0.3,2,0.8s0.9,1.1,0.9,1.9s-0.3,1.4-0.9,1.9
			s-1.2,0.7-2,0.7c-0.7,0-1.4-0.2-2-0.7S259.6,162.6,259.6,161.8z M259.7,167.7h5.3v16.6h-5.3V167.7z"/>
		<path class="st1" d="M272,160.4h5.3v7.2h4v4.1h-4v12.5H272v-12.5h-2.6v-4.1h2.6V160.4z"/>
		<path class="st1" d="M283.4,162c0.6-0.5,1-1.2,1.4-2.2s0.4-1.9,0.3-2.8l4.1-0.3c0.2,0.7,0.1,1.5-0.2,2.3c-0.3,0.9-0.6,1.6-1.1,2.4
			c-0.5,0.7-1,1.2-1.6,1.6L283.4,162z"/>
		<path class="st1" d="M298.2,184.6c-1.4,0-2.6-0.2-3.8-0.7c-1.2-0.5-2.2-1.1-3-2l2.2-2.9c0.8,0.7,1.6,1.3,2.3,1.6
			c0.7,0.3,1.3,0.5,1.9,0.5c0.4,0,0.8,0,1.2-0.1c0.3-0.1,0.6-0.2,0.8-0.4c0.2-0.2,0.3-0.4,0.3-0.7c0-0.4-0.2-0.8-0.5-1
			c-0.3-0.3-0.8-0.5-1.3-0.6c-0.5-0.2-1.1-0.3-1.7-0.5c-1.5-0.5-2.6-1.2-3.3-2.1c-0.7-0.9-1-1.9-1-3c0-0.8,0.2-1.7,0.7-2.5
			c0.4-0.8,1.1-1.6,2.1-2.1c1-0.6,2.2-0.9,3.8-0.9c1.4,0,2.6,0.1,3.5,0.4c1,0.3,1.9,0.7,2.7,1.4l-2,3.1c-0.5-0.4-1-0.7-1.6-1
			s-1.1-0.4-1.6-0.4s-0.8,0-1.2,0.2c-0.3,0.1-0.6,0.3-0.7,0.5c-0.2,0.2-0.3,0.4-0.3,0.6c0,0.5,0.2,0.9,0.5,1.1
			c0.4,0.3,0.9,0.5,1.5,0.6c0.6,0.2,1.2,0.3,1.8,0.5c0.8,0.3,1.5,0.6,2.1,1s1,0.9,1.3,1.5s0.5,1.3,0.5,2.1c0,1-0.3,2-0.8,2.9
			s-1.3,1.6-2.4,2.2C301.2,184.3,299.9,184.6,298.2,184.6z"/>
		<path class="st1" d="M330.7,192.6c-1.5,0-2.7-0.2-3.8-0.5c-1-0.4-1.9-0.8-2.6-1.3s-1.3-1-1.9-1.4l3.1-3.6c0.6,0.5,1.3,1,2,1.5
			c0.8,0.5,1.8,0.7,3.1,0.7c0.8,0,1.6-0.1,2.3-0.4s1.3-0.7,1.7-1.3c0.4-0.6,0.7-1.3,0.7-2.1v-3.6l0.2,0.9c-0.4,0.9-1.1,1.6-2.2,2.3
			c-1.1,0.6-2.5,1-4.2,1c-1.5,0-2.9-0.4-4.2-1.2c-1.3-0.8-2.3-1.8-3.1-3.1c-0.8-1.3-1.1-2.8-1.1-4.5s0.4-3.3,1.2-4.6
			c0.8-1.4,1.9-2.4,3.1-3.2s2.7-1.2,4.1-1.2s2.7,0.2,3.7,0.6c1,0.4,1.8,0.9,2.4,1.5l-0.2,0.5l0.6-1.8h4.9v16.6
			c0,1.6-0.5,3.1-1.4,4.3c-0.9,1.3-2.1,2.2-3.6,3C334.2,192.2,332.5,192.6,330.7,192.6z M326.2,175.7c0,0.9,0.2,1.7,0.6,2.4
			s1,1.3,1.6,1.7c0.7,0.4,1.5,0.6,2.3,0.6c0.7,0,1.4-0.1,2-0.3s1.1-0.5,1.5-0.8c0.4-0.4,0.8-0.8,1.1-1.4v-4.1c-0.2-0.6-0.6-1-1-1.4
			c-0.5-0.4-1-0.7-1.6-0.9s-1.3-0.3-2-0.3c-0.9,0-1.6,0.2-2.3,0.6c-0.7,0.4-1.2,0.9-1.6,1.6C326.4,174.1,326.2,174.9,326.2,175.7z"
			/>
		<path class="st1" d="M346,161.8c0-0.8,0.3-1.4,0.9-1.9s1.3-0.8,2-0.8s1.4,0.3,2,0.8s0.9,1.1,0.9,1.9s-0.3,1.4-0.9,1.9
			s-1.2,0.7-2,0.7c-0.7,0-1.4-0.2-2-0.7S346,162.6,346,161.8z M346.1,167.7h5.3v16.6h-5.3V167.7z"/>
		<path class="st1" d="M364.4,184.6l-9.9-16.9h6.3l5.6,11.4l-3.3-0.1l4.9-11.3h5.9l-9.4,16.9L364.4,184.6L364.4,184.6z"/>
		<path class="st1" d="M384.7,184.7c-2,0-3.7-0.4-5.1-1.1c-1.4-0.8-2.5-1.8-3.2-3.1s-1.1-2.9-1.1-4.6c0-1.7,0.4-3.2,1.3-4.5
			s2-2.4,3.4-3.2s3-1.2,4.8-1.2c2.4,0,4.3,0.7,5.9,2.1c1.5,1.4,2.5,3.4,3,6l-12.9,4.1l-1.2-2.9l9.3-3.1l-1.1,0.5
			c-0.2-0.7-0.6-1.2-1.1-1.7s-1.3-0.7-2.3-0.7c-0.8,0-1.5,0.2-2.1,0.5c-0.6,0.4-1,0.9-1.4,1.6c-0.3,0.7-0.5,1.5-0.5,2.4
			c0,1,0.2,1.9,0.6,2.6c0.4,0.7,0.9,1.2,1.6,1.6c0.7,0.4,1.4,0.5,2.2,0.5c0.6,0,1.1-0.1,1.7-0.3c0.5-0.2,1.1-0.5,1.6-0.8l2.3,3.9
			c-0.9,0.5-1.8,0.9-2.9,1.2S385.6,184.7,384.7,184.7z"/>
		<path class="st1" d="M402.3,167.7l0.4,3l-0.1-0.3c0.6-1,1.4-1.9,2.5-2.5s2.4-1,3.9-1c1.6,0,2.9,0.5,3.9,1.4s1.6,2.1,1.6,3.6v12.4
			h-5.3v-10.4c0-0.7-0.2-1.3-0.6-1.8c-0.4-0.4-1-0.7-1.8-0.7s-1.5,0.3-2.1,0.8s-1.1,1.3-1.4,2.2s-0.5,2-0.5,3.1v6.7h-5.3v-16.6h4.8
			V167.7z"/>
		<path class="st1" d="M432.2,161.8c0-0.8,0.3-1.4,0.9-1.9s1.3-0.8,2-0.8s1.4,0.3,2,0.8s0.9,1.1,0.9,1.9s-0.3,1.4-0.9,1.9
			s-1.2,0.7-2,0.7c-0.7,0-1.4-0.2-2-0.7S432.2,162.6,432.2,161.8z M432.3,167.7h5.3v16.6h-5.3V167.7z"/>
		<path class="st1" d="M447.9,167.7l0.4,3l-0.1-0.3c0.6-1,1.4-1.9,2.5-2.5s2.4-1,3.9-1c1.6,0,2.9,0.5,3.9,1.4s1.6,2.1,1.6,3.6v12.4
			h-5.3v-10.4c0-0.7-0.2-1.3-0.6-1.8c-0.4-0.4-1-0.7-1.8-0.7s-1.5,0.3-2.1,0.8s-1.1,1.3-1.4,2.2s-0.5,2-0.5,3.1v6.7h-5.3v-16.6h4.8
			V167.7z"/>
		<path class="st1" d="M477.9,154.4h5.3v29.9h-5.3V154.4z"/>
		<path class="st1" d="M496.8,184.7c-2,0-3.7-0.4-5.1-1.1c-1.4-0.8-2.5-1.8-3.2-3.1s-1.1-2.9-1.1-4.6c0-1.7,0.4-3.2,1.3-4.5
			s2-2.4,3.4-3.2s3-1.2,4.8-1.2c2.4,0,4.3,0.7,5.9,2.1c1.5,1.4,2.5,3.4,3,6l-12.9,4.1l-1.2-2.9l9.3-3.1l-1.1,0.5
			c-0.2-0.7-0.6-1.2-1.1-1.7s-1.3-0.7-2.3-0.7c-0.8,0-1.5,0.2-2.1,0.5c-0.6,0.4-1,0.9-1.4,1.6c-0.3,0.7-0.5,1.5-0.5,2.4
			c0,1,0.2,1.9,0.6,2.6c0.4,0.7,0.9,1.2,1.6,1.6c0.7,0.4,1.4,0.5,2.2,0.5c0.6,0,1.1-0.1,1.7-0.3c0.5-0.2,1.1-0.5,1.6-0.8l2.3,3.9
			c-0.9,0.5-1.8,0.9-2.9,1.2S497.7,184.7,496.8,184.7z"/>
		<path class="st1" d="M515,184.6c-1.4,0-2.6-0.2-3.8-0.7s-2.2-1.1-3-2l2.2-2.9c0.8,0.7,1.6,1.3,2.3,1.6s1.3,0.5,1.9,0.5
			c0.4,0,0.8,0,1.2-0.1c0.3-0.1,0.6-0.2,0.8-0.4s0.3-0.4,0.3-0.7c0-0.4-0.2-0.8-0.5-1c-0.3-0.3-0.8-0.5-1.3-0.6
			c-0.5-0.2-1.1-0.3-1.7-0.5c-1.5-0.5-2.6-1.2-3.3-2.1c-0.7-0.9-1-1.9-1-3c0-0.8,0.2-1.7,0.7-2.5c0.4-0.8,1.1-1.6,2.1-2.1
			c1-0.5,2.2-0.9,3.8-0.9c1.4,0,2.6,0.1,3.5,0.4c1,0.3,1.9,0.7,2.7,1.4l-2,3.1c-0.5-0.4-1-0.7-1.6-1s-1.1-0.4-1.6-0.4
			s-0.8,0-1.2,0.2c-0.3,0.1-0.6,0.3-0.7,0.5c-0.2,0.2-0.3,0.4-0.3,0.6c0,0.5,0.2,0.9,0.5,1.1c0.4,0.3,0.9,0.5,1.5,0.6
			c0.6,0.2,1.2,0.3,1.8,0.5c0.8,0.3,1.5,0.6,2.1,1s1,0.9,1.3,1.5s0.5,1.3,0.5,2.1c0,1-0.3,2-0.8,2.9s-1.3,1.6-2.3,2.2
			S516.6,184.6,515,184.6z"/>
		<path class="st1" d="M532,184.6c-1.4,0-2.6-0.2-3.8-0.7s-2.2-1.1-3-2l2.2-2.9c0.8,0.7,1.6,1.3,2.3,1.6s1.3,0.5,1.9,0.5
			c0.4,0,0.8,0,1.2-0.1c0.3-0.1,0.6-0.2,0.8-0.4s0.3-0.4,0.3-0.7c0-0.4-0.2-0.8-0.5-1c-0.3-0.3-0.8-0.5-1.3-0.6
			c-0.5-0.2-1.1-0.3-1.7-0.5c-1.5-0.5-2.6-1.2-3.3-2.1c-0.7-0.9-1-1.9-1-3c0-0.8,0.2-1.7,0.7-2.5c0.4-0.8,1.1-1.6,2.1-2.1
			s2.2-0.9,3.8-0.9c1.4,0,2.6,0.1,3.5,0.4c1,0.3,1.9,0.7,2.7,1.4l-2,3.1c-0.5-0.4-1-0.7-1.6-1s-1.1-0.4-1.6-0.4s-0.8,0-1.2,0.2
			c-0.3,0.1-0.6,0.3-0.7,0.5c-0.2,0.2-0.3,0.4-0.3,0.6c0,0.5,0.2,0.9,0.5,1.1c0.4,0.3,0.9,0.5,1.5,0.6c0.6,0.2,1.2,0.3,1.8,0.5
			c0.8,0.3,1.5,0.6,2.1,1s1,0.9,1.3,1.5s0.5,1.3,0.5,2.1c0,1-0.3,2-0.8,2.9s-1.3,1.6-2.3,2.2S533.6,184.6,532,184.6z"/>
		<path class="st1" d="M557.4,160.4h5.3v7.2h4v4.1h-4v12.5h-5.3v-12.5h-2.6v-4.1h2.6V160.4z"/>
		<path class="st1" d="M570.7,161.8c0-0.8,0.3-1.4,0.9-1.9c0.6-0.5,1.3-0.8,2-0.8s1.4,0.3,2,0.8s0.9,1.1,0.9,1.9s-0.3,1.4-0.9,1.9
			c-0.6,0.5-1.2,0.7-2,0.7c-0.7,0-1.4-0.2-2-0.7C571,163.2,570.7,162.6,570.7,161.8z M570.8,167.7h5.3v16.6h-5.3V167.7z"/>
		<path class="st1" d="M586.4,167.7l0.4,2.9l-0.1-0.2c0.7-1.1,1.5-2,2.5-2.6s2.2-0.9,3.6-0.9c0.9,0,1.7,0.1,2.4,0.4s1.3,0.6,1.8,1.1
			s0.8,1.1,1,1.9h-0.2c0.7-1,1.6-1.9,2.6-2.5s2-0.9,3.1-0.9c1.6,0,2.9,0.5,3.9,1.4s1.5,2.1,1.5,3.6v12.4h-5.3V174
			c0-0.7-0.1-1.3-0.3-1.8s-0.7-0.7-1.4-0.8c-0.9,0-1.6,0.3-2.2,0.9s-1,1.4-1.3,2.3c-0.3,0.9-0.4,1.9-0.4,2.9v6.8h-5.3V174
			c0-0.7-0.2-1.3-0.4-1.8s-0.7-0.7-1.5-0.8c-0.8,0-1.5,0.3-2.1,0.9s-1,1.3-1.3,2.3s-0.4,1.8-0.4,2.8v6.9h-5.3v-16.6L586.4,167.7
			L586.4,167.7z"/>
		<path class="st1" d="M622.4,184.7c-2,0-3.7-0.4-5.1-1.1c-1.4-0.8-2.5-1.8-3.2-3.1s-1.1-2.9-1.1-4.6c0-1.7,0.4-3.2,1.3-4.5
			c0.9-1.3,2-2.4,3.4-3.2s3-1.2,4.8-1.2c2.4,0,4.3,0.7,5.9,2.1c1.5,1.4,2.5,3.4,3,6l-12.9,4.1l-1.2-2.9l9.3-3.1l-1.1,0.5
			c-0.2-0.7-0.6-1.2-1.1-1.7s-1.3-0.7-2.3-0.7c-0.8,0-1.5,0.2-2.1,0.5c-0.6,0.4-1,0.9-1.4,1.6c-0.3,0.7-0.5,1.5-0.5,2.4
			c0,1,0.2,1.9,0.6,2.6c0.4,0.7,0.9,1.2,1.6,1.6c0.7,0.4,1.4,0.5,2.2,0.5c0.6,0,1.1-0.1,1.7-0.3c0.5-0.2,1.1-0.5,1.6-0.8l2.3,3.9
			c-0.9,0.5-1.8,0.9-2.9,1.2S623.3,184.7,622.4,184.7z"/>
		<path class="st1" d="M633.9,179.6c0.6-0.5,1.2-0.8,1.9-0.8c0.6,0,1.2,0.3,1.8,0.8s0.9,1.2,0.9,2s-0.3,1.5-0.9,2s-1.2,0.7-1.8,0.7
			c-0.7,0-1.3-0.2-1.9-0.7c-0.6-0.5-0.9-1.2-0.9-2C633.1,180.8,633.3,180.1,633.9,179.6z"/>
	</g>
</g>
</svg>
