<?xml version="1.0" encoding="utf-8"?>
<!-- Generator: Adobe Illustrator 25.2.1, SVG Export Plug-In . SVG Version: 6.00 Build 0)  -->
<svg version="1.1" id="Layer_1" xmlns="http://www.w3.org/2000/svg" xmlns:xlink="http://www.w3.org/1999/xlink" x="0px" y="0px"
	 viewBox="0 0 654 326" style="enable-background:new 0 0 654 326;" xml:space="preserve">
<style type="text/css">
	.st0{fill-rule:evenodd;clip-rule:evenodd;fill:#2BA297;}
	.st1{fill:#FFFFFF;}
</style>
<g id="Selected">
	<g>
		<g id="Frame-02_11_" transform="translate(-17.000000, -648.000000)">
			<g id="Group-2_11_" transform="translate(17.000000, 648.000000)">
				<rect id="Rectangle_11_" x="1.4" y="3.5" class="st0" width="336.8" height="71.8"/>
			</g>
		</g>
	</g>
</g>
<g>
	<path class="st1" d="M14.1,60.3v-46h13.7c4.6,0,8.6,0.7,11.8,2.1c3.2,1.4,5.9,3.2,7.8,5.5c2,2.3,3.4,4.9,4.3,7.7
		c0.9,2.8,1.4,5.7,1.4,8.6c0,3.4-0.6,6.5-1.8,9.2c-1.2,2.7-2.9,5.1-5,7c-2.1,1.9-4.6,3.4-7.4,4.4c-2.8,1-5.7,1.5-8.9,1.5H14.1z
		 M23.2,51.5h5.4c2.3,0,4.4-0.3,6.2-0.9c1.9-0.6,3.5-1.5,4.8-2.7c1.4-1.2,2.4-2.6,3.1-4.4c0.7-1.8,1.1-3.8,1.1-6.1
		c0-3-0.5-5.4-1.5-7.3c-1-1.9-2.2-3.4-3.6-4.4c-1.4-1-2.9-1.8-4.4-2.2c-1.5-0.4-2.8-0.6-3.8-0.6h-7.4V51.5z"/>
	<path class="st1" d="M60.6,23.3c0-1.3,0.5-2.4,1.5-3.2c1-0.8,2.1-1.2,3.3-1.2c1.2,0,2.2,0.4,3.2,1.2c1,0.8,1.5,1.9,1.5,3.2
		c0,1.3-0.5,2.3-1.5,3.2c-1,0.8-2.1,1.2-3.2,1.2c-1.2,0-2.3-0.4-3.3-1.2C61.2,25.6,60.6,24.6,60.6,23.3z M60.8,33h8.7v27.3h-8.7V33z
		"/>
	<path class="st1" d="M87.5,60.8c-2.2,0-4.3-0.4-6.3-1.2c-1.9-0.8-3.6-1.9-4.9-3.3l3.6-4.8c1.3,1.2,2.6,2.1,3.7,2.6
		c1.1,0.5,2.2,0.8,3.1,0.8c0.7,0,1.3-0.1,1.9-0.2c0.6-0.1,1-0.4,1.3-0.7c0.3-0.3,0.5-0.7,0.5-1.2c0-0.7-0.3-1.3-0.8-1.7
		c-0.6-0.4-1.3-0.8-2.2-1c-0.9-0.3-1.8-0.6-2.8-0.8c-2.5-0.8-4.3-1.9-5.4-3.5c-1.1-1.5-1.7-3.2-1.7-5c0-1.4,0.4-2.8,1.1-4.2
		c0.7-1.4,1.9-2.6,3.5-3.5c1.6-0.9,3.7-1.4,6.2-1.4c2.3,0,4.2,0.2,5.8,0.7c1.6,0.5,3.1,1.2,4.5,2.2l-3.3,5.1
		c-0.8-0.6-1.7-1.2-2.7-1.6c-1-0.4-1.9-0.7-2.7-0.7c-0.8,0-1.4,0-1.9,0.2c-0.5,0.2-0.9,0.5-1.2,0.8c-0.3,0.3-0.4,0.7-0.4,1.1
		c0,0.8,0.3,1.4,0.9,1.9c0.6,0.5,1.5,0.8,2.5,1.1c1,0.2,2,0.5,2.9,0.9c1.3,0.4,2.5,1,3.4,1.7c1,0.7,1.7,1.6,2.2,2.5
		c0.5,1,0.8,2.2,0.8,3.5c0,1.7-0.4,3.2-1.3,4.7c-0.9,1.5-2.1,2.7-3.9,3.6C92.3,60.4,90.1,60.8,87.5,60.8z"/>
	<path class="st1" d="M129.7,57.8c-1.2,1-2.7,1.7-4.5,2.3s-3.6,0.9-5.3,0.9c-3.1,0-5.8-0.6-8.2-1.7c-2.3-1.1-4.1-2.8-5.4-4.9
		c-1.3-2.1-1.9-4.7-1.9-7.8c0-3,0.7-5.6,2.1-7.8c1.4-2.1,3.2-3.8,5.4-4.9c2.2-1.1,4.6-1.7,7-1.7c2.5,0,4.6,0.3,6.4,1
		c1.8,0.7,3.4,1.5,4.7,2.6l-4.2,5.6c-0.6-0.5-1.4-0.9-2.4-1.4c-1-0.5-2.2-0.7-3.6-0.7c-1.2,0-2.3,0.3-3.3,0.9
		c-1,0.6-1.8,1.5-2.4,2.6c-0.6,1.1-0.9,2.3-0.9,3.7c0,1.3,0.3,2.6,0.9,3.7c0.6,1.1,1.5,2,2.6,2.7c1.1,0.6,2.4,1,3.9,1
		c1,0,1.8-0.1,2.7-0.4c0.8-0.3,1.5-0.7,2.1-1.2L129.7,57.8z"/>
	<path class="st1" d="M134.3,46.3c0-2.8,0.7-5.3,2-7.5c1.3-2.2,3.2-3.9,5.5-5.2c2.4-1.3,5.1-1.9,8.2-1.9c3.1,0,5.8,0.6,8.1,1.9
		c2.3,1.3,4.1,3,5.3,5.2c1.2,2.2,1.8,4.7,1.8,7.5c0,2.8-0.6,5.3-1.8,7.5c-1.2,2.2-3,4-5.3,5.3c-2.3,1.3-5,1.9-8.2,1.9
		c-3,0-5.7-0.6-8-1.7c-2.4-1.2-4.2-2.9-5.5-5.1C135,52,134.3,49.4,134.3,46.3z M143.1,46.3c0,1.4,0.3,2.7,0.9,3.8
		c0.6,1.1,1.4,2.1,2.4,2.7c1,0.7,2.1,1,3.4,1c1.4,0,2.6-0.3,3.6-1c1-0.7,1.8-1.6,2.3-2.7c0.5-1.1,0.8-2.4,0.8-3.8
		c0-1.5-0.3-2.7-0.8-3.9c-0.5-1.1-1.3-2-2.3-2.7c-1-0.7-2.2-1-3.6-1c-1.2,0-2.4,0.3-3.4,1c-1,0.7-1.8,1.6-2.4,2.7
		C143.4,43.6,143.1,44.9,143.1,46.3z"/>
	<path class="st1" d="M183.7,60.8L167.3,33h10.4l9.3,18.9l-5.4-0.2l8.1-18.7h9.7l-15.5,27.9H183.7z"/>
	<path class="st1" d="M217,61c-3.3,0-6.2-0.6-8.5-1.9c-2.3-1.2-4.1-3-5.3-5.2c-1.2-2.2-1.8-4.7-1.8-7.6c0-2.7,0.7-5.2,2.1-7.4
		c1.4-2.2,3.3-4,5.7-5.3c2.4-1.3,5-2,7.9-2c3.9,0,7.1,1.1,9.7,3.4c2.5,2.3,4.2,5.6,4.9,9.8l-21.2,6.7l-1.9-4.7l15.4-5.2l-1.8,0.8
		c-0.3-1.1-0.9-2-1.8-2.8c-0.9-0.8-2.1-1.2-3.8-1.2c-1.3,0-2.4,0.3-3.4,0.9c-1,0.6-1.7,1.5-2.2,2.6c-0.5,1.1-0.8,2.4-0.8,3.9
		c0,1.7,0.3,3.1,0.9,4.3c0.6,1.1,1.5,2,2.6,2.6c1.1,0.6,2.3,0.9,3.6,0.9c1,0,1.9-0.2,2.8-0.5c0.9-0.3,1.8-0.8,2.7-1.3l3.9,6.5
		c-1.5,0.8-3,1.5-4.7,2C220.1,60.8,218.5,61,217,61z"/>
	<path class="st1" d="M246,33l0.8,7.5l-0.2-1.1c0.8-1.6,1.9-3,3.2-4.2c1.4-1.1,2.7-2,4.1-2.7c1.4-0.6,2.4-0.9,3.1-0.9l-0.4,8.7
		c-2-0.2-3.8,0.1-5.2,1c-1.5,0.9-2.6,2.1-3.4,3.6c-0.8,1.5-1.2,3-1.2,4.6v10.7h-8.7V33H246z"/>
	<path class="st1" d="M295.6,61c-2.5,0-4.8-0.5-6.9-1.5c-2.1-1-3.7-2.6-4.9-4.7c-1.2-2.1-1.8-4.8-1.8-8.1c0-3.1,0.6-5.7,1.9-8
		c1.2-2.2,2.9-4,4.9-5.2c2-1.2,4.2-1.8,6.5-1.8c2.7,0,4.8,0.4,6.2,1.3c1.4,0.9,2.6,1.9,3.5,3l-0.4,1.1l0.8-4h8.1v27.3h-8.7v-5.9
		l0.7,1.9c-0.1,0-0.3,0.2-0.8,0.7c-0.4,0.5-1,1-1.8,1.7c-0.8,0.6-1.8,1.2-3,1.7S297.2,61,295.6,61z M298.1,53.9c1,0,2-0.2,2.8-0.5
		c0.8-0.3,1.6-0.8,2.2-1.4c0.6-0.6,1.2-1.4,1.6-2.3v-6.7c-0.3-0.9-0.8-1.7-1.5-2.3c-0.7-0.6-1.5-1.1-2.4-1.5
		c-0.9-0.4-1.9-0.5-3.1-0.5c-1.2,0-2.4,0.3-3.5,1c-1.1,0.6-1.9,1.5-2.5,2.7c-0.6,1.1-0.9,2.4-0.9,3.9c0,1.5,0.3,2.8,1,3.9
		c0.7,1.2,1.6,2.1,2.7,2.7C295.6,53.6,296.8,53.9,298.1,53.9z"/>
</g>
</svg>
