<?xml version="1.0" encoding="utf-8"?>
<!-- Generator: Adobe Illustrator 25.2.1, SVG Export Plug-In . SVG Version: 6.00 Build 0)  -->
<svg version="1.1" id="Layer_1" xmlns="http://www.w3.org/2000/svg" xmlns:xlink="http://www.w3.org/1999/xlink" x="0px" y="0px"
	 viewBox="0 0 856 210" style="enable-background:new 0 0 856 210;" xml:space="preserve">
<style type="text/css">
	.st0{fill-rule:evenodd;clip-rule:evenodd;fill:#2BA297;}
	.st1{fill:#FFFFFF;}
</style>
<g>
	<g id="Selected_1_">
		<g>
			<g id="Frame-02_11_" transform="translate(-17.000000, -648.000000)">
				<g id="Group-2_11_" transform="translate(17.000000, 648.000000)">
					<rect id="Rectangle_11_" x="0.7" y="73.8" class="st0" width="762.7" height="62.8"/>
				</g>
			</g>
		</g>
	</g>
	<g>
		<path class="st1" d="M37.3,103.5c-0.6,0-1.2,0.1-1.7,0.4c-0.5,0.2-1,0.6-1.4,1s-0.7,0.9-0.9,1.4s-0.3,1-0.3,1.6
			c0,0.8,0.2,1.5,0.6,2.1c0.4,0.6,0.9,1.1,1.6,1.4c0.7,0.3,1.4,0.5,2.2,0.5s1.5-0.1,2.1-0.4c0.5-0.2,1-0.6,1.4-1s0.7-0.8,0.9-1.3
			l3.5,2.9c-0.7,1.3-1.7,2.4-3.1,3.3s-3.2,1.4-5.5,1.4c-1.7,0-3.3-0.4-4.7-1.1c-1.4-0.7-2.5-1.7-3.4-3c-0.8-1.3-1.3-2.8-1.3-4.4
			c0-1.3,0.3-2.4,0.9-3.5s1.3-2,2.3-2.8s2-1.4,3.2-1.9s2.4-0.7,3.6-0.7L37.3,103.5z M52.7,116.2c-0.4,0-0.9,0-1.6,0
			c-0.7,0-1.4,0-2.1,0c-0.7,0-1.6,0-2.7,0L34,99.7c-0.3-0.4-0.6-0.8-0.9-1.5c-0.4-0.6-0.7-1.3-1-2.1c-0.3-0.8-0.4-1.5-0.4-2.3
			c0-1,0.3-2,0.8-3c0.5-1,1.3-1.8,2.4-2.5c1.1-0.7,2.4-1,4.1-1c1.8,0,3.4,0.4,4.7,1.1c1.4,0.7,2.5,1.6,3.3,2.7l-2.8,3.7
			c-0.8-0.9-1.5-1.5-2.3-2c-0.7-0.5-1.4-0.8-2.1-0.8c-0.9,0-1.5,0.3-1.9,0.8s-0.6,1.1-0.6,1.7c0,0.4,0.1,0.7,0.3,1.2
			c0.2,0.4,0.4,0.8,0.6,1.1c0.2,0.3,0.3,0.6,0.4,0.7L52.7,116.2z M45.6,99.2h5L45.9,111l-4-2.3L45.6,99.2z"/>
		<path class="st1" d="M93,88.3v27.9h-5.5v-11.3H75v11.3h-5.5V88.3H75v11.3h12.5V88.3H93z"/>
		<path class="st1" d="M107.5,116.6c-2,0-3.7-0.4-5.1-1.1c-1.4-0.8-2.5-1.8-3.2-3.1c-0.7-1.3-1.1-2.9-1.1-4.6s0.4-3.2,1.3-4.5
			s2-2.4,3.4-3.2c1.4-0.8,3-1.2,4.8-1.2c2.4,0,4.3,0.7,5.9,2.1c1.5,1.4,2.5,3.4,3,6l-12.9,4.1l-1.2-2.9l9.3-3.1l-1.1,0.5
			c-0.2-0.7-0.6-1.2-1.1-1.7s-1.3-0.7-2.3-0.7c-0.8,0-1.5,0.2-2.1,0.5c-0.6,0.4-1,0.9-1.4,1.6c-0.3,0.7-0.5,1.5-0.5,2.4
			c0,1,0.2,1.9,0.6,2.6s0.9,1.2,1.6,1.6s1.4,0.5,2.2,0.5c0.6,0,1.1-0.1,1.7-0.3c0.5-0.2,1.1-0.5,1.6-0.8l2.3,3.9
			c-0.9,0.5-1.8,0.9-2.9,1.2S108.4,116.6,107.5,116.6z"/>
		<path class="st1" d="M125.1,99.6l0.5,4.5l-0.1-0.7c0.5-1,1.1-1.8,2-2.5c0.8-0.7,1.7-1.2,2.5-1.6s1.4-0.6,1.9-0.6l-0.3,5.3
			c-1.2-0.2-2.3,0.1-3.2,0.6c-0.9,0.6-1.6,1.3-2,2.2c-0.5,0.9-0.7,1.8-0.7,2.8v6.5h-5.3V99.6H125.1z"/>
		<path class="st1" d="M149.1,114.7c-0.7,0.6-1.6,1-2.7,1.4s-2.2,0.5-3.2,0.5c-1.9,0-3.5-0.3-4.9-1s-2.5-1.7-3.3-3s-1.2-2.9-1.2-4.7
			c0-1.8,0.4-3.4,1.3-4.7c0.8-1.3,1.9-2.3,3.3-3c1.4-0.7,2.8-1,4.3-1s2.8,0.2,3.9,0.6s2,0.9,2.8,1.6l-2.6,3.4
			c-0.4-0.3-0.8-0.6-1.5-0.9c-0.6-0.3-1.3-0.4-2.2-0.4c-0.7,0-1.4,0.2-2,0.6s-1.1,0.9-1.4,1.6c-0.4,0.7-0.5,1.4-0.5,2.3
			c0,0.8,0.2,1.6,0.6,2.2c0.4,0.7,0.9,1.2,1.6,1.6c0.7,0.4,1.5,0.6,2.4,0.6c0.6,0,1.1-0.1,1.6-0.2c0.5-0.2,0.9-0.4,1.3-0.7
			L149.1,114.7z"/>
		<path class="st1" d="M161.4,116.6c-2,0-3.7-0.4-5.1-1.1c-1.4-0.8-2.5-1.8-3.2-3.1c-0.7-1.3-1.1-2.9-1.1-4.6s0.4-3.2,1.3-4.5
			c0.9-1.3,2-2.4,3.4-3.2c1.4-0.8,3-1.2,4.8-1.2c2.4,0,4.3,0.7,5.9,2.1c1.5,1.4,2.5,3.4,3,6l-12.9,4.1l-1.2-2.9l9.3-3.1l-1.1,0.5
			c-0.2-0.7-0.6-1.2-1.1-1.7s-1.3-0.7-2.3-0.7c-0.8,0-1.5,0.2-2.1,0.5c-0.6,0.4-1,0.9-1.4,1.6c-0.3,0.7-0.5,1.5-0.5,2.4
			c0,1,0.2,1.9,0.6,2.6c0.4,0.7,0.9,1.2,1.6,1.6c0.7,0.4,1.4,0.5,2.2,0.5c0.6,0,1.1-0.1,1.7-0.3c0.5-0.2,1.1-0.5,1.6-0.8l2.3,3.9
			c-0.9,0.5-1.8,0.9-2.9,1.2S162.3,116.6,161.4,116.6z"/>
		<path class="st1" d="M184.6,116.6c-1,0-2-0.2-2.9-0.5c-0.9-0.4-1.7-0.9-2.4-1.6l0.2-1.6v11.2h-5.3V99.2h4.5l0.8,3.2l-0.4-1.1
			c0.9-0.7,1.8-1.3,2.9-1.8c1.1-0.5,2.3-0.7,3.7-0.7c1.5,0,2.9,0.4,4.1,1.1c1.2,0.7,2.2,1.8,2.9,3.1c0.7,1.4,1,3,1,4.9
			s-0.4,3.5-1.2,4.8s-1.9,2.3-3.2,3C187.9,116.3,186.3,116.6,184.6,116.6z M183.5,112.5c0.9,0,1.6-0.2,2.4-0.6
			c0.7-0.4,1.3-0.9,1.7-1.6s0.7-1.5,0.7-2.4s-0.2-1.7-0.6-2.4c-0.4-0.7-0.9-1.2-1.6-1.6c-0.7-0.4-1.4-0.6-2.2-0.6
			c-0.7,0-1.3,0.1-1.9,0.3c-0.5,0.2-1,0.5-1.4,0.8s-0.8,0.8-1.1,1.4v4.1c0.2,0.5,0.5,1,0.9,1.4s0.8,0.7,1.4,0.9
			C182.3,112.4,182.9,112.5,183.5,112.5z"/>
		<path class="st1" d="M199.4,92.3h5.3v7.2h4v4.1h-4v12.5h-5.3v-12.5h-2.6v-4.1h2.6V92.3z"/>
		<path class="st1" d="M212.7,93.7c0-0.8,0.3-1.4,0.9-1.9c0.6-0.5,1.3-0.8,2-0.8s1.4,0.3,2,0.8s0.9,1.1,0.9,1.9s-0.3,1.4-0.9,1.9
			c-0.6,0.5-1.2,0.7-2,0.7c-0.7,0-1.4-0.2-2-0.7C213,95.2,212.7,94.5,212.7,93.7z M212.8,99.6h5.3v16.6h-5.3V99.6z"/>
		<path class="st1" d="M228.3,99.6l0.4,3l-0.1-0.3c0.6-1,1.4-1.9,2.5-2.5s2.4-1,3.9-1c1.6,0,2.9,0.5,3.9,1.4s1.6,2.1,1.6,3.6v12.4
			h-5.3v-10.4c0-0.7-0.2-1.3-0.6-1.8c-0.4-0.4-1-0.7-1.8-0.7s-1.5,0.3-2.1,0.8s-1.1,1.3-1.4,2.2c-0.3,0.9-0.5,2-0.5,3.1v6.7h-5.3
			V99.6H228.3z"/>
		<path class="st1" d="M254,107.5c-1.8,0-3.4-0.4-4.9-1.3c-1.5-0.8-2.7-2-3.6-3.4c-0.9-1.4-1.3-3.1-1.3-4.9s0.4-3.5,1.3-4.9
			c0.9-1.4,2.1-2.6,3.6-3.4s3.1-1.3,4.9-1.3c1.8,0,3.4,0.4,4.9,1.3c1.5,0.8,2.7,2,3.5,3.4c0.9,1.4,1.3,3.1,1.3,4.9s-0.4,3.4-1.3,4.9
			c-0.9,1.4-2.1,2.6-3.5,3.4S255.8,107.5,254,107.5z M254,104.6c1.3,0,2.4-0.3,3.4-0.9s1.8-1.4,2.4-2.4s0.9-2.2,0.9-3.4
			c0-1.3-0.3-2.5-0.9-3.5s-1.4-1.8-2.4-2.4s-2.1-0.9-3.4-0.9c-1.3,0-2.4,0.3-3.4,0.9s-1.8,1.4-2.4,2.4c-0.6,1-0.9,2.2-0.9,3.5
			s0.3,2.4,0.9,3.4c0.6,1,1.4,1.8,2.4,2.4C251.6,104.3,252.8,104.6,254,104.6z M250.6,93.2h4c1.2,0,2.1,0.3,2.6,0.8
			c0.5,0.6,0.8,1.3,0.8,2.3c0,0.7-0.3,1.4-0.8,2.1s-1.3,1-2.4,1h-1.5v2.9h-2.8L250.6,93.2L250.6,93.2z M254.1,97.3
			c0.4,0,0.6-0.1,0.8-0.3c0.1-0.2,0.2-0.4,0.2-0.7c0-0.2-0.1-0.5-0.2-0.7c-0.1-0.2-0.4-0.4-0.8-0.4h-0.6v2L254.1,97.3L254.1,97.3z
			 M256.5,98.9l1.5,3.6h-3.3l-1.2-3.5L256.5,98.9z"/>
		<path class="st1" d="M280.9,97.7c0.6-2.2,1.4-4.3,2.4-6c1-1.8,2-3.2,3.1-4.3l4.4,2c-1,1.1-1.9,2.5-2.7,4c-0.8,1.5-1.4,3.3-1.9,5.2
			c-0.5,1.9-0.7,4.1-0.7,6.4s0.2,4.5,0.7,6.4s1.1,3.7,1.9,5.2s1.7,2.8,2.7,4l-4.4,2c-1.1-1.2-2.1-2.6-3.1-4.4s-1.8-3.8-2.4-6
			s-0.9-4.6-0.9-7.2C279.9,102.4,280.2,100,280.9,97.7z"/>
		<path class="st1" d="M296.8,92.3h5.3v7.2h4v4.1h-4v12.5h-5.3v-12.5h-2.6v-4.1h2.6V92.3z"/>
		<path class="st1" d="M315,99.6l0.5,4.5l-0.1-0.7c0.5-1,1.1-1.8,2-2.5s1.7-1.2,2.5-1.6s1.4-0.6,1.9-0.6l-0.3,5.3
			c-1.2-0.2-2.3,0.1-3.2,0.6c-0.9,0.6-1.6,1.3-2,2.2c-0.5,0.9-0.7,1.8-0.7,2.8v6.5h-5.3V99.6H315z"/>
		<path class="st1" d="M332.2,116.6c-1.5,0-2.9-0.3-4.2-0.9c-1.3-0.6-2.2-1.6-3-2.9c-0.7-1.3-1.1-2.9-1.1-4.9c0-1.9,0.4-3.5,1.1-4.9
			c0.8-1.4,1.8-2.4,3-3.2c1.2-0.7,2.6-1.1,3.9-1.1c1.6,0,2.9,0.3,3.7,0.8c0.8,0.5,1.5,1.1,2.1,1.8l-0.2,0.6l0.5-2.4h4.9v16.6h-5.3
			v-3.6l0.4,1.1c-0.1,0-0.2,0.1-0.5,0.4s-0.6,0.6-1.1,1s-1.1,0.7-1.8,1S333.1,116.6,332.2,116.6z M333.7,112.3
			c0.6,0,1.2-0.1,1.7-0.3c0.5-0.2,0.9-0.5,1.3-0.8s0.7-0.8,1-1.4v-4.1c-0.2-0.6-0.5-1-0.9-1.4s-0.9-0.7-1.4-0.9
			c-0.6-0.2-1.2-0.3-1.9-0.3c-0.8,0-1.5,0.2-2.1,0.6s-1.2,0.9-1.5,1.6c-0.4,0.7-0.6,1.5-0.6,2.4s0.2,1.7,0.6,2.4
			c0.4,0.7,0.9,1.3,1.6,1.7C332.2,112.1,332.9,112.3,333.7,112.3z"/>
		<path class="st1" d="M353.8,116.5c-1.4,0-2.6-0.2-3.8-0.7c-1.2-0.5-2.2-1.1-3-2l2.2-2.9c0.8,0.7,1.6,1.3,2.3,1.6
			c0.7,0.3,1.3,0.5,1.9,0.5c0.4,0,0.8,0,1.2-0.1c0.3-0.1,0.6-0.2,0.8-0.4c0.2-0.2,0.3-0.4,0.3-0.7c0-0.4-0.2-0.8-0.5-1
			c-0.3-0.3-0.8-0.5-1.3-0.6c-0.5-0.2-1.1-0.3-1.7-0.5c-1.5-0.5-2.6-1.2-3.3-2.1c-0.7-0.9-1-1.9-1-3c0-0.8,0.2-1.7,0.7-2.5
			c0.4-0.8,1.1-1.6,2.1-2.1c1-0.6,2.2-0.9,3.8-0.9c1.4,0,2.6,0.1,3.5,0.4c1,0.3,1.9,0.7,2.7,1.4l-2,3.1c-0.5-0.4-1-0.7-1.6-1
			s-1.1-0.4-1.6-0.4s-0.8,0-1.2,0.2c-0.3,0.1-0.6,0.3-0.7,0.5c-0.2,0.2-0.3,0.4-0.3,0.6c0,0.5,0.2,0.9,0.5,1.1
			c0.4,0.3,0.9,0.5,1.5,0.6c0.6,0.2,1.2,0.3,1.8,0.5c0.8,0.3,1.5,0.6,2.1,1s1,0.9,1.3,1.5s0.5,1.3,0.5,2.1c0,1-0.3,2-0.8,2.9
			s-1.3,1.6-2.4,2.2C356.8,116.2,355.5,116.5,353.8,116.5z"/>
		<path class="st1" d="M366.9,92.3h5.3v7.2h4v4.1h-4v12.5h-5.3v-12.5h-2.6v-4.1h2.6V92.3z"/>
		<path class="st1" d="M385.7,117c-1.5,0-2.7-0.5-3.8-1.4c-1-0.9-1.5-2.1-1.6-3.6V99.6h5.3V110c0.1,0.7,0.2,1.3,0.6,1.8
			c0.3,0.4,0.9,0.7,1.7,0.7c0.8,0,1.5-0.3,2-0.8c0.6-0.5,1-1.3,1.3-2.2s0.5-2,0.5-3.1v-6.7h5.3v16.6h-4.8l-0.4-3l0.1,0.3
			c-0.4,0.7-0.9,1.3-1.4,1.8c-0.6,0.5-1.3,0.9-2.1,1.2S386.7,117,385.7,117z"/>
		<path class="st1" d="M405,103.9c-0.9,0-1.7-0.3-2.4-1c-0.7-0.7-1-1.5-1-2.7V98h4v0.5c0,0.5,0.1,0.8,0.3,0.9c0.2,0.1,0.5,0.1,1,0.1
			h10.5l-9.2,13.3l-1-1.1h10v4.3h-16.8l9.4-13.8l0.8,1.5H405V103.9z"/>
		<path class="st1" d="M427.6,117c-1.5,0-2.7-0.5-3.8-1.4c-1-0.9-1.5-2.1-1.6-3.6V99.6h5.3V110c0.1,0.7,0.2,1.3,0.6,1.8
			c0.3,0.4,0.9,0.7,1.7,0.7c0.8,0,1.5-0.3,2-0.8c0.6-0.5,1-1.3,1.3-2.2s0.5-2,0.5-3.1v-6.7h5.3v16.6h-4.8l-0.4-3l0.1,0.3
			c-0.4,0.7-0.9,1.3-1.4,1.8c-0.6,0.5-1.3,0.9-2.1,1.2S428.6,117,427.6,117z"/>
		<path class="st1" d="M449.2,99.6l0.4,2.9l-0.1-0.2c0.7-1.1,1.5-2,2.5-2.6s2.2-0.9,3.6-0.9c0.9,0,1.7,0.1,2.4,0.4s1.3,0.6,1.8,1.1
			s0.8,1.1,1,1.9h-0.2c0.7-1,1.6-1.9,2.6-2.5s2-0.9,3.1-0.9c1.6,0,2.9,0.5,3.9,1.4s1.5,2.1,1.5,3.6v12.4h-5.3V106
			c0-0.7-0.1-1.3-0.3-1.8c-0.2-0.5-0.7-0.7-1.4-0.8c-0.9,0-1.6,0.3-2.2,0.9s-1,1.4-1.3,2.3s-0.4,1.9-0.4,2.9v6.8h-5.3V106
			c0-0.7-0.2-1.3-0.4-1.8c-0.2-0.5-0.7-0.7-1.5-0.8c-0.8,0-1.5,0.3-2.1,0.9s-1,1.3-1.3,2.3s-0.4,1.8-0.4,2.8v6.9h-5.3V99.6H449.2z"
			/>
		<path class="st1" d="M484.1,116.6c-1.5,0-2.9-0.3-4.2-0.9c-1.3-0.6-2.2-1.6-3-2.9s-1.1-2.9-1.1-4.9c0-1.9,0.4-3.5,1.1-4.9
			c0.8-1.4,1.8-2.4,3-3.2c1.2-0.7,2.6-1.1,3.9-1.1c1.6,0,2.9,0.3,3.7,0.8c0.8,0.5,1.5,1.1,2.1,1.8l-0.2,0.6l0.5-2.4h4.9v16.6h-5.3
			v-3.6l0.4,1.1c-0.1,0-0.2,0.1-0.5,0.4s-0.6,0.6-1.1,1s-1.1,0.7-1.8,1C485.9,116.5,485,116.6,484.1,116.6z M485.6,112.3
			c0.6,0,1.2-0.1,1.7-0.3c0.5-0.2,0.9-0.5,1.3-0.8s0.7-0.8,1-1.4v-4.1c-0.2-0.6-0.5-1-0.9-1.4s-0.9-0.7-1.4-0.9
			c-0.6-0.2-1.2-0.3-1.9-0.3c-0.8,0-1.5,0.2-2.1,0.6s-1.2,0.9-1.5,1.6c-0.4,0.7-0.6,1.5-0.6,2.4s0.2,1.7,0.6,2.4
			c0.4,0.7,0.9,1.3,1.6,1.7C484.1,112.1,484.8,112.3,485.6,112.3z"/>
		<path class="st1" d="M511.2,116.6c-1.4,0-2.6-0.2-3.5-0.7s-1.8-1.1-2.5-1.8l0.4-1.1v3.2h-5.3V86.3h5.3v16.2v-1.7
			c0.7-0.6,1.5-1,2.6-1.4s2.3-0.6,3.7-0.6s2.8,0.3,3.9,1s2.1,1.7,2.9,3c0.7,1.3,1.1,2.9,1.1,4.8s-0.4,3.5-1.2,4.9s-1.9,2.4-3.2,3.1
			C514.2,116.3,512.8,116.6,511.2,116.6z M510.1,112.2c0.8,0,1.5-0.2,2.2-0.6c0.7-0.4,1.2-1,1.6-1.7c0.4-0.7,0.6-1.5,0.6-2.4
			s-0.2-1.7-0.6-2.3s-0.9-1.2-1.6-1.6c-0.7-0.4-1.4-0.6-2.2-0.6c-0.7,0-1.3,0.1-1.9,0.3c-0.6,0.2-1.1,0.5-1.5,0.9s-0.7,0.9-1,1.4
			v4.1c0.3,0.6,0.7,1,1.1,1.4s0.9,0.6,1.5,0.8S509.4,112.2,510.1,112.2z"/>
		<path class="st1" d="M533,112.2c-0.6,2.2-1.4,4.3-2.4,6c-1,1.8-2,3.2-3.1,4.3l-4.4-2c1-1.1,1.9-2.5,2.7-4s1.4-3.3,1.9-5.2
			s0.7-4.1,0.7-6.4s-0.2-4.5-0.7-6.4s-1.1-3.7-1.9-5.2c-0.8-1.5-1.7-2.8-2.7-4l4.4-2c1.1,1.1,2.1,2.6,3.1,4.4s1.7,3.8,2.4,6
			c0.6,2.2,0.9,4.6,0.9,7.2S533.6,110,533,112.2z"/>
		<path class="st1" d="M551.7,93.7c0-0.8,0.3-1.4,0.9-1.9c0.6-0.5,1.3-0.8,2-0.8s1.4,0.3,2,0.8s0.9,1.1,0.9,1.9s-0.3,1.4-0.9,1.9
			c-0.6,0.5-1.2,0.7-2,0.7c-0.7,0-1.4-0.2-2-0.7C552,95.2,551.7,94.5,551.7,93.7z M551.8,99.6h5.3v16.6h-5.3V99.6z"/>
		<path class="st1" d="M567.4,99.6l0.4,3l-0.1-0.3c0.6-1,1.4-1.9,2.5-2.5s2.4-1,3.9-1c1.6,0,2.9,0.5,3.9,1.4s1.6,2.1,1.6,3.6v12.4
			h-5.3v-10.4c0-0.7-0.2-1.3-0.6-1.8c-0.4-0.4-1-0.7-1.8-0.7s-1.5,0.3-2.1,0.8s-1.1,1.3-1.4,2.2c-0.3,0.9-0.5,2-0.5,3.1v6.7h-5.3
			V99.6H567.4z"/>
		<path class="st1" d="M604.4,116.6c-1.5,0-2.9-0.3-4.2-0.9s-2.2-1.6-3-2.9s-1.1-2.9-1.1-4.9c0-1.9,0.4-3.5,1.1-4.9
			c0.8-1.4,1.8-2.4,3-3.2c1.2-0.7,2.6-1.1,3.9-1.1c1.6,0,2.9,0.3,3.7,0.8s1.5,1.1,2.1,1.8l-0.2,0.6l0.5-2.4h4.9v16.6h-5.3v-3.6
			l0.4,1.1c-0.1,0-0.2,0.1-0.5,0.4s-0.6,0.6-1.1,1s-1.1,0.7-1.8,1C606.2,116.5,605.3,116.6,604.4,116.6z M605.9,112.3
			c0.6,0,1.2-0.1,1.7-0.3c0.5-0.2,0.9-0.5,1.3-0.8s0.7-0.8,1-1.4v-4.1c-0.2-0.6-0.5-1-0.9-1.4s-0.9-0.7-1.4-0.9
			c-0.6-0.2-1.2-0.3-1.9-0.3c-0.8,0-1.5,0.2-2.1,0.6s-1.2,0.9-1.5,1.6c-0.4,0.7-0.6,1.5-0.6,2.4s0.2,1.7,0.6,2.4
			c0.4,0.7,0.9,1.3,1.6,1.7C604.4,112.1,605.1,112.3,605.9,112.3z"/>
		<path class="st1" d="M638.4,116.5c-1.4,0-2.6-0.2-3.8-0.7s-2.2-1.1-3-2l2.2-2.9c0.8,0.7,1.6,1.3,2.3,1.6c0.7,0.3,1.3,0.5,1.9,0.5
			c0.4,0,0.8,0,1.2-0.1c0.3-0.1,0.6-0.2,0.8-0.4s0.3-0.4,0.3-0.7c0-0.4-0.2-0.8-0.5-1c-0.3-0.3-0.8-0.5-1.3-0.6
			c-0.5-0.2-1.1-0.3-1.7-0.5c-1.5-0.5-2.6-1.2-3.3-2.1s-1-1.9-1-3c0-0.8,0.2-1.7,0.7-2.5c0.4-0.8,1.1-1.6,2.1-2.1s2.2-0.9,3.8-0.9
			c1.4,0,2.6,0.1,3.5,0.4c1,0.3,1.9,0.7,2.7,1.4l-2,3.1c-0.5-0.4-1-0.7-1.6-1s-1.1-0.4-1.6-0.4s-0.8,0-1.2,0.2
			c-0.3,0.1-0.6,0.3-0.7,0.5c-0.2,0.2-0.3,0.4-0.3,0.6c0,0.5,0.2,0.9,0.5,1.1c0.4,0.3,0.9,0.5,1.5,0.6c0.6,0.2,1.2,0.3,1.8,0.5
			c0.8,0.3,1.5,0.6,2.1,1s1,0.9,1.3,1.5s0.5,1.3,0.5,2.1c0,1-0.3,2-0.8,2.9s-1.3,1.6-2.3,2.2S640,116.5,638.4,116.5z"/>
		<path class="st1" d="M649.8,93.7c0-0.8,0.3-1.4,0.9-1.9c0.6-0.5,1.3-0.8,2-0.8s1.4,0.3,2,0.8s0.9,1.1,0.9,1.9s-0.3,1.4-0.9,1.9
			c-0.6,0.5-1.2,0.7-2,0.7c-0.7,0-1.4-0.2-2-0.7C650.1,95.2,649.8,94.5,649.8,93.7z M649.9,99.6h5.3v16.6h-5.3V99.6z"/>
		<path class="st1" d="M665.5,99.6l0.4,3l-0.1-0.3c0.6-1,1.4-1.9,2.5-2.5s2.4-1,3.9-1c1.6,0,2.9,0.5,3.9,1.4s1.6,2.1,1.6,3.6v12.4
			h-5.3v-10.4c0-0.7-0.2-1.3-0.6-1.8c-0.4-0.4-1-0.7-1.8-0.7s-1.5,0.3-2.1,0.8s-1.1,1.3-1.4,2.2c-0.3,0.9-0.5,2-0.5,3.1v6.7h-5.3
			V99.6H665.5z"/>
		<path class="st1" d="M691.8,124.5c-1.5,0-2.7-0.2-3.8-0.5c-1-0.4-1.9-0.8-2.6-1.3c-0.7-0.5-1.3-1-1.9-1.4l3.1-3.6
			c0.6,0.5,1.3,1,2,1.5c0.8,0.5,1.8,0.7,3.1,0.7c0.8,0,1.6-0.1,2.3-0.4s1.3-0.7,1.7-1.3c0.4-0.6,0.7-1.3,0.7-2.1v-3.6l0.2,0.9
			c-0.4,0.9-1.1,1.6-2.2,2.3c-1.1,0.6-2.5,1-4.2,1c-1.5,0-2.9-0.4-4.2-1.2c-1.3-0.8-2.3-1.8-3.1-3.1c-0.8-1.3-1.1-2.8-1.1-4.5
			s0.4-3.3,1.2-4.6c0.8-1.4,1.9-2.4,3.1-3.2c1.3-0.8,2.7-1.2,4.1-1.2s2.7,0.2,3.7,0.6s1.8,0.9,2.4,1.5l-0.2,0.5l0.6-1.8h4.9v16.6
			c0,1.6-0.5,3.1-1.4,4.3c-0.9,1.3-2.1,2.2-3.6,3C695.2,124.2,693.6,124.5,691.8,124.5z M687.3,107.7c0,0.9,0.2,1.7,0.6,2.4
			c0.4,0.7,1,1.3,1.6,1.7c0.7,0.4,1.5,0.6,2.3,0.6c0.7,0,1.4-0.1,2-0.3s1.1-0.5,1.5-0.8c0.4-0.4,0.8-0.8,1.1-1.4v-4.1
			c-0.2-0.6-0.6-1-1-1.4c-0.5-0.4-1-0.7-1.6-0.9c-0.6-0.2-1.3-0.3-2-0.3c-0.9,0-1.6,0.2-2.3,0.6s-1.2,0.9-1.6,1.6
			C687.5,106,687.3,106.8,687.3,107.7z"/>
		<path class="st1" d="M707.2,86.3h5.3v29.9h-5.3V86.3z"/>
		<path class="st1" d="M726.1,116.6c-2,0-3.7-0.4-5.1-1.1c-1.4-0.8-2.5-1.8-3.2-3.1c-0.7-1.3-1.1-2.9-1.1-4.6s0.4-3.2,1.3-4.5
			c0.9-1.3,2-2.4,3.4-3.2s3-1.2,4.8-1.2c2.4,0,4.3,0.7,5.9,2.1c1.5,1.4,2.5,3.4,3,6l-12.9,4.1l-1.2-2.9l9.3-3.1l-1.1,0.5
			c-0.2-0.7-0.6-1.2-1.1-1.7s-1.3-0.7-2.3-0.7c-0.8,0-1.5,0.2-2.1,0.5c-0.6,0.4-1,0.9-1.4,1.6c-0.3,0.7-0.5,1.5-0.5,2.4
			c0,1,0.2,1.9,0.6,2.6c0.4,0.7,0.9,1.2,1.6,1.6c0.7,0.4,1.4,0.5,2.2,0.5c0.6,0,1.1-0.1,1.7-0.3c0.5-0.2,1.1-0.5,1.6-0.8l2.3,3.9
			c-0.9,0.5-1.8,0.9-2.9,1.2S727,116.6,726.1,116.6z"/>
	</g>
</g>
</svg>
