<svg id="layer" xmlns="http://www.w3.org/2000/svg" viewBox="0 0 600 156">
  <title>genentechLogo</title>
  <g>
    <path d="M59.8,30.7v-8S61.5,10.4,41,10.4c-21,0-19.8,12.3-19.8,12.3V63S20,74.5,41,74.5c17.9,0,18.8-5.2,18.8-5.2V51.4H41V40.6H81V69.3s-8,16-40,16C3.3,85.3,0,62.9,0,62.9V22.6S1.9,0,41,0C83.2,0,81,22.6,81,22.6v8H59.8ZM463.1,41.6s1.4-16.1-31.1-16.1c-32.3,0-31,16-31,16V69.4s-1.4,16,31,16,31.1-16,31.1-16V64.9H446v4.5s0,6.9-14,6.9-13.9-6.9-13.9-6.9,0-10.1,0-10.1h45Zm-31-6.9c14.1,0,14.1,7.1,14.1,7.1V48H418.3V41.8c-.1,0-.1-7.1,13.8-7.1m99.1,14.4V41.6s1.4-16.1-31.1-16.1c-32.3,0-31,16-31,16V69.4s-1.4,16,31,16,31.1-16,31.1-16V62.5H514.1v7s0,6.9-14,6.9-13.9-6.9-13.9-6.9,0-27.5,0-27.5.2-7.1,14.6-7.1c13.5,0,13.3,6.9,13.3,6.9v7.3ZM356.5,36.7h5.4V70.1c0,14.8,20.2,16.4,34.9,14.4.1,0,0-8.3,0-8.3-17,2.4-17.9-6.1-17.9-6.1V36.7h18.7V27.5H378.9V14.4H361.8V27.5h-5.3Zm-71.7,4.9s1.4-16.1-31.1-16.1c-32.2,0-31,16-31,16V69.4s-1.4,16,31,16,31.1-16,31.1-16V64.9H267.7v4.5s0,6.9-14.1,6.9c-13.9,0-13.8-6.9-13.9-6.9s0-10.1,0-10.1h45V41.6Zm-31.1-6.9c14.1,0,14.1,7.1,14.1,7.1V48H239.9V41.8c-.1,0-.1-7.1,13.8-7.1M149.2,41.6s1.4-16.1-31.1-16.1c-32.3,0-31,16-31,16V69.4s-1.4,16,31,16,31.1-16,31.1-16V64.9H132.1v4.5s0,6.9-14,6.9-13.9-6.9-13.9-6.9,0-10.1,0-10.1h45Zm-31.1-6.9c14.1,0,14.1,7.1,14.1,7.1V48H104.3V41.8c-.1,0-.1-7.1,13.8-7.1M537.9,82.9H555V40.8s0-7,13.9-7,14,6.9,14,6.9V82.9H600v-44s-.7-14.4-31.1-14.4A67,67,0,0,0,555,25.8c-.1,0,0-25.1,0-25s-17.1,0-17.1,0Zm-352-58.4c-10.4,0-17.3,1.7-21.9,3.9l-9.1.1V82.9H172V40.8s0-7,13.9-7,14,6.9,14,6.9V82.9H217v-44s-.7-14.4-31.1-14.4m135.6,0c-10.4,0-17.3,1.7-21.9,3.9l-9.1.1V82.9h17.1V40.8s0-7,13.9-7,14,6.9,14,6.9V82.9h17.1v-44s-.7-14.4-31.1-14.4" style="fill: #005696"/>
    <path d="M26.2,112.8l1.5,8.6c1,5.8,1.9,11.6,2.9,17.3.6,3.8,1.3,4,4.2,4.4l-.2,1.3H22.3l.3-1.3,1.6-.2c1.6-.2,1.9-.7,1.6-2.6l-1.2-6.8h-9c-.8,1.3-2.1,4.1-3.2,6.2-1.2,2.5-1.1,3,.7,3.2l1.6.2-.3,1.3H3.9l.3-1.3c2.8-.3,3.6-.7,6-4.9l14.1-24.8Zm-9.5,18.5h7.7l-1.9-10.9h-.1Zm48.4-17.9,6.1,23,14.2-23h8.9l-.3,1.3c-3.8.3-4.2.6-5,5.8l-2.6,16.8c-.8,5.2-.7,5.5,3.2,5.8l-.3,1.3H76.2l.2-1.3c3.6-.3,4-.6,4.9-5.8l3.2-18.4h-.2l-15.2,25H67.7l-5.8-24.2h-.1L59,132c-1,4.5-1.4,7.2-1.6,8.6-.2,1.7.8,2.2,3.9,2.4l-.2,1.3H49.7l.2-1.4c2.4-.1,3.6-.7,4.3-2.4a92.21,92.21,0,0,0,2.5-8.9l2.6-10.5c1.4-5.7,1-6.2-3.1-6.6l.3-1.3h8.6Zm44.7,26.1c-4.7,4.8-8.9,5.5-10.9,5.5-2.2,0-5.5-1.4-5.5-7,0-4.4,2.2-9.4,5.6-11.9,2.1-1.5,4.9-3,7.6-3,3,0,4.6,1.7,4.6,3.8,0,4.4-8.2,7.4-12.7,8.8,0,.3-.1.7-.1,1,0,2.2.7,5.1,3.5,5.1,1.9,0,4.3-1,7.1-3.4ZM103,125.8c-1.3.8-3.4,3-4.2,8.4,5.7-2,7.8-4,7.8-6.7a2,2,0,0,0-2-2.2,2.77,2.77,0,0,0-1.6.5m11.1,2.2c2.8-2.6,6.2-4.9,7.9-4.9,1.5,0,1.5,1.7,1,4.4l-.8,3.5h.1a26,26,0,0,1,8.5-7.1,5.65,5.65,0,0,1,2.6-.7c.9,0,2.6.6,1.5,5.4l-.6,2.4h.1a26.71,26.71,0,0,1,8.5-7.1,5.6,5.6,0,0,1,2.5-.7c1,0,2.9.6,1.7,6-.6,2.5-1.7,6.5-2.5,10.4-.3,1.2-.4,1.7,0,1.7a12.11,12.11,0,0,0,3.4-2l.6,1.2c-2.7,2.5-6.8,4.5-7.7,4.5-1.4,0-2-1.1-1.3-4l2.7-11.2c.5-2,.7-3.2-.5-3.2-1.7,0-6.4,4.7-8.2,8a80.92,80.92,0,0,0-1.9,9l-5.1,1.3c.6-2.6,1.2-5.2,1.8-7.9l1.8-7.9c.3-1.3.4-2.6-.6-2.6-1.7,0-6.4,4.7-8.3,8a74.51,74.51,0,0,0-1.8,9l-5.2,1.3c.7-2.6,1.3-5.2,1.9-7.8l1.7-7.8c.4-1.7.5-2.4.1-2.4a8.89,8.89,0,0,0-3.4,2.2Zm40.1-15.4c3.9-.8,8.2-2,8.6-2,.6,0,.7.8.3,2.2l-3.7,16.6h.1c4.1-4.3,8.1-6.3,10.2-6.3,1.9,0,3.2,1.6,3.2,4.4,0,5.7-3,12-7.1,14.9a13.44,13.44,0,0,1-7.5,2.6c-2.5,0-4.6-.9-5.2-2.7-.3-1-.2-2,.4-5l4.4-21.5c.4-1.9.3-2.1-1.3-2.1h-2.2v-1.1Zm6.4,17.9c-1.8,2.1-2,2.8-2.6,6.9-.7,4.3.4,5.4,2.3,5.4a4.5,4.5,0,0,0,2.4-.6c2.3-1.3,5.2-7.4,5.2-12.7,0-2.4-.6-3.2-1.6-3.2-1.4.1-4,2.2-5.7,4.2m32.1,9c-4.7,4.8-8.9,5.5-10.9,5.5-2.2,0-5.5-1.4-5.5-7,0-4.4,2.2-9.4,5.6-11.9,2.1-1.5,4.9-3,7.6-3,3,0,4.6,1.7,4.6,3.8,0,4.4-8.2,7.4-12.7,8.8,0,.3-.1.7-.1,1,0,2.2.7,5.1,3.5,5.1,1.9,0,4.3-1,7.1-3.4Zm-6.9-13.7c-1.3.8-3.4,3-4.2,8.4,5.7-2,7.8-4,7.8-6.7a2,2,0,0,0-2-2.2,3.32,3.32,0,0,0-1.6.5m10.8,2.2c2.8-2.6,6.1-4.9,7.7-4.9,1.2,0,1.3,1.7.9,3.4l-.9,3.6h.1c2.3-4.1,5-7,6.4-7a3.17,3.17,0,0,1,2.6,1.3,2.44,2.44,0,0,1-.1,2.2,5.84,5.84,0,0,1-1.4,1.6c-.5.3-1,.4-1.4,0a2.63,2.63,0,0,0-1.5-.6c-.5,0-1.2.2-2.2,1.6a17,17,0,0,0-2.6,5,77.78,77.78,0,0,0-1.7,9.4h0l-5.1,1.4c.6-2.6,1.2-5.1,1.7-7.7l1.6-7.7c.4-2,.4-2.6.1-2.6a11.47,11.47,0,0,0-3.4,2.2Zm46.7,2a16,16,0,0,1-5.1,11.7,12.49,12.49,0,0,1-7.7,3.2c-5.1,0-6.7-4-6.7-7.4a14.24,14.24,0,0,1,6.8-12.6,13.07,13.07,0,0,1,6-1.8c4.3,0,6.7,3,6.7,6.9m-9.7-4.5c-1.5.6-4.6,4.3-4.6,11.5,0,3.7,1.2,6,3.4,6a3.09,3.09,0,0,0,1.1-.2c1.8-.6,4.7-6,4.6-12.3,0-3.5-1.2-5.3-3.2-5.3a3.08,3.08,0,0,0-1.3.3m28.1-1.2-1.1,1.5-4.8.5c-.7,4.2-1.1,7.1-1.8,10.5-1.8,9.3-4.1,13.9-6.1,16.1-2.2,2.4-4.5,3.1-5.5,3.1s-2.1-.4-2.1-1.5a3.4,3.4,0,0,1,.9-2.1,1.2,1.2,0,0,1,1.4-.3,7.39,7.39,0,0,0,2.2.8,1.73,1.73,0,0,0,1.2-.6c.7-.7,1.6-3.9,2.8-12.3.9-5.9,1.4-9.6,2-13.8H247l-.1-.5,1.4-1.5h2.9c.7-4,1.9-7.3,4-9.7,2-2.2,5-4.1,8-4.1,1.8,0,3.1,1,3.1,2.1a3.37,3.37,0,0,1-1.2,2.2,1.24,1.24,0,0,1-1.7,0,5.05,5.05,0,0,0-3.5-1.7c-1.3,0-2.4,2-3.8,11.2h5.6Zm24.6-6.4-1.6,6.4h5.9l-1.5,1.7-4.8.2-2.7,12.5c-.4,1.8-.2,2.6.3,2.6.8,0,3.1-1.9,4.3-3l.1.1.7.9c-1.5,1.9-6.1,5.7-8.5,5.7-1.5,0-2.5-1.7-1.6-6.1l2.7-12.6H276l-.4-.6,1.4-1.3h3l.9-3.5,4.8-3.3Zm4.1,27.1,1.5-7.2,4.4-22c.4-1.9.3-2.1-1.3-2.1h-2.3v-1.1c3.9-.8,8.3-2,8.7-2,.6,0,.7.8.4,2.2l-3.8,18h.1a28.7,28.7,0,0,1,8.5-6.9,6,6,0,0,1,2.6-.7c1.1,0,2.8.6,1.9,5-.8,3.5-1.7,7.5-2.5,11.5-.3,1.2-.4,1.7,0,1.7a10.74,10.74,0,0,0,3.3-2l.6,1.2c-2.6,2.5-6.7,4.5-7.8,4.5-1.3,0-1.9-1.1-1.2-4l2.6-11.2c.5-2,.6-3.2-.5-3.2-1.8,0-6.3,4.5-8.2,7.8-.3,1.4-1.5,6.6-1.8,9.3Zm41.8-5.5c-4.7,4.8-8.9,5.5-10.9,5.5-2.2,0-5.5-1.4-5.5-7,0-4.4,2.1-9.4,5.6-11.9,2-1.5,4.9-3,7.6-3,3,0,4.6,1.7,4.6,3.8,0,4.4-8.1,7.4-12.7,8.8,0,.3-.1.7-.1,1,0,2.2.7,5.1,3.5,5.1,1.9,0,4.4-1,7.1-3.4Zm-6.8-13.7c-1.4.8-3.4,3-4.2,8.4,5.7-2,7.8-4,7.8-6.7a2,2,0,0,0-2-2.2,3,3,0,0,0-1.6.5m38.5-12.4c5.1,0,10.3,1.3,10.3,7.6,0,4.4-3.8,7.4-8.1,8.6.5,1.2,1.8,4.4,2.9,6.5a32.15,32.15,0,0,0,3.1,5.3,4.85,4.85,0,0,0,3.3,2.3l-.3,1.1h-1.5c-5.2-.1-6.5-1.7-8-4.5a81.49,81.49,0,0,1-3.4-7.6c-.6-1.4-1-1.8-2.4-1.8h-1.9l-1.2,6.4c-1,5.2-.7,5.5,3.1,5.8l-.2,1.3H346.4l.3-1.3c3.7-.3,4.1-.6,5.1-5.8l3.2-16.8c1-5.2.7-5.5-3-5.8l.2-1.3Zm-5.8,15.9H360a8.09,8.09,0,0,0,4.8-1.3,8.63,8.63,0,0,0,4.1-7.4c0-3.6-2.1-5.4-5.4-5.4a8.21,8.21,0,0,0-2.2.2c-.4.1-.5.6-.7,1.4Zm39.9.7a16,16,0,0,1-5.1,11.7,12.73,12.73,0,0,1-7.7,3.2c-5.1,0-6.7-4-6.7-7.4a14.24,14.24,0,0,1,6.8-12.6,13.07,13.07,0,0,1,6-1.8c4.2,0,6.7,3,6.7,6.9m-9.8-4.5c-1.5.6-4.6,4.3-4.6,11.5,0,3.7,1.2,6,3.4,6a3.09,3.09,0,0,0,1.1-.2c1.8-.6,4.7-6,4.6-12.3,0-3.5-1.2-5.3-3.2-5.3a3.45,3.45,0,0,0-1.3.3M416.6,140c-3.2,3.3-7.4,5-9.7,5-3.6,0-5.6-2.5-5.6-6.8a16.21,16.21,0,0,1,5.1-11.6,13.22,13.22,0,0,1,8.2-3.4c2.1,0,4,1.2,4,2.5a3.07,3.07,0,0,1-1.3,2.1,1.43,1.43,0,0,1-2.1,0c-1.2-1.6-2.3-2.2-3.3-2.2s-2.1.8-3.2,2.6a19.84,19.84,0,0,0-2.2,8.9c0,3,1,4.8,3.1,4.8,2.7,0,5.1-2,6.3-2.9Zm3.3,5,1.5-7.2,4.4-22c.4-1.9.3-2.1-1.3-2.1h-2.3v-1.1c3.9-.8,8.3-2,8.7-2,.6,0,.7.8.4,2.2l-3.8,18h.1a28.7,28.7,0,0,1,8.5-6.9,6,6,0,0,1,2.6-.7c1.1,0,2.8.6,1.8,5-.8,3.5-1.7,7.5-2.5,11.5-.3,1.2-.4,1.7,0,1.7a10.74,10.74,0,0,0,3.3-2l.6,1.2c-2.6,2.5-6.7,4.5-7.8,4.5-1.3,0-1.9-1.1-1.2-4l2.6-11.2c.5-2,.6-3.2-.5-3.2-1.8,0-6.3,4.5-8.2,7.8-.3,1.4-1.5,6.6-1.8,9.3Zm41.8-5.5c-4.7,4.8-8.9,5.5-10.9,5.5-2.2,0-5.5-1.4-5.5-7,0-4.4,2.2-9.4,5.6-11.9,2.1-1.5,4.9-3,7.6-3,3,0,4.6,1.7,4.6,3.8,0,4.4-8.2,7.4-12.7,8.8,0,.3-.1.7-.1,1,0,2.2.7,5.1,3.5,5.1,1.8,0,4.3-1,7.1-3.4Zm-6.8-13.7c-1.3.8-3.4,3-4.2,8.4,5.7-2,7.8-4,7.8-6.7a2,2,0,0,0-2-2.2,3,3,0,0,0-1.6.5m50.8-4.1c-.2-5.9-3.7-7.1-7.6-7.1-8.5,0-13.9,7.8-13.9,16.7,0,7.1,3.2,11.9,9.8,11.9,2,0,4.1-.5,4.5-2.7l1-5.1c.6-3.3.4-3.4-4.7-3.7l.2-1.5h13.2l-.2,1.5c-2.4.2-2.8.3-3.4,3.7l-.9,4.4a22.39,22.39,0,0,0-.3,3.4c-3,.8-6.5,1.9-10.3,1.9-8.6,0-14.6-4.8-14.6-13.7,0-11.2,9.4-18.8,20.9-18.8a33.09,33.09,0,0,1,8.5,1.2c-.1,1.6-.4,4.1-.6,7.6Zm4.2,6.3c2.8-2.6,6.1-4.9,7.7-4.9,1.2,0,1.3,1.7.9,3.4l-.8,3.6h.1c2.3-4.1,5-7,6.4-7a3,3,0,0,1,2.6,1.3,2.44,2.44,0,0,1-.1,2.2,5.84,5.84,0,0,1-1.4,1.6c-.5.3-1,.4-1.4,0a2.63,2.63,0,0,0-1.5-.6c-.5,0-1.2.2-2.2,1.6a17,17,0,0,0-2.6,5,77.78,77.78,0,0,0-1.7,9.4h0l-5.1,1.4c.6-2.6,1.1-5.1,1.7-7.7l1.6-7.7c.4-2,.4-2.6.1-2.6a11.47,11.47,0,0,0-3.4,2.2Zm37.1,2a16,16,0,0,1-5.1,11.7,12.73,12.73,0,0,1-7.7,3.2c-5.1,0-6.7-4-6.7-7.4a14.24,14.24,0,0,1,6.8-12.6,13.07,13.07,0,0,1,6-1.8c4.2,0,6.7,3,6.7,6.9m-9.8-4.5c-1.5.6-4.6,4.3-4.6,11.5,0,3.7,1.2,6,3.4,6a3.09,3.09,0,0,0,1.1-.2c1.8-.6,4.7-6,4.6-12.3,0-3.5-1.2-5.3-3.2-5.3a3.92,3.92,0,0,0-1.3.3m13.5,2.5c2.8-2.6,6.4-4.9,8.2-4.9,1.1,0,1.6,1.2,1.1,3.6l-2.5,11c-.4,2.3-.5,3.7.5,3.7s2.5-1.5,4.2-3.4a28.7,28.7,0,0,0,4.2-6c.3-1,1.2-5,1.6-7.6l4.4-1.3h.6c-1.2,5.5-2.4,11-3.5,16.5-.2,1.2-.3,1.7,0,1.7a10.74,10.74,0,0,0,3.3-2l.7,1.2c-2.6,2.5-6.8,4.5-7.6,4.5-1.5,0-1.9-1.5-1.3-4.1l1.1-4.8h-.2a25.63,25.63,0,0,1-7.5,7.6,7.34,7.34,0,0,1-3.6,1.2c-1,0-3-.7-1.8-6.1l2.1-9.6c.4-1.7.5-2.3.1-2.3a10.67,10.67,0,0,0-3.4,2.2Zm35.7-4.2a16.77,16.77,0,0,1,4.1-.7c5.4,0,7.6,2.5,7.6,6.5a15.85,15.85,0,0,1-4.3,10,17.31,17.31,0,0,1-9.2,5.4,7.66,7.66,0,0,1-2.5-.4l-1.2,6.3c-.4,2.3-.3,2.8,1.3,3l2.4.2v1.2l-12.5.6v-1.3c3.1-.5,3.5-.9,4-3.1l5-24.6a29.07,29.07,0,0,0-3.9,1.2l-.3-1.4a42.12,42.12,0,0,1,4.7-1.9l.5-2a18.57,18.57,0,0,1,4.6-3.1l.5.3Zm-3.6,17.8a3.08,3.08,0,0,0,2.6,1.2c3.1,0,7.3-6,7.3-12.2,0-3.9-2.3-5-4.4-5a10.68,10.68,0,0,0-2.5.3Z" style="fill: #717271"/>
  </g>
</svg>
