<?xml version="1.0" encoding="utf-8"?>
<!-- Generator: Adobe Illustrator 25.1.0, SVG Export Plug-In . SVG Version: 6.00 Build 0)  -->
<svg version="1.1" id="Layer_1" xmlns="http://www.w3.org/2000/svg" xmlns:xlink="http://www.w3.org/1999/xlink" x="0px" y="0px"
	 viewBox="0 0 384 131" style="enable-background:new 0 0 384 131;" xml:space="preserve">
<style type="text/css">
	.st0{fill-rule:evenodd;clip-rule:evenodd;fill:#0A0B09;}
	.st1{fill-rule:evenodd;clip-rule:evenodd;fill:#FCEB24;}
	.st2{fill-rule:evenodd;clip-rule:evenodd;fill:#D6752D;}
	.st3{fill-rule:evenodd;clip-rule:evenodd;fill:#2B9D95;}
	.st4{fill-rule:evenodd;clip-rule:evenodd;fill:#254827;}
	.st5{fill-rule:evenodd;clip-rule:evenodd;fill:#BEBD34;}
	.st6{fill-rule:evenodd;clip-rule:evenodd;fill:#F2CA24;}
	.st7{fill-rule:evenodd;clip-rule:evenodd;fill:#A35C2E;}
	.st8{fill-rule:evenodd;clip-rule:evenodd;fill:#23783D;}
	.st9{fill-rule:evenodd;clip-rule:evenodd;fill:#EDE121;}
	.st10{fill-rule:evenodd;clip-rule:evenodd;fill:#D6D5D0;}
	.st11{fill-rule:evenodd;clip-rule:evenodd;fill:#B3652F;}
	.st12{fill-rule:evenodd;clip-rule:evenodd;fill:#3E402B;}
	.st13{fill-rule:evenodd;clip-rule:evenodd;fill:#9D592E;}
	.st14{fill-rule:evenodd;clip-rule:evenodd;fill:#862F25;}
	.st15{fill-rule:evenodd;clip-rule:evenodd;fill:#704124;}
	.st16{fill-rule:evenodd;clip-rule:evenodd;fill:#203620;}
	.st17{fill-rule:evenodd;clip-rule:evenodd;fill:#101410;}
	.st18{fill-rule:evenodd;clip-rule:evenodd;fill:#B4692F;}
	.st19{fill-rule:evenodd;clip-rule:evenodd;fill:#B9B9B4;}
	.st20{fill-rule:evenodd;clip-rule:evenodd;fill:#1A271A;}
	.st21{fill-rule:evenodd;clip-rule:evenodd;fill:#172117;}
	.st22{fill-rule:evenodd;clip-rule:evenodd;fill:#161E15;}
	.st23{fill-rule:evenodd;clip-rule:evenodd;fill:#151812;}
	.st24{fill-rule:evenodd;clip-rule:evenodd;fill:#131B14;}
	.st25{fill:#0A0B09;}
	.st26{fill:#231F20;}
</style>
<g>
	<g>
		<path class="st0" d="M4.6,46.9h12.5c5.4,0,9.6-4,9.6-9s-4.1-9-9.2-9H4.6V46.9z M4.6,49.8v12.9c0,1-0.7,1.8-1.8,1.8
			c-1,0-1.8-0.8-1.8-1.8V27.6c0-1,0.8-1.8,1.8-1.8h15.4c6.6,0,12,5.2,12,12c0,6.5-5.1,12-12.4,12L4.6,49.8z"/>
		<path class="st0" d="M68.7,25.4c1,0,1.9,0.8,1.9,1.9v35.5c0,1-0.8,1.9-1.9,1.9s-1.9-0.8-1.9-1.9V46.4H41.7v16.4
			c0,1-0.8,1.9-1.9,1.9c-1,0-1.9-0.8-1.9-1.9V27.2c0-1,0.8-1.9,1.9-1.9c1,0,1.9,0.8,1.9,1.9v16h25.1v-16
			C66.8,26.2,67.6,25.4,68.7,25.4"/>
		<path class="st0" d="M105.2,61c0.9,0,1.6,0.7,1.6,1.6c0,0.9-0.7,1.6-1.6,1.6H81.7c-1,0-1.5-0.5-1.5-1.5V27.4c0-1,0.5-1.5,1.5-1.5
			h22.9c0.9,0,1.6,0.7,1.6,1.6s-0.7,1.6-1.6,1.6H83.9v14.3h20.3c0.8,0,1.5,0.7,1.5,1.5s-0.7,1.5-1.5,1.5H83.9V61H105.2z"/>
		<path class="st0" d="M114.4,57.5c-0.4-0.7-0.7-1.4-0.7-2.2c0-0.9,0.6-1.6,1.6-1.6c0.6,0,1.1,0.2,1.5,1.2c1.3,4,5.5,6.7,11,6.7
			c5,0,9.7-1.7,9.7-6.9c0-5.6-5.5-6.9-10.8-8.4c-6.6-1.8-12.5-4.2-12.5-11.1c0-6.6,5.5-10,13.3-10c4.1,0,9.8,1.1,12.2,7
			c0.3,0.6,0.4,1.2,0.4,1.9c0,1-0.5,1.7-1.6,1.7c-0.6,0-1.2-0.2-1.5-1c-1.1-3.6-4.2-6.5-9.8-6.5c-4.8,0-9.4,1.9-9.4,6.8
			c0,5,4.9,6.6,10,7.9c6.9,1.9,13.4,3.8,13.3,11.5c-0.1,7.3-5.8,10.3-13.4,10.3C123,64.8,117.3,63.3,114.4,57.5"/>
		<path class="st0" d="M148.1,45c0-10.8,9-19.8,20.2-19.8c7,0,13.1,3.5,16.3,8.8c0.3,0.4,0.6,0.8,0.6,1.3c0,0.9-0.8,1.8-1.7,1.8
			c-0.6,0-1-0.2-1.2-0.5c-2.6-4.8-7.9-8.1-14.1-8.1c-9.1,0-16.5,7.4-16.5,16.5s7.4,16.5,16.6,16.5c9,0,15.6-6.2,16.3-14.1h-15.9
			c-0.8,0-1.5-0.7-1.5-1.5s0.7-1.5,1.5-1.5h18.1c1,0,1.5,0.5,1.5,1.3c-0.2,10.5-8.8,19.1-20.2,19.1C157.1,64.8,148.1,55.9,148.1,45"
			/>
		<path class="st0" d="M231.2,45c0-9.1-7.4-16.4-16.4-16.4c-9.1,0-16.4,7.4-16.4,16.4c0,9.1,7.4,16.4,16.4,16.4S231.2,54.1,231.2,45
			z M194.6,45c0-10.9,9-19.8,20.1-19.8s20.1,8.9,20.1,19.8s-9,19.8-20.1,19.8S194.6,55.9,194.6,45z"/>
		<path class="st1" d="M321,0.1l5.3,15.2l34.3,9.6L321,0.1z"/>
		<path class="st2" d="M326.3,15.3l-0.7-0.2L326.3,15.3z"/>
		<path class="st2" d="M322.7,14.3l-23.5-6.6l15.1,15.4l12.8,0.3L322.7,14.3z"/>
		<path class="st1" d="M360.6,25l-34.3-9.6L360.6,25z"/>
		<path class="st2" d="M360.6,25l-34.3-9.6L360.6,25z"/>
		<path class="st3" d="M253.8,24.7L337,46.2l-21-21.4L253.8,24.7z"/>
		<path class="st4" d="M337,46.2L316.1,25l12.4-0.1L337,46.2z"/>
		<path class="st1" d="M329.6,24.9l7.4,21.4L360.6,25L329.6,24.9z"/>
		<path class="st5" d="M337,46.2l-7.4-21.4l31,0.1L337,46.2z"/>
		<path class="st1" d="M329.1,23.5l0.1,0.4l0.3,1l31,0.1l-34.3-9.6L329.1,23.5z"/>
		<path class="st6" d="M360.6,25l-31-0.1l-3.3-9.5L360.6,25z"/>
		<path class="st1" d="M329.6,24.9l31,0.1L329.6,24.9z"/>
		<path class="st7" d="M360.6,25l-31-0.1L360.6,25z"/>
		<path class="st8" d="M360.6,25l-31-0.1L360.6,25z"/>
		<path class="st9" d="M360.6,25l-31-0.1L360.6,25z"/>
		<path class="st10" d="M325.6,15.1l-2.8-0.8L325.6,15.1z"/>
		<path class="st11" d="M329.1,23.5h-1.9l-4.4-9.1l2.8,0.8l0.7,0.2L329.1,23.5z"/>
		<path class="st12" d="M328.6,24.9l8.5,21.3l-7.4-21.4L328.6,24.9z"/>
		<path class="st13" d="M327.8,24.9H316l-1.6-1.7l1,1l-1-1l12.8,0.3L327.8,24.9z M315.4,24.2l0.7,0.7L315.4,24.2z"/>
		<path class="st14" d="M316,24.9l-0.7-0.7L316,24.9z"/>
		<path class="st15" d="M315.4,24.2l-1-1L315.4,24.2z"/>
		<path class="st16" d="M316.1,25l-0.1-0.1h11.8l0,0h0.7l0,0L316.1,25z"/>
		<path class="st17" d="M316.1,25l-0.1-0.1L316.1,25z"/>
		<path class="st1" d="M329.1,23.5l0.1,0.4L329.1,23.5z"/>
		<path class="st18" d="M329.6,24.9L329.6,24.9l-0.5-1.4h-1.9l0.7,1.4h0.7H329.6z"/>
		<path class="st2" d="M329.6,24.9L329.6,24.9L329.6,24.9z"/>
		<path class="st3" d="M329.6,24.9L329.6,24.9L329.6,24.9z"/>
		<path class="st10" d="M329.6,24.9L329.6,24.9L329.6,24.9z"/>
		<path class="st19" d="M329.6,24.9L329.6,24.9L329.6,24.9z"/>
		<path class="st20" d="M328.6,24.9L328.6,24.9h1H328.6h1H328.6h1H328.6h1l0,0l0,0l0,0l0,0l0,0l0,0l0,0l0,0l0,0l0,0l0,0H328.6z"/>
		<path class="st21" d="M329.6,24.9h-1H329.6z"/>
		<path class="st22" d="M329.6,24.9h-1H329.6z"/>
		<path class="st22" d="M329.6,24.9h-1H329.6z"/>
		<path class="st23" d="M329.6,24.9L329.6,24.9L329.6,24.9z"/>
		<path class="st24" d="M329.6,24.9L329.6,24.9L329.6,24.9z"/>
		<path class="st21" d="M329.6,24.9L329.6,24.9L329.6,24.9z"/>
		<path class="st22" d="M329.6,24.9L329.6,24.9L329.6,24.9z"/>
		<path class="st22" d="M329.6,24.9L329.6,24.9L329.6,24.9z"/>
		<path class="st0" d="M7.9,88.8c0-6.1-0.9-8.3-2.7-8.3c-1,0-1.9,0.6-2.7,1.5v13.5c0.8,1,1.7,1.5,2.7,1.5C7,97.1,7.9,94.3,7.9,88.8z
			 M9.2,88.7c0,6.7-1.2,9.6-3.9,9.6c-1.1,0-2-0.6-2.8-1.5v7l-1.3,0.8V79.5h1.3v1.2c0.8-1,1.8-1.5,2.9-1.5C8,79.2,9.2,82.2,9.2,88.7z
			"/>
		<path class="st0" d="M18.2,87.9v-0.4c-0.1-3.9-0.9-7-2.7-7s-2.7,2.7-2.8,7.4H18.2z M19.5,89.2h-6.8v0.2c0.1,4.6,0.9,7.7,2.9,7.7
			c1.3,0,2.1-1,2.8-3l1.1,0.6c-0.8,2.2-2,3.6-3.9,3.6c-2.9,0-4.2-3.3-4.2-9.4c0-6,1.3-9.6,4.1-9.6c2.7,0,3.9,3.8,3.9,9.5L19.5,89.2z
			"/>
		<path class="st0" d="M27.8,79.5l-0.4,1.4c-0.5-0.2-0.9-0.3-1.6-0.3c-0.9,0-1.7,0.4-2.4,1.2V98h-1.3V79.5h1.3v1.1
			c0.7-0.8,1.6-1.4,2.7-1.4C26.9,79.3,27.4,79.4,27.8,79.5"/>
		<path class="st0" d="M34,96.6l-0.2,1.3c-0.5,0.2-0.9,0.3-1.5,0.3c-0.9,0-1.7-0.4-2.1-1.1c-0.3-0.5-0.4-1.2-0.4-2V80.7h-1.6v-1.2
			h1.6v-6l1.2-0.7v6.7h2.6v1.2H31V95c0,0.5,0.1,1.1,0.3,1.4c0.2,0.4,0.7,0.6,1.2,0.6C33.1,97,33.4,96.9,34,96.6"/>
		<path class="st0" d="M43.6,98h-1.3v-1.1c-0.8,0.8-1.9,1.4-3.2,1.4c-2.4,0-3.2-1.6-3.2-4.7v-14h1.3v13.9c0,2.5,0.6,3.6,2.3,3.6
			c1,0,2-0.6,2.8-1.3V79.5h1.3C43.6,79.5,43.6,98,43.6,98z"/>
		<path class="st0" d="M45.8,98v-1l5.9-16.2h-5.3v-1.2H53v1l-5.9,16.2H53V98H45.8z"/>
		<path class="st0" d="M63,98h-1.3v-1.1c-0.8,0.8-1.9,1.4-3.2,1.4c-2.4,0-3.2-1.6-3.2-4.7v-14h1.3v13.9c0,2.5,0.6,3.6,2.3,3.6
			c1,0,2-0.6,2.8-1.3V79.5H63V98z"/>
		<path class="st0" d="M66.2,98V79.5h1.3v1.1c0.8-0.8,1.9-1.4,3.1-1.4c1.3,0,2.1,0.5,2.6,1.5c1-0.9,2.2-1.5,3.5-1.5
			c1.2,0,2.1,0.5,2.6,1.4c0.4,0.8,0.5,1.9,0.5,3.3V98h-1.3V84c0-1.1-0.1-1.9-0.4-2.5c-0.4-0.7-0.9-1.1-1.8-1.1s-1.9,0.5-2.8,1.3
			c0.1,0.3,0.1,1.8,0.1,2.2v14h-1.3v-14c0-0.9,0-1.7-0.2-2.2c-0.3-0.8-1-1.2-1.9-1.2s-1.8,0.5-2.7,1.3V98H66.2z"/>
		<path class="st0" d="M88.6,95.5v-7c-0.7-0.6-1.4-1-2.6-1c-1.7,0-2.5,1.5-2.5,4.7c0,3.1,0.8,4.8,2.4,4.8
			C86.7,97.1,87.8,96.5,88.6,95.5z M89.9,98h-1.3v-1.2c-0.8,0.9-1.9,1.5-2.9,1.5c-2.2,0-3.5-1.9-3.5-6c0-4.2,1.4-6,3.8-6
			c1.1,0,1.9,0.4,2.6,1v-3.8c0-0.8-0.1-1.5-0.3-2c-0.3-0.7-0.9-1-1.8-1c-1,0-1.9,0.5-2.9,1.6l-0.8-1c0.8-0.9,2.2-1.9,3.8-1.9
			c1.4,0,2.5,0.5,3,1.7c0.2,0.6,0.4,1.4,0.4,2.5L89.9,98z"/>
		<path class="st0" d="M99.6,88.8c0-6.1-0.9-8.3-2.7-8.3c-1,0-1.9,0.6-2.7,1.5v13.5c0.8,1,1.7,1.5,2.7,1.5
			C98.8,97.1,99.6,94.3,99.6,88.8z M100.9,88.7c0,6.7-1.2,9.6-3.9,9.6c-1.1,0-2-0.5-2.8-1.4V98H93V73.2l1.3-0.8v8.4
			c0.8-1,1.8-1.5,2.9-1.5C99.8,79.2,100.9,82.2,100.9,88.7z"/>
		<path class="st0" d="M108.8,70.2l-6.1,30.9h-1.3l6.1-30.9H108.8z"/>
		<path class="st0" d="M114.3,96.6l-0.2,1.3c-0.5,0.2-0.9,0.3-1.5,0.3c-0.9,0-1.7-0.4-2.1-1.1c-0.3-0.5-0.4-1.2-0.4-2V80.7h-1.6
			v-1.2h1.6v-6l1.2-0.7v6.7h2.6v1.2h-2.6V95c0,0.5,0.1,1.1,0.3,1.4c0.2,0.4,0.7,0.6,1.2,0.6S113.7,96.9,114.3,96.6"/>
		<path class="st0" d="M121.9,79.5l-0.4,1.4c-0.5-0.2-0.9-0.3-1.6-0.3c-0.9,0-1.7,0.4-2.4,1.2V98h-1.3V79.5h1.3v1.1
			c0.7-0.8,1.6-1.4,2.7-1.4C121,79.3,121.5,79.4,121.9,79.5"/>
		<path class="st0" d="M128.7,95.5v-7c-0.7-0.6-1.4-1-2.6-1c-1.7,0-2.5,1.5-2.5,4.7c0,3.1,0.8,4.8,2.4,4.8
			C126.8,97.1,127.8,96.5,128.7,95.5z M130,98h-1.3v-1.2c-0.8,0.9-1.9,1.5-2.9,1.5c-2.2,0-3.5-1.9-3.5-6c0-4.2,1.4-6,3.8-6
			c1.1,0,1.9,0.4,2.6,1v-3.8c0-0.8-0.1-1.5-0.3-2c-0.3-0.7-0.9-1-1.8-1c-1,0-1.9,0.5-2.9,1.6l-0.8-1c0.8-0.9,2.2-1.9,3.8-1.9
			c1.4,0,2.5,0.5,3,1.7c0.2,0.6,0.4,1.4,0.4,2.5L130,98z"/>
		<path class="st0" d="M139.9,94.1c0,2.5-1.5,4.2-3.7,4.2c-1.9,0-3.3-1.2-3.9-3.6l1.1-0.7c0.6,2,1.6,3,2.8,3c1.5,0,2.4-1.2,2.4-2.8
			c0-2-0.6-3.2-2.9-5.3c-2.1-1.9-3.2-3.3-3.2-5.7c0-2.3,1.4-4,3.5-4c1.9,0,3,1.2,3.7,3.2l-1.2,0.7c-0.6-1.6-1.3-2.6-2.6-2.6
			s-2.1,1.1-2.1,2.7c0,1.7,0.6,2.7,2.7,4.7C138.8,89.9,139.9,91.5,139.9,94.1"/>
		<path class="st0" d="M146.8,96.6l-0.2,1.3c-0.5,0.2-0.9,0.3-1.5,0.3c-0.9,0-1.7-0.4-2.1-1.1c-0.3-0.5-0.4-1.2-0.4-2V80.7H141v-1.2
			h1.6v-6l1.2-0.7v6.7h2.6v1.2h-2.6V95c0,0.5,0.1,1.1,0.3,1.4c0.2,0.4,0.7,0.6,1.2,0.6S146.2,96.9,146.8,96.6"/>
		<path class="st0" d="M156.3,98H155v-1.1c-0.8,0.8-1.9,1.4-3.2,1.4c-2.4,0-3.2-1.6-3.2-4.7v-14h1.3v13.9c0,2.5,0.6,3.6,2.3,3.6
			c1,0,2-0.6,2.8-1.3V79.5h1.3L156.3,98L156.3,98z"/>
		<path class="st0" d="M158.5,98v-1l5.9-16.2h-5.3v-1.2h6.7v1l-5.9,16.2h5.8V98H158.5z"/>
		<path class="st0" d="M175.8,98h-1.3v-1.1c-0.8,0.8-1.9,1.4-3.2,1.4c-2.4,0-3.2-1.6-3.2-4.7v-14h1.3v13.9c0,2.5,0.6,3.6,2.3,3.6
			c1,0,2-0.6,2.8-1.3V79.5h1.3L175.8,98L175.8,98z"/>
		<path class="st0" d="M179,98V79.5h1.3v1.1c0.8-0.8,1.9-1.4,3.1-1.4c1.3,0,2.1,0.5,2.6,1.5c1-0.9,2.2-1.5,3.5-1.5
			c1.2,0,2.1,0.5,2.6,1.4c0.4,0.8,0.5,1.9,0.5,3.3V98h-1.3V84c0-1.1-0.1-1.9-0.4-2.5c-0.4-0.7-0.9-1.1-1.8-1.1
			c-0.9,0-1.9,0.5-2.8,1.3c0.1,0.3,0.1,1.8,0.1,2.2v14h-1.3v-14c0-0.9,0-1.7-0.2-2.2c-0.3-0.8-1-1.2-1.9-1.2s-1.8,0.5-2.7,1.3V98
			H179z"/>
		<path class="st0" d="M201.3,95.5v-7c-0.7-0.6-1.4-1-2.6-1c-1.7,0-2.5,1.5-2.5,4.7c0,3.1,0.8,4.8,2.4,4.8
			C199.5,97.1,200.5,96.5,201.3,95.5L201.3,95.5z M202.6,98h-1.3v-1.2c-0.8,0.9-1.9,1.5-2.9,1.5c-2.2,0-3.5-1.9-3.5-6
			c0-4.2,1.4-6,3.8-6c1.1,0,1.9,0.4,2.6,1v-3.8c0-0.8-0.1-1.5-0.3-2c-0.3-0.7-0.9-1-1.8-1c-1,0-1.9,0.5-2.9,1.6l-0.8-1
			c0.8-0.9,2.2-1.9,3.8-1.9c1.4,0,2.5,0.5,3,1.7c0.2,0.6,0.4,1.4,0.4,2.5V98H202.6z"/>
		<path class="st0" d="M212.4,88.8c0-6.1-0.9-8.3-2.7-8.3c-1,0-1.9,0.6-2.7,1.5v13.5c0.8,1,1.7,1.5,2.7,1.5
			C211.5,97.1,212.4,94.3,212.4,88.8L212.4,88.8z M213.7,88.7c0,6.7-1.2,9.6-3.9,9.6c-1.1,0-2-0.5-2.8-1.4V98h-1.3V73.2l1.3-0.8v8.4
			c0.8-1,1.8-1.5,2.9-1.5C212.5,79.2,213.7,82.2,213.7,88.7z"/>
		<path class="st0" d="M221.5,70.2l-6.1,30.9h-1.3l6.1-30.9H221.5z"/>
		<path class="st0" d="M223.9,80.6c0.8-0.8,1.9-1.4,3.2-1.4s2.2,0.5,2.7,1.5c0.4,0.8,0.5,1.9,0.5,3.2v14H229V84c0-1-0.1-1.8-0.3-2.4
			c-0.4-0.8-1-1.2-2-1.2s-2,0.6-2.8,1.3V98h-1.3V73.2l1.3-0.8V80.6L223.9,80.6z"/>
		<path class="st0" d="M240.8,79.5l-4.8,24.9h-1.3l1.3-6l-3.6-18.9h1.4l2.1,11.9c0.2,1,0.7,4.1,0.8,4.9c0.1-0.8,0.6-3.9,0.8-4.9
			l2.1-11.9H240.8z"/>
		<path class="st0" d="M248.4,95.5v-7c-0.7-0.6-1.4-1-2.6-1c-1.7,0-2.5,1.5-2.5,4.7c0,3.1,0.8,4.8,2.4,4.8
			C246.6,97.1,247.6,96.5,248.4,95.5L248.4,95.5z M249.7,98h-1.3v-1.2c-0.8,0.9-1.9,1.5-2.9,1.5c-2.2,0-3.5-1.9-3.5-6
			c0-4.2,1.4-6,3.8-6c1.1,0,1.9,0.4,2.6,1v-3.8c0-0.8-0.1-1.5-0.3-2c-0.3-0.7-0.9-1-1.8-1c-1,0-1.9,0.5-2.9,1.6l-0.8-1
			c0.8-0.9,2.2-1.9,3.8-1.9c1.4,0,2.5,0.5,3,1.7c0.2,0.6,0.4,1.4,0.4,2.5L249.7,98z"/>
		<path class="st0" d="M254.3,98H253V73.2l1.3-0.8V98z"/>
		<path class="st0" d="M265.3,98H264v-1.1c-0.8,0.8-1.9,1.4-3.2,1.4c-2.4,0-3.2-1.6-3.2-4.7v-14h1.3v13.9c0,2.5,0.6,3.6,2.3,3.6
			c1,0,2-0.6,2.8-1.3V79.5h1.3L265.3,98L265.3,98z"/>
		<path class="st0" d="M274.1,79.5l-0.4,1.4c-0.5-0.2-0.9-0.3-1.6-0.3c-0.9,0-1.7,0.4-2.4,1.2V98h-1.3V79.5h1.3v1.1
			c0.7-0.8,1.6-1.4,2.7-1.4C273.2,79.3,273.7,79.4,274.1,79.5"/>
		<path class="st0" d="M281.8,88.8c0-5.2-0.9-8.3-3.1-8.3c-2.1,0-3,3.1-3,8.3c0,5.2,0.9,8.2,3.1,8.2C280.9,97,281.8,94,281.8,88.8z
			 M283.1,88.8c0,5.9-1.4,9.5-4.4,9.5s-4.3-3.6-4.3-9.5s1.4-9.5,4.3-9.5C281.7,79.2,283.1,82.8,283.1,88.8z"/>
		<path class="st0" d="M293.5,98h-1.3V84c0-1-0.1-1.8-0.3-2.4c-0.4-0.8-1-1.2-2-1.2s-2,0.6-2.8,1.3V98h-1.3V79.5h1.3v1.1
			c0.8-0.8,1.9-1.4,3.2-1.4c1.3,0,2.2,0.5,2.7,1.5c0.4,0.8,0.5,1.9,0.5,3.2L293.5,98z"/>
		<path class="st0" d="M296.8,98h1.3V79.5h-1.3V98z M297.5,73.2c0.6,0,1.2,0.6,1.2,1.2s-0.6,1.2-1.2,1.2s-1.2-0.5-1.2-1.2
			S296.8,73.2,297.5,73.2z"/>
		<path class="st0" d="M307.7,95.5V82c-0.9-1-1.7-1.5-2.7-1.5c-1.8,0-2.6,2.7-2.6,8.3c0,6.1,0.9,8.3,2.7,8.3
			C306,97.1,306.9,96.5,307.7,95.5L307.7,95.5z M309,98h-1.3v-1.3c-0.8,1-1.8,1.6-2.9,1.6c-2.6,0-3.8-3-3.8-9.5
			c0-6.7,1.2-9.6,3.9-9.6c1.1,0,2,0.6,2.8,1.5v-7.6l1.3-0.8V98z"/>
		<path class="st0" d="M317.9,95.5v-7c-0.7-0.6-1.4-1-2.6-1c-1.7,0-2.5,1.5-2.5,4.7c0,3.1,0.8,4.8,2.4,4.8
			C316,97.1,317.1,96.5,317.9,95.5L317.9,95.5z M319.2,98h-1.3v-1.2c-0.8,0.9-1.9,1.5-2.9,1.5c-2.2,0-3.5-1.9-3.5-6
			c0-4.2,1.4-6,3.8-6c1.1,0,1.9,0.4,2.6,1v-3.8c0-0.8-0.1-1.5-0.3-2c-0.3-0.7-0.9-1-1.8-1c-1,0-1.9,0.5-2.9,1.6l-0.8-1
			c0.8-0.9,2.2-1.9,3.8-1.9c1.4,0,2.5,0.5,3,1.7c0.2,0.6,0.4,1.4,0.4,2.5L319.2,98z"/>
		<path class="st0" d="M329.1,94.1c0,2.5-1.5,4.2-3.7,4.2c-1.9,0-3.3-1.2-3.9-3.6l1.1-0.7c0.6,2,1.6,3,2.8,3c1.5,0,2.4-1.2,2.4-2.8
			c0-2-0.6-3.2-2.9-5.3c-2.1-1.9-3.2-3.3-3.2-5.7c0-2.3,1.4-4,3.5-4c1.9,0,3,1.2,3.7,3.2l-1.2,0.7c-0.6-1.6-1.3-2.6-2.6-2.6
			c-1.3,0-2.1,1.1-2.1,2.7c0,1.7,0.6,2.7,2.7,4.7C328,89.9,329.1,91.5,329.1,94.1"/>
		<path class="st0" d="M337.8,87.9v-0.4c-0.1-3.9-0.9-7-2.7-7s-2.7,2.7-2.8,7.4H337.8z M339.1,89.2h-6.8v0.2
			c0.1,4.6,0.9,7.7,2.9,7.7c1.3,0,2.1-1,2.8-3l1.1,0.6c-0.8,2.2-2,3.6-3.9,3.6c-2.9,0-4.2-3.3-4.2-9.4c0-6,1.3-9.6,4.1-9.6
			c2.7,0,3.9,3.8,3.9,9.5v0.4C339,89.2,339.1,89.2,339.1,89.2z"/>
		<path class="st0" d="M341.1,85.8h5.5v-1.3h-5.5V85.8z"/>
		<path class="st2" d="M7.8,121.8c0,2.3-1.4,4-4,4c-1.8,0-3-1-3.8-2.4l1.6-1.3c0.8,1.2,1.5,1.6,2.4,1.6c1.1,0,1.7-0.7,1.7-1.8
			c0-1.1-0.5-1.8-2.4-3c-1.6-1.1-2.9-2.1-2.9-4.4c0-2.1,1.4-3.6,3.7-3.6c1.7,0,2.7,0.7,3.5,2l-1.5,1.3c-0.7-0.9-1.2-1.3-2.1-1.3
			c-1,0-1.5,0.6-1.5,1.5c0,1.1,0.5,1.7,2.1,2.7C6.4,118.3,7.8,119.4,7.8,121.8"/>
		<path class="st2" d="M18.1,121.3c0,2.8-1.6,4.5-4.1,4.5c-2.4,0-4.1-1.8-4.1-4.4v-10.3h2v10.2c0,1.2,0.5,2.4,2,2.4
			c1.6,0,2.1-1.3,2.1-2.4V111h2L18.1,121.3z"/>
		<path class="st2" d="M26.8,121.2c0-1.6-1-2.3-2.2-2.3H23v4.7h1.8C26,123.6,26.8,123,26.8,121.2z M26.6,115c0-1.4-0.8-1.9-1.9-1.9
			H23v3.9h1.7C25.7,117,26.6,116.4,26.6,115z M28.9,121.2c0,2.9-1.7,4.4-4.1,4.4H21v-14.5h3.6c2.3,0,4,1.1,4,3.8
			c0,1.2-0.5,2.5-1.7,3C28.2,118.4,28.9,119.6,28.9,121.2z"/>
		<path class="st2" d="M38.8,122.1c-0.5,2.2-1.5,3.7-3.9,3.7c-3.1,0-4.3-3.3-4.3-7.5s1.3-7.5,4.3-7.5c2.4,0,3.4,1.5,3.8,3.5
			l-2.1,0.5c-0.3-1.3-0.7-2-1.8-2c-1.8,0-2.2,2.9-2.2,5.4c0,2.7,0.6,5.5,2.3,5.5c1,0,1.4-0.7,1.8-2.2L38.8,122.1z"/>
		<path class="st2" d="M49.1,121.3c0,2.8-1.6,4.5-4.1,4.5c-2.4,0-4.1-1.8-4.1-4.4v-10.3h2v10.2c0,1.2,0.5,2.4,2,2.4
			c1.6,0,2.1-1.3,2.1-2.4V111h2L49.1,121.3L49.1,121.3z"/>
		<path class="st2" d="M58.6,113.1h-2.7v12.5h-2v-12.5h-2.7v-2h7.4V113.1z"/>
		<path class="st2" d="M64.2,119.8l-0.5-2.4c-0.2-1-0.5-2.6-0.6-3.2c-0.1,0.5-0.4,2.2-0.6,3.2l-0.5,2.4H64.2z M67.7,125.6h-2.2
			l-0.9-3.8h-3.2l-0.8,3.8h-2.2l3.6-14.5h2.1L67.7,125.6z"/>
		<path class="st2" d="M77.8,125.6h-1.7l-3.5-7.8c-0.3-0.6-0.8-2-1-2.4c0,0.5,0,2.2,0,2.9v7.3h-2v-14.5h2l3.1,6.9
			c0.3,0.6,0.8,2,1,2.4c0-0.5,0-2.2,0-2.9v-6.4h2L77.8,125.6z"/>
		<path class="st2" d="M87.8,125.6h-7.1v-14.5h6.8v2h-4.8v3.9h3.1v1.9h-3.1v4.7h5.1V125.6z"/>
		<path class="st2" d="M95.7,118.4c0-2.7-0.6-5.5-2.4-5.5s-2.3,2.7-2.3,5.4c0,2.7,0.6,5.5,2.3,5.5C95.1,123.8,95.7,121,95.7,118.4z
			 M97.7,118.3c0,4.2-1.3,7.5-4.4,7.5s-4.4-3.3-4.4-7.5s1.3-7.5,4.4-7.5S97.7,114.1,97.7,118.3z"/>
		<path class="st2" d="M108.2,121.3c0,2.8-1.6,4.5-4.1,4.5c-2.4,0-4.1-1.8-4.1-4.4v-10.3h2v10.2c0,1.2,0.5,2.4,2,2.4
			c1.6,0,2.1-1.3,2.1-2.4V111h2L108.2,121.3L108.2,121.3z"/>
		<path class="st2" d="M117.9,121.8c0,2.3-1.4,4-4,4c-1.8,0-3-1-3.8-2.4l1.6-1.3c0.8,1.2,1.5,1.6,2.4,1.6c1.1,0,1.7-0.7,1.7-1.8
			c0-1.1-0.5-1.8-2.4-3c-1.6-1.1-2.9-2.1-2.9-4.4c0-2.1,1.4-3.6,3.7-3.6c1.7,0,2.7,0.7,3.5,2l-1.5,1.3c-0.7-0.9-1.2-1.3-2.1-1.3
			c-1,0-1.5,0.6-1.5,1.5c0,1.1,0.5,1.7,2.1,2.7C116.5,118.3,117.9,119.4,117.9,121.8"/>
		<path class="st2" d="M124.9,125.6h2v-14.5h-2V125.6z"/>
		<path class="st2" d="M138,125.6h-1.7l-3.5-7.8c-0.3-0.6-0.8-2-1-2.4c0,0.5,0,2.2,0,2.9v7.3h-2v-14.5h2l3.1,6.9
			c0.3,0.6,0.8,2,1,2.4c0-0.5,0-2.2,0-2.9v-6.4h2L138,125.6z"/>
		<path class="st2" d="M147.2,121.4c0,2.8-1.2,4.4-3.7,4.4c-2.4,0-3.4-1.6-3.7-3.8l1.8-0.5c0.3,1.6,0.8,2.2,1.8,2.2
			c1.3,0,1.7-0.9,1.7-2.3V111h2L147.2,121.4z"/>
		<path class="st2" d="M157.1,125.6H150v-14.5h6.8v2H152v3.9h3.1v1.9H152v4.7h5.1V125.6z"/>
		<path class="st2" d="M166.4,122.1c-0.5,2.2-1.5,3.7-3.9,3.7c-3.1,0-4.3-3.3-4.3-7.5s1.3-7.5,4.3-7.5c2.4,0,3.4,1.5,3.8,3.5
			l-2.1,0.5c-0.3-1.3-0.7-2-1.8-2c-1.8,0-2.2,2.9-2.2,5.4c0,2.7,0.6,5.5,2.3,5.5c1,0,1.4-0.7,1.8-2.2L166.4,122.1z"/>
		<path class="st2" d="M175.2,113.1h-2.7v12.5h-2v-12.5h-2.7v-2h7.4V113.1z"/>
		<path class="st2" d="M177.4,125.6h2v-14.5h-2V125.6z"/>
		<path class="st2" d="M188.6,118.4c0-2.7-0.6-5.5-2.4-5.5s-2.3,2.7-2.3,5.4c0,2.7,0.6,5.5,2.3,5.5
			C188.1,123.8,188.6,121,188.6,118.4z M190.7,118.3c0,4.2-1.3,7.5-4.4,7.5s-4.4-3.3-4.4-7.5s1.3-7.5,4.4-7.5
			S190.7,114.1,190.7,118.3L190.7,118.3z"/>
		<path class="st2" d="M201.2,125.6h-1.7l-3.5-7.8c-0.3-0.6-0.8-2-1-2.4c0,0.5,0,2.2,0,2.9v7.3h-2v-14.5h2l3.1,6.9
			c0.3,0.6,0.8,2,1,2.4c0-0.5,0-2.2,0-2.9v-6.4h2L201.2,125.6z"/>
		<g>
			<path class="st0" d="M221.6,114.5v-5.6l-1.1,0.6h-0.1c-0.1,0-0.3-0.1-0.3-0.3c0-0.1,0.1-0.2,0.2-0.2l1.6-0.9h0.1
				c0.1,0,0.2,0.1,0.2,0.2v6.2c0,0.2-0.1,0.3-0.3,0.3C221.7,114.8,221.6,114.6,221.6,114.5"/>
			<path class="st0" d="M224.3,114.1c0-0.1,0.1-0.2,0.3-0.2h0.2c0.1,0,0.2,0,0.2,0.1s0,0.1,0,0.2l-0.7,1.6c-0.1,0.1-0.2,0.2-0.3,0.2
				h-0.1c-0.1,0-0.2,0-0.2-0.1c0,0,0-0.1,0-0.2L224.3,114.1z"/>
			<path class="st0" d="M226.4,114.5l0.1-0.2l2.5-2.7c0.6-0.6,1-1.1,1-1.8s-0.6-1.3-1.5-1.3c-0.8,0-1.5,0.6-1.5,1.3
				c0,0.1-0.1,0.2-0.3,0.2s-0.3-0.1-0.3-0.3c0-1,1-1.7,2.1-1.7c1.2,0,2.1,0.8,2.1,1.8c0,0.8-0.5,1.3-1.1,2l-2.1,2.3h3.3
				c0.1,0,0.3,0.1,0.3,0.3s-0.1,0.3-0.3,0.3h-4C226.5,114.7,226.4,114.6,226.4,114.5"/>
			<path class="st0" d="M236.1,112.6v-2.4c0-0.9-0.8-1.6-1.7-1.6s-1.7,0.7-1.7,1.6v2.4c0,0.9,0.8,1.7,1.7,1.7
				C235.3,114.3,236.1,113.5,236.1,112.6z M232.1,112.6v-2.3c0-1.2,1-2.2,2.3-2.2s2.3,1,2.3,2.2v2.3c0,1.2-1,2.2-2.3,2.2
				C233.1,114.8,232.1,113.8,232.1,112.6z"/>
			<path class="st0" d="M242.2,112.6v-2.4c0-0.9-0.8-1.6-1.7-1.6s-1.7,0.7-1.7,1.6v2.4c0,0.9,0.8,1.7,1.7,1.7
				C241.4,114.3,242.2,113.5,242.2,112.6z M238.2,112.6v-2.3c0-1.2,1-2.2,2.3-2.2s2.3,1,2.3,2.2v2.3c0,1.2-1,2.2-2.3,2.2
				C239.3,114.8,238.2,113.8,238.2,112.6z"/>
			<path class="st0" d="M246.8,114.5v-4.2c0-0.2,0.1-0.3,0.3-0.3s0.3,0.1,0.3,0.2v1c0.3-0.8,0.9-1.3,1.7-1.3c0.9,0,1.5,0.6,1.7,1.4
				c0.3-0.9,1-1.4,1.8-1.4c1.2,0,2,0.9,2,2.1v2.4c0,0.2-0.1,0.3-0.3,0.3s-0.3-0.1-0.3-0.3V112c0-0.9-0.6-1.6-1.5-1.6
				c-0.8,0-1.5,0.7-1.5,1.7v2.3c0,0.2-0.1,0.3-0.3,0.3s-0.3-0.1-0.3-0.3V112c0-0.9-0.6-1.6-1.5-1.6c-0.8,0-1.5,0.8-1.5,1.7v2.3
				c0,0.2-0.1,0.3-0.3,0.3S246.8,114.7,246.8,114.5"/>
			<path class="st0" d="M260.5,112.3c0-1-0.9-1.9-1.9-1.9s-1.9,0.8-1.9,1.9c0,1,0.8,1.9,1.9,1.9
				C259.6,114.2,260.5,113.4,260.5,112.3z M256.4,115.8c-0.1-0.1-0.1-0.2-0.1-0.2c0-0.1,0.1-0.3,0.3-0.3c0.1,0,0.2,0,0.2,0.1
				c0.4,0.7,1.1,1,1.8,1c1.1,0,2-0.8,2-1.9v-1.3l0,0c-0.3,0.9-1.1,1.5-2.1,1.5c-1.3,0-2.4-1-2.4-2.4s1.2-2.4,2.4-2.4
				c0.9,0,1.8,0.6,2.1,1.4l0,0v-1.2c0-0.1,0.1-0.2,0.3-0.2c0.2,0,0.3,0.1,0.3,0.3v4.2c0,1.5-1.1,2.5-2.6,2.5
				C257.5,117,256.7,116.4,256.4,115.8L256.4,115.8z"/>
			<path class="st0" d="M264.7,107.6c0-0.1,0.1-0.2,0.3-0.2h0.1c0.1,0,0.1,0,0.2,0.1c0,0.1,0,0.1,0,0.2l-2.3,7.2
				c-0.1,0.1-0.1,0.2-0.3,0.2h-0.1c-0.1,0-0.2,0-0.2-0.1s0-0.1,0-0.2L264.7,107.6z"/>
			<path class="st0" d="M270.4,112.6c0-0.9-0.8-1.7-1.7-1.7c-0.9,0-1.7,0.8-1.7,1.7c0,0.9,0.7,1.7,1.7,1.7
				C269.6,114.3,270.4,113.5,270.4,112.6z M266.4,112.6c0-0.4,0.2-0.9,0.4-1.3l1.7-3c0.1-0.1,0.2-0.2,0.3-0.2c0.3,0,0.3,0.3,0.2,0.4
				l-1.4,2.4c0.3-0.3,0.7-0.4,1.1-0.4c1.2,0,2.2,1,2.2,2.2s-1,2.2-2.3,2.2C267.4,114.8,266.4,113.8,266.4,112.6L266.4,112.6z"/>
			<path class="st0" d="M276.2,112.6v-2.4c0-0.9-0.8-1.6-1.7-1.6c-0.9,0-1.7,0.7-1.7,1.6v2.4c0,0.9,0.8,1.7,1.7,1.7
				C275.5,114.3,276.2,113.5,276.2,112.6z M272.3,112.6v-2.3c0-1.2,1-2.2,2.3-2.2s2.3,1,2.3,2.2v2.3c0,1.2-1,2.2-2.3,2.2
				C273.3,114.8,272.3,113.8,272.3,112.6z"/>
			<path class="st0" d="M282.4,112.6v-2.4c0-0.9-0.8-1.6-1.7-1.6c-0.9,0-1.7,0.7-1.7,1.6v2.4c0,0.9,0.8,1.7,1.7,1.7
				C281.6,114.3,282.4,113.5,282.4,112.6z M278.4,112.6v-2.3c0-1.2,1-2.2,2.3-2.2s2.3,1,2.3,2.2v2.3c0,1.2-1,2.2-2.3,2.2
				C279.4,114.8,278.4,113.8,278.4,112.6z"/>
			<path class="st0" d="M287,114.5v-4.2c0-0.2,0.1-0.3,0.3-0.3c0.2,0,0.3,0.1,0.3,0.2v1c0.3-0.8,0.9-1.3,1.7-1.3
				c0.9,0,1.5,0.6,1.7,1.4c0.3-0.9,1-1.4,1.8-1.4c1.2,0,2,0.9,2,2.1v2.4c0,0.2-0.1,0.3-0.3,0.3c-0.2,0-0.3-0.1-0.3-0.3V112
				c0-0.9-0.6-1.6-1.5-1.6c-0.8,0-1.5,0.7-1.5,1.7v2.3c0,0.2-0.1,0.3-0.3,0.3s-0.3-0.1-0.3-0.3V112c0-0.9-0.6-1.6-1.5-1.6
				c-0.8,0-1.5,0.8-1.5,1.7v2.3c0,0.2-0.1,0.3-0.3,0.3C287.1,114.8,287,114.7,287,114.5"/>
			<path class="st0" d="M300.7,112.3c0-1-0.9-1.9-1.9-1.9s-1.9,0.8-1.9,1.9c0,1,0.8,1.9,1.9,1.9
				C299.8,114.2,300.7,113.4,300.7,112.3z M296.5,115.8c-0.1-0.1-0.1-0.2-0.1-0.2c0-0.1,0.1-0.3,0.3-0.3c0.1,0,0.2,0,0.2,0.1
				c0.4,0.7,1.1,1,1.8,1c1.1,0,2-0.8,2-1.9v-1.3l0,0c-0.3,0.9-1.1,1.5-2.1,1.5c-1.3,0-2.4-1-2.4-2.4s1.2-2.4,2.4-2.4
				c0.9,0,1.8,0.6,2.1,1.4l0,0v-1.2c0-0.1,0.1-0.2,0.3-0.2c0.2,0,0.3,0.1,0.3,0.3v4.2c0,1.5-1.1,2.5-2.6,2.5
				C297.7,117,296.9,116.4,296.5,115.8L296.5,115.8z"/>
			<path class="st0" d="M304.9,107.6c0-0.1,0.1-0.2,0.3-0.2h0.1c0.1,0,0.1,0,0.2,0.1c0,0.1,0,0.1,0,0.2l-2.3,7.2
				c-0.1,0.1-0.1,0.2-0.3,0.2h-0.1c-0.1,0-0.2,0-0.2-0.1s0-0.1,0-0.2L304.9,107.6z"/>
			<path class="st0" d="M306.6,113.1c0-0.2,0.1-0.3,0.3-0.3c0.1,0,0.2,0.1,0.3,0.2c0.1,0.7,0.6,1.3,1.5,1.3c1,0,1.6-0.6,1.6-1.5
				c0-0.8-0.7-1.4-1.6-1.4h-0.6c-0.1,0-0.2-0.1-0.2-0.2s0.1-0.2,0.2-0.2h0.6c0.7,0,1.4-0.5,1.4-1.3c0-0.7-0.5-1.2-1.4-1.2
				c-0.8,0-1.3,0.5-1.4,1.2c0,0.1-0.1,0.2-0.3,0.2c-0.1,0-0.3-0.1-0.3-0.3c0-0.9,0.8-1.6,1.9-1.6c1.2,0,2,0.7,2,1.7
				c0,0.8-0.5,1.4-1.3,1.6c0.9,0.2,1.5,0.8,1.5,1.7c0,1.1-0.8,1.9-2.2,1.9C307.5,114.8,306.6,114.1,306.6,113.1"/>
			<path class="st0" d="M316.3,112.6v-2.4c0-0.9-0.8-1.6-1.7-1.6c-0.9,0-1.7,0.7-1.7,1.6v2.4c0,0.9,0.8,1.7,1.7,1.7
				C315.5,114.3,316.3,113.5,316.3,112.6z M312.3,112.6v-2.3c0-1.2,1-2.2,2.3-2.2s2.3,1,2.3,2.2v2.3c0,1.2-1,2.2-2.3,2.2
				C313.3,114.8,312.3,113.8,312.3,112.6z"/>
			<path class="st0" d="M318.5,114.1c0-0.1,0.1-0.2,0.3-0.2h0.2c0.1,0,0.2,0,0.2,0.1s0,0.1,0,0.2l-0.7,1.6c-0.1,0.1-0.2,0.2-0.3,0.2
				h-0.1c-0.1,0-0.2,0-0.2-0.1c0,0,0-0.1,0-0.2L318.5,114.1z"/>
			<path class="st0" d="M324.7,112.6v-2.4c0-0.9-0.8-1.6-1.7-1.6c-0.9,0-1.7,0.7-1.7,1.6v2.4c0,0.9,0.8,1.7,1.7,1.7
				C323.9,114.3,324.7,113.5,324.7,112.6z M320.7,112.6v-2.3c0-1.2,1-2.2,2.3-2.2s2.3,1,2.3,2.2v2.3c0,1.2-1,2.2-2.3,2.2
				C321.7,114.8,320.7,113.8,320.7,112.6z"/>
			<path class="st0" d="M330.8,112.6v-2.4c0-0.9-0.8-1.6-1.7-1.6c-0.9,0-1.7,0.7-1.7,1.6v2.4c0,0.9,0.8,1.7,1.7,1.7
				C330.1,114.3,330.8,113.5,330.8,112.6z M326.8,112.6v-2.3c0-1.2,1-2.2,2.3-2.2s2.3,1,2.3,2.2v2.3c0,1.2-1,2.2-2.3,2.2
				C327.9,114.8,326.8,113.8,326.8,112.6z"/>
			<path class="st0" d="M337,112.6v-2.4c0-0.9-0.8-1.6-1.7-1.6c-0.9,0-1.7,0.7-1.7,1.6v2.4c0,0.9,0.8,1.7,1.7,1.7
				C336.2,114.3,337,113.5,337,112.6z M333,112.6v-2.3c0-1.2,1-2.2,2.3-2.2s2.3,1,2.3,2.2v2.3c0,1.2-1,2.2-2.3,2.2
				C334,114.8,333,113.8,333,112.6z"/>
			<path class="st0" d="M345.9,110.2v4.3c0,0.2-0.1,0.3-0.3,0.3c-0.2,0-0.3-0.1-0.3-0.2v-1.2l0,0c-0.2,0.9-1,1.5-1.8,1.5
				c-1.2,0-2.1-1-2.1-2.3v-2.3c0-0.2,0.1-0.3,0.3-0.3c0.2,0,0.3,0.1,0.3,0.3v2.2c0,1,0.7,1.8,1.6,1.8s1.6-0.8,1.6-1.9v-2.1
				c0-0.2,0.1-0.3,0.3-0.3C345.7,109.9,345.9,110.1,345.9,110.2"/>
			<path class="st0" d="M347.6,114.5v-4.2c0-0.2,0.1-0.3,0.3-0.3c0.2,0,0.3,0.1,0.3,0.2v1.2l0,0c0.2-0.9,1-1.5,1.8-1.5
				c1.3,0,2.1,1,2.1,2.3v2.3c0,0.2-0.1,0.3-0.3,0.3c-0.2,0-0.3-0.1-0.3-0.3v-2.2c0-1-0.7-1.8-1.7-1.8c-0.9,0-1.7,0.8-1.7,1.9v2.1
				c0,0.2-0.1,0.3-0.3,0.3C347.8,114.8,347.6,114.7,347.6,114.5"/>
			<path class="st0" d="M353.8,114.5v-4.2c0-0.2,0.1-0.3,0.3-0.3c0.2,0,0.3,0.1,0.3,0.3v4.2c0,0.2-0.1,0.3-0.3,0.3
				C354,114.8,353.8,114.6,353.8,114.5z M353.7,108.5c0-0.2,0.2-0.4,0.5-0.4s0.5,0.2,0.5,0.4c0,0.2-0.2,0.4-0.5,0.4
				C353.9,109,353.7,108.8,353.7,108.5z"/>
			<path class="st0" d="M359.1,114.4c0,0.1-0.1,0.2-0.2,0.3c-0.2,0.1-0.4,0.1-0.7,0.1c-1.1,0-1.7-0.8-1.7-1.7v-2.6h-0.8
				c-0.1,0-0.2-0.1-0.2-0.2s0.1-0.2,0.2-0.2h0.8V109c0-0.2,0.1-0.3,0.3-0.3c0.2,0,0.3,0.1,0.3,0.3v1.1h1.7c0.1,0,0.2,0.1,0.2,0.2
				s-0.1,0.2-0.2,0.2h-1.7v2.6c0,0.7,0.3,1.2,1.1,1.2c0.2,0,0.4-0.1,0.6-0.1C359,114.2,359.1,114.3,359.1,114.4"/>
			<path class="st0" d="M360.2,114.6c-0.1-0.1-0.2-0.1-0.2-0.3c0-0.1,0.1-0.3,0.3-0.2c0.6,0.2,1.2,0.3,1.7,0.3
				c0.7,0,1.5-0.2,1.5-0.8c0-0.6-0.9-0.8-1.7-1c-0.9-0.2-1.8-0.5-1.8-1.4c0-0.8,0.8-1.3,2-1.3c0.6,0,1.2,0.1,1.7,0.3
				c0.1,0.1,0.2,0.1,0.2,0.2s-0.1,0.3-0.3,0.2c-0.5-0.2-1.1-0.3-1.6-0.3c-0.7,0-1.3,0.2-1.3,0.8c0,0.6,0.8,0.8,1.5,0.9
				c1,0.2,2,0.4,2,1.4c0,0.9-0.9,1.3-2.2,1.3C361.4,114.8,360.7,114.8,360.2,114.6"/>
			<path class="st0" d="M221.4,125.4c0-0.9-0.8-1.7-1.7-1.7s-1.7,0.8-1.7,1.7c0,0.9,0.7,1.7,1.7,1.7
				C220.6,127,221.4,126.3,221.4,125.4z M217.4,125.4c0-0.4,0.2-0.9,0.4-1.3l1.7-3c0.1-0.1,0.2-0.2,0.3-0.2c0.3,0,0.3,0.3,0.2,0.4
				l-1.4,2.4c0.3-0.3,0.7-0.4,1.1-0.4c1.2,0,2.2,1,2.2,2.2s-1,2.2-2.3,2.2C218.4,127.6,217.4,126.6,217.4,125.4L217.4,125.4z"/>
			<path class="st0" d="M227.2,125.4V123c0-0.9-0.8-1.6-1.7-1.6s-1.7,0.7-1.7,1.6v2.4c0,0.9,0.8,1.7,1.7,1.7
				C226.5,127,227.2,126.3,227.2,125.4z M223.2,125.3V123c0-1.2,1-2.2,2.3-2.2s2.3,1,2.3,2.2v2.3c0,1.2-1,2.2-2.3,2.2
				C224.3,127.6,223.2,126.6,223.2,125.3z"/>
			<path class="st0" d="M233.4,125.4V123c0-0.9-0.8-1.6-1.7-1.6s-1.7,0.7-1.7,1.6v2.4c0,0.9,0.8,1.7,1.7,1.7
				C232.6,127,233.4,126.3,233.4,125.4z M229.4,125.3V123c0-1.2,1-2.2,2.3-2.2s2.3,1,2.3,2.2v2.3c0,1.2-1,2.2-2.3,2.2
				C230.4,127.6,229.4,126.6,229.4,125.3z"/>
			<path class="st0" d="M237.9,127.2V123c0-0.2,0.1-0.3,0.3-0.3s0.3,0.1,0.3,0.2v1c0.3-0.8,0.9-1.3,1.7-1.3c0.9,0,1.5,0.6,1.7,1.4
				c0.3-0.9,1-1.4,1.8-1.4c1.2,0,2,0.9,2,2.1v2.4c0,0.2-0.1,0.3-0.3,0.3s-0.3-0.1-0.3-0.3v-2.4c0-0.9-0.6-1.6-1.5-1.6
				c-0.8,0-1.5,0.7-1.5,1.7v2.3c0,0.2-0.1,0.3-0.3,0.3s-0.3-0.1-0.3-0.3v-2.4c0-0.9-0.6-1.6-1.5-1.6c-0.8,0-1.5,0.8-1.5,1.7v2.3
				c0,0.2-0.1,0.3-0.3,0.3C238.1,127.5,237.9,127.4,237.9,127.2"/>
			<path class="st0" d="M251.7,125c0-1-0.9-1.9-1.9-1.9s-1.9,0.8-1.9,1.9c0,1,0.8,1.9,1.9,1.9C250.8,127,251.7,126.1,251.7,125z
				 M247.5,128.6c-0.1-0.1-0.1-0.2-0.1-0.2c0-0.1,0.1-0.3,0.3-0.3c0.1,0,0.2,0,0.2,0.1c0.4,0.7,1.1,1,1.8,1c1.1,0,2-0.8,2-1.9V126
				l0,0c-0.3,0.9-1.1,1.5-2.1,1.5c-1.3,0-2.4-1-2.4-2.4s1.2-2.4,2.4-2.4c0.9,0,1.8,0.6,2.1,1.4l0,0v-1.2c0-0.1,0.1-0.2,0.3-0.2
				s0.3,0.1,0.3,0.3v4.2c0,1.5-1.1,2.5-2.6,2.5C248.7,129.7,247.8,129.2,247.5,128.6L247.5,128.6z"/>
			<path class="st0" d="M255.9,120.4c0-0.1,0.1-0.2,0.3-0.2h0.1c0.1,0,0.1,0,0.2,0.1c0,0.1,0,0.1,0,0.2l-2.3,7.2
				c-0.1,0.1-0.1,0.2-0.3,0.2h-0.1c-0.1,0-0.2,0-0.2-0.1s0-0.1,0-0.2L255.9,120.4z"/>
			<path class="st0" d="M261.5,125.4c0-0.9-0.8-1.7-1.7-1.7c-0.9,0-1.7,0.8-1.7,1.7c0,0.9,0.7,1.7,1.7,1.7
				C260.8,127,261.5,126.3,261.5,125.4z M257.6,125.4c0-0.4,0.2-0.9,0.4-1.3l1.7-3c0.1-0.1,0.2-0.2,0.3-0.2c0.3,0,0.3,0.3,0.2,0.4
				l-1.4,2.4c0.3-0.3,0.7-0.4,1.1-0.4c1.2,0,2.2,1,2.2,2.2s-1,2.2-2.3,2.2C258.6,127.6,257.6,126.6,257.6,125.4L257.6,125.4z"/>
			<path class="st0" d="M267.4,125.4V123c0-0.9-0.8-1.6-1.7-1.6c-0.9,0-1.7,0.7-1.7,1.6v2.4c0,0.9,0.8,1.7,1.7,1.7
				C266.6,127,267.4,126.3,267.4,125.4z M263.4,125.3V123c0-1.2,1-2.2,2.3-2.2s2.3,1,2.3,2.2v2.3c0,1.2-1,2.2-2.3,2.2
				C264.5,127.6,263.4,126.6,263.4,125.3z"/>
			<path class="st0" d="M273.6,125.4V123c0-0.9-0.8-1.6-1.7-1.6c-0.9,0-1.7,0.7-1.7,1.6v2.4c0,0.9,0.8,1.7,1.7,1.7
				C272.8,127,273.6,126.3,273.6,125.4z M269.6,125.3V123c0-1.2,1-2.2,2.3-2.2s2.3,1,2.3,2.2v2.3c0,1.2-1,2.2-2.3,2.2
				C270.6,127.6,269.6,126.6,269.6,125.3z"/>
			<path class="st0" d="M278.1,127.2V123c0-0.2,0.1-0.3,0.3-0.3c0.2,0,0.3,0.1,0.3,0.2v1c0.3-0.8,0.9-1.3,1.7-1.3
				c0.9,0,1.5,0.6,1.7,1.4c0.3-0.9,1-1.4,1.8-1.4c1.2,0,2,0.9,2,2.1v2.4c0,0.2-0.1,0.3-0.3,0.3s-0.3-0.1-0.3-0.3v-2.4
				c0-0.9-0.6-1.6-1.5-1.6c-0.8,0-1.5,0.7-1.5,1.7v2.3c0,0.2-0.1,0.3-0.3,0.3s-0.3-0.1-0.3-0.3v-2.4c0-0.9-0.6-1.6-1.5-1.6
				c-0.8,0-1.5,0.8-1.5,1.7v2.3c0,0.2-0.1,0.3-0.3,0.3C278.3,127.5,278.1,127.4,278.1,127.2"/>
			<path class="st0" d="M291.8,125c0-1-0.9-1.9-1.9-1.9s-1.9,0.8-1.9,1.9c0,1,0.8,1.9,1.9,1.9C291,127,291.8,126.1,291.8,125z
				 M287.7,128.6c-0.1-0.1-0.1-0.2-0.1-0.2c0-0.1,0.1-0.3,0.3-0.3c0.1,0,0.2,0,0.2,0.1c0.4,0.7,1.1,1,1.8,1c1.1,0,2-0.8,2-1.9V126
				l0,0c-0.3,0.9-1.1,1.5-2.1,1.5c-1.3,0-2.4-1-2.4-2.4s1.2-2.4,2.4-2.4c0.9,0,1.8,0.6,2.1,1.4l0,0v-1.2c0-0.1,0.1-0.2,0.3-0.2
				c0.2,0,0.3,0.1,0.3,0.3v4.2c0,1.5-1.1,2.5-2.6,2.5C288.9,129.7,288,129.2,287.7,128.6L287.7,128.6z"/>
			<path class="st0" d="M296.1,120.4c0-0.1,0.1-0.2,0.3-0.2h0.1c0.1,0,0.1,0,0.2,0.1c0,0.1,0,0.1,0,0.2l-2.3,7.2
				c-0.1,0.1-0.1,0.2-0.3,0.2H294c-0.1,0-0.2,0-0.2-0.1s0-0.1,0-0.2L296.1,120.4z"/>
			<path class="st0" d="M297.8,127.2l0.1-0.2l2.5-2.7c0.6-0.6,1-1.1,1-1.8c0-0.7-0.6-1.3-1.5-1.3c-0.8,0-1.5,0.6-1.5,1.3
				c0,0.1-0.1,0.2-0.3,0.2c-0.2,0-0.3-0.1-0.3-0.3c0-1,1-1.7,2.1-1.7c1.2,0,2.1,0.8,2.1,1.8c0,0.8-0.5,1.3-1.1,2l-2.1,2.3h3.3
				c0.1,0,0.3,0.1,0.3,0.3s-0.1,0.3-0.3,0.3h-4C297.9,127.5,297.8,127.4,297.8,127.2"/>
			<path class="st0" d="M307.5,125.4V123c0-0.9-0.8-1.6-1.7-1.6c-0.9,0-1.7,0.7-1.7,1.6v2.4c0,0.9,0.8,1.7,1.7,1.7
				C306.7,127,307.5,126.3,307.5,125.4z M303.5,125.3V123c0-1.2,1-2.2,2.3-2.2s2.3,1,2.3,2.2v2.3c0,1.2-1,2.2-2.3,2.2
				C304.5,127.6,303.5,126.6,303.5,125.3z"/>
			<path class="st0" d="M309.7,126.9c0-0.1,0.1-0.2,0.3-0.2h0.2c0.1,0,0.2,0,0.2,0.1s0,0.1,0,0.2l-0.7,1.6c-0.1,0.1-0.2,0.2-0.3,0.2
				h-0.1c-0.1,0-0.2,0-0.2-0.1c0,0,0-0.1,0-0.2L309.7,126.9z"/>
			<path class="st0" d="M315.9,125.4V123c0-0.9-0.8-1.6-1.7-1.6c-0.9,0-1.7,0.7-1.7,1.6v2.4c0,0.9,0.8,1.7,1.7,1.7
				C315.1,127,315.9,126.3,315.9,125.4z M311.9,125.3V123c0-1.2,1-2.2,2.3-2.2s2.3,1,2.3,2.2v2.3c0,1.2-1,2.2-2.3,2.2
				C312.9,127.6,311.9,126.6,311.9,125.3z"/>
			<path class="st0" d="M322,125.4V123c0-0.9-0.8-1.6-1.7-1.6c-0.9,0-1.7,0.7-1.7,1.6v2.4c0,0.9,0.8,1.7,1.7,1.7
				C321.3,127,322,126.3,322,125.4z M318,125.3V123c0-1.2,1-2.2,2.3-2.2s2.3,1,2.3,2.2v2.3c0,1.2-1,2.2-2.3,2.2
				C319.1,127.6,318,126.6,318,125.3z"/>
			<path class="st0" d="M328.2,125.4V123c0-0.9-0.8-1.6-1.7-1.6c-0.9,0-1.7,0.7-1.7,1.6v2.4c0,0.9,0.8,1.7,1.7,1.7
				C327.4,127,328.2,126.3,328.2,125.4z M324.2,125.3V123c0-1.2,1-2.2,2.3-2.2s2.3,1,2.3,2.2v2.3c0,1.2-1,2.2-2.3,2.2
				C325.2,127.6,324.2,126.6,324.2,125.3z"/>
			<path class="st0" d="M337.1,123v4.3c0,0.2-0.1,0.3-0.3,0.3c-0.2,0-0.3-0.1-0.3-0.2v-1.2l0,0c-0.2,0.9-1,1.5-1.8,1.5
				c-1.2,0-2.1-1-2.1-2.3V123c0-0.2,0.1-0.3,0.3-0.3s0.3,0.1,0.3,0.3v2.2c0,1,0.7,1.8,1.6,1.8s1.6-0.8,1.6-1.9V123
				c0-0.2,0.1-0.3,0.3-0.3S337.1,122.8,337.1,123"/>
			<path class="st0" d="M338.8,127.2V123c0-0.2,0.1-0.3,0.3-0.3c0.2,0,0.3,0.1,0.3,0.2v1.2l0,0c0.2-0.9,1-1.5,1.8-1.5
				c1.3,0,2.1,1,2.1,2.3v2.3c0,0.2-0.1,0.3-0.3,0.3s-0.3-0.1-0.3-0.3V125c0-1-0.7-1.8-1.7-1.8c-0.9,0-1.7,0.8-1.7,1.9v2.2
				c0,0.2-0.1,0.3-0.3,0.3S338.8,127.4,338.8,127.2"/>
			<path class="st0" d="M345,127.2V123c0-0.2,0.1-0.3,0.3-0.3s0.3,0.1,0.3,0.3v4.2c0,0.2-0.1,0.3-0.3,0.3S345,127.4,345,127.2z
				 M344.9,121.3c0-0.2,0.2-0.4,0.5-0.4s0.5,0.2,0.5,0.4c0,0.2-0.2,0.4-0.5,0.4C345.1,121.7,344.9,121.5,344.9,121.3z"/>
			<path class="st0" d="M350.3,127.2c0,0.1-0.1,0.2-0.2,0.3c-0.2,0.1-0.4,0.1-0.7,0.1c-1.1,0-1.7-0.8-1.7-1.7v-2.6h-0.8
				c-0.1,0-0.2-0.1-0.2-0.2s0.1-0.2,0.2-0.2h0.8v-1.1c0-0.2,0.1-0.3,0.3-0.3c0.2,0,0.3,0.1,0.3,0.3v1.1h1.7c0.1,0,0.2,0.1,0.2,0.2
				s-0.1,0.2-0.2,0.2h-1.7v2.6c0,0.7,0.3,1.2,1.1,1.2c0.2,0,0.4-0.1,0.6-0.1C350.2,126.9,350.3,127,350.3,127.2"/>
			<path class="st0" d="M351.4,127.3c-0.1-0.1-0.2-0.1-0.2-0.3c0-0.1,0.1-0.3,0.3-0.2c0.6,0.2,1.2,0.2,1.7,0.2
				c0.7,0,1.5-0.2,1.5-0.8c0-0.6-0.9-0.8-1.7-1c-0.9-0.2-1.8-0.5-1.8-1.4c0-0.8,0.8-1.3,2-1.3c0.6,0,1.2,0.1,1.7,0.3
				c0.1,0.1,0.2,0.1,0.2,0.2s-0.1,0.3-0.3,0.2c-0.5-0.2-1.1-0.3-1.6-0.3c-0.7,0-1.3,0.2-1.3,0.8c0,0.6,0.8,0.8,1.5,0.9
				c1,0.2,2,0.4,2,1.4c0,0.9-0.9,1.3-2.2,1.3C352.6,127.6,351.9,127.5,351.4,127.3"/>
		</g>
	</g>
	<path class="st2" d="M211.9,106.1l-6.1,24.5h1.4l6.3-24.5L211.9,106.1z"/>
	<path class="st2" d="M211.9,106.1l-6.1,24.5h1.4l6.3-24.5L211.9,106.1z"/>
	<g>
		<path class="st0" d="M348,98v-1l5.9-16.2h-5.3v-1.2h6.7v1l-5.9,16.2h5.8V98H348z"/>
		<path class="st0" d="M357,98v-1l5.9-16.2h-5.3v-1.2h6.7v1l-5.9,16.2h5.8V98H357z"/>
		<path class="st0" d="M373.7,97.9h-1.3l-1.7-5.3c-0.2-0.6-0.9-2.7-1-3.2c-0.1,0.5-0.8,2.6-1,3.2l-1.7,5.3h-1.3L369,88l-2.9-8.6h1.4
			l1.3,4c0.2,0.6,0.9,2.8,1,3.3c0.1-0.5,0.8-2.7,1-3.3l1.3-3.9h1.3l-3,8.6L373.7,97.9z"/>
		<path class="st25" d="M379,74h1.6v-1.4h-2.1c-1.2,0-2.2,1-2.2,2.2v4.7h-1.7v1.4h1.7V98h1.4V80.8h2.4v-1.4h-2.4v-4.3
			C377.8,74.5,378.3,74,379,74z"/>
	</g>
</g>
<g>
	<g>
		<path class="st26" d="M248.3,30.7c0,3.3-2.6,5.8-5.9,5.8c-3.3,0-5.9-2.6-5.9-5.8s2.6-5.8,5.9-5.8
			C245.7,24.9,248.3,27.5,248.3,30.7z M237.9,30.7c0,2.6,1.9,4.6,4.5,4.6c2.5,0,4.4-2,4.4-4.6s-1.9-4.6-4.4-4.6
			C239.8,26.1,237.9,28.2,237.9,30.7z M241.5,33.7h-1.3v-5.8c0.5-0.1,1.3-0.2,2.2-0.2c1.1,0,1.6,0.2,2,0.4c0.3,0.2,0.6,0.7,0.6,1.3
			c0,0.6-0.5,1.1-1.2,1.3v0.1c0.6,0.2,0.9,0.6,1.1,1.4c0.2,0.9,0.3,1.2,0.4,1.4h-1.4c-0.2-0.2-0.3-0.7-0.5-1.4
			c-0.1-0.6-0.5-0.9-1.2-0.9h-0.6v2.4H241.5z M241.5,30.5h0.6c0.7,0,1.3-0.2,1.3-0.8c0-0.5-0.4-0.9-1.2-0.9c-0.4,0-0.6,0-0.7,0.1
			L241.5,30.5L241.5,30.5z"/>
	</g>
</g>
</svg>
